G04 #@! TF.GenerationSoftware,KiCad,Pcbnew,(5.1.5-0-10_14)*
G04 #@! TF.CreationDate,2020-11-29T10:14:52+01:00*
G04 #@! TF.ProjectId,plate_bot,706c6174-655f-4626-9f74-2e6b69636164,rev?*
G04 #@! TF.SameCoordinates,Original*
G04 #@! TF.FileFunction,Soldermask,Top*
G04 #@! TF.FilePolarity,Negative*
%FSLAX46Y46*%
G04 Gerber Fmt 4.6, Leading zero omitted, Abs format (unit mm)*
G04 Created by KiCad (PCBNEW (5.1.5-0-10_14)) date 2020-11-29 10:14:52*
%MOMM*%
%LPD*%
G04 APERTURE LIST*
%ADD10C,0.100000*%
G04 APERTURE END LIST*
D10*
G36*
X372667754Y-206648318D02*
G01*
X373041011Y-206802926D01*
X373041013Y-206802927D01*
X373376936Y-207027384D01*
X373662616Y-207313064D01*
X373887074Y-207648989D01*
X374041682Y-208022246D01*
X374120500Y-208418493D01*
X374120500Y-208822507D01*
X374041682Y-209218754D01*
X373887074Y-209592011D01*
X373887073Y-209592013D01*
X373662616Y-209927936D01*
X373376936Y-210213616D01*
X373041013Y-210438073D01*
X373041012Y-210438074D01*
X373041011Y-210438074D01*
X372667754Y-210592682D01*
X372271507Y-210671500D01*
X371867493Y-210671500D01*
X371471246Y-210592682D01*
X371097989Y-210438074D01*
X371097988Y-210438074D01*
X371097987Y-210438073D01*
X370762064Y-210213616D01*
X370476384Y-209927936D01*
X370251927Y-209592013D01*
X370251926Y-209592011D01*
X370097318Y-209218754D01*
X370018500Y-208822507D01*
X370018500Y-208418493D01*
X370097318Y-208022246D01*
X370251926Y-207648989D01*
X370476384Y-207313064D01*
X370762064Y-207027384D01*
X371097987Y-206802927D01*
X371097989Y-206802926D01*
X371471246Y-206648318D01*
X371867493Y-206569500D01*
X372271507Y-206569500D01*
X372667754Y-206648318D01*
G37*
G36*
X244914504Y-206648318D02*
G01*
X245287761Y-206802926D01*
X245287763Y-206802927D01*
X245623686Y-207027384D01*
X245909366Y-207313064D01*
X246133824Y-207648989D01*
X246288432Y-208022246D01*
X246367250Y-208418493D01*
X246367250Y-208822507D01*
X246288432Y-209218754D01*
X246133824Y-209592011D01*
X246133823Y-209592013D01*
X245909366Y-209927936D01*
X245623686Y-210213616D01*
X245287763Y-210438073D01*
X245287762Y-210438074D01*
X245287761Y-210438074D01*
X244914504Y-210592682D01*
X244518257Y-210671500D01*
X244114243Y-210671500D01*
X243717996Y-210592682D01*
X243344739Y-210438074D01*
X243344738Y-210438074D01*
X243344737Y-210438073D01*
X243008814Y-210213616D01*
X242723134Y-209927936D01*
X242498677Y-209592013D01*
X242498676Y-209592011D01*
X242344068Y-209218754D01*
X242265250Y-208822507D01*
X242265250Y-208418493D01*
X242344068Y-208022246D01*
X242498676Y-207648989D01*
X242723134Y-207313064D01*
X243008814Y-207027384D01*
X243344737Y-206802927D01*
X243344739Y-206802926D01*
X243717996Y-206648318D01*
X244114243Y-206569500D01*
X244518257Y-206569500D01*
X244914504Y-206648318D01*
G37*
G36*
X117161254Y-206648318D02*
G01*
X117534511Y-206802926D01*
X117534513Y-206802927D01*
X117870436Y-207027384D01*
X118156116Y-207313064D01*
X118380574Y-207648989D01*
X118535182Y-208022246D01*
X118614000Y-208418493D01*
X118614000Y-208822507D01*
X118535182Y-209218754D01*
X118380574Y-209592011D01*
X118380573Y-209592013D01*
X118156116Y-209927936D01*
X117870436Y-210213616D01*
X117534513Y-210438073D01*
X117534512Y-210438074D01*
X117534511Y-210438074D01*
X117161254Y-210592682D01*
X116765007Y-210671500D01*
X116360993Y-210671500D01*
X115964746Y-210592682D01*
X115591489Y-210438074D01*
X115591488Y-210438074D01*
X115591487Y-210438073D01*
X115255564Y-210213616D01*
X114969884Y-209927936D01*
X114745427Y-209592013D01*
X114745426Y-209592011D01*
X114590818Y-209218754D01*
X114512000Y-208822507D01*
X114512000Y-208418493D01*
X114590818Y-208022246D01*
X114745426Y-207648989D01*
X114969884Y-207313064D01*
X115255564Y-207027384D01*
X115591487Y-206802927D01*
X115591489Y-206802926D01*
X115964746Y-206648318D01*
X116360993Y-206569500D01*
X116765007Y-206569500D01*
X117161254Y-206648318D01*
G37*
G36*
X372667754Y-122528318D02*
G01*
X373041011Y-122682926D01*
X373041013Y-122682927D01*
X373376936Y-122907384D01*
X373662616Y-123193064D01*
X373887074Y-123528989D01*
X374041682Y-123902246D01*
X374120500Y-124298493D01*
X374120500Y-124702507D01*
X374041682Y-125098754D01*
X373887074Y-125472011D01*
X373887073Y-125472013D01*
X373662616Y-125807936D01*
X373376936Y-126093616D01*
X373041013Y-126318073D01*
X373041012Y-126318074D01*
X373041011Y-126318074D01*
X372667754Y-126472682D01*
X372271507Y-126551500D01*
X371867493Y-126551500D01*
X371471246Y-126472682D01*
X371097989Y-126318074D01*
X371097988Y-126318074D01*
X371097987Y-126318073D01*
X370762064Y-126093616D01*
X370476384Y-125807936D01*
X370251927Y-125472013D01*
X370251926Y-125472011D01*
X370097318Y-125098754D01*
X370018500Y-124702507D01*
X370018500Y-124298493D01*
X370097318Y-123902246D01*
X370251926Y-123528989D01*
X370476384Y-123193064D01*
X370762064Y-122907384D01*
X371097987Y-122682927D01*
X371097989Y-122682926D01*
X371471246Y-122528318D01*
X371867493Y-122449500D01*
X372271507Y-122449500D01*
X372667754Y-122528318D01*
G37*
G36*
X244914504Y-122528318D02*
G01*
X245287761Y-122682926D01*
X245287763Y-122682927D01*
X245623686Y-122907384D01*
X245909366Y-123193064D01*
X246133824Y-123528989D01*
X246288432Y-123902246D01*
X246367250Y-124298493D01*
X246367250Y-124702507D01*
X246288432Y-125098754D01*
X246133824Y-125472011D01*
X246133823Y-125472013D01*
X245909366Y-125807936D01*
X245623686Y-126093616D01*
X245287763Y-126318073D01*
X245287762Y-126318074D01*
X245287761Y-126318074D01*
X244914504Y-126472682D01*
X244518257Y-126551500D01*
X244114243Y-126551500D01*
X243717996Y-126472682D01*
X243344739Y-126318074D01*
X243344738Y-126318074D01*
X243344737Y-126318073D01*
X243008814Y-126093616D01*
X242723134Y-125807936D01*
X242498677Y-125472013D01*
X242498676Y-125472011D01*
X242344068Y-125098754D01*
X242265250Y-124702507D01*
X242265250Y-124298493D01*
X242344068Y-123902246D01*
X242498676Y-123528989D01*
X242723134Y-123193064D01*
X243008814Y-122907384D01*
X243344737Y-122682927D01*
X243344739Y-122682926D01*
X243717996Y-122528318D01*
X244114243Y-122449500D01*
X244518257Y-122449500D01*
X244914504Y-122528318D01*
G37*
G36*
X117161254Y-122528318D02*
G01*
X117534511Y-122682926D01*
X117534513Y-122682927D01*
X117870436Y-122907384D01*
X118156116Y-123193064D01*
X118380574Y-123528989D01*
X118535182Y-123902246D01*
X118614000Y-124298493D01*
X118614000Y-124702507D01*
X118535182Y-125098754D01*
X118380574Y-125472011D01*
X118380573Y-125472013D01*
X118156116Y-125807936D01*
X117870436Y-126093616D01*
X117534513Y-126318073D01*
X117534512Y-126318074D01*
X117534511Y-126318074D01*
X117161254Y-126472682D01*
X116765007Y-126551500D01*
X116360993Y-126551500D01*
X115964746Y-126472682D01*
X115591489Y-126318074D01*
X115591488Y-126318074D01*
X115591487Y-126318073D01*
X115255564Y-126093616D01*
X114969884Y-125807936D01*
X114745427Y-125472013D01*
X114745426Y-125472011D01*
X114590818Y-125098754D01*
X114512000Y-124702507D01*
X114512000Y-124298493D01*
X114590818Y-123902246D01*
X114745426Y-123528989D01*
X114969884Y-123193064D01*
X115255564Y-122907384D01*
X115591487Y-122682927D01*
X115591489Y-122682926D01*
X115964746Y-122528318D01*
X116360993Y-122449500D01*
X116765007Y-122449500D01*
X117161254Y-122528318D01*
G37*
M02*
