M48
; DRILL file {KiCad (5.1.4-0-10_14)} date 2019 September 30, Monday 11:56:09
; FORMAT={-:-/ absolute / inch / decimal}
; #@! TF.CreationDate,2019-09-30T11:56:09+02:00
; #@! TF.GenerationSoftware,Kicad,Pcbnew,(5.1.4-0-10_14)
; #@! TF.FileFunction,Plated,1,2,PTH
FMAT,2
INCH
T1C0.0157
T2C0.0236
T3C0.0591
T4C0.1063
%
G90
G05
T1
X5.49Y-7.2
X5.9385Y-7.2285
X6.665Y-7.2635
X7.42Y-7.2813
X8.005Y-7.299
X8.6606Y-6.98
X8.6706Y-7.1
X8.7Y-6.98
X8.71Y-7.1
X8.85Y-6.45
X8.96Y-6.27
X9.185Y-7.735
X9.3785Y-7.3685
X9.4073Y-7.9073
X9.62Y-7.75
X9.6312Y-7.8397
X9.64Y-7.23
X9.64Y-7.66
X9.6705Y-7.8409
X9.68Y-7.74
X9.73Y-7.5
X9.745Y-7.92
X9.8463Y-7.7518
X9.85Y-7.83
X9.86Y-7.87
X10.0Y-7.09
X10.01Y-7.55
X10.115Y-7.935
X10.14Y-7.97
X10.1962Y-7.5018
X10.2289Y-7.5237
X10.23Y-7.8
X10.24Y-7.9
X10.2754Y-7.5415
X10.29Y-7.1
X10.33Y-7.57
X10.37Y-7.58
X10.47Y-7.87
X11.045Y-7.685
X11.37Y-7.37
X12.81Y-7.32
X12.8963Y-7.1963
X13.05Y-7.09
X13.21Y-7.09
X13.41Y-6.33
X13.41Y-5.85
X13.56Y-5.65
X13.57Y-5.35
X13.76Y-6.33
X13.8033Y-5.5868
X13.92Y-5.36
X13.92Y-5.85
X14.31Y-5.8878
T4
X12.9931Y-5.8081
X9.6181Y-6.5581
X12.9931Y-7.3081
X6.2431Y-5.8081
X6.2431Y-7.3081
T2
G00X13.573Y-5.1142
M15
G01X13.573Y-5.0906
M16
G05
G00X13.573Y-5.2886
M15
G01X13.573Y-5.2453
M16
G05
G00X13.9132Y-5.1142
M15
G01X13.9132Y-5.0906
M16
G05
G00X13.9132Y-5.2886
M15
G01X13.9132Y-5.2453
M16
G05
T3
G00X5.7697Y-7.5059
M15
G01X5.7681Y-7.4831
M16
G05
G00X6.0181Y-7.5831
M15
G01X5.9862Y-7.5256
M16
G05
G00X7.3634Y-7.5059
M15
G01X7.3619Y-7.4831
M16
G05
G00X7.6119Y-7.5831
M15
G01X7.58Y-7.5256
M16
G05
G00X7.2697Y-5.2559
M15
G01X7.2681Y-5.2331
M16
G05
G00X7.5181Y-5.3331
M15
G01X7.4862Y-5.2756
M16
G05
G00X10.3118Y-7.7831
M15
G01X10.3438Y-7.8405
M16
G05
G00X5.9572Y-6.7559
M15
G01X5.9556Y-6.7331
M16
G05
G00X6.2056Y-6.8331
M15
G01X6.1737Y-6.7756
M16
G05
G00X11.0197Y-5.2559
M15
G01X11.0181Y-5.2331
M16
G05
G00X11.2681Y-5.3331
M15
G01X11.2362Y-5.2756
M16
G05
G00X10.5603Y-7.8603
M15
G01X10.5618Y-7.883
M16
G05
G00X7.8322Y-6.0059
M15
G01X7.8306Y-5.9831
M16
G05
G00X8.9572Y-6.7559
M15
G01X8.9556Y-6.7331
M16
G05
G00X9.2056Y-6.8331
M15
G01X9.1737Y-6.7756
M16
G05
G00X12.3322Y-6.0059
M15
G01X12.3306Y-5.9831
M16
G05
G00X12.5806Y-6.0831
M15
G01X12.5487Y-6.0256
M16
G05
G00X5.7697Y-5.2559
M15
G01X5.7681Y-5.2331
M16
G05
G00X6.0181Y-5.3331
M15
G01X5.9862Y-5.2756
M16
G05
G00X5.3947Y-5.2559
M15
G01X5.3931Y-5.2331
M16
G05
G00X5.6431Y-5.3331
M15
G01X5.6112Y-5.2756
M16
G05
G00X10.8322Y-6.0059
M15
G01X10.8306Y-5.9831
M16
G05
G00X11.0806Y-6.0831
M15
G01X11.0487Y-6.0256
M16
G05
G00X11.9572Y-6.7559
M15
G01X11.9556Y-6.7331
M16
G05
G00X12.2056Y-6.8331
M15
G01X12.1737Y-6.7756
M16
G05
G00X8.0806Y-6.0831
M15
G01X8.0487Y-6.0256
M16
G05
G00X5.3009Y-6.0059
M15
G01X5.2994Y-5.9831
M16
G05
G00X6.3322Y-6.0059
M15
G01X6.3306Y-5.9831
M16
G05
G00X6.5806Y-6.0831
M15
G01X6.5487Y-6.0256
M16
G05
G00X14.2681Y-7.5831
M15
G01X14.2362Y-7.5256
M16
G05
G00X8.2681Y-5.3331
M15
G01X8.2362Y-5.2756
M16
G05
G00X5.5494Y-6.0831
M15
G01X5.5175Y-6.0256
M16
G05
G00X9.5806Y-6.0831
M15
G01X9.5487Y-6.0256
M16
G05
G00X8.0197Y-5.2559
M15
G01X8.0181Y-5.2331
M16
G05
G00X6.5197Y-7.5059
M15
G01X6.5181Y-7.4831
M16
G05
G00X6.7681Y-7.5831
M15
G01X6.7362Y-7.5256
M16
G05
G00X9.3322Y-6.0059
M15
G01X9.3306Y-5.9831
M16
G05
G00X7.7056Y-6.8331
M15
G01X7.6737Y-6.7756
M16
G05
G00X5.0197Y-7.5059
M15
G01X5.0181Y-7.4831
M16
G05
G00X5.2681Y-7.5831
M15
G01X5.2362Y-7.5256
M16
G05
G00X11.2072Y-6.7559
M15
G01X11.2056Y-6.7331
M16
G05
G00X11.4556Y-6.8331
M15
G01X11.4237Y-6.7756
M16
G05
G00X9.5197Y-5.2559
M15
G01X9.5181Y-5.2331
M16
G05
G00X9.7681Y-5.3331
M15
G01X9.7362Y-5.2756
M16
G05
G00X13.9259Y-6.0059
M15
G01X13.9244Y-5.9831
M16
G05
G00X14.1744Y-6.0831
M15
G01X14.1425Y-6.0256
M16
G05
G00X14.0197Y-7.5059
M15
G01X14.0181Y-7.4831
M16
G05
G00X9.7072Y-6.7559
M15
G01X9.7056Y-6.7331
M16
G05
G00X9.9556Y-6.8331
M15
G01X9.9237Y-6.7756
M16
G05
G00X7.4572Y-6.7559
M15
G01X7.4556Y-6.7331
M16
G05
G00X6.7072Y-6.7559
M15
G01X6.7056Y-6.7331
M16
G05
G00X6.9556Y-6.8331
M15
G01X6.9237Y-6.7756
M16
G05
G00X12.9556Y-6.8331
M15
G01X12.9237Y-6.7756
M16
G05
G00X10.0822Y-6.0059
M15
G01X10.0806Y-5.9831
M16
G05
G00X10.3306Y-6.0831
M15
G01X10.2987Y-6.0256
M16
G05
G00X12.7072Y-6.7559
M15
G01X12.7056Y-6.7331
M16
G05
G00X7.0822Y-6.0059
M15
G01X7.0806Y-5.9831
M16
G05
G00X7.3306Y-6.0831
M15
G01X7.2987Y-6.0256
M16
G05
G00X13.9681Y-5.5331
M15
G01X14.0Y-5.5905
M16
G05
G00X11.6759Y-7.5059
M15
G01X11.6744Y-7.4831
M16
G05
G00X11.9244Y-7.5831
M15
G01X11.8925Y-7.5256
M16
G05
G00X5.1134Y-6.7559
M15
G01X5.1119Y-6.7331
M16
G05
G00X5.3619Y-6.8331
M15
G01X5.33Y-6.7756
M16
G05
G00X10.4572Y-6.7559
M15
G01X10.4556Y-6.7331
M16
G05
G00X10.7056Y-6.8331
M15
G01X10.6737Y-6.7756
M16
G05
G00X8.2072Y-6.7559
M15
G01X8.2056Y-6.7331
M16
G05
G00X14.2165Y-5.6103
M15
G01X14.2181Y-5.633
M16
G05
G00X13.2181Y-5.5331
M15
G01X13.25Y-5.5905
M16
G05
G00X12.5197Y-7.5059
M15
G01X12.5181Y-7.4831
M16
G05
G00X8.5822Y-6.0059
M15
G01X8.5806Y-5.9831
M16
G05
G00X13.5181Y-7.5831
M15
G01X13.4862Y-7.5256
M16
G05
G00X12.5197Y-5.2559
M15
G01X12.5181Y-5.2331
M16
G05
G00X13.4665Y-5.6103
M15
G01X13.4681Y-5.633
M16
G05
G00X12.7681Y-7.5831
M15
G01X12.7362Y-7.5256
M16
G05
G00X8.8306Y-6.0831
M15
G01X8.7987Y-6.0256
M16
G05
G00X8.6243Y-7.7831
M15
G01X8.6563Y-7.8405
M16
G05
G00X8.8728Y-7.8603
M15
G01X8.8743Y-7.883
M16
G05
G00X11.7697Y-5.2559
M15
G01X11.7681Y-5.2331
M16
G05
G00X12.0181Y-5.3331
M15
G01X11.9862Y-5.2756
M16
G05
G00X13.2697Y-7.5059
M15
G01X13.2681Y-7.4831
M16
G05
G00X4.9681Y-5.5331
M15
G01X5.0Y-5.5905
M16
G05
G00X5.2165Y-5.6103
M15
G01X5.2181Y-5.633
M16
G05
G00X11.8306Y-6.0831
M15
G01X11.7987Y-6.0256
M16
G05
G00X10.2697Y-5.2559
M15
G01X10.2681Y-5.2331
M16
G05
G00X10.5181Y-5.3331
M15
G01X10.4862Y-5.2756
M16
G05
G00X11.5822Y-6.0059
M15
G01X11.5806Y-5.9831
M16
G05
G00X13.3306Y-6.0831
M15
G01X13.2987Y-6.0256
M16
G05
G00X6.5197Y-5.2559
M15
G01X6.5181Y-5.2331
M16
G05
G00X6.7681Y-5.3331
M15
G01X6.7362Y-5.2756
M16
G05
G00X13.0822Y-6.0059
M15
G01X13.0806Y-5.9831
M16
G05
G00X12.7681Y-5.3331
M15
G01X12.7362Y-5.2756
M16
G05
G00X8.7697Y-5.2559
M15
G01X8.7681Y-5.2331
M16
G05
G00X9.0181Y-5.3331
M15
G01X8.9862Y-5.2756
M16
G05
G00X13.7384Y-6.7559
M15
G01X13.7369Y-6.7331
M16
G05
G00X13.9869Y-6.8331
M15
G01X13.955Y-6.7756
M16
G05
G00X8.4556Y-6.8331
M15
G01X8.4237Y-6.7756
M16
G05
T0
M30
