M48
; DRILL file {KiCad (5.1.4-0-10_14)} date 2019 September 12, Thursday 12:48:26
; FORMAT={-:-/ absolute / inch / decimal}
; #@! TF.CreationDate,2019-09-12T12:48:26+02:00
; #@! TF.GenerationSoftware,Kicad,Pcbnew,(5.1.4-0-10_14)
; #@! TF.FileFunction,Plated,1,2,PTH
FMAT,2
INCH
T1C0.0157
T2C0.0236
T3C0.0591
%
G90
G05
T1
X4.8325Y-5.2075
X5.0875Y-7.0325
X5.2375Y-7.8675
X5.2575Y-6.3625
X5.295Y-5.54
X5.3465Y-5.6535
X5.35Y-5.85
X5.3925Y-5.895
X5.56Y-5.63
X5.605Y-6.0625
X5.65Y-6.4
X5.68Y-5.52
X5.8575Y-7.205
X5.86Y-6.63
X5.8825Y-6.3275
X6.0875Y-6.4425
X6.125Y-5.605
X6.7175Y-5.72
X7.02Y-6.475
X7.03Y-5.4275
X7.14Y-6.685
X7.315Y-7.015
X7.4775Y-6.6
X7.61Y-7.11
X7.6125Y-6.87
X7.85Y-7.31
X7.98Y-7.14
X8.03Y-7.285
X8.13Y-7.58
X8.38Y-7.63
X8.465Y-7.9825
X8.9Y-7.25
X8.91Y-7.63
X9.0Y-7.46
X9.0025Y-5.52
X9.0075Y-7.8925
X9.1175Y-5.675
X9.12Y-7.88
X9.19Y-7.76
X9.1912Y-7.5412
X9.32Y-7.23
X9.36Y-7.8525
X9.46Y-7.86
X9.5143Y-7.5943
X9.53Y-7.51
X9.56Y-7.36
X9.5728Y-7.7053
X9.58Y-7.56
X9.605Y-7.0425
X9.62Y-7.51
X9.6225Y-7.15
X9.65Y-7.38
X9.675Y-8.015
X9.69Y-7.35
X9.8225Y-7.2225
X9.8625Y-7.9025
X9.935Y-6.4575
X10.03Y-7.59
X10.035Y-7.835
X10.1525Y-7.9475
X10.9525Y-9.2975
X11.145Y-7.83
X11.1625Y-5.6975
X11.3175Y-7.97
X12.75Y-5.53
X13.36Y-6.2475
X13.9225Y-6.4325
X14.15Y-7.9325
X14.2975Y-5.955
X14.3575Y-7.3575
T2
G00X5.323Y-5.1142
M15
G01X5.323Y-5.0906
M16
G05
G00X5.323Y-5.2886
M15
G01X5.323Y-5.2453
M16
G05
G00X5.6632Y-5.1142
M15
G01X5.6632Y-5.0906
M16
G05
G00X5.6632Y-5.2886
M15
G01X5.6632Y-5.2453
M16
G05
T3
G00X13.625Y-5.2756
M15
G01X13.5931Y-5.3331
M16
G05
G00X13.8431Y-5.2331
M15
G01X13.8415Y-5.2559
M16
G05
G00X8.0Y-5.2756
M15
G01X7.9681Y-5.3331
M16
G05
G00X8.2181Y-5.2331
M15
G01X8.2165Y-5.2559
M16
G05
G00X8.1875Y-6.0256
M15
G01X8.1556Y-6.0831
M16
G05
G00X8.4056Y-5.9831
M15
G01X8.404Y-6.0059
M16
G05
G00X5.0938Y-6.0256
M15
G01X5.0618Y-6.0831
M16
G05
G00X5.3118Y-5.9831
M15
G01X5.3103Y-6.0059
M16
G05
G00X13.25Y-5.2756
M15
G01X13.2181Y-5.3331
M16
G05
G00X10.0625Y-6.7756
M15
G01X10.0306Y-6.8331
M16
G05
G00X10.2806Y-6.7331
M15
G01X10.279Y-6.7559
M16
G05
G00X8.9375Y-6.0256
M15
G01X8.9056Y-6.0831
M16
G05
G00X9.1556Y-5.9831
M15
G01X9.154Y-6.0059
M16
G05
G00X9.6875Y-6.0256
M15
G01X9.6556Y-6.0831
M16
G05
G00X13.4681Y-5.2331
M15
G01X13.4665Y-5.2559
M16
G05
G00X13.25Y-7.5256
M15
G01X13.2181Y-7.5831
M16
G05
G00X13.4681Y-7.4831
M15
G01X13.4665Y-7.5059
M16
G05
G00X5.2813Y-6.7756
M15
G01X5.2493Y-6.8331
M16
G05
G00X5.4993Y-6.7331
M15
G01X5.4978Y-6.7559
M16
G05
G00X5.7681Y-5.633
M15
G01X5.7697Y-5.6103
M16
G05
G00X5.9862Y-5.5905
M15
G01X6.0181Y-5.5331
M16
G05
G00X12.3125Y-6.7756
M15
G01X12.2806Y-6.8331
M16
G05
G00X12.5306Y-6.7331
M15
G01X12.529Y-6.7559
M16
G05
G00X9.9056Y-5.9831
M15
G01X9.904Y-6.0059
M16
G05
G00X5.0Y-5.2756
M15
G01X4.9681Y-5.3331
M16
G05
G00X5.2181Y-5.2331
M15
G01X5.2165Y-5.2559
M16
G05
G00X6.7181Y-5.2331
M15
G01X6.7165Y-5.2559
M16
G05
G00X14.0181Y-5.633
M15
G01X14.0197Y-5.6103
M16
G05
G00X14.2362Y-5.5905
M15
G01X14.2681Y-5.5331
M16
G05
G00X7.25Y-5.2756
M15
G01X7.2181Y-5.3331
M16
G05
G00X5.0Y-7.5256
M15
G01X4.9681Y-7.5831
M16
G05
G00X5.2181Y-7.4831
M15
G01X5.2165Y-7.5059
M16
G05
G00X5.75Y-7.5256
M15
G01X5.7181Y-7.5831
M16
G05
G00X5.9681Y-7.4831
M15
G01X5.9665Y-7.5059
M16
G05
G00X13.0625Y-6.7756
M15
G01X13.0306Y-6.8331
M16
G05
G00X13.2806Y-6.7331
M15
G01X13.279Y-6.7559
M16
G05
G00X11.5625Y-6.7756
M15
G01X11.5306Y-6.8331
M16
G05
G00X11.7806Y-6.7331
M15
G01X11.779Y-6.7559
M16
G05
G00X10.8125Y-6.7756
M15
G01X10.7806Y-6.8331
M16
G05
G00X11.0306Y-6.7331
M15
G01X11.029Y-6.7559
M16
G05
G00X7.4681Y-5.2331
M15
G01X7.4665Y-5.2559
M16
G05
G00X6.5Y-5.2756
M15
G01X6.4681Y-5.3331
M16
G05
G00X11.0Y-5.2756
M15
G01X10.9681Y-5.3331
M16
G05
G00X11.2181Y-5.2331
M15
G01X11.2165Y-5.2559
M16
G05
G00X7.3438Y-7.5256
M15
G01X7.3118Y-7.5831
M16
G05
G00X7.5618Y-7.4831
M15
G01X7.5603Y-7.5059
M16
G05
G00X13.7188Y-6.0256
M15
G01X13.6868Y-6.0831
M16
G05
G00X13.9368Y-5.9831
M15
G01X13.9353Y-6.0059
M16
G05
G00X10.4375Y-6.0256
M15
G01X10.4056Y-6.0831
M16
G05
G00X10.6556Y-5.9831
M15
G01X10.654Y-6.0059
M16
G05
G00X11.1875Y-6.0256
M15
G01X11.1556Y-6.0831
M16
G05
G00X11.4056Y-5.9831
M15
G01X11.404Y-6.0059
M16
G05
G00X11.9375Y-6.0256
M15
G01X11.9056Y-6.0831
M16
G05
G00X12.1556Y-5.9831
M15
G01X12.154Y-6.0059
M16
G05
G00X12.6875Y-6.0256
M15
G01X12.6556Y-6.0831
M16
G05
G00X12.9056Y-5.9831
M15
G01X12.904Y-6.0059
M16
G05
G00X8.75Y-5.2756
M15
G01X8.7181Y-5.3331
M16
G05
G00X8.9681Y-5.2331
M15
G01X8.9665Y-5.2559
M16
G05
G00X13.9063Y-6.7756
M15
G01X13.8743Y-6.8331
M16
G05
G00X14.1243Y-6.7331
M15
G01X14.1228Y-6.7559
M16
G05
G00X9.5Y-5.2756
M15
G01X9.4681Y-5.3331
M16
G05
G00X9.7181Y-5.2331
M15
G01X9.7165Y-5.2559
M16
G05
G00X11.75Y-5.2756
M15
G01X11.7181Y-5.3331
M16
G05
G00X11.9681Y-5.2331
M15
G01X11.9665Y-5.2559
M16
G05
G00X12.5Y-5.2756
M15
G01X12.4681Y-5.3331
M16
G05
G00X12.7181Y-5.2331
M15
G01X12.7165Y-5.2559
M16
G05
G00X8.6744Y-7.883
M15
G01X8.6759Y-7.8603
M16
G05
G00X8.8925Y-7.8405
M15
G01X8.9244Y-7.7831
M16
G05
G00X6.5Y-7.5256
M15
G01X6.4681Y-7.5831
M16
G05
G00X6.7181Y-7.4831
M15
G01X6.7165Y-7.5059
M16
G05
G00X5.9375Y-6.0256
M15
G01X5.9056Y-6.0831
M16
G05
G00X6.6875Y-6.0256
M15
G01X6.6556Y-6.0831
M16
G05
G00X6.9056Y-5.9831
M15
G01X6.904Y-6.0059
M16
G05
G00X7.4375Y-6.0256
M15
G01X7.4056Y-6.0831
M16
G05
G00X12.5Y-7.5256
M15
G01X12.4681Y-7.5831
M16
G05
G00X6.1556Y-5.9831
M15
G01X6.154Y-6.0059
M16
G05
G00X9.3125Y-6.7756
M15
G01X9.2806Y-6.8331
M16
G05
G00X9.5306Y-6.7331
M15
G01X9.529Y-6.7559
M16
G05
G00X10.25Y-5.2756
M15
G01X10.2181Y-5.3331
M16
G05
G00X10.4681Y-5.2331
M15
G01X10.4665Y-5.2559
M16
G05
G00X7.6556Y-5.9831
M15
G01X7.654Y-6.0059
M16
G05
G00X10.3619Y-7.883
M15
G01X10.3634Y-7.8603
M16
G05
G00X10.58Y-7.8405
M15
G01X10.6119Y-7.7831
M16
G05
G00X7.0625Y-6.7756
M15
G01X7.0306Y-6.8331
M16
G05
G00X7.2806Y-6.7331
M15
G01X7.279Y-6.7559
M16
G05
G00X8.5625Y-6.7756
M15
G01X8.5306Y-6.8331
M16
G05
G00X8.7806Y-6.7331
M15
G01X8.779Y-6.7559
M16
G05
G00X14.0Y-7.5256
M15
G01X13.9681Y-7.5831
M16
G05
G00X14.2181Y-7.4831
M15
G01X14.2165Y-7.5059
M16
G05
G00X11.6563Y-7.5256
M15
G01X11.6243Y-7.5831
M16
G05
G00X11.8743Y-7.4831
M15
G01X11.8728Y-7.5059
M16
G05
G00X6.3125Y-6.7756
M15
G01X6.2806Y-6.8331
M16
G05
G00X6.5306Y-6.7331
M15
G01X6.529Y-6.7559
M16
G05
G00X7.8125Y-6.7756
M15
G01X7.7806Y-6.8331
M16
G05
G00X8.0306Y-6.7331
M15
G01X8.029Y-6.7559
M16
G05
G00X12.7181Y-7.4831
M15
G01X12.7165Y-7.5059
M16
G05
T0
M30
