G04 #@! TF.GenerationSoftware,KiCad,Pcbnew,(5.1.4-0-10_14)*
G04 #@! TF.CreationDate,2019-09-12T12:47:28+02:00*
G04 #@! TF.ProjectId,minivan-clone,6d696e69-7661-46e2-9d63-6c6f6e652e6b,rev?*
G04 #@! TF.SameCoordinates,Original*
G04 #@! TF.FileFunction,Legend,Top*
G04 #@! TF.FilePolarity,Positive*
%FSLAX46Y46*%
G04 Gerber Fmt 4.6, Leading zero omitted, Abs format (unit mm)*
G04 Created by KiCad (PCBNEW (5.1.4-0-10_14)) date 2019-09-12 12:47:28*
%MOMM*%
%LPD*%
G04 APERTURE LIST*
%ADD10C,0.381000*%
%ADD11C,0.200000*%
%ADD12C,0.120000*%
%ADD13C,0.160000*%
%ADD14C,0.150000*%
%ADD15C,0.152400*%
G04 APERTURE END LIST*
D10*
X195087500Y-171528000D02*
X195087500Y-169750000D01*
X195087500Y-182450000D02*
X195087500Y-180672000D01*
X196865500Y-182450000D02*
X195087500Y-182450000D01*
X207787500Y-182450000D02*
X206009500Y-182450000D01*
X207787500Y-180672000D02*
X207787500Y-182450000D01*
X207787500Y-169750000D02*
X207787500Y-171528000D01*
X206009500Y-169750000D02*
X207787500Y-169750000D01*
X195087500Y-169750000D02*
X196865500Y-169750000D01*
X233187500Y-171528000D02*
X233187500Y-169750000D01*
X233187500Y-182450000D02*
X233187500Y-180672000D01*
X234965500Y-182450000D02*
X233187500Y-182450000D01*
X245887500Y-182450000D02*
X244109500Y-182450000D01*
X245887500Y-180672000D02*
X245887500Y-182450000D01*
X245887500Y-169750000D02*
X245887500Y-171528000D01*
X244109500Y-169750000D02*
X245887500Y-169750000D01*
X233187500Y-169750000D02*
X234965500Y-169750000D01*
X349868750Y-171528000D02*
X349868750Y-169750000D01*
X349868750Y-182450000D02*
X349868750Y-180672000D01*
X351646750Y-182450000D02*
X349868750Y-182450000D01*
X362568750Y-182450000D02*
X360790750Y-182450000D01*
X362568750Y-180672000D02*
X362568750Y-182450000D01*
X362568750Y-169750000D02*
X362568750Y-171528000D01*
X360790750Y-169750000D02*
X362568750Y-169750000D01*
X349868750Y-169750000D02*
X351646750Y-169750000D01*
X345106250Y-152478000D02*
X345106250Y-150700000D01*
X345106250Y-163400000D02*
X345106250Y-161622000D01*
X346884250Y-163400000D02*
X345106250Y-163400000D01*
X357806250Y-163400000D02*
X356028250Y-163400000D01*
X357806250Y-161622000D02*
X357806250Y-163400000D01*
X357806250Y-150700000D02*
X357806250Y-152478000D01*
X356028250Y-150700000D02*
X357806250Y-150700000D01*
X345106250Y-150700000D02*
X346884250Y-150700000D01*
D11*
X234350000Y-192800000D02*
X234350000Y-191200000D01*
X237650000Y-192800000D02*
X234350000Y-192800000D01*
X237650000Y-191200000D02*
X237650000Y-192800000D01*
X234350000Y-191200000D02*
X237650000Y-191200000D01*
D12*
X138754000Y-140742000D02*
X141704000Y-140742000D01*
X141154000Y-137642000D02*
X138754000Y-137642000D01*
D10*
X342725000Y-133428000D02*
X342725000Y-131650000D01*
X342725000Y-144350000D02*
X342725000Y-142572000D01*
X344503000Y-144350000D02*
X342725000Y-144350000D01*
X355425000Y-144350000D02*
X353647000Y-144350000D01*
X355425000Y-142572000D02*
X355425000Y-144350000D01*
X355425000Y-131650000D02*
X355425000Y-133428000D01*
X353647000Y-131650000D02*
X355425000Y-131650000D01*
X342725000Y-131650000D02*
X344503000Y-131650000D01*
X292718750Y-190578000D02*
X292718750Y-188800000D01*
X292718750Y-201500000D02*
X292718750Y-199722000D01*
X294496750Y-201500000D02*
X292718750Y-201500000D01*
X305418750Y-201500000D02*
X303640750Y-201500000D01*
X305418750Y-199722000D02*
X305418750Y-201500000D01*
X305418750Y-188800000D02*
X305418750Y-190578000D01*
X303640750Y-188800000D02*
X305418750Y-188800000D01*
X292718750Y-188800000D02*
X294496750Y-188800000D01*
X272081250Y-199722000D02*
X272081250Y-201500000D01*
X272081250Y-188800000D02*
X272081250Y-190578000D01*
X270303250Y-188800000D02*
X272081250Y-188800000D01*
X259381250Y-188800000D02*
X261159250Y-188800000D01*
X259381250Y-190578000D02*
X259381250Y-188800000D01*
X259381250Y-201500000D02*
X259381250Y-199722000D01*
X261159250Y-201500000D02*
X259381250Y-201500000D01*
X272081250Y-201500000D02*
X270303250Y-201500000D01*
X229218750Y-199722000D02*
X229218750Y-201500000D01*
X229218750Y-188800000D02*
X229218750Y-190578000D01*
X227440750Y-188800000D02*
X229218750Y-188800000D01*
X216518750Y-188800000D02*
X218296750Y-188800000D01*
X216518750Y-190578000D02*
X216518750Y-188800000D01*
X216518750Y-201500000D02*
X216518750Y-199722000D01*
X218296750Y-201500000D02*
X216518750Y-201500000D01*
X229218750Y-201500000D02*
X227440750Y-201500000D01*
X183181250Y-190578000D02*
X183181250Y-188800000D01*
X183181250Y-201500000D02*
X183181250Y-199722000D01*
X184959250Y-201500000D02*
X183181250Y-201500000D01*
X195881250Y-201500000D02*
X194103250Y-201500000D01*
X195881250Y-199722000D02*
X195881250Y-201500000D01*
X195881250Y-188800000D02*
X195881250Y-190578000D01*
X194103250Y-188800000D02*
X195881250Y-188800000D01*
X183181250Y-188800000D02*
X184959250Y-188800000D01*
X333200000Y-190578000D02*
X333200000Y-188800000D01*
X333200000Y-201500000D02*
X333200000Y-199722000D01*
X334978000Y-201500000D02*
X333200000Y-201500000D01*
X345900000Y-201500000D02*
X344122000Y-201500000D01*
X345900000Y-199722000D02*
X345900000Y-201500000D01*
X345900000Y-188800000D02*
X345900000Y-190578000D01*
X344122000Y-188800000D02*
X345900000Y-188800000D01*
X333200000Y-188800000D02*
X334978000Y-188800000D01*
X309387500Y-169750000D02*
X311165500Y-169750000D01*
X320309500Y-169750000D02*
X322087500Y-169750000D01*
X322087500Y-169750000D02*
X322087500Y-171528000D01*
X322087500Y-180672000D02*
X322087500Y-182450000D01*
X322087500Y-182450000D02*
X320309500Y-182450000D01*
X311165500Y-182450000D02*
X309387500Y-182450000D01*
X309387500Y-182450000D02*
X309387500Y-180672000D01*
X309387500Y-171528000D02*
X309387500Y-169750000D01*
X130793750Y-171528000D02*
X130793750Y-169750000D01*
X130793750Y-182450000D02*
X130793750Y-180672000D01*
X132571750Y-182450000D02*
X130793750Y-182450000D01*
X143493750Y-182450000D02*
X141715750Y-182450000D01*
X143493750Y-180672000D02*
X143493750Y-182450000D01*
X143493750Y-169750000D02*
X143493750Y-171528000D01*
X141715750Y-169750000D02*
X143493750Y-169750000D01*
X130793750Y-169750000D02*
X132571750Y-169750000D01*
X333200000Y-133428000D02*
X333200000Y-131650000D01*
X333200000Y-144350000D02*
X333200000Y-142572000D01*
X334978000Y-144350000D02*
X333200000Y-144350000D01*
X345900000Y-144350000D02*
X344122000Y-144350000D01*
X345900000Y-142572000D02*
X345900000Y-144350000D01*
X345900000Y-131650000D02*
X345900000Y-133428000D01*
X344122000Y-131650000D02*
X345900000Y-131650000D01*
X333200000Y-131650000D02*
X334978000Y-131650000D01*
X126031250Y-152478000D02*
X126031250Y-150700000D01*
X126031250Y-163400000D02*
X126031250Y-161622000D01*
X127809250Y-163400000D02*
X126031250Y-163400000D01*
X138731250Y-163400000D02*
X136953250Y-163400000D01*
X138731250Y-161622000D02*
X138731250Y-163400000D01*
X138731250Y-150700000D02*
X138731250Y-152478000D01*
X136953250Y-150700000D02*
X138731250Y-150700000D01*
X126031250Y-150700000D02*
X127809250Y-150700000D01*
X352250000Y-188800000D02*
X354028000Y-188800000D01*
X363172000Y-188800000D02*
X364950000Y-188800000D01*
X364950000Y-188800000D02*
X364950000Y-190578000D01*
X364950000Y-199722000D02*
X364950000Y-201500000D01*
X364950000Y-201500000D02*
X363172000Y-201500000D01*
X354028000Y-201500000D02*
X352250000Y-201500000D01*
X352250000Y-201500000D02*
X352250000Y-199722000D01*
X352250000Y-190578000D02*
X352250000Y-188800000D01*
X314150000Y-190578000D02*
X314150000Y-188800000D01*
X314150000Y-201500000D02*
X314150000Y-199722000D01*
X315928000Y-201500000D02*
X314150000Y-201500000D01*
X326850000Y-201500000D02*
X325072000Y-201500000D01*
X326850000Y-199722000D02*
X326850000Y-201500000D01*
X326850000Y-188800000D02*
X326850000Y-190578000D01*
X325072000Y-188800000D02*
X326850000Y-188800000D01*
X314150000Y-188800000D02*
X315928000Y-188800000D01*
X161750000Y-190578000D02*
X161750000Y-188800000D01*
X161750000Y-201500000D02*
X161750000Y-199722000D01*
X163528000Y-201500000D02*
X161750000Y-201500000D01*
X174450000Y-201500000D02*
X172672000Y-201500000D01*
X174450000Y-199722000D02*
X174450000Y-201500000D01*
X174450000Y-188800000D02*
X174450000Y-190578000D01*
X172672000Y-188800000D02*
X174450000Y-188800000D01*
X161750000Y-188800000D02*
X163528000Y-188800000D01*
X142700000Y-190578000D02*
X142700000Y-188800000D01*
X142700000Y-201500000D02*
X142700000Y-199722000D01*
X144478000Y-201500000D02*
X142700000Y-201500000D01*
X155400000Y-201500000D02*
X153622000Y-201500000D01*
X155400000Y-199722000D02*
X155400000Y-201500000D01*
X155400000Y-188800000D02*
X155400000Y-190578000D01*
X153622000Y-188800000D02*
X155400000Y-188800000D01*
X142700000Y-188800000D02*
X144478000Y-188800000D01*
X123650000Y-190578000D02*
X123650000Y-188800000D01*
X123650000Y-201500000D02*
X123650000Y-199722000D01*
X125428000Y-201500000D02*
X123650000Y-201500000D01*
X136350000Y-201500000D02*
X134572000Y-201500000D01*
X136350000Y-199722000D02*
X136350000Y-201500000D01*
X136350000Y-188800000D02*
X136350000Y-190578000D01*
X134572000Y-188800000D02*
X136350000Y-188800000D01*
X123650000Y-188800000D02*
X125428000Y-188800000D01*
X328437500Y-169750000D02*
X330215500Y-169750000D01*
X339359500Y-169750000D02*
X341137500Y-169750000D01*
X341137500Y-169750000D02*
X341137500Y-171528000D01*
X341137500Y-180672000D02*
X341137500Y-182450000D01*
X341137500Y-182450000D02*
X339359500Y-182450000D01*
X330215500Y-182450000D02*
X328437500Y-182450000D01*
X328437500Y-182450000D02*
X328437500Y-180672000D01*
X328437500Y-171528000D02*
X328437500Y-169750000D01*
X290337500Y-171528000D02*
X290337500Y-169750000D01*
X290337500Y-182450000D02*
X290337500Y-180672000D01*
X292115500Y-182450000D02*
X290337500Y-182450000D01*
X303037500Y-182450000D02*
X301259500Y-182450000D01*
X303037500Y-180672000D02*
X303037500Y-182450000D01*
X303037500Y-169750000D02*
X303037500Y-171528000D01*
X301259500Y-169750000D02*
X303037500Y-169750000D01*
X290337500Y-169750000D02*
X292115500Y-169750000D01*
X271287500Y-171528000D02*
X271287500Y-169750000D01*
X271287500Y-182450000D02*
X271287500Y-180672000D01*
X273065500Y-182450000D02*
X271287500Y-182450000D01*
X283987500Y-182450000D02*
X282209500Y-182450000D01*
X283987500Y-180672000D02*
X283987500Y-182450000D01*
X283987500Y-169750000D02*
X283987500Y-171528000D01*
X282209500Y-169750000D02*
X283987500Y-169750000D01*
X271287500Y-169750000D02*
X273065500Y-169750000D01*
X252237500Y-171528000D02*
X252237500Y-169750000D01*
X252237500Y-182450000D02*
X252237500Y-180672000D01*
X254015500Y-182450000D02*
X252237500Y-182450000D01*
X264937500Y-182450000D02*
X263159500Y-182450000D01*
X264937500Y-180672000D02*
X264937500Y-182450000D01*
X264937500Y-169750000D02*
X264937500Y-171528000D01*
X263159500Y-169750000D02*
X264937500Y-169750000D01*
X252237500Y-169750000D02*
X254015500Y-169750000D01*
X214137500Y-171528000D02*
X214137500Y-169750000D01*
X214137500Y-182450000D02*
X214137500Y-180672000D01*
X215915500Y-182450000D02*
X214137500Y-182450000D01*
X226837500Y-182450000D02*
X225059500Y-182450000D01*
X226837500Y-180672000D02*
X226837500Y-182450000D01*
X226837500Y-169750000D02*
X226837500Y-171528000D01*
X225059500Y-169750000D02*
X226837500Y-169750000D01*
X214137500Y-169750000D02*
X215915500Y-169750000D01*
X176037500Y-171528000D02*
X176037500Y-169750000D01*
X176037500Y-182450000D02*
X176037500Y-180672000D01*
X177815500Y-182450000D02*
X176037500Y-182450000D01*
X188737500Y-182450000D02*
X186959500Y-182450000D01*
X188737500Y-180672000D02*
X188737500Y-182450000D01*
X188737500Y-169750000D02*
X188737500Y-171528000D01*
X186959500Y-169750000D02*
X188737500Y-169750000D01*
X176037500Y-169750000D02*
X177815500Y-169750000D01*
X156987500Y-171528000D02*
X156987500Y-169750000D01*
X156987500Y-182450000D02*
X156987500Y-180672000D01*
X158765500Y-182450000D02*
X156987500Y-182450000D01*
X169687500Y-182450000D02*
X167909500Y-182450000D01*
X169687500Y-180672000D02*
X169687500Y-182450000D01*
X169687500Y-169750000D02*
X169687500Y-171528000D01*
X167909500Y-169750000D02*
X169687500Y-169750000D01*
X156987500Y-169750000D02*
X158765500Y-169750000D01*
X318912500Y-150700000D02*
X320690500Y-150700000D01*
X329834500Y-150700000D02*
X331612500Y-150700000D01*
X331612500Y-150700000D02*
X331612500Y-152478000D01*
X331612500Y-161622000D02*
X331612500Y-163400000D01*
X331612500Y-163400000D02*
X329834500Y-163400000D01*
X320690500Y-163400000D02*
X318912500Y-163400000D01*
X318912500Y-163400000D02*
X318912500Y-161622000D01*
X318912500Y-152478000D02*
X318912500Y-150700000D01*
X299862500Y-150700000D02*
X301640500Y-150700000D01*
X310784500Y-150700000D02*
X312562500Y-150700000D01*
X312562500Y-150700000D02*
X312562500Y-152478000D01*
X312562500Y-161622000D02*
X312562500Y-163400000D01*
X312562500Y-163400000D02*
X310784500Y-163400000D01*
X301640500Y-163400000D02*
X299862500Y-163400000D01*
X299862500Y-163400000D02*
X299862500Y-161622000D01*
X299862500Y-152478000D02*
X299862500Y-150700000D01*
X280812500Y-150700000D02*
X282590500Y-150700000D01*
X291734500Y-150700000D02*
X293512500Y-150700000D01*
X293512500Y-150700000D02*
X293512500Y-152478000D01*
X293512500Y-161622000D02*
X293512500Y-163400000D01*
X293512500Y-163400000D02*
X291734500Y-163400000D01*
X282590500Y-163400000D02*
X280812500Y-163400000D01*
X280812500Y-163400000D02*
X280812500Y-161622000D01*
X280812500Y-152478000D02*
X280812500Y-150700000D01*
X261762500Y-152478000D02*
X261762500Y-150700000D01*
X261762500Y-163400000D02*
X261762500Y-161622000D01*
X263540500Y-163400000D02*
X261762500Y-163400000D01*
X274462500Y-163400000D02*
X272684500Y-163400000D01*
X274462500Y-161622000D02*
X274462500Y-163400000D01*
X274462500Y-150700000D02*
X274462500Y-152478000D01*
X272684500Y-150700000D02*
X274462500Y-150700000D01*
X261762500Y-150700000D02*
X263540500Y-150700000D01*
X242712500Y-150700000D02*
X244490500Y-150700000D01*
X253634500Y-150700000D02*
X255412500Y-150700000D01*
X255412500Y-150700000D02*
X255412500Y-152478000D01*
X255412500Y-161622000D02*
X255412500Y-163400000D01*
X255412500Y-163400000D02*
X253634500Y-163400000D01*
X244490500Y-163400000D02*
X242712500Y-163400000D01*
X242712500Y-163400000D02*
X242712500Y-161622000D01*
X242712500Y-152478000D02*
X242712500Y-150700000D01*
X223662500Y-150700000D02*
X225440500Y-150700000D01*
X234584500Y-150700000D02*
X236362500Y-150700000D01*
X236362500Y-150700000D02*
X236362500Y-152478000D01*
X236362500Y-161622000D02*
X236362500Y-163400000D01*
X236362500Y-163400000D02*
X234584500Y-163400000D01*
X225440500Y-163400000D02*
X223662500Y-163400000D01*
X223662500Y-163400000D02*
X223662500Y-161622000D01*
X223662500Y-152478000D02*
X223662500Y-150700000D01*
X204612500Y-150700000D02*
X206390500Y-150700000D01*
X215534500Y-150700000D02*
X217312500Y-150700000D01*
X217312500Y-150700000D02*
X217312500Y-152478000D01*
X217312500Y-161622000D02*
X217312500Y-163400000D01*
X217312500Y-163400000D02*
X215534500Y-163400000D01*
X206390500Y-163400000D02*
X204612500Y-163400000D01*
X204612500Y-163400000D02*
X204612500Y-161622000D01*
X204612500Y-152478000D02*
X204612500Y-150700000D01*
X185562500Y-152478000D02*
X185562500Y-150700000D01*
X185562500Y-163400000D02*
X185562500Y-161622000D01*
X187340500Y-163400000D02*
X185562500Y-163400000D01*
X198262500Y-163400000D02*
X196484500Y-163400000D01*
X198262500Y-161622000D02*
X198262500Y-163400000D01*
X198262500Y-150700000D02*
X198262500Y-152478000D01*
X196484500Y-150700000D02*
X198262500Y-150700000D01*
X185562500Y-150700000D02*
X187340500Y-150700000D01*
X166512500Y-150700000D02*
X168290500Y-150700000D01*
X177434500Y-150700000D02*
X179212500Y-150700000D01*
X179212500Y-150700000D02*
X179212500Y-152478000D01*
X179212500Y-161622000D02*
X179212500Y-163400000D01*
X179212500Y-163400000D02*
X177434500Y-163400000D01*
X168290500Y-163400000D02*
X166512500Y-163400000D01*
X166512500Y-163400000D02*
X166512500Y-161622000D01*
X166512500Y-152478000D02*
X166512500Y-150700000D01*
X147462500Y-150700000D02*
X149240500Y-150700000D01*
X158384500Y-150700000D02*
X160162500Y-150700000D01*
X160162500Y-150700000D02*
X160162500Y-152478000D01*
X160162500Y-161622000D02*
X160162500Y-163400000D01*
X160162500Y-163400000D02*
X158384500Y-163400000D01*
X149240500Y-163400000D02*
X147462500Y-163400000D01*
X147462500Y-163400000D02*
X147462500Y-161622000D01*
X147462500Y-152478000D02*
X147462500Y-150700000D01*
X364950000Y-144350000D02*
X363172000Y-144350000D01*
X354028000Y-144350000D02*
X352250000Y-144350000D01*
X352250000Y-144350000D02*
X352250000Y-142572000D01*
X352250000Y-133428000D02*
X352250000Y-131650000D01*
X352250000Y-131650000D02*
X354028000Y-131650000D01*
X363172000Y-131650000D02*
X364950000Y-131650000D01*
X364950000Y-131650000D02*
X364950000Y-133428000D01*
X364950000Y-142572000D02*
X364950000Y-144350000D01*
X314150000Y-131650000D02*
X315928000Y-131650000D01*
X325072000Y-131650000D02*
X326850000Y-131650000D01*
X326850000Y-131650000D02*
X326850000Y-133428000D01*
X326850000Y-142572000D02*
X326850000Y-144350000D01*
X326850000Y-144350000D02*
X325072000Y-144350000D01*
X315928000Y-144350000D02*
X314150000Y-144350000D01*
X314150000Y-144350000D02*
X314150000Y-142572000D01*
X314150000Y-133428000D02*
X314150000Y-131650000D01*
X295100000Y-131650000D02*
X296878000Y-131650000D01*
X306022000Y-131650000D02*
X307800000Y-131650000D01*
X307800000Y-131650000D02*
X307800000Y-133428000D01*
X307800000Y-142572000D02*
X307800000Y-144350000D01*
X307800000Y-144350000D02*
X306022000Y-144350000D01*
X296878000Y-144350000D02*
X295100000Y-144350000D01*
X295100000Y-144350000D02*
X295100000Y-142572000D01*
X295100000Y-133428000D02*
X295100000Y-131650000D01*
X276050000Y-131650000D02*
X277828000Y-131650000D01*
X286972000Y-131650000D02*
X288750000Y-131650000D01*
X288750000Y-131650000D02*
X288750000Y-133428000D01*
X288750000Y-142572000D02*
X288750000Y-144350000D01*
X288750000Y-144350000D02*
X286972000Y-144350000D01*
X277828000Y-144350000D02*
X276050000Y-144350000D01*
X276050000Y-144350000D02*
X276050000Y-142572000D01*
X276050000Y-133428000D02*
X276050000Y-131650000D01*
X257000000Y-131650000D02*
X258778000Y-131650000D01*
X267922000Y-131650000D02*
X269700000Y-131650000D01*
X269700000Y-131650000D02*
X269700000Y-133428000D01*
X269700000Y-142572000D02*
X269700000Y-144350000D01*
X269700000Y-144350000D02*
X267922000Y-144350000D01*
X258778000Y-144350000D02*
X257000000Y-144350000D01*
X257000000Y-144350000D02*
X257000000Y-142572000D01*
X257000000Y-133428000D02*
X257000000Y-131650000D01*
X237950000Y-131650000D02*
X239728000Y-131650000D01*
X248872000Y-131650000D02*
X250650000Y-131650000D01*
X250650000Y-131650000D02*
X250650000Y-133428000D01*
X250650000Y-142572000D02*
X250650000Y-144350000D01*
X250650000Y-144350000D02*
X248872000Y-144350000D01*
X239728000Y-144350000D02*
X237950000Y-144350000D01*
X237950000Y-144350000D02*
X237950000Y-142572000D01*
X237950000Y-133428000D02*
X237950000Y-131650000D01*
X218900000Y-131650000D02*
X220678000Y-131650000D01*
X229822000Y-131650000D02*
X231600000Y-131650000D01*
X231600000Y-131650000D02*
X231600000Y-133428000D01*
X231600000Y-142572000D02*
X231600000Y-144350000D01*
X231600000Y-144350000D02*
X229822000Y-144350000D01*
X220678000Y-144350000D02*
X218900000Y-144350000D01*
X218900000Y-144350000D02*
X218900000Y-142572000D01*
X218900000Y-133428000D02*
X218900000Y-131650000D01*
X199850000Y-131650000D02*
X201628000Y-131650000D01*
X210772000Y-131650000D02*
X212550000Y-131650000D01*
X212550000Y-131650000D02*
X212550000Y-133428000D01*
X212550000Y-142572000D02*
X212550000Y-144350000D01*
X212550000Y-144350000D02*
X210772000Y-144350000D01*
X201628000Y-144350000D02*
X199850000Y-144350000D01*
X199850000Y-144350000D02*
X199850000Y-142572000D01*
X199850000Y-133428000D02*
X199850000Y-131650000D01*
X180800000Y-131650000D02*
X182578000Y-131650000D01*
X191722000Y-131650000D02*
X193500000Y-131650000D01*
X193500000Y-131650000D02*
X193500000Y-133428000D01*
X193500000Y-142572000D02*
X193500000Y-144350000D01*
X193500000Y-144350000D02*
X191722000Y-144350000D01*
X182578000Y-144350000D02*
X180800000Y-144350000D01*
X180800000Y-144350000D02*
X180800000Y-142572000D01*
X180800000Y-133428000D02*
X180800000Y-131650000D01*
X161750000Y-131650000D02*
X163528000Y-131650000D01*
X172672000Y-131650000D02*
X174450000Y-131650000D01*
X174450000Y-131650000D02*
X174450000Y-133428000D01*
X174450000Y-142572000D02*
X174450000Y-144350000D01*
X174450000Y-144350000D02*
X172672000Y-144350000D01*
X163528000Y-144350000D02*
X161750000Y-144350000D01*
X161750000Y-144350000D02*
X161750000Y-142572000D01*
X161750000Y-133428000D02*
X161750000Y-131650000D01*
X155400000Y-142572000D02*
X155400000Y-144350000D01*
X155400000Y-131650000D02*
X155400000Y-133428000D01*
X153622000Y-131650000D02*
X155400000Y-131650000D01*
X142700000Y-131650000D02*
X144478000Y-131650000D01*
X142700000Y-133428000D02*
X142700000Y-131650000D01*
X142700000Y-144350000D02*
X142700000Y-142572000D01*
X144478000Y-144350000D02*
X142700000Y-144350000D01*
X155400000Y-144350000D02*
X153622000Y-144350000D01*
X123650000Y-131650000D02*
X125428000Y-131650000D01*
X134572000Y-131650000D02*
X136350000Y-131650000D01*
X136350000Y-131650000D02*
X136350000Y-133428000D01*
X136350000Y-142572000D02*
X136350000Y-144350000D01*
X136350000Y-144350000D02*
X134572000Y-144350000D01*
X125428000Y-144350000D02*
X123650000Y-144350000D01*
X123650000Y-144350000D02*
X123650000Y-142572000D01*
X123650000Y-133428000D02*
X123650000Y-131650000D01*
D11*
X242487500Y-182244000D02*
X242487500Y-182344000D01*
X242487500Y-178844000D02*
X242487500Y-182244000D01*
X236587500Y-178844000D02*
X242487500Y-178844000D01*
X236587500Y-182344000D02*
X236587500Y-178844000D01*
X242487500Y-182344000D02*
X236587500Y-182344000D01*
X245162868Y-203726503D02*
X240412868Y-203726503D01*
X245162868Y-199976503D02*
X245162868Y-203726503D01*
X240412868Y-199976503D02*
X245162868Y-199976503D01*
X240412868Y-203726503D02*
X240412868Y-199976503D01*
X237616000Y-197320000D02*
X237616000Y-198920000D01*
X234316000Y-197320000D02*
X237616000Y-197320000D01*
X234316000Y-198920000D02*
X234316000Y-197320000D01*
X237616000Y-198920000D02*
X234316000Y-198920000D01*
X237616000Y-197110000D02*
X234316000Y-197110000D01*
X234316000Y-197110000D02*
X234316000Y-195510000D01*
X234316000Y-195510000D02*
X237616000Y-195510000D01*
X237616000Y-195510000D02*
X237616000Y-197110000D01*
X249466000Y-200026000D02*
X249466000Y-203326000D01*
X249466000Y-203326000D02*
X247866000Y-203326000D01*
X247866000Y-203326000D02*
X247866000Y-200026000D01*
X247866000Y-200026000D02*
X249466000Y-200026000D01*
X227250000Y-188678000D02*
X229975000Y-188678000D01*
X229975000Y-183178000D02*
X227275000Y-183178000D01*
X229975000Y-183178000D02*
X229975000Y-188678000D01*
X227250000Y-188678000D02*
X227250000Y-183178000D01*
X132508000Y-147276000D02*
X132508000Y-141776000D01*
X135233000Y-141776000D02*
X135233000Y-147276000D01*
X135233000Y-141776000D02*
X132533000Y-141776000D01*
X132508000Y-147276000D02*
X135233000Y-147276000D01*
X239814000Y-200026000D02*
X239814000Y-203326000D01*
X239814000Y-203326000D02*
X238214000Y-203326000D01*
X238214000Y-203326000D02*
X238214000Y-200026000D01*
X238214000Y-200026000D02*
X239814000Y-200026000D01*
X245580000Y-200026000D02*
X247180000Y-200026000D01*
X245580000Y-203326000D02*
X245580000Y-200026000D01*
X247180000Y-203326000D02*
X245580000Y-203326000D01*
X247180000Y-200026000D02*
X247180000Y-203326000D01*
X240500000Y-187070000D02*
X240500000Y-183770000D01*
X240500000Y-183770000D02*
X242100000Y-183770000D01*
X242100000Y-183770000D02*
X242100000Y-187070000D01*
X242100000Y-187070000D02*
X240500000Y-187070000D01*
D13*
X130518000Y-145410000D02*
X132118000Y-145410000D01*
X130518000Y-145360000D02*
X132118000Y-145360000D01*
X130518000Y-145310000D02*
X132118000Y-145310000D01*
X130518000Y-145260000D02*
X132118000Y-145260000D01*
X130518000Y-142260000D02*
X130518000Y-141760000D01*
X132118000Y-142260000D02*
X132118000Y-141760000D01*
X132118000Y-145560000D02*
X132118000Y-142160000D01*
X130518000Y-141760000D02*
X132118000Y-141760000D01*
X130518000Y-144660000D02*
X130518000Y-145560000D01*
X130518000Y-142260000D02*
X130518000Y-144660000D01*
X130518000Y-145560000D02*
X132118000Y-145560000D01*
X156680000Y-143274000D02*
X158280000Y-143274000D01*
X156680000Y-139974000D02*
X156680000Y-142374000D01*
X156680000Y-142374000D02*
X156680000Y-143274000D01*
X156680000Y-139474000D02*
X158280000Y-139474000D01*
X158280000Y-143274000D02*
X158280000Y-139874000D01*
X158280000Y-139974000D02*
X158280000Y-139474000D01*
X156680000Y-139974000D02*
X156680000Y-139474000D01*
X156680000Y-142974000D02*
X158280000Y-142974000D01*
X156680000Y-143024000D02*
X158280000Y-143024000D01*
X156680000Y-143074000D02*
X158280000Y-143074000D01*
X156680000Y-143124000D02*
X158280000Y-143124000D01*
X175476000Y-143124000D02*
X177076000Y-143124000D01*
X175476000Y-143074000D02*
X177076000Y-143074000D01*
X175476000Y-143024000D02*
X177076000Y-143024000D01*
X175476000Y-142974000D02*
X177076000Y-142974000D01*
X175476000Y-139974000D02*
X175476000Y-139474000D01*
X177076000Y-139974000D02*
X177076000Y-139474000D01*
X177076000Y-143274000D02*
X177076000Y-139874000D01*
X175476000Y-139474000D02*
X177076000Y-139474000D01*
X175476000Y-142374000D02*
X175476000Y-143274000D01*
X175476000Y-139974000D02*
X175476000Y-142374000D01*
X175476000Y-143274000D02*
X177076000Y-143274000D01*
X194780000Y-143274000D02*
X196380000Y-143274000D01*
X194780000Y-139974000D02*
X194780000Y-142374000D01*
X194780000Y-142374000D02*
X194780000Y-143274000D01*
X194780000Y-139474000D02*
X196380000Y-139474000D01*
X196380000Y-143274000D02*
X196380000Y-139874000D01*
X196380000Y-139974000D02*
X196380000Y-139474000D01*
X194780000Y-139974000D02*
X194780000Y-139474000D01*
X194780000Y-142974000D02*
X196380000Y-142974000D01*
X194780000Y-143024000D02*
X196380000Y-143024000D01*
X194780000Y-143074000D02*
X196380000Y-143074000D01*
X194780000Y-143124000D02*
X196380000Y-143124000D01*
X214084000Y-143124000D02*
X215684000Y-143124000D01*
X214084000Y-143074000D02*
X215684000Y-143074000D01*
X214084000Y-143024000D02*
X215684000Y-143024000D01*
X214084000Y-142974000D02*
X215684000Y-142974000D01*
X214084000Y-139974000D02*
X214084000Y-139474000D01*
X215684000Y-139974000D02*
X215684000Y-139474000D01*
X215684000Y-143274000D02*
X215684000Y-139874000D01*
X214084000Y-139474000D02*
X215684000Y-139474000D01*
X214084000Y-142374000D02*
X214084000Y-143274000D01*
X214084000Y-139974000D02*
X214084000Y-142374000D01*
X214084000Y-143274000D02*
X215684000Y-143274000D01*
X232880000Y-143124000D02*
X234480000Y-143124000D01*
X232880000Y-143074000D02*
X234480000Y-143074000D01*
X232880000Y-143024000D02*
X234480000Y-143024000D01*
X232880000Y-142974000D02*
X234480000Y-142974000D01*
X232880000Y-139974000D02*
X232880000Y-139474000D01*
X234480000Y-139974000D02*
X234480000Y-139474000D01*
X234480000Y-143274000D02*
X234480000Y-139874000D01*
X232880000Y-139474000D02*
X234480000Y-139474000D01*
X232880000Y-142374000D02*
X232880000Y-143274000D01*
X232880000Y-139974000D02*
X232880000Y-142374000D01*
X232880000Y-143274000D02*
X234480000Y-143274000D01*
X252184000Y-143124000D02*
X253784000Y-143124000D01*
X252184000Y-143074000D02*
X253784000Y-143074000D01*
X252184000Y-143024000D02*
X253784000Y-143024000D01*
X252184000Y-142974000D02*
X253784000Y-142974000D01*
X252184000Y-139974000D02*
X252184000Y-139474000D01*
X253784000Y-139974000D02*
X253784000Y-139474000D01*
X253784000Y-143274000D02*
X253784000Y-139874000D01*
X252184000Y-139474000D02*
X253784000Y-139474000D01*
X252184000Y-142374000D02*
X252184000Y-143274000D01*
X252184000Y-139974000D02*
X252184000Y-142374000D01*
X252184000Y-143274000D02*
X253784000Y-143274000D01*
X270980000Y-143124000D02*
X272580000Y-143124000D01*
X270980000Y-143074000D02*
X272580000Y-143074000D01*
X270980000Y-143024000D02*
X272580000Y-143024000D01*
X270980000Y-142974000D02*
X272580000Y-142974000D01*
X270980000Y-139974000D02*
X270980000Y-139474000D01*
X272580000Y-139974000D02*
X272580000Y-139474000D01*
X272580000Y-143274000D02*
X272580000Y-139874000D01*
X270980000Y-139474000D02*
X272580000Y-139474000D01*
X270980000Y-142374000D02*
X270980000Y-143274000D01*
X270980000Y-139974000D02*
X270980000Y-142374000D01*
X270980000Y-143274000D02*
X272580000Y-143274000D01*
X290284000Y-143124000D02*
X291884000Y-143124000D01*
X290284000Y-143074000D02*
X291884000Y-143074000D01*
X290284000Y-143024000D02*
X291884000Y-143024000D01*
X290284000Y-142974000D02*
X291884000Y-142974000D01*
X290284000Y-139974000D02*
X290284000Y-139474000D01*
X291884000Y-139974000D02*
X291884000Y-139474000D01*
X291884000Y-143274000D02*
X291884000Y-139874000D01*
X290284000Y-139474000D02*
X291884000Y-139474000D01*
X290284000Y-142374000D02*
X290284000Y-143274000D01*
X290284000Y-139974000D02*
X290284000Y-142374000D01*
X290284000Y-143274000D02*
X291884000Y-143274000D01*
X309080000Y-143274000D02*
X310680000Y-143274000D01*
X309080000Y-139974000D02*
X309080000Y-142374000D01*
X309080000Y-142374000D02*
X309080000Y-143274000D01*
X309080000Y-139474000D02*
X310680000Y-139474000D01*
X310680000Y-143274000D02*
X310680000Y-139874000D01*
X310680000Y-139974000D02*
X310680000Y-139474000D01*
X309080000Y-139974000D02*
X309080000Y-139474000D01*
X309080000Y-142974000D02*
X310680000Y-142974000D01*
X309080000Y-143024000D02*
X310680000Y-143024000D01*
X309080000Y-143074000D02*
X310680000Y-143074000D01*
X309080000Y-143124000D02*
X310680000Y-143124000D01*
X328384000Y-143124000D02*
X329984000Y-143124000D01*
X328384000Y-143074000D02*
X329984000Y-143074000D01*
X328384000Y-143024000D02*
X329984000Y-143024000D01*
X328384000Y-142974000D02*
X329984000Y-142974000D01*
X328384000Y-139974000D02*
X328384000Y-139474000D01*
X329984000Y-139974000D02*
X329984000Y-139474000D01*
X329984000Y-143274000D02*
X329984000Y-139874000D01*
X328384000Y-139474000D02*
X329984000Y-139474000D01*
X328384000Y-142374000D02*
X328384000Y-143274000D01*
X328384000Y-139974000D02*
X328384000Y-142374000D01*
X328384000Y-143274000D02*
X329984000Y-143274000D01*
X347180000Y-144290000D02*
X348780000Y-144290000D01*
X347180000Y-140990000D02*
X347180000Y-143390000D01*
X347180000Y-143390000D02*
X347180000Y-144290000D01*
X347180000Y-140490000D02*
X348780000Y-140490000D01*
X348780000Y-144290000D02*
X348780000Y-140890000D01*
X348780000Y-140990000D02*
X348780000Y-140490000D01*
X347180000Y-140990000D02*
X347180000Y-140490000D01*
X347180000Y-143990000D02*
X348780000Y-143990000D01*
X347180000Y-144040000D02*
X348780000Y-144040000D01*
X347180000Y-144090000D02*
X348780000Y-144090000D01*
X347180000Y-144140000D02*
X348780000Y-144140000D01*
X351498000Y-144140000D02*
X353098000Y-144140000D01*
X351498000Y-144090000D02*
X353098000Y-144090000D01*
X351498000Y-144040000D02*
X353098000Y-144040000D01*
X351498000Y-143990000D02*
X353098000Y-143990000D01*
X351498000Y-140990000D02*
X351498000Y-140490000D01*
X353098000Y-140990000D02*
X353098000Y-140490000D01*
X353098000Y-144290000D02*
X353098000Y-140890000D01*
X351498000Y-140490000D02*
X353098000Y-140490000D01*
X351498000Y-143390000D02*
X351498000Y-144290000D01*
X351498000Y-140990000D02*
X351498000Y-143390000D01*
X351498000Y-144290000D02*
X353098000Y-144290000D01*
X140424000Y-162070000D02*
X142024000Y-162070000D01*
X140424000Y-158770000D02*
X140424000Y-161170000D01*
X140424000Y-161170000D02*
X140424000Y-162070000D01*
X140424000Y-158270000D02*
X142024000Y-158270000D01*
X142024000Y-162070000D02*
X142024000Y-158670000D01*
X142024000Y-158770000D02*
X142024000Y-158270000D01*
X140424000Y-158770000D02*
X140424000Y-158270000D01*
X140424000Y-161770000D02*
X142024000Y-161770000D01*
X140424000Y-161820000D02*
X142024000Y-161820000D01*
X140424000Y-161870000D02*
X142024000Y-161870000D01*
X140424000Y-161920000D02*
X142024000Y-161920000D01*
X161760000Y-162070000D02*
X163360000Y-162070000D01*
X161760000Y-158770000D02*
X161760000Y-161170000D01*
X161760000Y-161170000D02*
X161760000Y-162070000D01*
X161760000Y-158270000D02*
X163360000Y-158270000D01*
X163360000Y-162070000D02*
X163360000Y-158670000D01*
X163360000Y-158770000D02*
X163360000Y-158270000D01*
X161760000Y-158770000D02*
X161760000Y-158270000D01*
X161760000Y-161770000D02*
X163360000Y-161770000D01*
X161760000Y-161820000D02*
X163360000Y-161820000D01*
X161760000Y-161870000D02*
X163360000Y-161870000D01*
X161760000Y-161920000D02*
X163360000Y-161920000D01*
X180556000Y-162070000D02*
X182156000Y-162070000D01*
X180556000Y-158770000D02*
X180556000Y-161170000D01*
X180556000Y-161170000D02*
X180556000Y-162070000D01*
X180556000Y-158270000D02*
X182156000Y-158270000D01*
X182156000Y-162070000D02*
X182156000Y-158670000D01*
X182156000Y-158770000D02*
X182156000Y-158270000D01*
X180556000Y-158770000D02*
X180556000Y-158270000D01*
X180556000Y-161770000D02*
X182156000Y-161770000D01*
X180556000Y-161820000D02*
X182156000Y-161820000D01*
X180556000Y-161870000D02*
X182156000Y-161870000D01*
X180556000Y-161920000D02*
X182156000Y-161920000D01*
X199860000Y-161920000D02*
X201460000Y-161920000D01*
X199860000Y-161870000D02*
X201460000Y-161870000D01*
X199860000Y-161820000D02*
X201460000Y-161820000D01*
X199860000Y-161770000D02*
X201460000Y-161770000D01*
X199860000Y-158770000D02*
X199860000Y-158270000D01*
X201460000Y-158770000D02*
X201460000Y-158270000D01*
X201460000Y-162070000D02*
X201460000Y-158670000D01*
X199860000Y-158270000D02*
X201460000Y-158270000D01*
X199860000Y-161170000D02*
X199860000Y-162070000D01*
X199860000Y-158770000D02*
X199860000Y-161170000D01*
X199860000Y-162070000D02*
X201460000Y-162070000D01*
X218656000Y-161920000D02*
X220256000Y-161920000D01*
X218656000Y-161870000D02*
X220256000Y-161870000D01*
X218656000Y-161820000D02*
X220256000Y-161820000D01*
X218656000Y-161770000D02*
X220256000Y-161770000D01*
X218656000Y-158770000D02*
X218656000Y-158270000D01*
X220256000Y-158770000D02*
X220256000Y-158270000D01*
X220256000Y-162070000D02*
X220256000Y-158670000D01*
X218656000Y-158270000D02*
X220256000Y-158270000D01*
X218656000Y-161170000D02*
X218656000Y-162070000D01*
X218656000Y-158770000D02*
X218656000Y-161170000D01*
X218656000Y-162070000D02*
X220256000Y-162070000D01*
X237452000Y-161920000D02*
X239052000Y-161920000D01*
X237452000Y-161870000D02*
X239052000Y-161870000D01*
X237452000Y-161820000D02*
X239052000Y-161820000D01*
X237452000Y-161770000D02*
X239052000Y-161770000D01*
X237452000Y-158770000D02*
X237452000Y-158270000D01*
X239052000Y-158770000D02*
X239052000Y-158270000D01*
X239052000Y-162070000D02*
X239052000Y-158670000D01*
X237452000Y-158270000D02*
X239052000Y-158270000D01*
X237452000Y-161170000D02*
X237452000Y-162070000D01*
X237452000Y-158770000D02*
X237452000Y-161170000D01*
X237452000Y-162070000D02*
X239052000Y-162070000D01*
X256756000Y-162070000D02*
X258356000Y-162070000D01*
X256756000Y-158770000D02*
X256756000Y-161170000D01*
X256756000Y-161170000D02*
X256756000Y-162070000D01*
X256756000Y-158270000D02*
X258356000Y-158270000D01*
X258356000Y-162070000D02*
X258356000Y-158670000D01*
X258356000Y-158770000D02*
X258356000Y-158270000D01*
X256756000Y-158770000D02*
X256756000Y-158270000D01*
X256756000Y-161770000D02*
X258356000Y-161770000D01*
X256756000Y-161820000D02*
X258356000Y-161820000D01*
X256756000Y-161870000D02*
X258356000Y-161870000D01*
X256756000Y-161920000D02*
X258356000Y-161920000D01*
X276060000Y-162070000D02*
X277660000Y-162070000D01*
X276060000Y-158770000D02*
X276060000Y-161170000D01*
X276060000Y-161170000D02*
X276060000Y-162070000D01*
X276060000Y-158270000D02*
X277660000Y-158270000D01*
X277660000Y-162070000D02*
X277660000Y-158670000D01*
X277660000Y-158770000D02*
X277660000Y-158270000D01*
X276060000Y-158770000D02*
X276060000Y-158270000D01*
X276060000Y-161770000D02*
X277660000Y-161770000D01*
X276060000Y-161820000D02*
X277660000Y-161820000D01*
X276060000Y-161870000D02*
X277660000Y-161870000D01*
X276060000Y-161920000D02*
X277660000Y-161920000D01*
X294856000Y-162070000D02*
X296456000Y-162070000D01*
X294856000Y-158770000D02*
X294856000Y-161170000D01*
X294856000Y-161170000D02*
X294856000Y-162070000D01*
X294856000Y-158270000D02*
X296456000Y-158270000D01*
X296456000Y-162070000D02*
X296456000Y-158670000D01*
X296456000Y-158770000D02*
X296456000Y-158270000D01*
X294856000Y-158770000D02*
X294856000Y-158270000D01*
X294856000Y-161770000D02*
X296456000Y-161770000D01*
X294856000Y-161820000D02*
X296456000Y-161820000D01*
X294856000Y-161870000D02*
X296456000Y-161870000D01*
X294856000Y-161920000D02*
X296456000Y-161920000D01*
X314160000Y-162070000D02*
X315760000Y-162070000D01*
X314160000Y-158770000D02*
X314160000Y-161170000D01*
X314160000Y-161170000D02*
X314160000Y-162070000D01*
X314160000Y-158270000D02*
X315760000Y-158270000D01*
X315760000Y-162070000D02*
X315760000Y-158670000D01*
X315760000Y-158770000D02*
X315760000Y-158270000D01*
X314160000Y-158770000D02*
X314160000Y-158270000D01*
X314160000Y-161770000D02*
X315760000Y-161770000D01*
X314160000Y-161820000D02*
X315760000Y-161820000D01*
X314160000Y-161870000D02*
X315760000Y-161870000D01*
X314160000Y-161920000D02*
X315760000Y-161920000D01*
X332956000Y-161920000D02*
X334556000Y-161920000D01*
X332956000Y-161870000D02*
X334556000Y-161870000D01*
X332956000Y-161820000D02*
X334556000Y-161820000D01*
X332956000Y-161770000D02*
X334556000Y-161770000D01*
X332956000Y-158770000D02*
X332956000Y-158270000D01*
X334556000Y-158770000D02*
X334556000Y-158270000D01*
X334556000Y-162070000D02*
X334556000Y-158670000D01*
X332956000Y-158270000D02*
X334556000Y-158270000D01*
X332956000Y-161170000D02*
X332956000Y-162070000D01*
X332956000Y-158770000D02*
X332956000Y-161170000D01*
X332956000Y-162070000D02*
X334556000Y-162070000D01*
X359372000Y-162070000D02*
X360972000Y-162070000D01*
X359372000Y-158770000D02*
X359372000Y-161170000D01*
X359372000Y-161170000D02*
X359372000Y-162070000D01*
X359372000Y-158270000D02*
X360972000Y-158270000D01*
X360972000Y-162070000D02*
X360972000Y-158670000D01*
X360972000Y-158770000D02*
X360972000Y-158270000D01*
X359372000Y-158770000D02*
X359372000Y-158270000D01*
X359372000Y-161770000D02*
X360972000Y-161770000D01*
X359372000Y-161820000D02*
X360972000Y-161820000D01*
X359372000Y-161870000D02*
X360972000Y-161870000D01*
X359372000Y-161920000D02*
X360972000Y-161920000D01*
X144996000Y-180866000D02*
X146596000Y-180866000D01*
X144996000Y-177566000D02*
X144996000Y-179966000D01*
X144996000Y-179966000D02*
X144996000Y-180866000D01*
X144996000Y-177066000D02*
X146596000Y-177066000D01*
X146596000Y-180866000D02*
X146596000Y-177466000D01*
X146596000Y-177566000D02*
X146596000Y-177066000D01*
X144996000Y-177566000D02*
X144996000Y-177066000D01*
X144996000Y-180566000D02*
X146596000Y-180566000D01*
X144996000Y-180616000D02*
X146596000Y-180616000D01*
X144996000Y-180666000D02*
X146596000Y-180666000D01*
X144996000Y-180716000D02*
X146596000Y-180716000D01*
X170904000Y-180866000D02*
X172504000Y-180866000D01*
X170904000Y-177566000D02*
X170904000Y-179966000D01*
X170904000Y-179966000D02*
X170904000Y-180866000D01*
X170904000Y-177066000D02*
X172504000Y-177066000D01*
X172504000Y-180866000D02*
X172504000Y-177466000D01*
X172504000Y-177566000D02*
X172504000Y-177066000D01*
X170904000Y-177566000D02*
X170904000Y-177066000D01*
X170904000Y-180566000D02*
X172504000Y-180566000D01*
X170904000Y-180616000D02*
X172504000Y-180616000D01*
X170904000Y-180666000D02*
X172504000Y-180666000D01*
X170904000Y-180716000D02*
X172504000Y-180716000D01*
X190208000Y-180866000D02*
X191808000Y-180866000D01*
X190208000Y-177566000D02*
X190208000Y-179966000D01*
X190208000Y-179966000D02*
X190208000Y-180866000D01*
X190208000Y-177066000D02*
X191808000Y-177066000D01*
X191808000Y-180866000D02*
X191808000Y-177466000D01*
X191808000Y-177566000D02*
X191808000Y-177066000D01*
X190208000Y-177566000D02*
X190208000Y-177066000D01*
X190208000Y-180566000D02*
X191808000Y-180566000D01*
X190208000Y-180616000D02*
X191808000Y-180616000D01*
X190208000Y-180666000D02*
X191808000Y-180666000D01*
X190208000Y-180716000D02*
X191808000Y-180716000D01*
X209004000Y-181058000D02*
X210604000Y-181058000D01*
X209004000Y-181008000D02*
X210604000Y-181008000D01*
X209004000Y-180958000D02*
X210604000Y-180958000D01*
X209004000Y-180908000D02*
X210604000Y-180908000D01*
X209004000Y-177908000D02*
X209004000Y-177408000D01*
X210604000Y-177908000D02*
X210604000Y-177408000D01*
X210604000Y-181208000D02*
X210604000Y-177808000D01*
X209004000Y-177408000D02*
X210604000Y-177408000D01*
X209004000Y-180308000D02*
X209004000Y-181208000D01*
X209004000Y-177908000D02*
X209004000Y-180308000D01*
X209004000Y-181208000D02*
X210604000Y-181208000D01*
X228308000Y-181374000D02*
X229908000Y-181374000D01*
X228308000Y-178074000D02*
X228308000Y-180474000D01*
X228308000Y-180474000D02*
X228308000Y-181374000D01*
X228308000Y-177574000D02*
X229908000Y-177574000D01*
X229908000Y-181374000D02*
X229908000Y-177974000D01*
X229908000Y-178074000D02*
X229908000Y-177574000D01*
X228308000Y-178074000D02*
X228308000Y-177574000D01*
X228308000Y-181074000D02*
X229908000Y-181074000D01*
X228308000Y-181124000D02*
X229908000Y-181124000D01*
X228308000Y-181174000D02*
X229908000Y-181174000D01*
X228308000Y-181224000D02*
X229908000Y-181224000D01*
X247104000Y-181374000D02*
X248704000Y-181374000D01*
X247104000Y-178074000D02*
X247104000Y-180474000D01*
X247104000Y-180474000D02*
X247104000Y-181374000D01*
X247104000Y-177574000D02*
X248704000Y-177574000D01*
X248704000Y-181374000D02*
X248704000Y-177974000D01*
X248704000Y-178074000D02*
X248704000Y-177574000D01*
X247104000Y-178074000D02*
X247104000Y-177574000D01*
X247104000Y-181074000D02*
X248704000Y-181074000D01*
X247104000Y-181124000D02*
X248704000Y-181124000D01*
X247104000Y-181174000D02*
X248704000Y-181174000D01*
X247104000Y-181224000D02*
X248704000Y-181224000D01*
X266408000Y-181224000D02*
X268008000Y-181224000D01*
X266408000Y-181174000D02*
X268008000Y-181174000D01*
X266408000Y-181124000D02*
X268008000Y-181124000D01*
X266408000Y-181074000D02*
X268008000Y-181074000D01*
X266408000Y-178074000D02*
X266408000Y-177574000D01*
X268008000Y-178074000D02*
X268008000Y-177574000D01*
X268008000Y-181374000D02*
X268008000Y-177974000D01*
X266408000Y-177574000D02*
X268008000Y-177574000D01*
X266408000Y-180474000D02*
X266408000Y-181374000D01*
X266408000Y-178074000D02*
X266408000Y-180474000D01*
X266408000Y-181374000D02*
X268008000Y-181374000D01*
X285204000Y-181374000D02*
X286804000Y-181374000D01*
X285204000Y-178074000D02*
X285204000Y-180474000D01*
X285204000Y-180474000D02*
X285204000Y-181374000D01*
X285204000Y-177574000D02*
X286804000Y-177574000D01*
X286804000Y-181374000D02*
X286804000Y-177974000D01*
X286804000Y-178074000D02*
X286804000Y-177574000D01*
X285204000Y-178074000D02*
X285204000Y-177574000D01*
X285204000Y-181074000D02*
X286804000Y-181074000D01*
X285204000Y-181124000D02*
X286804000Y-181124000D01*
X285204000Y-181174000D02*
X286804000Y-181174000D01*
X285204000Y-181224000D02*
X286804000Y-181224000D01*
X304508000Y-181224000D02*
X306108000Y-181224000D01*
X304508000Y-181174000D02*
X306108000Y-181174000D01*
X304508000Y-181124000D02*
X306108000Y-181124000D01*
X304508000Y-181074000D02*
X306108000Y-181074000D01*
X304508000Y-178074000D02*
X304508000Y-177574000D01*
X306108000Y-178074000D02*
X306108000Y-177574000D01*
X306108000Y-181374000D02*
X306108000Y-177974000D01*
X304508000Y-177574000D02*
X306108000Y-177574000D01*
X304508000Y-180474000D02*
X304508000Y-181374000D01*
X304508000Y-178074000D02*
X304508000Y-180474000D01*
X304508000Y-181374000D02*
X306108000Y-181374000D01*
X323304000Y-181374000D02*
X324904000Y-181374000D01*
X323304000Y-178074000D02*
X323304000Y-180474000D01*
X323304000Y-180474000D02*
X323304000Y-181374000D01*
X323304000Y-177574000D02*
X324904000Y-177574000D01*
X324904000Y-181374000D02*
X324904000Y-177974000D01*
X324904000Y-178074000D02*
X324904000Y-177574000D01*
X323304000Y-178074000D02*
X323304000Y-177574000D01*
X323304000Y-181074000D02*
X324904000Y-181074000D01*
X323304000Y-181124000D02*
X324904000Y-181124000D01*
X323304000Y-181174000D02*
X324904000Y-181174000D01*
X323304000Y-181224000D02*
X324904000Y-181224000D01*
X342608000Y-181224000D02*
X344208000Y-181224000D01*
X342608000Y-181174000D02*
X344208000Y-181174000D01*
X342608000Y-181124000D02*
X344208000Y-181124000D01*
X342608000Y-181074000D02*
X344208000Y-181074000D01*
X342608000Y-178074000D02*
X342608000Y-177574000D01*
X344208000Y-178074000D02*
X344208000Y-177574000D01*
X344208000Y-181374000D02*
X344208000Y-177974000D01*
X342608000Y-177574000D02*
X344208000Y-177574000D01*
X342608000Y-180474000D02*
X342608000Y-181374000D01*
X342608000Y-178074000D02*
X342608000Y-180474000D01*
X342608000Y-181374000D02*
X344208000Y-181374000D01*
X346926000Y-181374000D02*
X348526000Y-181374000D01*
X346926000Y-178074000D02*
X346926000Y-180474000D01*
X346926000Y-180474000D02*
X346926000Y-181374000D01*
X346926000Y-177574000D02*
X348526000Y-177574000D01*
X348526000Y-181374000D02*
X348526000Y-177974000D01*
X348526000Y-178074000D02*
X348526000Y-177574000D01*
X346926000Y-178074000D02*
X346926000Y-177574000D01*
X346926000Y-181074000D02*
X348526000Y-181074000D01*
X346926000Y-181124000D02*
X348526000Y-181124000D01*
X346926000Y-181174000D02*
X348526000Y-181174000D01*
X346926000Y-181224000D02*
X348526000Y-181224000D01*
X137884000Y-200170000D02*
X139484000Y-200170000D01*
X137884000Y-196870000D02*
X137884000Y-199270000D01*
X137884000Y-199270000D02*
X137884000Y-200170000D01*
X137884000Y-196370000D02*
X139484000Y-196370000D01*
X139484000Y-200170000D02*
X139484000Y-196770000D01*
X139484000Y-196870000D02*
X139484000Y-196370000D01*
X137884000Y-196870000D02*
X137884000Y-196370000D01*
X137884000Y-199870000D02*
X139484000Y-199870000D01*
X137884000Y-199920000D02*
X139484000Y-199920000D01*
X137884000Y-199970000D02*
X139484000Y-199970000D01*
X137884000Y-200020000D02*
X139484000Y-200020000D01*
X156680000Y-200020000D02*
X158280000Y-200020000D01*
X156680000Y-199970000D02*
X158280000Y-199970000D01*
X156680000Y-199920000D02*
X158280000Y-199920000D01*
X156680000Y-199870000D02*
X158280000Y-199870000D01*
X156680000Y-196870000D02*
X156680000Y-196370000D01*
X158280000Y-196870000D02*
X158280000Y-196370000D01*
X158280000Y-200170000D02*
X158280000Y-196770000D01*
X156680000Y-196370000D02*
X158280000Y-196370000D01*
X156680000Y-199270000D02*
X156680000Y-200170000D01*
X156680000Y-196870000D02*
X156680000Y-199270000D01*
X156680000Y-200170000D02*
X158280000Y-200170000D01*
X175984000Y-200020000D02*
X177584000Y-200020000D01*
X175984000Y-199970000D02*
X177584000Y-199970000D01*
X175984000Y-199920000D02*
X177584000Y-199920000D01*
X175984000Y-199870000D02*
X177584000Y-199870000D01*
X175984000Y-196870000D02*
X175984000Y-196370000D01*
X177584000Y-196870000D02*
X177584000Y-196370000D01*
X177584000Y-200170000D02*
X177584000Y-196770000D01*
X175984000Y-196370000D02*
X177584000Y-196370000D01*
X175984000Y-199270000D02*
X175984000Y-200170000D01*
X175984000Y-196870000D02*
X175984000Y-199270000D01*
X175984000Y-200170000D02*
X177584000Y-200170000D01*
X197320000Y-200020000D02*
X198920000Y-200020000D01*
X197320000Y-199970000D02*
X198920000Y-199970000D01*
X197320000Y-199920000D02*
X198920000Y-199920000D01*
X197320000Y-199870000D02*
X198920000Y-199870000D01*
X197320000Y-196870000D02*
X197320000Y-196370000D01*
X198920000Y-196870000D02*
X198920000Y-196370000D01*
X198920000Y-200170000D02*
X198920000Y-196770000D01*
X197320000Y-196370000D02*
X198920000Y-196370000D01*
X197320000Y-199270000D02*
X197320000Y-200170000D01*
X197320000Y-196870000D02*
X197320000Y-199270000D01*
X197320000Y-200170000D02*
X198920000Y-200170000D01*
X213068000Y-200170000D02*
X214668000Y-200170000D01*
X213068000Y-196870000D02*
X213068000Y-199270000D01*
X213068000Y-199270000D02*
X213068000Y-200170000D01*
X213068000Y-196370000D02*
X214668000Y-196370000D01*
X214668000Y-200170000D02*
X214668000Y-196770000D01*
X214668000Y-196870000D02*
X214668000Y-196370000D01*
X213068000Y-196870000D02*
X213068000Y-196370000D01*
X213068000Y-199870000D02*
X214668000Y-199870000D01*
X213068000Y-199920000D02*
X214668000Y-199920000D01*
X213068000Y-199970000D02*
X214668000Y-199970000D01*
X213068000Y-200020000D02*
X214668000Y-200020000D01*
X255740000Y-200020000D02*
X257340000Y-200020000D01*
X255740000Y-199970000D02*
X257340000Y-199970000D01*
X255740000Y-199920000D02*
X257340000Y-199920000D01*
X255740000Y-199870000D02*
X257340000Y-199870000D01*
X255740000Y-196870000D02*
X255740000Y-196370000D01*
X257340000Y-196870000D02*
X257340000Y-196370000D01*
X257340000Y-200170000D02*
X257340000Y-196770000D01*
X255740000Y-196370000D02*
X257340000Y-196370000D01*
X255740000Y-199270000D02*
X255740000Y-200170000D01*
X255740000Y-196870000D02*
X255740000Y-199270000D01*
X255740000Y-200170000D02*
X257340000Y-200170000D01*
X306540000Y-200170000D02*
X308140000Y-200170000D01*
X306540000Y-196870000D02*
X306540000Y-199270000D01*
X306540000Y-199270000D02*
X306540000Y-200170000D01*
X306540000Y-196370000D02*
X308140000Y-196370000D01*
X308140000Y-200170000D02*
X308140000Y-196770000D01*
X308140000Y-196870000D02*
X308140000Y-196370000D01*
X306540000Y-196870000D02*
X306540000Y-196370000D01*
X306540000Y-199870000D02*
X308140000Y-199870000D01*
X306540000Y-199920000D02*
X308140000Y-199920000D01*
X306540000Y-199970000D02*
X308140000Y-199970000D01*
X306540000Y-200020000D02*
X308140000Y-200020000D01*
X328130000Y-200020000D02*
X329730000Y-200020000D01*
X328130000Y-199970000D02*
X329730000Y-199970000D01*
X328130000Y-199920000D02*
X329730000Y-199920000D01*
X328130000Y-199870000D02*
X329730000Y-199870000D01*
X328130000Y-196870000D02*
X328130000Y-196370000D01*
X329730000Y-196870000D02*
X329730000Y-196370000D01*
X329730000Y-200170000D02*
X329730000Y-196770000D01*
X328130000Y-196370000D02*
X329730000Y-196370000D01*
X328130000Y-199270000D02*
X328130000Y-200170000D01*
X328130000Y-196870000D02*
X328130000Y-199270000D01*
X328130000Y-200170000D02*
X329730000Y-200170000D01*
X347434000Y-200170000D02*
X349034000Y-200170000D01*
X347434000Y-196870000D02*
X347434000Y-199270000D01*
X347434000Y-199270000D02*
X347434000Y-200170000D01*
X347434000Y-196370000D02*
X349034000Y-196370000D01*
X349034000Y-200170000D02*
X349034000Y-196770000D01*
X349034000Y-196870000D02*
X349034000Y-196370000D01*
X347434000Y-196870000D02*
X347434000Y-196370000D01*
X347434000Y-199870000D02*
X349034000Y-199870000D01*
X347434000Y-199920000D02*
X349034000Y-199920000D01*
X347434000Y-199970000D02*
X349034000Y-199970000D01*
X347434000Y-200020000D02*
X349034000Y-200020000D01*
X364706000Y-200020000D02*
X366306000Y-200020000D01*
X364706000Y-199970000D02*
X366306000Y-199970000D01*
X364706000Y-199920000D02*
X366306000Y-199920000D01*
X364706000Y-199870000D02*
X366306000Y-199870000D01*
X364706000Y-196870000D02*
X364706000Y-196370000D01*
X366306000Y-196870000D02*
X366306000Y-196370000D01*
X366306000Y-200170000D02*
X366306000Y-196770000D01*
X364706000Y-196370000D02*
X366306000Y-196370000D01*
X364706000Y-199270000D02*
X364706000Y-200170000D01*
X364706000Y-196870000D02*
X364706000Y-199270000D01*
X364706000Y-200170000D02*
X366306000Y-200170000D01*
D11*
X142704000Y-147400000D02*
X137204000Y-147400000D01*
X137204000Y-144675000D02*
X142704000Y-144675000D01*
X137204000Y-144675000D02*
X137204000Y-147375000D01*
X142704000Y-147400000D02*
X142704000Y-144675000D01*
X238722000Y-187070000D02*
X238722000Y-183770000D01*
X238722000Y-183770000D02*
X240322000Y-183770000D01*
X240322000Y-183770000D02*
X240322000Y-187070000D01*
X240322000Y-187070000D02*
X238722000Y-187070000D01*
X250826000Y-193586000D02*
X250826000Y-191986000D01*
X254126000Y-193586000D02*
X250826000Y-193586000D01*
X254126000Y-191986000D02*
X254126000Y-193586000D01*
X250826000Y-191986000D02*
X254126000Y-191986000D01*
X231014000Y-195872000D02*
X231014000Y-194272000D01*
X234314000Y-195872000D02*
X231014000Y-195872000D01*
X234314000Y-194272000D02*
X234314000Y-195872000D01*
X231014000Y-194272000D02*
X234314000Y-194272000D01*
X231014000Y-192240000D02*
X234314000Y-192240000D01*
X234314000Y-192240000D02*
X234314000Y-193840000D01*
X234314000Y-193840000D02*
X231014000Y-193840000D01*
X231014000Y-193840000D02*
X231014000Y-192240000D01*
X141948000Y-141098000D02*
X143548000Y-141098000D01*
X141948000Y-144398000D02*
X141948000Y-141098000D01*
X143548000Y-144398000D02*
X141948000Y-144398000D01*
X143548000Y-141098000D02*
X143548000Y-144398000D01*
X137960000Y-141098000D02*
X137960000Y-144398000D01*
X137960000Y-144398000D02*
X136360000Y-144398000D01*
X136360000Y-144398000D02*
X136360000Y-141098000D01*
X136360000Y-141098000D02*
X137960000Y-141098000D01*
X242369652Y-195594000D02*
G75*
G03X242369652Y-195594000I-371652J0D01*
G01*
X241298000Y-190244000D02*
X247373000Y-190244000D01*
X247373000Y-190244000D02*
X247373000Y-196369000D01*
X247373000Y-196369000D02*
X241923000Y-196369000D01*
X241923000Y-196369000D02*
X241273000Y-195719000D01*
X241273000Y-195719000D02*
X241273000Y-190244000D01*
D14*
X235104761Y-190185714D02*
X235066666Y-190223809D01*
X234952380Y-190261904D01*
X234876190Y-190261904D01*
X234761904Y-190223809D01*
X234685714Y-190147619D01*
X234647619Y-190071428D01*
X234609523Y-189919047D01*
X234609523Y-189804761D01*
X234647619Y-189652380D01*
X234685714Y-189576190D01*
X234761904Y-189500000D01*
X234876190Y-189461904D01*
X234952380Y-189461904D01*
X235066666Y-189500000D01*
X235104761Y-189538095D01*
X235866666Y-190261904D02*
X235409523Y-190261904D01*
X235638095Y-190261904D02*
X235638095Y-189461904D01*
X235561904Y-189576190D01*
X235485714Y-189652380D01*
X235409523Y-189690476D01*
X236628571Y-190261904D02*
X236171428Y-190261904D01*
X236400000Y-190261904D02*
X236400000Y-189461904D01*
X236323809Y-189576190D01*
X236247619Y-189652380D01*
X236171428Y-189690476D01*
X237123809Y-189461904D02*
X237200000Y-189461904D01*
X237276190Y-189500000D01*
X237314285Y-189538095D01*
X237352380Y-189614285D01*
X237390476Y-189766666D01*
X237390476Y-189957142D01*
X237352380Y-190109523D01*
X237314285Y-190185714D01*
X237276190Y-190223809D01*
X237200000Y-190261904D01*
X237123809Y-190261904D01*
X237047619Y-190223809D01*
X237009523Y-190185714D01*
X236971428Y-190109523D01*
X236933333Y-189957142D01*
X236933333Y-189766666D01*
X236971428Y-189614285D01*
X237009523Y-189538095D01*
X237047619Y-189500000D01*
X237123809Y-189461904D01*
X235523809Y-194461904D02*
X235066666Y-194461904D01*
X235295238Y-194461904D02*
X235295238Y-193661904D01*
X235219047Y-193776190D01*
X235142857Y-193852380D01*
X235066666Y-193890476D01*
X236209523Y-193928571D02*
X236209523Y-194461904D01*
X235866666Y-193928571D02*
X235866666Y-194347619D01*
X235904761Y-194423809D01*
X235980952Y-194461904D01*
X236095238Y-194461904D01*
X236171428Y-194423809D01*
X236209523Y-194385714D01*
X236857142Y-194042857D02*
X236590476Y-194042857D01*
X236590476Y-194461904D02*
X236590476Y-193661904D01*
X236971428Y-193661904D01*
X138243523Y-142024380D02*
X138243523Y-141024380D01*
X138481619Y-141024380D01*
X138624476Y-141072000D01*
X138719714Y-141167238D01*
X138767333Y-141262476D01*
X138814952Y-141452952D01*
X138814952Y-141595809D01*
X138767333Y-141786285D01*
X138719714Y-141881523D01*
X138624476Y-141976761D01*
X138481619Y-142024380D01*
X138243523Y-142024380D01*
X139195904Y-141119619D02*
X139243523Y-141072000D01*
X139338761Y-141024380D01*
X139576857Y-141024380D01*
X139672095Y-141072000D01*
X139719714Y-141119619D01*
X139767333Y-141214857D01*
X139767333Y-141310095D01*
X139719714Y-141452952D01*
X139148285Y-142024380D01*
X139767333Y-142024380D01*
X140386380Y-141024380D02*
X140481619Y-141024380D01*
X140576857Y-141072000D01*
X140624476Y-141119619D01*
X140672095Y-141214857D01*
X140719714Y-141405333D01*
X140719714Y-141643428D01*
X140672095Y-141833904D01*
X140624476Y-141929142D01*
X140576857Y-141976761D01*
X140481619Y-142024380D01*
X140386380Y-142024380D01*
X140291142Y-141976761D01*
X140243523Y-141929142D01*
X140195904Y-141833904D01*
X140148285Y-141643428D01*
X140148285Y-141405333D01*
X140195904Y-141214857D01*
X140243523Y-141119619D01*
X140291142Y-141072000D01*
X140386380Y-141024380D01*
X141100666Y-141119619D02*
X141148285Y-141072000D01*
X141243523Y-141024380D01*
X141481619Y-141024380D01*
X141576857Y-141072000D01*
X141624476Y-141119619D01*
X141672095Y-141214857D01*
X141672095Y-141310095D01*
X141624476Y-141452952D01*
X141053047Y-142024380D01*
X141672095Y-142024380D01*
D15*
X236927976Y-178492809D02*
X237042261Y-178530904D01*
X237232738Y-178530904D01*
X237308928Y-178492809D01*
X237347023Y-178454714D01*
X237385119Y-178378523D01*
X237385119Y-178302333D01*
X237347023Y-178226142D01*
X237308928Y-178188047D01*
X237232738Y-178149952D01*
X237080357Y-178111857D01*
X237004166Y-178073761D01*
X236966071Y-178035666D01*
X236927976Y-177959476D01*
X236927976Y-177883285D01*
X236966071Y-177807095D01*
X237004166Y-177769000D01*
X237080357Y-177730904D01*
X237270833Y-177730904D01*
X237385119Y-177769000D01*
X237651785Y-177730904D02*
X237842261Y-178530904D01*
X237994642Y-177959476D01*
X238147023Y-178530904D01*
X238337500Y-177730904D01*
X238451785Y-178607095D02*
X239061309Y-178607095D01*
X239251785Y-178530904D02*
X239251785Y-177730904D01*
X239556547Y-177730904D01*
X239632738Y-177769000D01*
X239670833Y-177807095D01*
X239708928Y-177883285D01*
X239708928Y-177997571D01*
X239670833Y-178073761D01*
X239632738Y-178111857D01*
X239556547Y-178149952D01*
X239251785Y-178149952D01*
X240051785Y-177730904D02*
X240051785Y-178378523D01*
X240089880Y-178454714D01*
X240127976Y-178492809D01*
X240204166Y-178530904D01*
X240356547Y-178530904D01*
X240432738Y-178492809D01*
X240470833Y-178454714D01*
X240508928Y-178378523D01*
X240508928Y-177730904D01*
X240851785Y-178492809D02*
X240966071Y-178530904D01*
X241156547Y-178530904D01*
X241232738Y-178492809D01*
X241270833Y-178454714D01*
X241308928Y-178378523D01*
X241308928Y-178302333D01*
X241270833Y-178226142D01*
X241232738Y-178188047D01*
X241156547Y-178149952D01*
X241004166Y-178111857D01*
X240927976Y-178073761D01*
X240889880Y-178035666D01*
X240851785Y-177959476D01*
X240851785Y-177883285D01*
X240889880Y-177807095D01*
X240927976Y-177769000D01*
X241004166Y-177730904D01*
X241194642Y-177730904D01*
X241308928Y-177769000D01*
X241651785Y-178530904D02*
X241651785Y-177730904D01*
X241651785Y-178111857D02*
X242108928Y-178111857D01*
X242108928Y-178530904D02*
X242108928Y-177730904D01*
D14*
X235070761Y-199805714D02*
X235032666Y-199843809D01*
X234918380Y-199881904D01*
X234842190Y-199881904D01*
X234727904Y-199843809D01*
X234651714Y-199767619D01*
X234613619Y-199691428D01*
X234575523Y-199539047D01*
X234575523Y-199424761D01*
X234613619Y-199272380D01*
X234651714Y-199196190D01*
X234727904Y-199120000D01*
X234842190Y-199081904D01*
X234918380Y-199081904D01*
X235032666Y-199120000D01*
X235070761Y-199158095D01*
X235832666Y-199881904D02*
X235375523Y-199881904D01*
X235604095Y-199881904D02*
X235604095Y-199081904D01*
X235527904Y-199196190D01*
X235451714Y-199272380D01*
X235375523Y-199310476D01*
X236327904Y-199081904D02*
X236404095Y-199081904D01*
X236480285Y-199120000D01*
X236518380Y-199158095D01*
X236556476Y-199234285D01*
X236594571Y-199386666D01*
X236594571Y-199577142D01*
X236556476Y-199729523D01*
X236518380Y-199805714D01*
X236480285Y-199843809D01*
X236404095Y-199881904D01*
X236327904Y-199881904D01*
X236251714Y-199843809D01*
X236213619Y-199805714D01*
X236175523Y-199729523D01*
X236137428Y-199577142D01*
X236137428Y-199386666D01*
X236175523Y-199234285D01*
X236213619Y-199158095D01*
X236251714Y-199120000D01*
X236327904Y-199081904D01*
X237356476Y-199881904D02*
X236899333Y-199881904D01*
X237127904Y-199881904D02*
X237127904Y-199081904D01*
X237051714Y-199196190D01*
X236975523Y-199272380D01*
X236899333Y-199310476D01*
X234651714Y-196206904D02*
X234727904Y-196206904D01*
X234804095Y-196245000D01*
X234842190Y-196283095D01*
X234880285Y-196359285D01*
X234918380Y-196511666D01*
X234918380Y-196702142D01*
X234880285Y-196854523D01*
X234842190Y-196930714D01*
X234804095Y-196968809D01*
X234727904Y-197006904D01*
X234651714Y-197006904D01*
X234575523Y-196968809D01*
X234537428Y-196930714D01*
X234499333Y-196854523D01*
X234461238Y-196702142D01*
X234461238Y-196511666D01*
X234499333Y-196359285D01*
X234537428Y-196283095D01*
X234575523Y-196245000D01*
X234651714Y-196206904D01*
X235299333Y-196968809D02*
X235299333Y-197006904D01*
X235261238Y-197083095D01*
X235223142Y-197121190D01*
X236061238Y-197006904D02*
X235604095Y-197006904D01*
X235832666Y-197006904D02*
X235832666Y-196206904D01*
X235756476Y-196321190D01*
X235680285Y-196397380D01*
X235604095Y-196435476D01*
X236746952Y-196473571D02*
X236746952Y-197006904D01*
X236404095Y-196473571D02*
X236404095Y-196892619D01*
X236442190Y-196968809D01*
X236518380Y-197006904D01*
X236632666Y-197006904D01*
X236708857Y-196968809D01*
X236746952Y-196930714D01*
X237394571Y-196587857D02*
X237127904Y-196587857D01*
X237127904Y-197006904D02*
X237127904Y-196206904D01*
X237508857Y-196206904D01*
X235070761Y-197995714D02*
X235032666Y-198033809D01*
X234918380Y-198071904D01*
X234842190Y-198071904D01*
X234727904Y-198033809D01*
X234651714Y-197957619D01*
X234613619Y-197881428D01*
X234575523Y-197729047D01*
X234575523Y-197614761D01*
X234613619Y-197462380D01*
X234651714Y-197386190D01*
X234727904Y-197310000D01*
X234842190Y-197271904D01*
X234918380Y-197271904D01*
X235032666Y-197310000D01*
X235070761Y-197348095D01*
X235832666Y-198071904D02*
X235375523Y-198071904D01*
X235604095Y-198071904D02*
X235604095Y-197271904D01*
X235527904Y-197386190D01*
X235451714Y-197462380D01*
X235375523Y-197500476D01*
X236327904Y-197271904D02*
X236404095Y-197271904D01*
X236480285Y-197310000D01*
X236518380Y-197348095D01*
X236556476Y-197424285D01*
X236594571Y-197576666D01*
X236594571Y-197767142D01*
X236556476Y-197919523D01*
X236518380Y-197995714D01*
X236480285Y-198033809D01*
X236404095Y-198071904D01*
X236327904Y-198071904D01*
X236251714Y-198033809D01*
X236213619Y-197995714D01*
X236175523Y-197919523D01*
X236137428Y-197767142D01*
X236137428Y-197576666D01*
X236175523Y-197424285D01*
X236213619Y-197348095D01*
X236251714Y-197310000D01*
X236327904Y-197271904D01*
X236899333Y-197348095D02*
X236937428Y-197310000D01*
X237013619Y-197271904D01*
X237204095Y-197271904D01*
X237280285Y-197310000D01*
X237318380Y-197348095D01*
X237356476Y-197424285D01*
X237356476Y-197500476D01*
X237318380Y-197614761D01*
X236861238Y-198071904D01*
X237356476Y-198071904D01*
X234651714Y-194396904D02*
X234727904Y-194396904D01*
X234804095Y-194435000D01*
X234842190Y-194473095D01*
X234880285Y-194549285D01*
X234918380Y-194701666D01*
X234918380Y-194892142D01*
X234880285Y-195044523D01*
X234842190Y-195120714D01*
X234804095Y-195158809D01*
X234727904Y-195196904D01*
X234651714Y-195196904D01*
X234575523Y-195158809D01*
X234537428Y-195120714D01*
X234499333Y-195044523D01*
X234461238Y-194892142D01*
X234461238Y-194701666D01*
X234499333Y-194549285D01*
X234537428Y-194473095D01*
X234575523Y-194435000D01*
X234651714Y-194396904D01*
X235299333Y-195158809D02*
X235299333Y-195196904D01*
X235261238Y-195273095D01*
X235223142Y-195311190D01*
X236061238Y-195196904D02*
X235604095Y-195196904D01*
X235832666Y-195196904D02*
X235832666Y-194396904D01*
X235756476Y-194511190D01*
X235680285Y-194587380D01*
X235604095Y-194625476D01*
X236746952Y-194663571D02*
X236746952Y-195196904D01*
X236404095Y-194663571D02*
X236404095Y-195082619D01*
X236442190Y-195158809D01*
X236518380Y-195196904D01*
X236632666Y-195196904D01*
X236708857Y-195158809D01*
X236746952Y-195120714D01*
X237394571Y-194777857D02*
X237127904Y-194777857D01*
X237127904Y-195196904D02*
X237127904Y-194396904D01*
X237508857Y-194396904D01*
X250351714Y-202571238D02*
X250389809Y-202609333D01*
X250427904Y-202723619D01*
X250427904Y-202799809D01*
X250389809Y-202914095D01*
X250313619Y-202990285D01*
X250237428Y-203028380D01*
X250085047Y-203066476D01*
X249970761Y-203066476D01*
X249818380Y-203028380D01*
X249742190Y-202990285D01*
X249666000Y-202914095D01*
X249627904Y-202799809D01*
X249627904Y-202723619D01*
X249666000Y-202609333D01*
X249704095Y-202571238D01*
X250427904Y-201809333D02*
X250427904Y-202266476D01*
X250427904Y-202037904D02*
X249627904Y-202037904D01*
X249742190Y-202114095D01*
X249818380Y-202190285D01*
X249856476Y-202266476D01*
X249627904Y-201314095D02*
X249627904Y-201237904D01*
X249666000Y-201161714D01*
X249704095Y-201123619D01*
X249780285Y-201085523D01*
X249932666Y-201047428D01*
X250123142Y-201047428D01*
X250275523Y-201085523D01*
X250351714Y-201123619D01*
X250389809Y-201161714D01*
X250427904Y-201237904D01*
X250427904Y-201314095D01*
X250389809Y-201390285D01*
X250351714Y-201428380D01*
X250275523Y-201466476D01*
X250123142Y-201504571D01*
X249932666Y-201504571D01*
X249780285Y-201466476D01*
X249704095Y-201428380D01*
X249666000Y-201390285D01*
X249627904Y-201314095D01*
X249627904Y-200780761D02*
X249627904Y-200285523D01*
X249932666Y-200552190D01*
X249932666Y-200437904D01*
X249970761Y-200361714D01*
X250008857Y-200323619D01*
X250085047Y-200285523D01*
X250275523Y-200285523D01*
X250351714Y-200323619D01*
X250389809Y-200361714D01*
X250427904Y-200437904D01*
X250427904Y-200666476D01*
X250389809Y-200742666D01*
X250351714Y-200780761D01*
X246752904Y-202990285D02*
X246752904Y-202914095D01*
X246791000Y-202837904D01*
X246829095Y-202799809D01*
X246905285Y-202761714D01*
X247057666Y-202723619D01*
X247248142Y-202723619D01*
X247400523Y-202761714D01*
X247476714Y-202799809D01*
X247514809Y-202837904D01*
X247552904Y-202914095D01*
X247552904Y-202990285D01*
X247514809Y-203066476D01*
X247476714Y-203104571D01*
X247400523Y-203142666D01*
X247248142Y-203180761D01*
X247057666Y-203180761D01*
X246905285Y-203142666D01*
X246829095Y-203104571D01*
X246791000Y-203066476D01*
X246752904Y-202990285D01*
X247514809Y-202342666D02*
X247552904Y-202342666D01*
X247629095Y-202380761D01*
X247667190Y-202418857D01*
X247552904Y-201580761D02*
X247552904Y-202037904D01*
X247552904Y-201809333D02*
X246752904Y-201809333D01*
X246867190Y-201885523D01*
X246943380Y-201961714D01*
X246981476Y-202037904D01*
X247019571Y-200895047D02*
X247552904Y-200895047D01*
X247019571Y-201237904D02*
X247438619Y-201237904D01*
X247514809Y-201199809D01*
X247552904Y-201123619D01*
X247552904Y-201009333D01*
X247514809Y-200933142D01*
X247476714Y-200895047D01*
X247133857Y-200247428D02*
X247133857Y-200514095D01*
X247552904Y-200514095D02*
X246752904Y-200514095D01*
X246752904Y-200133142D01*
X226785714Y-186823238D02*
X226823809Y-186861333D01*
X226861904Y-186975619D01*
X226861904Y-187051809D01*
X226823809Y-187166095D01*
X226747619Y-187242285D01*
X226671428Y-187280380D01*
X226519047Y-187318476D01*
X226404761Y-187318476D01*
X226252380Y-187280380D01*
X226176190Y-187242285D01*
X226100000Y-187166095D01*
X226061904Y-187051809D01*
X226061904Y-186975619D01*
X226100000Y-186861333D01*
X226138095Y-186823238D01*
X226861904Y-186061333D02*
X226861904Y-186518476D01*
X226861904Y-186289904D02*
X226061904Y-186289904D01*
X226176190Y-186366095D01*
X226252380Y-186442285D01*
X226290476Y-186518476D01*
X226061904Y-185566095D02*
X226061904Y-185489904D01*
X226100000Y-185413714D01*
X226138095Y-185375619D01*
X226214285Y-185337523D01*
X226366666Y-185299428D01*
X226557142Y-185299428D01*
X226709523Y-185337523D01*
X226785714Y-185375619D01*
X226823809Y-185413714D01*
X226861904Y-185489904D01*
X226861904Y-185566095D01*
X226823809Y-185642285D01*
X226785714Y-185680380D01*
X226709523Y-185718476D01*
X226557142Y-185756571D01*
X226366666Y-185756571D01*
X226214285Y-185718476D01*
X226138095Y-185680380D01*
X226100000Y-185642285D01*
X226061904Y-185566095D01*
X226061904Y-184575619D02*
X226061904Y-184956571D01*
X226442857Y-184994666D01*
X226404761Y-184956571D01*
X226366666Y-184880380D01*
X226366666Y-184689904D01*
X226404761Y-184613714D01*
X226442857Y-184575619D01*
X226519047Y-184537523D01*
X226709523Y-184537523D01*
X226785714Y-184575619D01*
X226823809Y-184613714D01*
X226861904Y-184689904D01*
X226861904Y-184880380D01*
X226823809Y-184956571D01*
X226785714Y-184994666D01*
X230528571Y-187051809D02*
X231061904Y-187051809D01*
X230223809Y-187242285D02*
X230795238Y-187432761D01*
X230795238Y-186937523D01*
X231023809Y-186594666D02*
X231061904Y-186594666D01*
X231138095Y-186632761D01*
X231176190Y-186670857D01*
X230261904Y-186328000D02*
X230261904Y-185794666D01*
X231061904Y-186137523D01*
X230528571Y-185147047D02*
X231061904Y-185147047D01*
X230528571Y-185489904D02*
X230947619Y-185489904D01*
X231023809Y-185451809D01*
X231061904Y-185375619D01*
X231061904Y-185261333D01*
X231023809Y-185185142D01*
X230985714Y-185147047D01*
X230642857Y-184499428D02*
X230642857Y-184766095D01*
X231061904Y-184766095D02*
X230261904Y-184766095D01*
X230261904Y-184385142D01*
X132043714Y-145421238D02*
X132081809Y-145459333D01*
X132119904Y-145573619D01*
X132119904Y-145649809D01*
X132081809Y-145764095D01*
X132005619Y-145840285D01*
X131929428Y-145878380D01*
X131777047Y-145916476D01*
X131662761Y-145916476D01*
X131510380Y-145878380D01*
X131434190Y-145840285D01*
X131358000Y-145764095D01*
X131319904Y-145649809D01*
X131319904Y-145573619D01*
X131358000Y-145459333D01*
X131396095Y-145421238D01*
X132119904Y-144659333D02*
X132119904Y-145116476D01*
X132119904Y-144887904D02*
X131319904Y-144887904D01*
X131434190Y-144964095D01*
X131510380Y-145040285D01*
X131548476Y-145116476D01*
X131319904Y-144164095D02*
X131319904Y-144087904D01*
X131358000Y-144011714D01*
X131396095Y-143973619D01*
X131472285Y-143935523D01*
X131624666Y-143897428D01*
X131815142Y-143897428D01*
X131967523Y-143935523D01*
X132043714Y-143973619D01*
X132081809Y-144011714D01*
X132119904Y-144087904D01*
X132119904Y-144164095D01*
X132081809Y-144240285D01*
X132043714Y-144278380D01*
X131967523Y-144316476D01*
X131815142Y-144354571D01*
X131624666Y-144354571D01*
X131472285Y-144316476D01*
X131396095Y-144278380D01*
X131358000Y-144240285D01*
X131319904Y-144164095D01*
X131319904Y-143211714D02*
X131319904Y-143364095D01*
X131358000Y-143440285D01*
X131396095Y-143478380D01*
X131510380Y-143554571D01*
X131662761Y-143592666D01*
X131967523Y-143592666D01*
X132043714Y-143554571D01*
X132081809Y-143516476D01*
X132119904Y-143440285D01*
X132119904Y-143287904D01*
X132081809Y-143211714D01*
X132043714Y-143173619D01*
X131967523Y-143135523D01*
X131777047Y-143135523D01*
X131700857Y-143173619D01*
X131662761Y-143211714D01*
X131624666Y-143287904D01*
X131624666Y-143440285D01*
X131662761Y-143516476D01*
X131700857Y-143554571D01*
X131777047Y-143592666D01*
X135786571Y-145649809D02*
X136319904Y-145649809D01*
X135481809Y-145840285D02*
X136053238Y-146030761D01*
X136053238Y-145535523D01*
X136281809Y-145192666D02*
X136319904Y-145192666D01*
X136396095Y-145230761D01*
X136434190Y-145268857D01*
X135519904Y-144926000D02*
X135519904Y-144392666D01*
X136319904Y-144735523D01*
X135786571Y-143745047D02*
X136319904Y-143745047D01*
X135786571Y-144087904D02*
X136205619Y-144087904D01*
X136281809Y-144049809D01*
X136319904Y-143973619D01*
X136319904Y-143859333D01*
X136281809Y-143783142D01*
X136243714Y-143745047D01*
X135900857Y-143097428D02*
X135900857Y-143364095D01*
X136319904Y-143364095D02*
X135519904Y-143364095D01*
X135519904Y-142983142D01*
X240699714Y-202571238D02*
X240737809Y-202609333D01*
X240775904Y-202723619D01*
X240775904Y-202799809D01*
X240737809Y-202914095D01*
X240661619Y-202990285D01*
X240585428Y-203028380D01*
X240433047Y-203066476D01*
X240318761Y-203066476D01*
X240166380Y-203028380D01*
X240090190Y-202990285D01*
X240014000Y-202914095D01*
X239975904Y-202799809D01*
X239975904Y-202723619D01*
X240014000Y-202609333D01*
X240052095Y-202571238D01*
X240775904Y-201809333D02*
X240775904Y-202266476D01*
X240775904Y-202037904D02*
X239975904Y-202037904D01*
X240090190Y-202114095D01*
X240166380Y-202190285D01*
X240204476Y-202266476D01*
X239975904Y-201314095D02*
X239975904Y-201237904D01*
X240014000Y-201161714D01*
X240052095Y-201123619D01*
X240128285Y-201085523D01*
X240280666Y-201047428D01*
X240471142Y-201047428D01*
X240623523Y-201085523D01*
X240699714Y-201123619D01*
X240737809Y-201161714D01*
X240775904Y-201237904D01*
X240775904Y-201314095D01*
X240737809Y-201390285D01*
X240699714Y-201428380D01*
X240623523Y-201466476D01*
X240471142Y-201504571D01*
X240280666Y-201504571D01*
X240128285Y-201466476D01*
X240052095Y-201428380D01*
X240014000Y-201390285D01*
X239975904Y-201314095D01*
X239975904Y-200780761D02*
X239975904Y-200247428D01*
X240775904Y-200590285D01*
X237824714Y-202856952D02*
X237862809Y-202895047D01*
X237900904Y-203009333D01*
X237900904Y-203085523D01*
X237862809Y-203199809D01*
X237786619Y-203276000D01*
X237710428Y-203314095D01*
X237558047Y-203352190D01*
X237443761Y-203352190D01*
X237291380Y-203314095D01*
X237215190Y-203276000D01*
X237139000Y-203199809D01*
X237100904Y-203085523D01*
X237100904Y-203009333D01*
X237139000Y-202895047D01*
X237177095Y-202856952D01*
X237977095Y-202704571D02*
X237977095Y-202095047D01*
X237900904Y-201980761D02*
X237367571Y-201561714D01*
X237367571Y-201980761D02*
X237900904Y-201561714D01*
X237367571Y-201371238D02*
X237367571Y-201066476D01*
X237100904Y-201256952D02*
X237786619Y-201256952D01*
X237862809Y-201218857D01*
X237900904Y-201142666D01*
X237900904Y-201066476D01*
X237900904Y-200456952D02*
X237481857Y-200456952D01*
X237405666Y-200495047D01*
X237367571Y-200571238D01*
X237367571Y-200723619D01*
X237405666Y-200799809D01*
X237862809Y-200456952D02*
X237900904Y-200533142D01*
X237900904Y-200723619D01*
X237862809Y-200799809D01*
X237786619Y-200837904D01*
X237710428Y-200837904D01*
X237634238Y-200799809D01*
X237596142Y-200723619D01*
X237596142Y-200533142D01*
X237558047Y-200456952D01*
X237900904Y-199961714D02*
X237862809Y-200037904D01*
X237786619Y-200076000D01*
X237100904Y-200076000D01*
X248065714Y-202571238D02*
X248103809Y-202609333D01*
X248141904Y-202723619D01*
X248141904Y-202799809D01*
X248103809Y-202914095D01*
X248027619Y-202990285D01*
X247951428Y-203028380D01*
X247799047Y-203066476D01*
X247684761Y-203066476D01*
X247532380Y-203028380D01*
X247456190Y-202990285D01*
X247380000Y-202914095D01*
X247341904Y-202799809D01*
X247341904Y-202723619D01*
X247380000Y-202609333D01*
X247418095Y-202571238D01*
X248141904Y-201809333D02*
X248141904Y-202266476D01*
X248141904Y-202037904D02*
X247341904Y-202037904D01*
X247456190Y-202114095D01*
X247532380Y-202190285D01*
X247570476Y-202266476D01*
X247341904Y-201314095D02*
X247341904Y-201237904D01*
X247380000Y-201161714D01*
X247418095Y-201123619D01*
X247494285Y-201085523D01*
X247646666Y-201047428D01*
X247837142Y-201047428D01*
X247989523Y-201085523D01*
X248065714Y-201123619D01*
X248103809Y-201161714D01*
X248141904Y-201237904D01*
X248141904Y-201314095D01*
X248103809Y-201390285D01*
X248065714Y-201428380D01*
X247989523Y-201466476D01*
X247837142Y-201504571D01*
X247646666Y-201504571D01*
X247494285Y-201466476D01*
X247418095Y-201428380D01*
X247380000Y-201390285D01*
X247341904Y-201314095D01*
X247684761Y-200590285D02*
X247646666Y-200666476D01*
X247608571Y-200704571D01*
X247532380Y-200742666D01*
X247494285Y-200742666D01*
X247418095Y-200704571D01*
X247380000Y-200666476D01*
X247341904Y-200590285D01*
X247341904Y-200437904D01*
X247380000Y-200361714D01*
X247418095Y-200323619D01*
X247494285Y-200285523D01*
X247532380Y-200285523D01*
X247608571Y-200323619D01*
X247646666Y-200361714D01*
X247684761Y-200437904D01*
X247684761Y-200590285D01*
X247722857Y-200666476D01*
X247760952Y-200704571D01*
X247837142Y-200742666D01*
X247989523Y-200742666D01*
X248065714Y-200704571D01*
X248103809Y-200666476D01*
X248141904Y-200590285D01*
X248141904Y-200437904D01*
X248103809Y-200361714D01*
X248065714Y-200323619D01*
X247989523Y-200285523D01*
X247837142Y-200285523D01*
X247760952Y-200323619D01*
X247722857Y-200361714D01*
X247684761Y-200437904D01*
X245190714Y-202856952D02*
X245228809Y-202895047D01*
X245266904Y-203009333D01*
X245266904Y-203085523D01*
X245228809Y-203199809D01*
X245152619Y-203276000D01*
X245076428Y-203314095D01*
X244924047Y-203352190D01*
X244809761Y-203352190D01*
X244657380Y-203314095D01*
X244581190Y-203276000D01*
X244505000Y-203199809D01*
X244466904Y-203085523D01*
X244466904Y-203009333D01*
X244505000Y-202895047D01*
X244543095Y-202856952D01*
X245343095Y-202704571D02*
X245343095Y-202095047D01*
X245266904Y-201980761D02*
X244733571Y-201561714D01*
X244733571Y-201980761D02*
X245266904Y-201561714D01*
X244733571Y-201371238D02*
X244733571Y-201066476D01*
X244466904Y-201256952D02*
X245152619Y-201256952D01*
X245228809Y-201218857D01*
X245266904Y-201142666D01*
X245266904Y-201066476D01*
X245266904Y-200456952D02*
X244847857Y-200456952D01*
X244771666Y-200495047D01*
X244733571Y-200571238D01*
X244733571Y-200723619D01*
X244771666Y-200799809D01*
X245228809Y-200456952D02*
X245266904Y-200533142D01*
X245266904Y-200723619D01*
X245228809Y-200799809D01*
X245152619Y-200837904D01*
X245076428Y-200837904D01*
X245000238Y-200799809D01*
X244962142Y-200723619D01*
X244962142Y-200533142D01*
X244924047Y-200456952D01*
X245266904Y-199961714D02*
X245228809Y-200037904D01*
X245152619Y-200076000D01*
X244466904Y-200076000D01*
X240185714Y-186315238D02*
X240223809Y-186353333D01*
X240261904Y-186467619D01*
X240261904Y-186543809D01*
X240223809Y-186658095D01*
X240147619Y-186734285D01*
X240071428Y-186772380D01*
X239919047Y-186810476D01*
X239804761Y-186810476D01*
X239652380Y-186772380D01*
X239576190Y-186734285D01*
X239500000Y-186658095D01*
X239461904Y-186543809D01*
X239461904Y-186467619D01*
X239500000Y-186353333D01*
X239538095Y-186315238D01*
X240261904Y-185553333D02*
X240261904Y-186010476D01*
X240261904Y-185781904D02*
X239461904Y-185781904D01*
X239576190Y-185858095D01*
X239652380Y-185934285D01*
X239690476Y-186010476D01*
X239461904Y-185058095D02*
X239461904Y-184981904D01*
X239500000Y-184905714D01*
X239538095Y-184867619D01*
X239614285Y-184829523D01*
X239766666Y-184791428D01*
X239957142Y-184791428D01*
X240109523Y-184829523D01*
X240185714Y-184867619D01*
X240223809Y-184905714D01*
X240261904Y-184981904D01*
X240261904Y-185058095D01*
X240223809Y-185134285D01*
X240185714Y-185172380D01*
X240109523Y-185210476D01*
X239957142Y-185248571D01*
X239766666Y-185248571D01*
X239614285Y-185210476D01*
X239538095Y-185172380D01*
X239500000Y-185134285D01*
X239461904Y-185058095D01*
X240261904Y-184410476D02*
X240261904Y-184258095D01*
X240223809Y-184181904D01*
X240185714Y-184143809D01*
X240071428Y-184067619D01*
X239919047Y-184029523D01*
X239614285Y-184029523D01*
X239538095Y-184067619D01*
X239500000Y-184105714D01*
X239461904Y-184181904D01*
X239461904Y-184334285D01*
X239500000Y-184410476D01*
X239538095Y-184448571D01*
X239614285Y-184486666D01*
X239804761Y-184486666D01*
X239880952Y-184448571D01*
X239919047Y-184410476D01*
X239957142Y-184334285D01*
X239957142Y-184181904D01*
X239919047Y-184105714D01*
X239880952Y-184067619D01*
X239804761Y-184029523D01*
X242336904Y-186734285D02*
X242336904Y-186658095D01*
X242375000Y-186581904D01*
X242413095Y-186543809D01*
X242489285Y-186505714D01*
X242641666Y-186467619D01*
X242832142Y-186467619D01*
X242984523Y-186505714D01*
X243060714Y-186543809D01*
X243098809Y-186581904D01*
X243136904Y-186658095D01*
X243136904Y-186734285D01*
X243098809Y-186810476D01*
X243060714Y-186848571D01*
X242984523Y-186886666D01*
X242832142Y-186924761D01*
X242641666Y-186924761D01*
X242489285Y-186886666D01*
X242413095Y-186848571D01*
X242375000Y-186810476D01*
X242336904Y-186734285D01*
X243098809Y-186086666D02*
X243136904Y-186086666D01*
X243213095Y-186124761D01*
X243251190Y-186162857D01*
X243136904Y-185324761D02*
X243136904Y-185781904D01*
X243136904Y-185553333D02*
X242336904Y-185553333D01*
X242451190Y-185629523D01*
X242527380Y-185705714D01*
X242565476Y-185781904D01*
X242603571Y-184639047D02*
X243136904Y-184639047D01*
X242603571Y-184981904D02*
X243022619Y-184981904D01*
X243098809Y-184943809D01*
X243136904Y-184867619D01*
X243136904Y-184753333D01*
X243098809Y-184677142D01*
X243060714Y-184639047D01*
X242717857Y-183991428D02*
X242717857Y-184258095D01*
X243136904Y-184258095D02*
X242336904Y-184258095D01*
X242336904Y-183877142D01*
X137358333Y-137557142D02*
X137310714Y-137604761D01*
X137167857Y-137652380D01*
X137072619Y-137652380D01*
X136929761Y-137604761D01*
X136834523Y-137509523D01*
X136786904Y-137414285D01*
X136739285Y-137223809D01*
X136739285Y-137080952D01*
X136786904Y-136890476D01*
X136834523Y-136795238D01*
X136929761Y-136700000D01*
X137072619Y-136652380D01*
X137167857Y-136652380D01*
X137310714Y-136700000D01*
X137358333Y-136747619D01*
X137977380Y-136652380D02*
X138167857Y-136652380D01*
X138263095Y-136700000D01*
X138358333Y-136795238D01*
X138405952Y-136985714D01*
X138405952Y-137319047D01*
X138358333Y-137509523D01*
X138263095Y-137604761D01*
X138167857Y-137652380D01*
X137977380Y-137652380D01*
X137882142Y-137604761D01*
X137786904Y-137509523D01*
X137739285Y-137319047D01*
X137739285Y-136985714D01*
X137786904Y-136795238D01*
X137882142Y-136700000D01*
X137977380Y-136652380D01*
X138834523Y-137652380D02*
X138834523Y-136652380D01*
X139405952Y-137652380D01*
X139405952Y-136652380D01*
X140405952Y-137652380D02*
X139834523Y-137652380D01*
X140120238Y-137652380D02*
X140120238Y-136652380D01*
X140025000Y-136795238D01*
X139929761Y-136890476D01*
X139834523Y-136938095D01*
X141025000Y-136652380D02*
X141120238Y-136652380D01*
X141215476Y-136700000D01*
X141263095Y-136747619D01*
X141310714Y-136842857D01*
X141358333Y-137033333D01*
X141358333Y-137271428D01*
X141310714Y-137461904D01*
X141263095Y-137557142D01*
X141215476Y-137604761D01*
X141120238Y-137652380D01*
X141025000Y-137652380D01*
X140929761Y-137604761D01*
X140882142Y-137557142D01*
X140834523Y-137461904D01*
X140786904Y-137271428D01*
X140786904Y-137033333D01*
X140834523Y-136842857D01*
X140882142Y-136747619D01*
X140929761Y-136700000D01*
X141025000Y-136652380D01*
X142310714Y-137652380D02*
X141739285Y-137652380D01*
X142025000Y-137652380D02*
X142025000Y-136652380D01*
X141929761Y-136795238D01*
X141834523Y-136890476D01*
X141739285Y-136938095D01*
X133479904Y-143669523D02*
X132679904Y-143669523D01*
X132679904Y-143479047D01*
X132718000Y-143364761D01*
X132794190Y-143288571D01*
X132870380Y-143250476D01*
X133022761Y-143212380D01*
X133137047Y-143212380D01*
X133289428Y-143250476D01*
X133365619Y-143288571D01*
X133441809Y-143364761D01*
X133479904Y-143479047D01*
X133479904Y-143669523D01*
X159641904Y-141383523D02*
X158841904Y-141383523D01*
X158841904Y-141193047D01*
X158880000Y-141078761D01*
X158956190Y-141002571D01*
X159032380Y-140964476D01*
X159184761Y-140926380D01*
X159299047Y-140926380D01*
X159451428Y-140964476D01*
X159527619Y-141002571D01*
X159603809Y-141078761D01*
X159641904Y-141193047D01*
X159641904Y-141383523D01*
X178437904Y-141383523D02*
X177637904Y-141383523D01*
X177637904Y-141193047D01*
X177676000Y-141078761D01*
X177752190Y-141002571D01*
X177828380Y-140964476D01*
X177980761Y-140926380D01*
X178095047Y-140926380D01*
X178247428Y-140964476D01*
X178323619Y-141002571D01*
X178399809Y-141078761D01*
X178437904Y-141193047D01*
X178437904Y-141383523D01*
X197741904Y-141383523D02*
X196941904Y-141383523D01*
X196941904Y-141193047D01*
X196980000Y-141078761D01*
X197056190Y-141002571D01*
X197132380Y-140964476D01*
X197284761Y-140926380D01*
X197399047Y-140926380D01*
X197551428Y-140964476D01*
X197627619Y-141002571D01*
X197703809Y-141078761D01*
X197741904Y-141193047D01*
X197741904Y-141383523D01*
X217045904Y-141383523D02*
X216245904Y-141383523D01*
X216245904Y-141193047D01*
X216284000Y-141078761D01*
X216360190Y-141002571D01*
X216436380Y-140964476D01*
X216588761Y-140926380D01*
X216703047Y-140926380D01*
X216855428Y-140964476D01*
X216931619Y-141002571D01*
X217007809Y-141078761D01*
X217045904Y-141193047D01*
X217045904Y-141383523D01*
X235841904Y-141383523D02*
X235041904Y-141383523D01*
X235041904Y-141193047D01*
X235080000Y-141078761D01*
X235156190Y-141002571D01*
X235232380Y-140964476D01*
X235384761Y-140926380D01*
X235499047Y-140926380D01*
X235651428Y-140964476D01*
X235727619Y-141002571D01*
X235803809Y-141078761D01*
X235841904Y-141193047D01*
X235841904Y-141383523D01*
X255145904Y-141383523D02*
X254345904Y-141383523D01*
X254345904Y-141193047D01*
X254384000Y-141078761D01*
X254460190Y-141002571D01*
X254536380Y-140964476D01*
X254688761Y-140926380D01*
X254803047Y-140926380D01*
X254955428Y-140964476D01*
X255031619Y-141002571D01*
X255107809Y-141078761D01*
X255145904Y-141193047D01*
X255145904Y-141383523D01*
X273941904Y-141383523D02*
X273141904Y-141383523D01*
X273141904Y-141193047D01*
X273180000Y-141078761D01*
X273256190Y-141002571D01*
X273332380Y-140964476D01*
X273484761Y-140926380D01*
X273599047Y-140926380D01*
X273751428Y-140964476D01*
X273827619Y-141002571D01*
X273903809Y-141078761D01*
X273941904Y-141193047D01*
X273941904Y-141383523D01*
X293245904Y-141383523D02*
X292445904Y-141383523D01*
X292445904Y-141193047D01*
X292484000Y-141078761D01*
X292560190Y-141002571D01*
X292636380Y-140964476D01*
X292788761Y-140926380D01*
X292903047Y-140926380D01*
X293055428Y-140964476D01*
X293131619Y-141002571D01*
X293207809Y-141078761D01*
X293245904Y-141193047D01*
X293245904Y-141383523D01*
X312041904Y-141383523D02*
X311241904Y-141383523D01*
X311241904Y-141193047D01*
X311280000Y-141078761D01*
X311356190Y-141002571D01*
X311432380Y-140964476D01*
X311584761Y-140926380D01*
X311699047Y-140926380D01*
X311851428Y-140964476D01*
X311927619Y-141002571D01*
X312003809Y-141078761D01*
X312041904Y-141193047D01*
X312041904Y-141383523D01*
X331345904Y-141383523D02*
X330545904Y-141383523D01*
X330545904Y-141193047D01*
X330584000Y-141078761D01*
X330660190Y-141002571D01*
X330736380Y-140964476D01*
X330888761Y-140926380D01*
X331003047Y-140926380D01*
X331155428Y-140964476D01*
X331231619Y-141002571D01*
X331307809Y-141078761D01*
X331345904Y-141193047D01*
X331345904Y-141383523D01*
X350141904Y-142399523D02*
X349341904Y-142399523D01*
X349341904Y-142209047D01*
X349380000Y-142094761D01*
X349456190Y-142018571D01*
X349532380Y-141980476D01*
X349684761Y-141942380D01*
X349799047Y-141942380D01*
X349951428Y-141980476D01*
X350027619Y-142018571D01*
X350103809Y-142094761D01*
X350141904Y-142209047D01*
X350141904Y-142399523D01*
X354459904Y-142399523D02*
X353659904Y-142399523D01*
X353659904Y-142209047D01*
X353698000Y-142094761D01*
X353774190Y-142018571D01*
X353850380Y-141980476D01*
X354002761Y-141942380D01*
X354117047Y-141942380D01*
X354269428Y-141980476D01*
X354345619Y-142018571D01*
X354421809Y-142094761D01*
X354459904Y-142209047D01*
X354459904Y-142399523D01*
X143385904Y-160179523D02*
X142585904Y-160179523D01*
X142585904Y-159989047D01*
X142624000Y-159874761D01*
X142700190Y-159798571D01*
X142776380Y-159760476D01*
X142928761Y-159722380D01*
X143043047Y-159722380D01*
X143195428Y-159760476D01*
X143271619Y-159798571D01*
X143347809Y-159874761D01*
X143385904Y-159989047D01*
X143385904Y-160179523D01*
X164721904Y-160179523D02*
X163921904Y-160179523D01*
X163921904Y-159989047D01*
X163960000Y-159874761D01*
X164036190Y-159798571D01*
X164112380Y-159760476D01*
X164264761Y-159722380D01*
X164379047Y-159722380D01*
X164531428Y-159760476D01*
X164607619Y-159798571D01*
X164683809Y-159874761D01*
X164721904Y-159989047D01*
X164721904Y-160179523D01*
X183517904Y-160179523D02*
X182717904Y-160179523D01*
X182717904Y-159989047D01*
X182756000Y-159874761D01*
X182832190Y-159798571D01*
X182908380Y-159760476D01*
X183060761Y-159722380D01*
X183175047Y-159722380D01*
X183327428Y-159760476D01*
X183403619Y-159798571D01*
X183479809Y-159874761D01*
X183517904Y-159989047D01*
X183517904Y-160179523D01*
X202821904Y-160179523D02*
X202021904Y-160179523D01*
X202021904Y-159989047D01*
X202060000Y-159874761D01*
X202136190Y-159798571D01*
X202212380Y-159760476D01*
X202364761Y-159722380D01*
X202479047Y-159722380D01*
X202631428Y-159760476D01*
X202707619Y-159798571D01*
X202783809Y-159874761D01*
X202821904Y-159989047D01*
X202821904Y-160179523D01*
X221617904Y-160179523D02*
X220817904Y-160179523D01*
X220817904Y-159989047D01*
X220856000Y-159874761D01*
X220932190Y-159798571D01*
X221008380Y-159760476D01*
X221160761Y-159722380D01*
X221275047Y-159722380D01*
X221427428Y-159760476D01*
X221503619Y-159798571D01*
X221579809Y-159874761D01*
X221617904Y-159989047D01*
X221617904Y-160179523D01*
X240413904Y-160179523D02*
X239613904Y-160179523D01*
X239613904Y-159989047D01*
X239652000Y-159874761D01*
X239728190Y-159798571D01*
X239804380Y-159760476D01*
X239956761Y-159722380D01*
X240071047Y-159722380D01*
X240223428Y-159760476D01*
X240299619Y-159798571D01*
X240375809Y-159874761D01*
X240413904Y-159989047D01*
X240413904Y-160179523D01*
X259717904Y-160179523D02*
X258917904Y-160179523D01*
X258917904Y-159989047D01*
X258956000Y-159874761D01*
X259032190Y-159798571D01*
X259108380Y-159760476D01*
X259260761Y-159722380D01*
X259375047Y-159722380D01*
X259527428Y-159760476D01*
X259603619Y-159798571D01*
X259679809Y-159874761D01*
X259717904Y-159989047D01*
X259717904Y-160179523D01*
X279021904Y-160179523D02*
X278221904Y-160179523D01*
X278221904Y-159989047D01*
X278260000Y-159874761D01*
X278336190Y-159798571D01*
X278412380Y-159760476D01*
X278564761Y-159722380D01*
X278679047Y-159722380D01*
X278831428Y-159760476D01*
X278907619Y-159798571D01*
X278983809Y-159874761D01*
X279021904Y-159989047D01*
X279021904Y-160179523D01*
X297817904Y-160179523D02*
X297017904Y-160179523D01*
X297017904Y-159989047D01*
X297056000Y-159874761D01*
X297132190Y-159798571D01*
X297208380Y-159760476D01*
X297360761Y-159722380D01*
X297475047Y-159722380D01*
X297627428Y-159760476D01*
X297703619Y-159798571D01*
X297779809Y-159874761D01*
X297817904Y-159989047D01*
X297817904Y-160179523D01*
X317121904Y-160179523D02*
X316321904Y-160179523D01*
X316321904Y-159989047D01*
X316360000Y-159874761D01*
X316436190Y-159798571D01*
X316512380Y-159760476D01*
X316664761Y-159722380D01*
X316779047Y-159722380D01*
X316931428Y-159760476D01*
X317007619Y-159798571D01*
X317083809Y-159874761D01*
X317121904Y-159989047D01*
X317121904Y-160179523D01*
X335917904Y-160179523D02*
X335117904Y-160179523D01*
X335117904Y-159989047D01*
X335156000Y-159874761D01*
X335232190Y-159798571D01*
X335308380Y-159760476D01*
X335460761Y-159722380D01*
X335575047Y-159722380D01*
X335727428Y-159760476D01*
X335803619Y-159798571D01*
X335879809Y-159874761D01*
X335917904Y-159989047D01*
X335917904Y-160179523D01*
X362333904Y-160179523D02*
X361533904Y-160179523D01*
X361533904Y-159989047D01*
X361572000Y-159874761D01*
X361648190Y-159798571D01*
X361724380Y-159760476D01*
X361876761Y-159722380D01*
X361991047Y-159722380D01*
X362143428Y-159760476D01*
X362219619Y-159798571D01*
X362295809Y-159874761D01*
X362333904Y-159989047D01*
X362333904Y-160179523D01*
X147957904Y-178975523D02*
X147157904Y-178975523D01*
X147157904Y-178785047D01*
X147196000Y-178670761D01*
X147272190Y-178594571D01*
X147348380Y-178556476D01*
X147500761Y-178518380D01*
X147615047Y-178518380D01*
X147767428Y-178556476D01*
X147843619Y-178594571D01*
X147919809Y-178670761D01*
X147957904Y-178785047D01*
X147957904Y-178975523D01*
X173865904Y-178975523D02*
X173065904Y-178975523D01*
X173065904Y-178785047D01*
X173104000Y-178670761D01*
X173180190Y-178594571D01*
X173256380Y-178556476D01*
X173408761Y-178518380D01*
X173523047Y-178518380D01*
X173675428Y-178556476D01*
X173751619Y-178594571D01*
X173827809Y-178670761D01*
X173865904Y-178785047D01*
X173865904Y-178975523D01*
X193169904Y-178975523D02*
X192369904Y-178975523D01*
X192369904Y-178785047D01*
X192408000Y-178670761D01*
X192484190Y-178594571D01*
X192560380Y-178556476D01*
X192712761Y-178518380D01*
X192827047Y-178518380D01*
X192979428Y-178556476D01*
X193055619Y-178594571D01*
X193131809Y-178670761D01*
X193169904Y-178785047D01*
X193169904Y-178975523D01*
X211965904Y-179317523D02*
X211165904Y-179317523D01*
X211165904Y-179127047D01*
X211204000Y-179012761D01*
X211280190Y-178936571D01*
X211356380Y-178898476D01*
X211508761Y-178860380D01*
X211623047Y-178860380D01*
X211775428Y-178898476D01*
X211851619Y-178936571D01*
X211927809Y-179012761D01*
X211965904Y-179127047D01*
X211965904Y-179317523D01*
X231269904Y-179483523D02*
X230469904Y-179483523D01*
X230469904Y-179293047D01*
X230508000Y-179178761D01*
X230584190Y-179102571D01*
X230660380Y-179064476D01*
X230812761Y-179026380D01*
X230927047Y-179026380D01*
X231079428Y-179064476D01*
X231155619Y-179102571D01*
X231231809Y-179178761D01*
X231269904Y-179293047D01*
X231269904Y-179483523D01*
X250065904Y-179483523D02*
X249265904Y-179483523D01*
X249265904Y-179293047D01*
X249304000Y-179178761D01*
X249380190Y-179102571D01*
X249456380Y-179064476D01*
X249608761Y-179026380D01*
X249723047Y-179026380D01*
X249875428Y-179064476D01*
X249951619Y-179102571D01*
X250027809Y-179178761D01*
X250065904Y-179293047D01*
X250065904Y-179483523D01*
X269369904Y-179483523D02*
X268569904Y-179483523D01*
X268569904Y-179293047D01*
X268608000Y-179178761D01*
X268684190Y-179102571D01*
X268760380Y-179064476D01*
X268912761Y-179026380D01*
X269027047Y-179026380D01*
X269179428Y-179064476D01*
X269255619Y-179102571D01*
X269331809Y-179178761D01*
X269369904Y-179293047D01*
X269369904Y-179483523D01*
X288165904Y-179483523D02*
X287365904Y-179483523D01*
X287365904Y-179293047D01*
X287404000Y-179178761D01*
X287480190Y-179102571D01*
X287556380Y-179064476D01*
X287708761Y-179026380D01*
X287823047Y-179026380D01*
X287975428Y-179064476D01*
X288051619Y-179102571D01*
X288127809Y-179178761D01*
X288165904Y-179293047D01*
X288165904Y-179483523D01*
X307469904Y-179483523D02*
X306669904Y-179483523D01*
X306669904Y-179293047D01*
X306708000Y-179178761D01*
X306784190Y-179102571D01*
X306860380Y-179064476D01*
X307012761Y-179026380D01*
X307127047Y-179026380D01*
X307279428Y-179064476D01*
X307355619Y-179102571D01*
X307431809Y-179178761D01*
X307469904Y-179293047D01*
X307469904Y-179483523D01*
X326265904Y-179483523D02*
X325465904Y-179483523D01*
X325465904Y-179293047D01*
X325504000Y-179178761D01*
X325580190Y-179102571D01*
X325656380Y-179064476D01*
X325808761Y-179026380D01*
X325923047Y-179026380D01*
X326075428Y-179064476D01*
X326151619Y-179102571D01*
X326227809Y-179178761D01*
X326265904Y-179293047D01*
X326265904Y-179483523D01*
X345569904Y-179483523D02*
X344769904Y-179483523D01*
X344769904Y-179293047D01*
X344808000Y-179178761D01*
X344884190Y-179102571D01*
X344960380Y-179064476D01*
X345112761Y-179026380D01*
X345227047Y-179026380D01*
X345379428Y-179064476D01*
X345455619Y-179102571D01*
X345531809Y-179178761D01*
X345569904Y-179293047D01*
X345569904Y-179483523D01*
X349887904Y-179483523D02*
X349087904Y-179483523D01*
X349087904Y-179293047D01*
X349126000Y-179178761D01*
X349202190Y-179102571D01*
X349278380Y-179064476D01*
X349430761Y-179026380D01*
X349545047Y-179026380D01*
X349697428Y-179064476D01*
X349773619Y-179102571D01*
X349849809Y-179178761D01*
X349887904Y-179293047D01*
X349887904Y-179483523D01*
X140845904Y-198279523D02*
X140045904Y-198279523D01*
X140045904Y-198089047D01*
X140084000Y-197974761D01*
X140160190Y-197898571D01*
X140236380Y-197860476D01*
X140388761Y-197822380D01*
X140503047Y-197822380D01*
X140655428Y-197860476D01*
X140731619Y-197898571D01*
X140807809Y-197974761D01*
X140845904Y-198089047D01*
X140845904Y-198279523D01*
X159641904Y-198279523D02*
X158841904Y-198279523D01*
X158841904Y-198089047D01*
X158880000Y-197974761D01*
X158956190Y-197898571D01*
X159032380Y-197860476D01*
X159184761Y-197822380D01*
X159299047Y-197822380D01*
X159451428Y-197860476D01*
X159527619Y-197898571D01*
X159603809Y-197974761D01*
X159641904Y-198089047D01*
X159641904Y-198279523D01*
X178945904Y-198279523D02*
X178145904Y-198279523D01*
X178145904Y-198089047D01*
X178184000Y-197974761D01*
X178260190Y-197898571D01*
X178336380Y-197860476D01*
X178488761Y-197822380D01*
X178603047Y-197822380D01*
X178755428Y-197860476D01*
X178831619Y-197898571D01*
X178907809Y-197974761D01*
X178945904Y-198089047D01*
X178945904Y-198279523D01*
X200281904Y-198279523D02*
X199481904Y-198279523D01*
X199481904Y-198089047D01*
X199520000Y-197974761D01*
X199596190Y-197898571D01*
X199672380Y-197860476D01*
X199824761Y-197822380D01*
X199939047Y-197822380D01*
X200091428Y-197860476D01*
X200167619Y-197898571D01*
X200243809Y-197974761D01*
X200281904Y-198089047D01*
X200281904Y-198279523D01*
X216029904Y-198279523D02*
X215229904Y-198279523D01*
X215229904Y-198089047D01*
X215268000Y-197974761D01*
X215344190Y-197898571D01*
X215420380Y-197860476D01*
X215572761Y-197822380D01*
X215687047Y-197822380D01*
X215839428Y-197860476D01*
X215915619Y-197898571D01*
X215991809Y-197974761D01*
X216029904Y-198089047D01*
X216029904Y-198279523D01*
X258701904Y-198279523D02*
X257901904Y-198279523D01*
X257901904Y-198089047D01*
X257940000Y-197974761D01*
X258016190Y-197898571D01*
X258092380Y-197860476D01*
X258244761Y-197822380D01*
X258359047Y-197822380D01*
X258511428Y-197860476D01*
X258587619Y-197898571D01*
X258663809Y-197974761D01*
X258701904Y-198089047D01*
X258701904Y-198279523D01*
X309501904Y-198279523D02*
X308701904Y-198279523D01*
X308701904Y-198089047D01*
X308740000Y-197974761D01*
X308816190Y-197898571D01*
X308892380Y-197860476D01*
X309044761Y-197822380D01*
X309159047Y-197822380D01*
X309311428Y-197860476D01*
X309387619Y-197898571D01*
X309463809Y-197974761D01*
X309501904Y-198089047D01*
X309501904Y-198279523D01*
X331091904Y-198279523D02*
X330291904Y-198279523D01*
X330291904Y-198089047D01*
X330330000Y-197974761D01*
X330406190Y-197898571D01*
X330482380Y-197860476D01*
X330634761Y-197822380D01*
X330749047Y-197822380D01*
X330901428Y-197860476D01*
X330977619Y-197898571D01*
X331053809Y-197974761D01*
X331091904Y-198089047D01*
X331091904Y-198279523D01*
X350395904Y-198279523D02*
X349595904Y-198279523D01*
X349595904Y-198089047D01*
X349634000Y-197974761D01*
X349710190Y-197898571D01*
X349786380Y-197860476D01*
X349938761Y-197822380D01*
X350053047Y-197822380D01*
X350205428Y-197860476D01*
X350281619Y-197898571D01*
X350357809Y-197974761D01*
X350395904Y-198089047D01*
X350395904Y-198279523D01*
X367667904Y-198279523D02*
X366867904Y-198279523D01*
X366867904Y-198089047D01*
X366906000Y-197974761D01*
X366982190Y-197898571D01*
X367058380Y-197860476D01*
X367210761Y-197822380D01*
X367325047Y-197822380D01*
X367477428Y-197860476D01*
X367553619Y-197898571D01*
X367629809Y-197974761D01*
X367667904Y-198089047D01*
X367667904Y-198279523D01*
X137896857Y-148511904D02*
X137896857Y-147711904D01*
X138201619Y-147711904D01*
X138277809Y-147750000D01*
X138315904Y-147788095D01*
X138354000Y-147864285D01*
X138354000Y-147978571D01*
X138315904Y-148054761D01*
X138277809Y-148092857D01*
X138201619Y-148130952D01*
X137896857Y-148130952D01*
X138582571Y-147711904D02*
X139039714Y-147711904D01*
X138811142Y-148511904D02*
X138811142Y-147711904D01*
X139763523Y-148435714D02*
X139725428Y-148473809D01*
X139611142Y-148511904D01*
X139534952Y-148511904D01*
X139420666Y-148473809D01*
X139344476Y-148397619D01*
X139306380Y-148321428D01*
X139268285Y-148169047D01*
X139268285Y-148054761D01*
X139306380Y-147902380D01*
X139344476Y-147826190D01*
X139420666Y-147750000D01*
X139534952Y-147711904D01*
X139611142Y-147711904D01*
X139725428Y-147750000D01*
X139763523Y-147788095D01*
X140525428Y-148511904D02*
X140068285Y-148511904D01*
X140296857Y-148511904D02*
X140296857Y-147711904D01*
X140220666Y-147826190D01*
X140144476Y-147902380D01*
X140068285Y-147940476D01*
X141020666Y-147711904D02*
X141096857Y-147711904D01*
X141173047Y-147750000D01*
X141211142Y-147788095D01*
X141249238Y-147864285D01*
X141287333Y-148016666D01*
X141287333Y-148207142D01*
X141249238Y-148359523D01*
X141211142Y-148435714D01*
X141173047Y-148473809D01*
X141096857Y-148511904D01*
X141020666Y-148511904D01*
X140944476Y-148473809D01*
X140906380Y-148435714D01*
X140868285Y-148359523D01*
X140830190Y-148207142D01*
X140830190Y-148016666D01*
X140868285Y-147864285D01*
X140906380Y-147788095D01*
X140944476Y-147750000D01*
X141020666Y-147711904D01*
X142049238Y-148511904D02*
X141592095Y-148511904D01*
X141820666Y-148511904D02*
X141820666Y-147711904D01*
X141744476Y-147826190D01*
X141668285Y-147902380D01*
X141592095Y-147940476D01*
X139039714Y-144311904D02*
X139039714Y-143511904D01*
X139344476Y-143511904D01*
X139420666Y-143550000D01*
X139458761Y-143588095D01*
X139496857Y-143664285D01*
X139496857Y-143778571D01*
X139458761Y-143854761D01*
X139420666Y-143892857D01*
X139344476Y-143930952D01*
X139039714Y-143930952D01*
X139725428Y-143511904D02*
X140182571Y-143511904D01*
X139954000Y-144311904D02*
X139954000Y-143511904D01*
X140906380Y-144235714D02*
X140868285Y-144273809D01*
X140754000Y-144311904D01*
X140677809Y-144311904D01*
X140563523Y-144273809D01*
X140487333Y-144197619D01*
X140449238Y-144121428D01*
X140411142Y-143969047D01*
X140411142Y-143854761D01*
X140449238Y-143702380D01*
X140487333Y-143626190D01*
X140563523Y-143550000D01*
X140677809Y-143511904D01*
X140754000Y-143511904D01*
X140868285Y-143550000D01*
X140906380Y-143588095D01*
X238483904Y-186315238D02*
X238102952Y-186581904D01*
X238483904Y-186772380D02*
X237683904Y-186772380D01*
X237683904Y-186467619D01*
X237722000Y-186391428D01*
X237760095Y-186353333D01*
X237836285Y-186315238D01*
X237950571Y-186315238D01*
X238026761Y-186353333D01*
X238064857Y-186391428D01*
X238102952Y-186467619D01*
X238102952Y-186772380D01*
X238483904Y-185553333D02*
X238483904Y-186010476D01*
X238483904Y-185781904D02*
X237683904Y-185781904D01*
X237798190Y-185858095D01*
X237874380Y-185934285D01*
X237912476Y-186010476D01*
X237683904Y-185058095D02*
X237683904Y-184981904D01*
X237722000Y-184905714D01*
X237760095Y-184867619D01*
X237836285Y-184829523D01*
X237988666Y-184791428D01*
X238179142Y-184791428D01*
X238331523Y-184829523D01*
X238407714Y-184867619D01*
X238445809Y-184905714D01*
X238483904Y-184981904D01*
X238483904Y-185058095D01*
X238445809Y-185134285D01*
X238407714Y-185172380D01*
X238331523Y-185210476D01*
X238179142Y-185248571D01*
X237988666Y-185248571D01*
X237836285Y-185210476D01*
X237760095Y-185172380D01*
X237722000Y-185134285D01*
X237683904Y-185058095D01*
X238483904Y-184029523D02*
X238483904Y-184486666D01*
X238483904Y-184258095D02*
X237683904Y-184258095D01*
X237798190Y-184334285D01*
X237874380Y-184410476D01*
X237912476Y-184486666D01*
X241358904Y-185972380D02*
X241358904Y-186429523D01*
X241358904Y-186200952D02*
X240558904Y-186200952D01*
X240673190Y-186277142D01*
X240749380Y-186353333D01*
X240787476Y-186429523D01*
X240558904Y-185477142D02*
X240558904Y-185400952D01*
X240597000Y-185324761D01*
X240635095Y-185286666D01*
X240711285Y-185248571D01*
X240863666Y-185210476D01*
X241054142Y-185210476D01*
X241206523Y-185248571D01*
X241282714Y-185286666D01*
X241320809Y-185324761D01*
X241358904Y-185400952D01*
X241358904Y-185477142D01*
X241320809Y-185553333D01*
X241282714Y-185591428D01*
X241206523Y-185629523D01*
X241054142Y-185667619D01*
X240863666Y-185667619D01*
X240711285Y-185629523D01*
X240635095Y-185591428D01*
X240597000Y-185553333D01*
X240558904Y-185477142D01*
X241358904Y-184867619D02*
X240558904Y-184867619D01*
X241358904Y-184410476D02*
X240901761Y-184753333D01*
X240558904Y-184410476D02*
X241016047Y-184867619D01*
X251580761Y-191747904D02*
X251314095Y-191366952D01*
X251123619Y-191747904D02*
X251123619Y-190947904D01*
X251428380Y-190947904D01*
X251504571Y-190986000D01*
X251542666Y-191024095D01*
X251580761Y-191100285D01*
X251580761Y-191214571D01*
X251542666Y-191290761D01*
X251504571Y-191328857D01*
X251428380Y-191366952D01*
X251123619Y-191366952D01*
X252342666Y-191747904D02*
X251885523Y-191747904D01*
X252114095Y-191747904D02*
X252114095Y-190947904D01*
X252037904Y-191062190D01*
X251961714Y-191138380D01*
X251885523Y-191176476D01*
X252837904Y-190947904D02*
X252914095Y-190947904D01*
X252990285Y-190986000D01*
X253028380Y-191024095D01*
X253066476Y-191100285D01*
X253104571Y-191252666D01*
X253104571Y-191443142D01*
X253066476Y-191595523D01*
X253028380Y-191671714D01*
X252990285Y-191709809D01*
X252914095Y-191747904D01*
X252837904Y-191747904D01*
X252761714Y-191709809D01*
X252723619Y-191671714D01*
X252685523Y-191595523D01*
X252647428Y-191443142D01*
X252647428Y-191252666D01*
X252685523Y-191100285D01*
X252723619Y-191024095D01*
X252761714Y-190986000D01*
X252837904Y-190947904D01*
X253409333Y-191024095D02*
X253447428Y-190986000D01*
X253523619Y-190947904D01*
X253714095Y-190947904D01*
X253790285Y-190986000D01*
X253828380Y-191024095D01*
X253866476Y-191100285D01*
X253866476Y-191176476D01*
X253828380Y-191290761D01*
X253371238Y-191747904D01*
X253866476Y-191747904D01*
X251923619Y-194622904D02*
X251466476Y-194622904D01*
X251695047Y-194622904D02*
X251695047Y-193822904D01*
X251618857Y-193937190D01*
X251542666Y-194013380D01*
X251466476Y-194051476D01*
X252418857Y-193822904D02*
X252495047Y-193822904D01*
X252571238Y-193861000D01*
X252609333Y-193899095D01*
X252647428Y-193975285D01*
X252685523Y-194127666D01*
X252685523Y-194318142D01*
X252647428Y-194470523D01*
X252609333Y-194546714D01*
X252571238Y-194584809D01*
X252495047Y-194622904D01*
X252418857Y-194622904D01*
X252342666Y-194584809D01*
X252304571Y-194546714D01*
X252266476Y-194470523D01*
X252228380Y-194318142D01*
X252228380Y-194127666D01*
X252266476Y-193975285D01*
X252304571Y-193899095D01*
X252342666Y-193861000D01*
X252418857Y-193822904D01*
X253028380Y-194622904D02*
X253028380Y-193822904D01*
X253485523Y-194622904D02*
X253142666Y-194165761D01*
X253485523Y-193822904D02*
X253028380Y-194280047D01*
X231768761Y-194033904D02*
X231502095Y-193652952D01*
X231311619Y-194033904D02*
X231311619Y-193233904D01*
X231616380Y-193233904D01*
X231692571Y-193272000D01*
X231730666Y-193310095D01*
X231768761Y-193386285D01*
X231768761Y-193500571D01*
X231730666Y-193576761D01*
X231692571Y-193614857D01*
X231616380Y-193652952D01*
X231311619Y-193652952D01*
X232530666Y-194033904D02*
X232073523Y-194033904D01*
X232302095Y-194033904D02*
X232302095Y-193233904D01*
X232225904Y-193348190D01*
X232149714Y-193424380D01*
X232073523Y-193462476D01*
X233025904Y-193233904D02*
X233102095Y-193233904D01*
X233178285Y-193272000D01*
X233216380Y-193310095D01*
X233254476Y-193386285D01*
X233292571Y-193538666D01*
X233292571Y-193729142D01*
X233254476Y-193881523D01*
X233216380Y-193957714D01*
X233178285Y-193995809D01*
X233102095Y-194033904D01*
X233025904Y-194033904D01*
X232949714Y-193995809D01*
X232911619Y-193957714D01*
X232873523Y-193881523D01*
X232835428Y-193729142D01*
X232835428Y-193538666D01*
X232873523Y-193386285D01*
X232911619Y-193310095D01*
X232949714Y-193272000D01*
X233025904Y-193233904D01*
X233559238Y-193233904D02*
X234054476Y-193233904D01*
X233787809Y-193538666D01*
X233902095Y-193538666D01*
X233978285Y-193576761D01*
X234016380Y-193614857D01*
X234054476Y-193691047D01*
X234054476Y-193881523D01*
X234016380Y-193957714D01*
X233978285Y-193995809D01*
X233902095Y-194033904D01*
X233673523Y-194033904D01*
X233597333Y-193995809D01*
X233559238Y-193957714D01*
X231654476Y-196185095D02*
X231692571Y-196147000D01*
X231768761Y-196108904D01*
X231959238Y-196108904D01*
X232035428Y-196147000D01*
X232073523Y-196185095D01*
X232111619Y-196261285D01*
X232111619Y-196337476D01*
X232073523Y-196451761D01*
X231616380Y-196908904D01*
X232111619Y-196908904D01*
X232416380Y-196185095D02*
X232454476Y-196147000D01*
X232530666Y-196108904D01*
X232721142Y-196108904D01*
X232797333Y-196147000D01*
X232835428Y-196185095D01*
X232873523Y-196261285D01*
X232873523Y-196337476D01*
X232835428Y-196451761D01*
X232378285Y-196908904D01*
X232873523Y-196908904D01*
X233673523Y-196908904D02*
X233406857Y-196527952D01*
X233216380Y-196908904D02*
X233216380Y-196108904D01*
X233521142Y-196108904D01*
X233597333Y-196147000D01*
X233635428Y-196185095D01*
X233673523Y-196261285D01*
X233673523Y-196375571D01*
X233635428Y-196451761D01*
X233597333Y-196489857D01*
X233521142Y-196527952D01*
X233216380Y-196527952D01*
X231768761Y-192001904D02*
X231502095Y-191620952D01*
X231311619Y-192001904D02*
X231311619Y-191201904D01*
X231616380Y-191201904D01*
X231692571Y-191240000D01*
X231730666Y-191278095D01*
X231768761Y-191354285D01*
X231768761Y-191468571D01*
X231730666Y-191544761D01*
X231692571Y-191582857D01*
X231616380Y-191620952D01*
X231311619Y-191620952D01*
X232530666Y-192001904D02*
X232073523Y-192001904D01*
X232302095Y-192001904D02*
X232302095Y-191201904D01*
X232225904Y-191316190D01*
X232149714Y-191392380D01*
X232073523Y-191430476D01*
X233025904Y-191201904D02*
X233102095Y-191201904D01*
X233178285Y-191240000D01*
X233216380Y-191278095D01*
X233254476Y-191354285D01*
X233292571Y-191506666D01*
X233292571Y-191697142D01*
X233254476Y-191849523D01*
X233216380Y-191925714D01*
X233178285Y-191963809D01*
X233102095Y-192001904D01*
X233025904Y-192001904D01*
X232949714Y-191963809D01*
X232911619Y-191925714D01*
X232873523Y-191849523D01*
X232835428Y-191697142D01*
X232835428Y-191506666D01*
X232873523Y-191354285D01*
X232911619Y-191278095D01*
X232949714Y-191240000D01*
X233025904Y-191201904D01*
X233978285Y-191468571D02*
X233978285Y-192001904D01*
X233787809Y-191163809D02*
X233597333Y-191735238D01*
X234092571Y-191735238D01*
X231654476Y-194153095D02*
X231692571Y-194115000D01*
X231768761Y-194076904D01*
X231959238Y-194076904D01*
X232035428Y-194115000D01*
X232073523Y-194153095D01*
X232111619Y-194229285D01*
X232111619Y-194305476D01*
X232073523Y-194419761D01*
X231616380Y-194876904D01*
X232111619Y-194876904D01*
X232416380Y-194153095D02*
X232454476Y-194115000D01*
X232530666Y-194076904D01*
X232721142Y-194076904D01*
X232797333Y-194115000D01*
X232835428Y-194153095D01*
X232873523Y-194229285D01*
X232873523Y-194305476D01*
X232835428Y-194419761D01*
X232378285Y-194876904D01*
X232873523Y-194876904D01*
X233673523Y-194876904D02*
X233406857Y-194495952D01*
X233216380Y-194876904D02*
X233216380Y-194076904D01*
X233521142Y-194076904D01*
X233597333Y-194115000D01*
X233635428Y-194153095D01*
X233673523Y-194229285D01*
X233673523Y-194343571D01*
X233635428Y-194419761D01*
X233597333Y-194457857D01*
X233521142Y-194495952D01*
X233216380Y-194495952D01*
X144509904Y-143643238D02*
X144128952Y-143909904D01*
X144509904Y-144100380D02*
X143709904Y-144100380D01*
X143709904Y-143795619D01*
X143748000Y-143719428D01*
X143786095Y-143681333D01*
X143862285Y-143643238D01*
X143976571Y-143643238D01*
X144052761Y-143681333D01*
X144090857Y-143719428D01*
X144128952Y-143795619D01*
X144128952Y-144100380D01*
X144509904Y-142881333D02*
X144509904Y-143338476D01*
X144509904Y-143109904D02*
X143709904Y-143109904D01*
X143824190Y-143186095D01*
X143900380Y-143262285D01*
X143938476Y-143338476D01*
X143709904Y-142386095D02*
X143709904Y-142309904D01*
X143748000Y-142233714D01*
X143786095Y-142195619D01*
X143862285Y-142157523D01*
X144014666Y-142119428D01*
X144205142Y-142119428D01*
X144357523Y-142157523D01*
X144433714Y-142195619D01*
X144471809Y-142233714D01*
X144509904Y-142309904D01*
X144509904Y-142386095D01*
X144471809Y-142462285D01*
X144433714Y-142500380D01*
X144357523Y-142538476D01*
X144205142Y-142576571D01*
X144014666Y-142576571D01*
X143862285Y-142538476D01*
X143786095Y-142500380D01*
X143748000Y-142462285D01*
X143709904Y-142386095D01*
X143709904Y-141395619D02*
X143709904Y-141776571D01*
X144090857Y-141814666D01*
X144052761Y-141776571D01*
X144014666Y-141700380D01*
X144014666Y-141509904D01*
X144052761Y-141433714D01*
X144090857Y-141395619D01*
X144167047Y-141357523D01*
X144357523Y-141357523D01*
X144433714Y-141395619D01*
X144471809Y-141433714D01*
X144509904Y-141509904D01*
X144509904Y-141700380D01*
X144471809Y-141776571D01*
X144433714Y-141814666D01*
X140834904Y-143338476D02*
X140834904Y-143719428D01*
X141215857Y-143757523D01*
X141177761Y-143719428D01*
X141139666Y-143643238D01*
X141139666Y-143452761D01*
X141177761Y-143376571D01*
X141215857Y-143338476D01*
X141292047Y-143300380D01*
X141482523Y-143300380D01*
X141558714Y-143338476D01*
X141596809Y-143376571D01*
X141634904Y-143452761D01*
X141634904Y-143643238D01*
X141596809Y-143719428D01*
X141558714Y-143757523D01*
X141634904Y-142957523D02*
X140834904Y-142957523D01*
X141634904Y-142500380D02*
X141177761Y-142843238D01*
X140834904Y-142500380D02*
X141292047Y-142957523D01*
X141634904Y-141738476D02*
X141634904Y-142195619D01*
X141634904Y-141967047D02*
X140834904Y-141967047D01*
X140949190Y-142043238D01*
X141025380Y-142119428D01*
X141063476Y-142195619D01*
X138921904Y-143643238D02*
X138540952Y-143909904D01*
X138921904Y-144100380D02*
X138121904Y-144100380D01*
X138121904Y-143795619D01*
X138160000Y-143719428D01*
X138198095Y-143681333D01*
X138274285Y-143643238D01*
X138388571Y-143643238D01*
X138464761Y-143681333D01*
X138502857Y-143719428D01*
X138540952Y-143795619D01*
X138540952Y-144100380D01*
X138921904Y-142881333D02*
X138921904Y-143338476D01*
X138921904Y-143109904D02*
X138121904Y-143109904D01*
X138236190Y-143186095D01*
X138312380Y-143262285D01*
X138350476Y-143338476D01*
X138121904Y-142386095D02*
X138121904Y-142309904D01*
X138160000Y-142233714D01*
X138198095Y-142195619D01*
X138274285Y-142157523D01*
X138426666Y-142119428D01*
X138617142Y-142119428D01*
X138769523Y-142157523D01*
X138845714Y-142195619D01*
X138883809Y-142233714D01*
X138921904Y-142309904D01*
X138921904Y-142386095D01*
X138883809Y-142462285D01*
X138845714Y-142500380D01*
X138769523Y-142538476D01*
X138617142Y-142576571D01*
X138426666Y-142576571D01*
X138274285Y-142538476D01*
X138198095Y-142500380D01*
X138160000Y-142462285D01*
X138121904Y-142386095D01*
X138121904Y-141433714D02*
X138121904Y-141586095D01*
X138160000Y-141662285D01*
X138198095Y-141700380D01*
X138312380Y-141776571D01*
X138464761Y-141814666D01*
X138769523Y-141814666D01*
X138845714Y-141776571D01*
X138883809Y-141738476D01*
X138921904Y-141662285D01*
X138921904Y-141509904D01*
X138883809Y-141433714D01*
X138845714Y-141395619D01*
X138769523Y-141357523D01*
X138579047Y-141357523D01*
X138502857Y-141395619D01*
X138464761Y-141433714D01*
X138426666Y-141509904D01*
X138426666Y-141662285D01*
X138464761Y-141738476D01*
X138502857Y-141776571D01*
X138579047Y-141814666D01*
X135246904Y-143338476D02*
X135246904Y-143719428D01*
X135627857Y-143757523D01*
X135589761Y-143719428D01*
X135551666Y-143643238D01*
X135551666Y-143452761D01*
X135589761Y-143376571D01*
X135627857Y-143338476D01*
X135704047Y-143300380D01*
X135894523Y-143300380D01*
X135970714Y-143338476D01*
X136008809Y-143376571D01*
X136046904Y-143452761D01*
X136046904Y-143643238D01*
X136008809Y-143719428D01*
X135970714Y-143757523D01*
X136046904Y-142957523D02*
X135246904Y-142957523D01*
X136046904Y-142500380D02*
X135589761Y-142843238D01*
X135246904Y-142500380D02*
X135704047Y-142957523D01*
X136046904Y-141738476D02*
X136046904Y-142195619D01*
X136046904Y-141967047D02*
X135246904Y-141967047D01*
X135361190Y-142043238D01*
X135437380Y-142119428D01*
X135475476Y-142195619D01*
X242959904Y-194665428D02*
X243607523Y-194665428D01*
X243683714Y-194627333D01*
X243721809Y-194589238D01*
X243759904Y-194513047D01*
X243759904Y-194360666D01*
X243721809Y-194284476D01*
X243683714Y-194246380D01*
X243607523Y-194208285D01*
X242959904Y-194208285D01*
X243759904Y-193408285D02*
X243759904Y-193865428D01*
X243759904Y-193636857D02*
X242959904Y-193636857D01*
X243074190Y-193713047D01*
X243150380Y-193789238D01*
X243188476Y-193865428D01*
X242959904Y-192913047D02*
X242959904Y-192836857D01*
X242998000Y-192760666D01*
X243036095Y-192722571D01*
X243112285Y-192684476D01*
X243264666Y-192646380D01*
X243455142Y-192646380D01*
X243607523Y-192684476D01*
X243683714Y-192722571D01*
X243721809Y-192760666D01*
X243759904Y-192836857D01*
X243759904Y-192913047D01*
X243721809Y-192989238D01*
X243683714Y-193027333D01*
X243607523Y-193065428D01*
X243455142Y-193103523D01*
X243264666Y-193103523D01*
X243112285Y-193065428D01*
X243036095Y-193027333D01*
X242998000Y-192989238D01*
X242959904Y-192913047D01*
X243759904Y-191884476D02*
X243759904Y-192341619D01*
X243759904Y-192113047D02*
X242959904Y-192113047D01*
X243074190Y-192189238D01*
X243150380Y-192265428D01*
X243188476Y-192341619D01*
X244931333Y-196913047D02*
X244931333Y-196532095D01*
X245159904Y-196989238D02*
X244359904Y-196722571D01*
X245159904Y-196455904D01*
X244359904Y-196303523D02*
X244359904Y-195846380D01*
X245159904Y-196074952D02*
X244359904Y-196074952D01*
X245159904Y-195579714D02*
X244359904Y-195579714D01*
X244931333Y-195313047D01*
X244359904Y-195046380D01*
X245159904Y-195046380D01*
X244740857Y-194665428D02*
X244740857Y-194398761D01*
X245159904Y-194284476D02*
X245159904Y-194665428D01*
X244359904Y-194665428D01*
X244359904Y-194284476D01*
X244398000Y-193522571D02*
X244359904Y-193598761D01*
X244359904Y-193713047D01*
X244398000Y-193827333D01*
X244474190Y-193903523D01*
X244550380Y-193941619D01*
X244702761Y-193979714D01*
X244817047Y-193979714D01*
X244969428Y-193941619D01*
X245045619Y-193903523D01*
X245121809Y-193827333D01*
X245159904Y-193713047D01*
X245159904Y-193636857D01*
X245121809Y-193522571D01*
X245083714Y-193484476D01*
X244817047Y-193484476D01*
X244817047Y-193636857D01*
X244931333Y-193179714D02*
X244931333Y-192798761D01*
X245159904Y-193255904D02*
X244359904Y-192989238D01*
X245159904Y-192722571D01*
X244359904Y-192532095D02*
X244359904Y-192036857D01*
X244664666Y-192303523D01*
X244664666Y-192189238D01*
X244702761Y-192113047D01*
X244740857Y-192074952D01*
X244817047Y-192036857D01*
X245007523Y-192036857D01*
X245083714Y-192074952D01*
X245121809Y-192113047D01*
X245159904Y-192189238D01*
X245159904Y-192417809D01*
X245121809Y-192494000D01*
X245083714Y-192532095D01*
X244436095Y-191732095D02*
X244398000Y-191694000D01*
X244359904Y-191617809D01*
X244359904Y-191427333D01*
X244398000Y-191351142D01*
X244436095Y-191313047D01*
X244512285Y-191274952D01*
X244588476Y-191274952D01*
X244702761Y-191313047D01*
X245159904Y-191770190D01*
X245159904Y-191274952D01*
X244359904Y-190932095D02*
X245007523Y-190932095D01*
X245083714Y-190894000D01*
X245121809Y-190855904D01*
X245159904Y-190779714D01*
X245159904Y-190627333D01*
X245121809Y-190551142D01*
X245083714Y-190513047D01*
X245007523Y-190474952D01*
X244359904Y-190474952D01*
X244436095Y-190132095D02*
X244398000Y-190094000D01*
X244359904Y-190017809D01*
X244359904Y-189827333D01*
X244398000Y-189751142D01*
X244436095Y-189713047D01*
X244512285Y-189674952D01*
X244588476Y-189674952D01*
X244702761Y-189713047D01*
X245159904Y-190170190D01*
X245159904Y-189674952D01*
M02*
