M48
; DRILL file {KiCad (5.1.4-0-10_14)} date 2019 September 18, Wednesday 13:18:01
; FORMAT={-:-/ absolute / inch / decimal}
; #@! TF.CreationDate,2019-09-18T13:18:01+02:00
; #@! TF.GenerationSoftware,Kicad,Pcbnew,(5.1.4-0-10_14)
; #@! TF.FileFunction,NonPlated,1,2,NPTH
FMAT,2
INCH
T1C0.0256
T2C0.0670
T3C0.1063
T4C0.1200
T5C0.1570
%
G90
G05
T1
X13.6293Y-5.2461
X13.8569Y-5.2461
T2
X7.7306Y-6.1831
X8.1306Y-6.1831
X6.4181Y-5.4331
X6.8181Y-5.4331
X11.8556Y-6.9331
X12.2556Y-6.9331
X4.9181Y-7.6831
X5.3181Y-7.6831
X10.9181Y-5.4331
X11.3181Y-5.4331
X12.4181Y-5.4331
X12.8181Y-5.4331
X12.6056Y-6.9331
X13.0056Y-6.9331
X7.2619Y-7.6831
X7.6619Y-7.6831
X13.8244Y-6.1831
X14.2244Y-6.1831
X12.9806Y-6.1831
X13.3806Y-6.1831
X11.4806Y-6.1831
X11.8806Y-6.1831
X7.3556Y-6.9331
X7.7556Y-6.9331
X5.1994Y-6.1831
X5.5994Y-6.1831
X10.3806Y-6.1831
X13.6369Y-6.9331
X14.0369Y-6.9331
X9.9806Y-6.1831
X9.4181Y-5.4331
X9.8181Y-5.4331
X9.6056Y-6.9331
X10.0056Y-6.9331
X10.3556Y-6.9331
X8.4806Y-6.1831
X8.8806Y-6.1831
X10.7556Y-6.9331
X6.4181Y-7.6831
X6.8181Y-7.6831
X13.9181Y-7.6831
X14.3181Y-7.6831
X7.9181Y-5.4331
X8.3181Y-5.4331
X6.9806Y-6.1831
X7.3806Y-6.1831
X13.9181Y-5.4331
X14.3181Y-5.4331
X8.1056Y-6.9331
X8.5056Y-6.9331
X5.2931Y-5.4331
X5.6931Y-5.4331
X5.0119Y-6.9331
X5.4119Y-6.9331
X5.6681Y-5.4331
X6.0681Y-5.4331
X10.2619Y-7.6831
X10.6619Y-7.6831
X5.8556Y-6.9331
X6.2556Y-6.9331
X11.6681Y-5.4331
X12.0681Y-5.4331
X8.5744Y-7.6831
X8.9744Y-7.6831
X11.5744Y-7.6831
X11.9744Y-7.6831
X13.1681Y-7.6831
X13.5681Y-7.6831
X6.6056Y-6.9331
X7.0056Y-6.9331
X11.5056Y-6.9331
X11.1056Y-6.9331
X12.2306Y-6.1831
X12.6306Y-6.1831
X10.7306Y-6.1831
X10.1681Y-5.4331
X10.5681Y-5.4331
X12.4181Y-7.6831
X13.5681Y-5.4331
X9.2556Y-6.9331
X12.8181Y-7.6831
X9.0681Y-5.4331
X8.8556Y-6.9331
X9.2306Y-6.1831
X9.6306Y-6.1831
X8.6681Y-5.4331
X13.1681Y-5.4331
X5.6681Y-7.6831
X6.0681Y-7.6831
X11.1306Y-6.1831
X4.9181Y-5.4331
X5.3181Y-5.4331
X7.1681Y-5.4331
X7.5681Y-5.4331
X6.2306Y-6.1831
X6.6306Y-6.1831
T3
X6.2431Y-7.3081
X9.6181Y-6.5581
X12.9931Y-7.3081
X6.2431Y-5.8081
X12.9931Y-5.8081
T4
X5.0231Y-5.1581
X5.9631Y-5.1581
X9.9919Y-7.9581
X10.9319Y-7.9581
X8.3044Y-7.9581
X9.2444Y-7.9581
T5
X5.8681Y-7.6831
X14.0244Y-6.1831
X5.1181Y-7.6831
X12.8056Y-6.9331
X6.4306Y-6.1831
X9.6181Y-5.4331
X7.4619Y-7.6831
X13.1806Y-6.1831
X14.1181Y-7.6831
X10.1806Y-6.1831
X11.1181Y-5.4331
X11.6806Y-6.1831
X12.0556Y-6.9331
X5.1181Y-5.4331
X12.6181Y-5.4331
X8.6806Y-6.1831
X8.1181Y-5.4331
X5.0231Y-5.7581
X5.4931Y-5.4331
X5.9631Y-5.7581
X14.1181Y-5.4331
X10.4619Y-7.6831
X10.9319Y-7.3581
X7.1806Y-6.1831
X9.9919Y-7.3581
X5.3994Y-6.1831
X13.8369Y-6.9331
X6.6181Y-7.6831
X5.2119Y-6.9331
X11.8681Y-5.4331
X8.3044Y-7.3581
X10.3681Y-5.4331
X8.7744Y-7.6831
X9.2444Y-7.3581
X13.3681Y-5.4331
X12.4306Y-6.1831
X6.0556Y-6.9331
X9.8056Y-6.9331
X8.3056Y-6.9331
X5.8681Y-5.4331
X10.5556Y-6.9331
X7.5556Y-6.9331
X11.7744Y-7.6831
X10.9306Y-6.1831
X8.8681Y-5.4331
X13.3681Y-7.6831
X6.8056Y-6.9331
X11.3056Y-6.9331
X9.0556Y-6.9331
X12.6181Y-7.6831
X7.3681Y-5.4331
X9.4306Y-6.1831
X7.9306Y-6.1831
X6.6181Y-5.4331
T0
M30
