G04 #@! TF.GenerationSoftware,KiCad,Pcbnew,(5.1.4-0-10_14)*
G04 #@! TF.CreationDate,2019-09-18T12:51:06+02:00*
G04 #@! TF.ProjectId,minivan-clone,6d696e69-7661-46e2-9d63-6c6f6e652e6b,rev?*
G04 #@! TF.SameCoordinates,Original*
G04 #@! TF.FileFunction,Legend,Top*
G04 #@! TF.FilePolarity,Positive*
%FSLAX46Y46*%
G04 Gerber Fmt 4.6, Leading zero omitted, Abs format (unit mm)*
G04 Created by KiCad (PCBNEW (5.1.4-0-10_14)) date 2019-09-18 12:51:06*
%MOMM*%
%LPD*%
G04 APERTURE LIST*
%ADD10C,0.160000*%
%ADD11C,0.010000*%
%ADD12C,0.200000*%
%ADD13C,0.120000*%
G04 APERTURE END LIST*
D10*
X137630000Y-145410000D02*
X139230000Y-145410000D01*
X137630000Y-145360000D02*
X139230000Y-145360000D01*
X137630000Y-145310000D02*
X139230000Y-145310000D01*
X137630000Y-145260000D02*
X139230000Y-145260000D01*
X137630000Y-142260000D02*
X137630000Y-141760000D01*
X139230000Y-142260000D02*
X139230000Y-141760000D01*
X139230000Y-145560000D02*
X139230000Y-142160000D01*
X137630000Y-141760000D02*
X139230000Y-141760000D01*
X137630000Y-144660000D02*
X137630000Y-145560000D01*
X137630000Y-142260000D02*
X137630000Y-144660000D01*
X137630000Y-145560000D02*
X139230000Y-145560000D01*
X156680000Y-143124000D02*
X158280000Y-143124000D01*
X156680000Y-143074000D02*
X158280000Y-143074000D01*
X156680000Y-143024000D02*
X158280000Y-143024000D01*
X156680000Y-142974000D02*
X158280000Y-142974000D01*
X156680000Y-139974000D02*
X156680000Y-139474000D01*
X158280000Y-139974000D02*
X158280000Y-139474000D01*
X158280000Y-143274000D02*
X158280000Y-139874000D01*
X156680000Y-139474000D02*
X158280000Y-139474000D01*
X156680000Y-142374000D02*
X156680000Y-143274000D01*
X156680000Y-139974000D02*
X156680000Y-142374000D01*
X156680000Y-143274000D02*
X158280000Y-143274000D01*
X175476000Y-143124000D02*
X177076000Y-143124000D01*
X175476000Y-143074000D02*
X177076000Y-143074000D01*
X175476000Y-143024000D02*
X177076000Y-143024000D01*
X175476000Y-142974000D02*
X177076000Y-142974000D01*
X175476000Y-139974000D02*
X175476000Y-139474000D01*
X177076000Y-139974000D02*
X177076000Y-139474000D01*
X177076000Y-143274000D02*
X177076000Y-139874000D01*
X175476000Y-139474000D02*
X177076000Y-139474000D01*
X175476000Y-142374000D02*
X175476000Y-143274000D01*
X175476000Y-139974000D02*
X175476000Y-142374000D01*
X175476000Y-143274000D02*
X177076000Y-143274000D01*
X194780000Y-143124000D02*
X196380000Y-143124000D01*
X194780000Y-143074000D02*
X196380000Y-143074000D01*
X194780000Y-143024000D02*
X196380000Y-143024000D01*
X194780000Y-142974000D02*
X196380000Y-142974000D01*
X194780000Y-139974000D02*
X194780000Y-139474000D01*
X196380000Y-139974000D02*
X196380000Y-139474000D01*
X196380000Y-143274000D02*
X196380000Y-139874000D01*
X194780000Y-139474000D02*
X196380000Y-139474000D01*
X194780000Y-142374000D02*
X194780000Y-143274000D01*
X194780000Y-139974000D02*
X194780000Y-142374000D01*
X194780000Y-143274000D02*
X196380000Y-143274000D01*
X214084000Y-143124000D02*
X215684000Y-143124000D01*
X214084000Y-143074000D02*
X215684000Y-143074000D01*
X214084000Y-143024000D02*
X215684000Y-143024000D01*
X214084000Y-142974000D02*
X215684000Y-142974000D01*
X214084000Y-139974000D02*
X214084000Y-139474000D01*
X215684000Y-139974000D02*
X215684000Y-139474000D01*
X215684000Y-143274000D02*
X215684000Y-139874000D01*
X214084000Y-139474000D02*
X215684000Y-139474000D01*
X214084000Y-142374000D02*
X214084000Y-143274000D01*
X214084000Y-139974000D02*
X214084000Y-142374000D01*
X214084000Y-143274000D02*
X215684000Y-143274000D01*
X232880000Y-143124000D02*
X234480000Y-143124000D01*
X232880000Y-143074000D02*
X234480000Y-143074000D01*
X232880000Y-143024000D02*
X234480000Y-143024000D01*
X232880000Y-142974000D02*
X234480000Y-142974000D01*
X232880000Y-139974000D02*
X232880000Y-139474000D01*
X234480000Y-139974000D02*
X234480000Y-139474000D01*
X234480000Y-143274000D02*
X234480000Y-139874000D01*
X232880000Y-139474000D02*
X234480000Y-139474000D01*
X232880000Y-142374000D02*
X232880000Y-143274000D01*
X232880000Y-139974000D02*
X232880000Y-142374000D01*
X232880000Y-143274000D02*
X234480000Y-143274000D01*
X252184000Y-143124000D02*
X253784000Y-143124000D01*
X252184000Y-143074000D02*
X253784000Y-143074000D01*
X252184000Y-143024000D02*
X253784000Y-143024000D01*
X252184000Y-142974000D02*
X253784000Y-142974000D01*
X252184000Y-139974000D02*
X252184000Y-139474000D01*
X253784000Y-139974000D02*
X253784000Y-139474000D01*
X253784000Y-143274000D02*
X253784000Y-139874000D01*
X252184000Y-139474000D02*
X253784000Y-139474000D01*
X252184000Y-142374000D02*
X252184000Y-143274000D01*
X252184000Y-139974000D02*
X252184000Y-142374000D01*
X252184000Y-143274000D02*
X253784000Y-143274000D01*
X270980000Y-143124000D02*
X272580000Y-143124000D01*
X270980000Y-143074000D02*
X272580000Y-143074000D01*
X270980000Y-143024000D02*
X272580000Y-143024000D01*
X270980000Y-142974000D02*
X272580000Y-142974000D01*
X270980000Y-139974000D02*
X270980000Y-139474000D01*
X272580000Y-139974000D02*
X272580000Y-139474000D01*
X272580000Y-143274000D02*
X272580000Y-139874000D01*
X270980000Y-139474000D02*
X272580000Y-139474000D01*
X270980000Y-142374000D02*
X270980000Y-143274000D01*
X270980000Y-139974000D02*
X270980000Y-142374000D01*
X270980000Y-143274000D02*
X272580000Y-143274000D01*
X290284000Y-143124000D02*
X291884000Y-143124000D01*
X290284000Y-143074000D02*
X291884000Y-143074000D01*
X290284000Y-143024000D02*
X291884000Y-143024000D01*
X290284000Y-142974000D02*
X291884000Y-142974000D01*
X290284000Y-139974000D02*
X290284000Y-139474000D01*
X291884000Y-139974000D02*
X291884000Y-139474000D01*
X291884000Y-143274000D02*
X291884000Y-139874000D01*
X290284000Y-139474000D02*
X291884000Y-139474000D01*
X290284000Y-142374000D02*
X290284000Y-143274000D01*
X290284000Y-139974000D02*
X290284000Y-142374000D01*
X290284000Y-143274000D02*
X291884000Y-143274000D01*
X309080000Y-143124000D02*
X310680000Y-143124000D01*
X309080000Y-143074000D02*
X310680000Y-143074000D01*
X309080000Y-143024000D02*
X310680000Y-143024000D01*
X309080000Y-142974000D02*
X310680000Y-142974000D01*
X309080000Y-139974000D02*
X309080000Y-139474000D01*
X310680000Y-139974000D02*
X310680000Y-139474000D01*
X310680000Y-143274000D02*
X310680000Y-139874000D01*
X309080000Y-139474000D02*
X310680000Y-139474000D01*
X309080000Y-142374000D02*
X309080000Y-143274000D01*
X309080000Y-139974000D02*
X309080000Y-142374000D01*
X309080000Y-143274000D02*
X310680000Y-143274000D01*
X328384000Y-143124000D02*
X329984000Y-143124000D01*
X328384000Y-143074000D02*
X329984000Y-143074000D01*
X328384000Y-143024000D02*
X329984000Y-143024000D01*
X328384000Y-142974000D02*
X329984000Y-142974000D01*
X328384000Y-139974000D02*
X328384000Y-139474000D01*
X329984000Y-139974000D02*
X329984000Y-139474000D01*
X329984000Y-143274000D02*
X329984000Y-139874000D01*
X328384000Y-139474000D02*
X329984000Y-139474000D01*
X328384000Y-142374000D02*
X328384000Y-143274000D01*
X328384000Y-139974000D02*
X328384000Y-142374000D01*
X328384000Y-143274000D02*
X329984000Y-143274000D01*
X331178000Y-143124000D02*
X332778000Y-143124000D01*
X331178000Y-143074000D02*
X332778000Y-143074000D01*
X331178000Y-143024000D02*
X332778000Y-143024000D01*
X331178000Y-142974000D02*
X332778000Y-142974000D01*
X331178000Y-139974000D02*
X331178000Y-139474000D01*
X332778000Y-139974000D02*
X332778000Y-139474000D01*
X332778000Y-143274000D02*
X332778000Y-139874000D01*
X331178000Y-139474000D02*
X332778000Y-139474000D01*
X331178000Y-142374000D02*
X331178000Y-143274000D01*
X331178000Y-139974000D02*
X331178000Y-142374000D01*
X331178000Y-143274000D02*
X332778000Y-143274000D01*
X365468000Y-146934000D02*
X367068000Y-146934000D01*
X365468000Y-146884000D02*
X367068000Y-146884000D01*
X365468000Y-146834000D02*
X367068000Y-146834000D01*
X365468000Y-146784000D02*
X367068000Y-146784000D01*
X365468000Y-143784000D02*
X365468000Y-143284000D01*
X367068000Y-143784000D02*
X367068000Y-143284000D01*
X367068000Y-147084000D02*
X367068000Y-143684000D01*
X365468000Y-143284000D02*
X367068000Y-143284000D01*
X365468000Y-146184000D02*
X365468000Y-147084000D01*
X365468000Y-143784000D02*
X365468000Y-146184000D01*
X365468000Y-147084000D02*
X367068000Y-147084000D01*
X144996000Y-161920000D02*
X146596000Y-161920000D01*
X144996000Y-161870000D02*
X146596000Y-161870000D01*
X144996000Y-161820000D02*
X146596000Y-161820000D01*
X144996000Y-161770000D02*
X146596000Y-161770000D01*
X144996000Y-158770000D02*
X144996000Y-158270000D01*
X146596000Y-158770000D02*
X146596000Y-158270000D01*
X146596000Y-162070000D02*
X146596000Y-158670000D01*
X144996000Y-158270000D02*
X146596000Y-158270000D01*
X144996000Y-161170000D02*
X144996000Y-162070000D01*
X144996000Y-158770000D02*
X144996000Y-161170000D01*
X144996000Y-162070000D02*
X146596000Y-162070000D01*
X171285000Y-161920000D02*
X172885000Y-161920000D01*
X171285000Y-161870000D02*
X172885000Y-161870000D01*
X171285000Y-161820000D02*
X172885000Y-161820000D01*
X171285000Y-161770000D02*
X172885000Y-161770000D01*
X171285000Y-158770000D02*
X171285000Y-158270000D01*
X172885000Y-158770000D02*
X172885000Y-158270000D01*
X172885000Y-162070000D02*
X172885000Y-158670000D01*
X171285000Y-158270000D02*
X172885000Y-158270000D01*
X171285000Y-161170000D02*
X171285000Y-162070000D01*
X171285000Y-158770000D02*
X171285000Y-161170000D01*
X171285000Y-162070000D02*
X172885000Y-162070000D01*
X190081000Y-161920000D02*
X191681000Y-161920000D01*
X190081000Y-161870000D02*
X191681000Y-161870000D01*
X190081000Y-161820000D02*
X191681000Y-161820000D01*
X190081000Y-161770000D02*
X191681000Y-161770000D01*
X190081000Y-158770000D02*
X190081000Y-158270000D01*
X191681000Y-158770000D02*
X191681000Y-158270000D01*
X191681000Y-162070000D02*
X191681000Y-158670000D01*
X190081000Y-158270000D02*
X191681000Y-158270000D01*
X190081000Y-161170000D02*
X190081000Y-162070000D01*
X190081000Y-158770000D02*
X190081000Y-161170000D01*
X190081000Y-162070000D02*
X191681000Y-162070000D01*
X209385000Y-161920000D02*
X210985000Y-161920000D01*
X209385000Y-161870000D02*
X210985000Y-161870000D01*
X209385000Y-161820000D02*
X210985000Y-161820000D01*
X209385000Y-161770000D02*
X210985000Y-161770000D01*
X209385000Y-158770000D02*
X209385000Y-158270000D01*
X210985000Y-158770000D02*
X210985000Y-158270000D01*
X210985000Y-162070000D02*
X210985000Y-158670000D01*
X209385000Y-158270000D02*
X210985000Y-158270000D01*
X209385000Y-161170000D02*
X209385000Y-162070000D01*
X209385000Y-158770000D02*
X209385000Y-161170000D01*
X209385000Y-162070000D02*
X210985000Y-162070000D01*
X228181000Y-161920000D02*
X229781000Y-161920000D01*
X228181000Y-161870000D02*
X229781000Y-161870000D01*
X228181000Y-161820000D02*
X229781000Y-161820000D01*
X228181000Y-161770000D02*
X229781000Y-161770000D01*
X228181000Y-158770000D02*
X228181000Y-158270000D01*
X229781000Y-158770000D02*
X229781000Y-158270000D01*
X229781000Y-162070000D02*
X229781000Y-158670000D01*
X228181000Y-158270000D02*
X229781000Y-158270000D01*
X228181000Y-161170000D02*
X228181000Y-162070000D01*
X228181000Y-158770000D02*
X228181000Y-161170000D01*
X228181000Y-162070000D02*
X229781000Y-162070000D01*
X246977000Y-161920000D02*
X248577000Y-161920000D01*
X246977000Y-161870000D02*
X248577000Y-161870000D01*
X246977000Y-161820000D02*
X248577000Y-161820000D01*
X246977000Y-161770000D02*
X248577000Y-161770000D01*
X246977000Y-158770000D02*
X246977000Y-158270000D01*
X248577000Y-158770000D02*
X248577000Y-158270000D01*
X248577000Y-162070000D02*
X248577000Y-158670000D01*
X246977000Y-158270000D02*
X248577000Y-158270000D01*
X246977000Y-161170000D02*
X246977000Y-162070000D01*
X246977000Y-158770000D02*
X246977000Y-161170000D01*
X246977000Y-162070000D02*
X248577000Y-162070000D01*
X266281000Y-161920000D02*
X267881000Y-161920000D01*
X266281000Y-161870000D02*
X267881000Y-161870000D01*
X266281000Y-161820000D02*
X267881000Y-161820000D01*
X266281000Y-161770000D02*
X267881000Y-161770000D01*
X266281000Y-158770000D02*
X266281000Y-158270000D01*
X267881000Y-158770000D02*
X267881000Y-158270000D01*
X267881000Y-162070000D02*
X267881000Y-158670000D01*
X266281000Y-158270000D02*
X267881000Y-158270000D01*
X266281000Y-161170000D02*
X266281000Y-162070000D01*
X266281000Y-158770000D02*
X266281000Y-161170000D01*
X266281000Y-162070000D02*
X267881000Y-162070000D01*
X285585000Y-161920000D02*
X287185000Y-161920000D01*
X285585000Y-161870000D02*
X287185000Y-161870000D01*
X285585000Y-161820000D02*
X287185000Y-161820000D01*
X285585000Y-161770000D02*
X287185000Y-161770000D01*
X285585000Y-158770000D02*
X285585000Y-158270000D01*
X287185000Y-158770000D02*
X287185000Y-158270000D01*
X287185000Y-162070000D02*
X287185000Y-158670000D01*
X285585000Y-158270000D02*
X287185000Y-158270000D01*
X285585000Y-161170000D02*
X285585000Y-162070000D01*
X285585000Y-158770000D02*
X285585000Y-161170000D01*
X285585000Y-162070000D02*
X287185000Y-162070000D01*
X304381000Y-161920000D02*
X305981000Y-161920000D01*
X304381000Y-161870000D02*
X305981000Y-161870000D01*
X304381000Y-161820000D02*
X305981000Y-161820000D01*
X304381000Y-161770000D02*
X305981000Y-161770000D01*
X304381000Y-158770000D02*
X304381000Y-158270000D01*
X305981000Y-158770000D02*
X305981000Y-158270000D01*
X305981000Y-162070000D02*
X305981000Y-158670000D01*
X304381000Y-158270000D02*
X305981000Y-158270000D01*
X304381000Y-161170000D02*
X304381000Y-162070000D01*
X304381000Y-158770000D02*
X304381000Y-161170000D01*
X304381000Y-162070000D02*
X305981000Y-162070000D01*
X323685000Y-161920000D02*
X325285000Y-161920000D01*
X323685000Y-161870000D02*
X325285000Y-161870000D01*
X323685000Y-161820000D02*
X325285000Y-161820000D01*
X323685000Y-161770000D02*
X325285000Y-161770000D01*
X323685000Y-158770000D02*
X323685000Y-158270000D01*
X325285000Y-158770000D02*
X325285000Y-158270000D01*
X325285000Y-162070000D02*
X325285000Y-158670000D01*
X323685000Y-158270000D02*
X325285000Y-158270000D01*
X323685000Y-161170000D02*
X323685000Y-162070000D01*
X323685000Y-158770000D02*
X323685000Y-161170000D01*
X323685000Y-162070000D02*
X325285000Y-162070000D01*
X337274000Y-161920000D02*
X338874000Y-161920000D01*
X337274000Y-161870000D02*
X338874000Y-161870000D01*
X337274000Y-161820000D02*
X338874000Y-161820000D01*
X337274000Y-161770000D02*
X338874000Y-161770000D01*
X337274000Y-158770000D02*
X337274000Y-158270000D01*
X338874000Y-158770000D02*
X338874000Y-158270000D01*
X338874000Y-162070000D02*
X338874000Y-158670000D01*
X337274000Y-158270000D02*
X338874000Y-158270000D01*
X337274000Y-161170000D02*
X337274000Y-162070000D01*
X337274000Y-158770000D02*
X337274000Y-161170000D01*
X337274000Y-162070000D02*
X338874000Y-162070000D01*
X363690000Y-161920000D02*
X365290000Y-161920000D01*
X363690000Y-161870000D02*
X365290000Y-161870000D01*
X363690000Y-161820000D02*
X365290000Y-161820000D01*
X363690000Y-161770000D02*
X365290000Y-161770000D01*
X363690000Y-158770000D02*
X363690000Y-158270000D01*
X365290000Y-158770000D02*
X365290000Y-158270000D01*
X365290000Y-162070000D02*
X365290000Y-158670000D01*
X363690000Y-158270000D02*
X365290000Y-158270000D01*
X363690000Y-161170000D02*
X363690000Y-162070000D01*
X363690000Y-158770000D02*
X363690000Y-161170000D01*
X363690000Y-162070000D02*
X365290000Y-162070000D01*
X139916000Y-180716000D02*
X141516000Y-180716000D01*
X139916000Y-180666000D02*
X141516000Y-180666000D01*
X139916000Y-180616000D02*
X141516000Y-180616000D01*
X139916000Y-180566000D02*
X141516000Y-180566000D01*
X139916000Y-177566000D02*
X139916000Y-177066000D01*
X141516000Y-177566000D02*
X141516000Y-177066000D01*
X141516000Y-180866000D02*
X141516000Y-177466000D01*
X139916000Y-177066000D02*
X141516000Y-177066000D01*
X139916000Y-179966000D02*
X139916000Y-180866000D01*
X139916000Y-177566000D02*
X139916000Y-179966000D01*
X139916000Y-180866000D02*
X141516000Y-180866000D01*
X161379000Y-180716000D02*
X162979000Y-180716000D01*
X161379000Y-180666000D02*
X162979000Y-180666000D01*
X161379000Y-180616000D02*
X162979000Y-180616000D01*
X161379000Y-180566000D02*
X162979000Y-180566000D01*
X161379000Y-177566000D02*
X161379000Y-177066000D01*
X162979000Y-177566000D02*
X162979000Y-177066000D01*
X162979000Y-180866000D02*
X162979000Y-177466000D01*
X161379000Y-177066000D02*
X162979000Y-177066000D01*
X161379000Y-179966000D02*
X161379000Y-180866000D01*
X161379000Y-177566000D02*
X161379000Y-179966000D01*
X161379000Y-180866000D02*
X162979000Y-180866000D01*
X180683000Y-180716000D02*
X182283000Y-180716000D01*
X180683000Y-180666000D02*
X182283000Y-180666000D01*
X180683000Y-180616000D02*
X182283000Y-180616000D01*
X180683000Y-180566000D02*
X182283000Y-180566000D01*
X180683000Y-177566000D02*
X180683000Y-177066000D01*
X182283000Y-177566000D02*
X182283000Y-177066000D01*
X182283000Y-180866000D02*
X182283000Y-177466000D01*
X180683000Y-177066000D02*
X182283000Y-177066000D01*
X180683000Y-179966000D02*
X180683000Y-180866000D01*
X180683000Y-177566000D02*
X180683000Y-179966000D01*
X180683000Y-180866000D02*
X182283000Y-180866000D01*
X199479000Y-180716000D02*
X201079000Y-180716000D01*
X199479000Y-180666000D02*
X201079000Y-180666000D01*
X199479000Y-180616000D02*
X201079000Y-180616000D01*
X199479000Y-180566000D02*
X201079000Y-180566000D01*
X199479000Y-177566000D02*
X199479000Y-177066000D01*
X201079000Y-177566000D02*
X201079000Y-177066000D01*
X201079000Y-180866000D02*
X201079000Y-177466000D01*
X199479000Y-177066000D02*
X201079000Y-177066000D01*
X199479000Y-179966000D02*
X199479000Y-180866000D01*
X199479000Y-177566000D02*
X199479000Y-179966000D01*
X199479000Y-180866000D02*
X201079000Y-180866000D01*
X217894000Y-180716000D02*
X219494000Y-180716000D01*
X217894000Y-180666000D02*
X219494000Y-180666000D01*
X217894000Y-180616000D02*
X219494000Y-180616000D01*
X217894000Y-180566000D02*
X219494000Y-180566000D01*
X217894000Y-177566000D02*
X217894000Y-177066000D01*
X219494000Y-177566000D02*
X219494000Y-177066000D01*
X219494000Y-180866000D02*
X219494000Y-177466000D01*
X217894000Y-177066000D02*
X219494000Y-177066000D01*
X217894000Y-179966000D02*
X217894000Y-180866000D01*
X217894000Y-177566000D02*
X217894000Y-179966000D01*
X217894000Y-180866000D02*
X219494000Y-180866000D01*
X245072000Y-181224000D02*
X246672000Y-181224000D01*
X245072000Y-181174000D02*
X246672000Y-181174000D01*
X245072000Y-181124000D02*
X246672000Y-181124000D01*
X245072000Y-181074000D02*
X246672000Y-181074000D01*
X245072000Y-178074000D02*
X245072000Y-177574000D01*
X246672000Y-178074000D02*
X246672000Y-177574000D01*
X246672000Y-181374000D02*
X246672000Y-177974000D01*
X245072000Y-177574000D02*
X246672000Y-177574000D01*
X245072000Y-180474000D02*
X245072000Y-181374000D01*
X245072000Y-178074000D02*
X245072000Y-180474000D01*
X245072000Y-181374000D02*
X246672000Y-181374000D01*
X252057000Y-181224000D02*
X253657000Y-181224000D01*
X252057000Y-181174000D02*
X253657000Y-181174000D01*
X252057000Y-181124000D02*
X253657000Y-181124000D01*
X252057000Y-181074000D02*
X253657000Y-181074000D01*
X252057000Y-178074000D02*
X252057000Y-177574000D01*
X253657000Y-178074000D02*
X253657000Y-177574000D01*
X253657000Y-181374000D02*
X253657000Y-177974000D01*
X252057000Y-177574000D02*
X253657000Y-177574000D01*
X252057000Y-180474000D02*
X252057000Y-181374000D01*
X252057000Y-178074000D02*
X252057000Y-180474000D01*
X252057000Y-181374000D02*
X253657000Y-181374000D01*
X275679000Y-181224000D02*
X277279000Y-181224000D01*
X275679000Y-181174000D02*
X277279000Y-181174000D01*
X275679000Y-181124000D02*
X277279000Y-181124000D01*
X275679000Y-181074000D02*
X277279000Y-181074000D01*
X275679000Y-178074000D02*
X275679000Y-177574000D01*
X277279000Y-178074000D02*
X277279000Y-177574000D01*
X277279000Y-181374000D02*
X277279000Y-177974000D01*
X275679000Y-177574000D02*
X277279000Y-177574000D01*
X275679000Y-180474000D02*
X275679000Y-181374000D01*
X275679000Y-178074000D02*
X275679000Y-180474000D01*
X275679000Y-181374000D02*
X277279000Y-181374000D01*
X294983000Y-181224000D02*
X296583000Y-181224000D01*
X294983000Y-181174000D02*
X296583000Y-181174000D01*
X294983000Y-181124000D02*
X296583000Y-181124000D01*
X294983000Y-181074000D02*
X296583000Y-181074000D01*
X294983000Y-178074000D02*
X294983000Y-177574000D01*
X296583000Y-178074000D02*
X296583000Y-177574000D01*
X296583000Y-181374000D02*
X296583000Y-177974000D01*
X294983000Y-177574000D02*
X296583000Y-177574000D01*
X294983000Y-180474000D02*
X294983000Y-181374000D01*
X294983000Y-178074000D02*
X294983000Y-180474000D01*
X294983000Y-181374000D02*
X296583000Y-181374000D01*
X313779000Y-181224000D02*
X315379000Y-181224000D01*
X313779000Y-181174000D02*
X315379000Y-181174000D01*
X313779000Y-181124000D02*
X315379000Y-181124000D01*
X313779000Y-181074000D02*
X315379000Y-181074000D01*
X313779000Y-178074000D02*
X313779000Y-177574000D01*
X315379000Y-178074000D02*
X315379000Y-177574000D01*
X315379000Y-181374000D02*
X315379000Y-177974000D01*
X313779000Y-177574000D02*
X315379000Y-177574000D01*
X313779000Y-180474000D02*
X313779000Y-181374000D01*
X313779000Y-178074000D02*
X313779000Y-180474000D01*
X313779000Y-181374000D02*
X315379000Y-181374000D01*
X333083000Y-181224000D02*
X334683000Y-181224000D01*
X333083000Y-181174000D02*
X334683000Y-181174000D01*
X333083000Y-181124000D02*
X334683000Y-181124000D01*
X333083000Y-181074000D02*
X334683000Y-181074000D01*
X333083000Y-178074000D02*
X333083000Y-177574000D01*
X334683000Y-178074000D02*
X334683000Y-177574000D01*
X334683000Y-181374000D02*
X334683000Y-177974000D01*
X333083000Y-177574000D02*
X334683000Y-177574000D01*
X333083000Y-180474000D02*
X333083000Y-181374000D01*
X333083000Y-178074000D02*
X333083000Y-180474000D01*
X333083000Y-181374000D02*
X334683000Y-181374000D01*
X359372000Y-181224000D02*
X360972000Y-181224000D01*
X359372000Y-181174000D02*
X360972000Y-181174000D01*
X359372000Y-181124000D02*
X360972000Y-181124000D01*
X359372000Y-181074000D02*
X360972000Y-181074000D01*
X359372000Y-178074000D02*
X359372000Y-177574000D01*
X360972000Y-178074000D02*
X360972000Y-177574000D01*
X360972000Y-181374000D02*
X360972000Y-177974000D01*
X359372000Y-177574000D02*
X360972000Y-177574000D01*
X359372000Y-180474000D02*
X359372000Y-181374000D01*
X359372000Y-178074000D02*
X359372000Y-180474000D01*
X359372000Y-181374000D02*
X360972000Y-181374000D01*
X137884000Y-200020000D02*
X139484000Y-200020000D01*
X137884000Y-199970000D02*
X139484000Y-199970000D01*
X137884000Y-199920000D02*
X139484000Y-199920000D01*
X137884000Y-199870000D02*
X139484000Y-199870000D01*
X137884000Y-196870000D02*
X137884000Y-196370000D01*
X139484000Y-196870000D02*
X139484000Y-196370000D01*
X139484000Y-200170000D02*
X139484000Y-196770000D01*
X137884000Y-196370000D02*
X139484000Y-196370000D01*
X137884000Y-199270000D02*
X137884000Y-200170000D01*
X137884000Y-196870000D02*
X137884000Y-199270000D01*
X137884000Y-200170000D02*
X139484000Y-200170000D01*
X156680000Y-200020000D02*
X158280000Y-200020000D01*
X156680000Y-199970000D02*
X158280000Y-199970000D01*
X156680000Y-199920000D02*
X158280000Y-199920000D01*
X156680000Y-199870000D02*
X158280000Y-199870000D01*
X156680000Y-196870000D02*
X156680000Y-196370000D01*
X158280000Y-196870000D02*
X158280000Y-196370000D01*
X158280000Y-200170000D02*
X158280000Y-196770000D01*
X156680000Y-196370000D02*
X158280000Y-196370000D01*
X156680000Y-199270000D02*
X156680000Y-200170000D01*
X156680000Y-196870000D02*
X156680000Y-199270000D01*
X156680000Y-200170000D02*
X158280000Y-200170000D01*
X175984000Y-200020000D02*
X177584000Y-200020000D01*
X175984000Y-199970000D02*
X177584000Y-199970000D01*
X175984000Y-199920000D02*
X177584000Y-199920000D01*
X175984000Y-199870000D02*
X177584000Y-199870000D01*
X175984000Y-196870000D02*
X175984000Y-196370000D01*
X177584000Y-196870000D02*
X177584000Y-196370000D01*
X177584000Y-200170000D02*
X177584000Y-196770000D01*
X175984000Y-196370000D02*
X177584000Y-196370000D01*
X175984000Y-199270000D02*
X175984000Y-200170000D01*
X175984000Y-196870000D02*
X175984000Y-199270000D01*
X175984000Y-200170000D02*
X177584000Y-200170000D01*
X197320000Y-200020000D02*
X198920000Y-200020000D01*
X197320000Y-199970000D02*
X198920000Y-199970000D01*
X197320000Y-199920000D02*
X198920000Y-199920000D01*
X197320000Y-199870000D02*
X198920000Y-199870000D01*
X197320000Y-196870000D02*
X197320000Y-196370000D01*
X198920000Y-196870000D02*
X198920000Y-196370000D01*
X198920000Y-200170000D02*
X198920000Y-196770000D01*
X197320000Y-196370000D02*
X198920000Y-196370000D01*
X197320000Y-199270000D02*
X197320000Y-200170000D01*
X197320000Y-196870000D02*
X197320000Y-199270000D01*
X197320000Y-200170000D02*
X198920000Y-200170000D01*
X213068000Y-200020000D02*
X214668000Y-200020000D01*
X213068000Y-199970000D02*
X214668000Y-199970000D01*
X213068000Y-199920000D02*
X214668000Y-199920000D01*
X213068000Y-199870000D02*
X214668000Y-199870000D01*
X213068000Y-196870000D02*
X213068000Y-196370000D01*
X214668000Y-196870000D02*
X214668000Y-196370000D01*
X214668000Y-200170000D02*
X214668000Y-196770000D01*
X213068000Y-196370000D02*
X214668000Y-196370000D01*
X213068000Y-199270000D02*
X213068000Y-200170000D01*
X213068000Y-196870000D02*
X213068000Y-199270000D01*
X213068000Y-200170000D02*
X214668000Y-200170000D01*
X258026000Y-202560000D02*
X259626000Y-202560000D01*
X258026000Y-202510000D02*
X259626000Y-202510000D01*
X258026000Y-202460000D02*
X259626000Y-202460000D01*
X258026000Y-202410000D02*
X259626000Y-202410000D01*
X258026000Y-199410000D02*
X258026000Y-198910000D01*
X259626000Y-199410000D02*
X259626000Y-198910000D01*
X259626000Y-202710000D02*
X259626000Y-199310000D01*
X258026000Y-198910000D02*
X259626000Y-198910000D01*
X258026000Y-201810000D02*
X258026000Y-202710000D01*
X258026000Y-199410000D02*
X258026000Y-201810000D01*
X258026000Y-202710000D02*
X259626000Y-202710000D01*
X306540000Y-200020000D02*
X308140000Y-200020000D01*
X306540000Y-199970000D02*
X308140000Y-199970000D01*
X306540000Y-199920000D02*
X308140000Y-199920000D01*
X306540000Y-199870000D02*
X308140000Y-199870000D01*
X306540000Y-196870000D02*
X306540000Y-196370000D01*
X308140000Y-196870000D02*
X308140000Y-196370000D01*
X308140000Y-200170000D02*
X308140000Y-196770000D01*
X306540000Y-196370000D02*
X308140000Y-196370000D01*
X306540000Y-199270000D02*
X306540000Y-200170000D01*
X306540000Y-196870000D02*
X306540000Y-199270000D01*
X306540000Y-200170000D02*
X308140000Y-200170000D01*
X328130000Y-200020000D02*
X329730000Y-200020000D01*
X328130000Y-199970000D02*
X329730000Y-199970000D01*
X328130000Y-199920000D02*
X329730000Y-199920000D01*
X328130000Y-199870000D02*
X329730000Y-199870000D01*
X328130000Y-196870000D02*
X328130000Y-196370000D01*
X329730000Y-196870000D02*
X329730000Y-196370000D01*
X329730000Y-200170000D02*
X329730000Y-196770000D01*
X328130000Y-196370000D02*
X329730000Y-196370000D01*
X328130000Y-199270000D02*
X328130000Y-200170000D01*
X328130000Y-196870000D02*
X328130000Y-199270000D01*
X328130000Y-200170000D02*
X329730000Y-200170000D01*
X347434000Y-200020000D02*
X349034000Y-200020000D01*
X347434000Y-199970000D02*
X349034000Y-199970000D01*
X347434000Y-199920000D02*
X349034000Y-199920000D01*
X347434000Y-199870000D02*
X349034000Y-199870000D01*
X347434000Y-196870000D02*
X347434000Y-196370000D01*
X349034000Y-196870000D02*
X349034000Y-196370000D01*
X349034000Y-200170000D02*
X349034000Y-196770000D01*
X347434000Y-196370000D02*
X349034000Y-196370000D01*
X347434000Y-199270000D02*
X347434000Y-200170000D01*
X347434000Y-196870000D02*
X347434000Y-199270000D01*
X347434000Y-200170000D02*
X349034000Y-200170000D01*
X364706000Y-200020000D02*
X366306000Y-200020000D01*
X364706000Y-199970000D02*
X366306000Y-199970000D01*
X364706000Y-199920000D02*
X366306000Y-199920000D01*
X364706000Y-199870000D02*
X366306000Y-199870000D01*
X364706000Y-196870000D02*
X364706000Y-196370000D01*
X366306000Y-196870000D02*
X366306000Y-196370000D01*
X366306000Y-200170000D02*
X366306000Y-196770000D01*
X364706000Y-196370000D02*
X366306000Y-196370000D01*
X364706000Y-199270000D02*
X364706000Y-200170000D01*
X364706000Y-196870000D02*
X364706000Y-199270000D01*
X364706000Y-200170000D02*
X366306000Y-200170000D01*
D11*
G36*
X330028309Y-166569633D02*
G01*
X330037870Y-167436690D01*
X330314043Y-168245268D01*
X330824644Y-168932868D01*
X331493566Y-169415082D01*
X331915419Y-169694150D01*
X332041313Y-169950571D01*
X332038459Y-169971207D01*
X331867949Y-170196963D01*
X331524428Y-170259386D01*
X331085078Y-170158535D01*
X330730795Y-169970169D01*
X330324055Y-169601206D01*
X329975914Y-169136855D01*
X329931959Y-169057403D01*
X329724212Y-168432247D01*
X329648712Y-167700014D01*
X329707975Y-166988350D01*
X329880862Y-166466734D01*
X330109464Y-166041294D01*
X330028309Y-166569633D01*
X330028309Y-166569633D01*
G37*
X330028309Y-166569633D02*
X330037870Y-167436690D01*
X330314043Y-168245268D01*
X330824644Y-168932868D01*
X331493566Y-169415082D01*
X331915419Y-169694150D01*
X332041313Y-169950571D01*
X332038459Y-169971207D01*
X331867949Y-170196963D01*
X331524428Y-170259386D01*
X331085078Y-170158535D01*
X330730795Y-169970169D01*
X330324055Y-169601206D01*
X329975914Y-169136855D01*
X329931959Y-169057403D01*
X329724212Y-168432247D01*
X329648712Y-167700014D01*
X329707975Y-166988350D01*
X329880862Y-166466734D01*
X330109464Y-166041294D01*
X330028309Y-166569633D01*
G36*
X355537697Y-162467637D02*
G01*
X355755453Y-162594059D01*
X355953273Y-162810531D01*
X355902998Y-163048575D01*
X355883564Y-163081661D01*
X355621681Y-163323902D01*
X355303301Y-163399885D01*
X355043057Y-163295563D01*
X354977906Y-163192642D01*
X354975608Y-162850304D01*
X355151410Y-162534943D01*
X355317893Y-162424938D01*
X355537697Y-162467637D01*
X355537697Y-162467637D01*
G37*
X355537697Y-162467637D02*
X355755453Y-162594059D01*
X355953273Y-162810531D01*
X355902998Y-163048575D01*
X355883564Y-163081661D01*
X355621681Y-163323902D01*
X355303301Y-163399885D01*
X355043057Y-163295563D01*
X354977906Y-163192642D01*
X354975608Y-162850304D01*
X355151410Y-162534943D01*
X355317893Y-162424938D01*
X355537697Y-162467637D01*
G36*
X346532417Y-162473871D02*
G01*
X346661442Y-162551819D01*
X346817123Y-162833049D01*
X346829269Y-163039985D01*
X346669688Y-163304304D01*
X346372179Y-163401754D01*
X346063580Y-163304007D01*
X345984642Y-163228619D01*
X345876128Y-162923112D01*
X345983458Y-162643280D01*
X346228323Y-162467431D01*
X346532417Y-162473871D01*
X346532417Y-162473871D01*
G37*
X346532417Y-162473871D02*
X346661442Y-162551819D01*
X346817123Y-162833049D01*
X346829269Y-163039985D01*
X346669688Y-163304304D01*
X346372179Y-163401754D01*
X346063580Y-163304007D01*
X345984642Y-163228619D01*
X345876128Y-162923112D01*
X345983458Y-162643280D01*
X346228323Y-162467431D01*
X346532417Y-162473871D01*
G36*
X357953235Y-164499432D02*
G01*
X358255267Y-164668747D01*
X358335766Y-164872742D01*
X358382120Y-165198307D01*
X358916910Y-164835389D01*
X359599803Y-164533146D01*
X360332875Y-164476906D01*
X361033873Y-164659025D01*
X361620544Y-165071862D01*
X361635771Y-165088003D01*
X361947885Y-165423018D01*
X362285119Y-165115827D01*
X362975855Y-164663584D01*
X363736616Y-164467561D01*
X364502864Y-164535685D01*
X365059285Y-164775125D01*
X365421707Y-165055909D01*
X365680212Y-165419926D01*
X365849809Y-165916742D01*
X365945508Y-166595923D01*
X365982315Y-167507035D01*
X365984118Y-167829437D01*
X365984118Y-169552471D01*
X365237059Y-169552471D01*
X365237059Y-167918668D01*
X365222977Y-167019898D01*
X365170201Y-166367592D01*
X365062937Y-165910272D01*
X364885389Y-165596458D01*
X364621764Y-165374670D01*
X364423869Y-165268235D01*
X364008857Y-165114421D01*
X363630113Y-165116312D01*
X363316378Y-165195384D01*
X362881125Y-165369348D01*
X362568211Y-165621638D01*
X362356158Y-166000479D01*
X362223487Y-166554099D01*
X362148719Y-167330724D01*
X362124454Y-167871589D01*
X362097388Y-168598697D01*
X362066902Y-169078510D01*
X362020320Y-169362411D01*
X361944963Y-169501783D01*
X361828155Y-169548013D01*
X361709757Y-169552471D01*
X361352353Y-169552471D01*
X361352353Y-167710868D01*
X361348825Y-166934389D01*
X361332062Y-166398298D01*
X361292799Y-166044190D01*
X361221768Y-165813657D01*
X361109703Y-165648290D01*
X361008994Y-165546697D01*
X360448257Y-165204078D01*
X359821446Y-165145746D01*
X359262667Y-165325727D01*
X358901451Y-165552739D01*
X358650269Y-165836709D01*
X358490331Y-166232578D01*
X358402842Y-166795285D01*
X358369013Y-167579769D01*
X358366320Y-167946294D01*
X358364118Y-169552471D01*
X357617059Y-169552471D01*
X357617059Y-164451687D01*
X357953235Y-164499432D01*
X357953235Y-164499432D01*
G37*
X357953235Y-164499432D02*
X358255267Y-164668747D01*
X358335766Y-164872742D01*
X358382120Y-165198307D01*
X358916910Y-164835389D01*
X359599803Y-164533146D01*
X360332875Y-164476906D01*
X361033873Y-164659025D01*
X361620544Y-165071862D01*
X361635771Y-165088003D01*
X361947885Y-165423018D01*
X362285119Y-165115827D01*
X362975855Y-164663584D01*
X363736616Y-164467561D01*
X364502864Y-164535685D01*
X365059285Y-164775125D01*
X365421707Y-165055909D01*
X365680212Y-165419926D01*
X365849809Y-165916742D01*
X365945508Y-166595923D01*
X365982315Y-167507035D01*
X365984118Y-167829437D01*
X365984118Y-169552471D01*
X365237059Y-169552471D01*
X365237059Y-167918668D01*
X365222977Y-167019898D01*
X365170201Y-166367592D01*
X365062937Y-165910272D01*
X364885389Y-165596458D01*
X364621764Y-165374670D01*
X364423869Y-165268235D01*
X364008857Y-165114421D01*
X363630113Y-165116312D01*
X363316378Y-165195384D01*
X362881125Y-165369348D01*
X362568211Y-165621638D01*
X362356158Y-166000479D01*
X362223487Y-166554099D01*
X362148719Y-167330724D01*
X362124454Y-167871589D01*
X362097388Y-168598697D01*
X362066902Y-169078510D01*
X362020320Y-169362411D01*
X361944963Y-169501783D01*
X361828155Y-169548013D01*
X361709757Y-169552471D01*
X361352353Y-169552471D01*
X361352353Y-167710868D01*
X361348825Y-166934389D01*
X361332062Y-166398298D01*
X361292799Y-166044190D01*
X361221768Y-165813657D01*
X361109703Y-165648290D01*
X361008994Y-165546697D01*
X360448257Y-165204078D01*
X359821446Y-165145746D01*
X359262667Y-165325727D01*
X358901451Y-165552739D01*
X358650269Y-165836709D01*
X358490331Y-166232578D01*
X358402842Y-166795285D01*
X358369013Y-167579769D01*
X358366320Y-167946294D01*
X358364118Y-169552471D01*
X357617059Y-169552471D01*
X357617059Y-164451687D01*
X357953235Y-164499432D01*
G36*
X355413235Y-164499432D02*
G01*
X355536555Y-164526114D01*
X355626150Y-164594380D01*
X355688373Y-164747185D01*
X355729577Y-165027487D01*
X355756113Y-165478242D01*
X355774334Y-166142408D01*
X355790377Y-167049824D01*
X355831343Y-169552471D01*
X355077059Y-169552471D01*
X355077059Y-164451687D01*
X355413235Y-164499432D01*
X355413235Y-164499432D01*
G37*
X355413235Y-164499432D02*
X355536555Y-164526114D01*
X355626150Y-164594380D01*
X355688373Y-164747185D01*
X355729577Y-165027487D01*
X355756113Y-165478242D01*
X355774334Y-166142408D01*
X355790377Y-167049824D01*
X355831343Y-169552471D01*
X355077059Y-169552471D01*
X355077059Y-164451687D01*
X355413235Y-164499432D01*
G36*
X351549744Y-164508129D02*
G01*
X352224634Y-164722705D01*
X352770742Y-165127409D01*
X352915479Y-165311204D01*
X353042183Y-165546860D01*
X353131616Y-165852503D01*
X353192506Y-166287332D01*
X353233577Y-166910542D01*
X353259848Y-167647471D01*
X353314127Y-169552471D01*
X352537059Y-169552471D01*
X352537059Y-167901522D01*
X352515722Y-166967933D01*
X352441181Y-166284967D01*
X352297639Y-165806774D01*
X352069297Y-165487502D01*
X351740360Y-165281303D01*
X351618007Y-165234046D01*
X350912056Y-165134599D01*
X350245300Y-165319271D01*
X349751026Y-165690640D01*
X349567022Y-165897400D01*
X349443197Y-166104093D01*
X349365054Y-166375862D01*
X349318097Y-166777846D01*
X349287831Y-167375190D01*
X349272008Y-167843232D01*
X349246595Y-168577524D01*
X349217662Y-169064092D01*
X349172827Y-169353904D01*
X349099706Y-169497927D01*
X348985917Y-169547129D01*
X348856732Y-169552471D01*
X348495716Y-169552471D01*
X348536681Y-167049824D01*
X348552925Y-166132723D01*
X348571210Y-165471457D01*
X348597888Y-165023071D01*
X348639313Y-164744607D01*
X348701836Y-164593109D01*
X348791809Y-164525619D01*
X348913824Y-164499432D01*
X349150648Y-164511228D01*
X349240158Y-164693488D01*
X349250000Y-164910314D01*
X349250000Y-165368942D01*
X349554790Y-165064151D01*
X350134583Y-164672953D01*
X350826314Y-164489578D01*
X351549744Y-164508129D01*
X351549744Y-164508129D01*
G37*
X351549744Y-164508129D02*
X352224634Y-164722705D01*
X352770742Y-165127409D01*
X352915479Y-165311204D01*
X353042183Y-165546860D01*
X353131616Y-165852503D01*
X353192506Y-166287332D01*
X353233577Y-166910542D01*
X353259848Y-167647471D01*
X353314127Y-169552471D01*
X352537059Y-169552471D01*
X352537059Y-167901522D01*
X352515722Y-166967933D01*
X352441181Y-166284967D01*
X352297639Y-165806774D01*
X352069297Y-165487502D01*
X351740360Y-165281303D01*
X351618007Y-165234046D01*
X350912056Y-165134599D01*
X350245300Y-165319271D01*
X349751026Y-165690640D01*
X349567022Y-165897400D01*
X349443197Y-166104093D01*
X349365054Y-166375862D01*
X349318097Y-166777846D01*
X349287831Y-167375190D01*
X349272008Y-167843232D01*
X349246595Y-168577524D01*
X349217662Y-169064092D01*
X349172827Y-169353904D01*
X349099706Y-169497927D01*
X348985917Y-169547129D01*
X348856732Y-169552471D01*
X348495716Y-169552471D01*
X348536681Y-167049824D01*
X348552925Y-166132723D01*
X348571210Y-165471457D01*
X348597888Y-165023071D01*
X348639313Y-164744607D01*
X348701836Y-164593109D01*
X348791809Y-164525619D01*
X348913824Y-164499432D01*
X349150648Y-164511228D01*
X349240158Y-164693488D01*
X349250000Y-164910314D01*
X349250000Y-165368942D01*
X349554790Y-165064151D01*
X350134583Y-164672953D01*
X350826314Y-164489578D01*
X351549744Y-164508129D01*
G36*
X346710000Y-169552471D02*
G01*
X345955716Y-169552471D01*
X345996681Y-167049824D01*
X346012925Y-166132723D01*
X346031210Y-165471457D01*
X346057888Y-165023071D01*
X346099313Y-164744607D01*
X346161836Y-164593109D01*
X346251809Y-164525619D01*
X346373824Y-164499432D01*
X346710000Y-164451687D01*
X346710000Y-169552471D01*
X346710000Y-169552471D01*
G37*
X346710000Y-169552471D02*
X345955716Y-169552471D01*
X345996681Y-167049824D01*
X346012925Y-166132723D01*
X346031210Y-165471457D01*
X346057888Y-165023071D01*
X346099313Y-164744607D01*
X346161836Y-164593109D01*
X346251809Y-164525619D01*
X346373824Y-164499432D01*
X346710000Y-164451687D01*
X346710000Y-169552471D01*
G36*
X344020588Y-169552471D02*
G01*
X343280586Y-169552471D01*
X343198824Y-164449283D01*
X341994148Y-166515289D01*
X341464502Y-167399734D01*
X341054755Y-168028732D01*
X340755105Y-168416043D01*
X340555750Y-168575427D01*
X340522360Y-168581294D01*
X340345116Y-168473270D01*
X340068953Y-168140186D01*
X339684226Y-167568527D01*
X339181290Y-166744776D01*
X339037623Y-166500715D01*
X337820000Y-164420136D01*
X337779119Y-166986303D01*
X337738238Y-169552471D01*
X336998235Y-169552471D01*
X336998235Y-162828942D01*
X337371765Y-162828942D01*
X337653462Y-162867399D01*
X337747099Y-162941000D01*
X337820221Y-163099518D01*
X338022351Y-163472055D01*
X338329436Y-164015983D01*
X338717423Y-164688675D01*
X339142408Y-165413883D01*
X340535912Y-167774706D01*
X341942999Y-165339177D01*
X342474215Y-164432992D01*
X342886985Y-163762557D01*
X343201597Y-163298955D01*
X343438340Y-163013271D01*
X343617501Y-162876588D01*
X343685337Y-162855903D01*
X344020588Y-162808158D01*
X344020588Y-169552471D01*
X344020588Y-169552471D01*
G37*
X344020588Y-169552471D02*
X343280586Y-169552471D01*
X343198824Y-164449283D01*
X341994148Y-166515289D01*
X341464502Y-167399734D01*
X341054755Y-168028732D01*
X340755105Y-168416043D01*
X340555750Y-168575427D01*
X340522360Y-168581294D01*
X340345116Y-168473270D01*
X340068953Y-168140186D01*
X339684226Y-167568527D01*
X339181290Y-166744776D01*
X339037623Y-166500715D01*
X337820000Y-164420136D01*
X337779119Y-166986303D01*
X337738238Y-169552471D01*
X336998235Y-169552471D01*
X336998235Y-162828942D01*
X337371765Y-162828942D01*
X337653462Y-162867399D01*
X337747099Y-162941000D01*
X337820221Y-163099518D01*
X338022351Y-163472055D01*
X338329436Y-164015983D01*
X338717423Y-164688675D01*
X339142408Y-165413883D01*
X340535912Y-167774706D01*
X341942999Y-165339177D01*
X342474215Y-164432992D01*
X342886985Y-163762557D01*
X343201597Y-163298955D01*
X343438340Y-163013271D01*
X343617501Y-162876588D01*
X343685337Y-162855903D01*
X344020588Y-162808158D01*
X344020588Y-169552471D01*
G36*
X332141224Y-161494140D02*
G01*
X332384100Y-161834428D01*
X332585094Y-162277275D01*
X332838860Y-162819276D01*
X333197185Y-163482338D01*
X333592568Y-164143205D01*
X333689751Y-164294334D01*
X334407988Y-165473261D01*
X334896578Y-166463974D01*
X335156388Y-167268416D01*
X335203001Y-167684824D01*
X335074144Y-168684751D01*
X334706223Y-169549560D01*
X334130538Y-170246537D01*
X333378388Y-170742966D01*
X332481073Y-171006134D01*
X331992941Y-171040026D01*
X331401802Y-170981366D01*
X330815744Y-170834332D01*
X330646954Y-170767938D01*
X329869306Y-170260837D01*
X329286709Y-169563135D01*
X328919763Y-168726852D01*
X328789068Y-167804002D01*
X328792146Y-167780641D01*
X329263284Y-167780641D01*
X329316837Y-168246260D01*
X329381518Y-168518781D01*
X329685883Y-169305498D01*
X330140560Y-169877459D01*
X330758837Y-170283077D01*
X331468347Y-170539681D01*
X332178415Y-170574297D01*
X332851551Y-170441226D01*
X333466049Y-170137566D01*
X334028863Y-169625255D01*
X334454489Y-168992547D01*
X334593937Y-168642842D01*
X334706790Y-167859345D01*
X334582673Y-167016716D01*
X334213592Y-166087009D01*
X333591555Y-165042281D01*
X333544219Y-164972707D01*
X333259441Y-164527978D01*
X332908778Y-163939816D01*
X332564524Y-163329743D01*
X332539924Y-163284547D01*
X331960518Y-162216739D01*
X331764444Y-162690102D01*
X331600335Y-163020670D01*
X331320173Y-163520707D01*
X330970406Y-164108909D01*
X330757384Y-164452968D01*
X330169970Y-165410405D01*
X329742957Y-166174303D01*
X329460240Y-166792250D01*
X329305717Y-167311834D01*
X329263284Y-167780641D01*
X328792146Y-167780641D01*
X328915225Y-166846604D01*
X328994077Y-166594360D01*
X329162230Y-166220880D01*
X329452356Y-165677772D01*
X329820629Y-165044021D01*
X330144406Y-164521164D01*
X330561580Y-163840910D01*
X330952340Y-163156934D01*
X331265574Y-162561181D01*
X331417356Y-162231294D01*
X331677616Y-161693352D01*
X331912318Y-161447374D01*
X332141224Y-161494140D01*
X332141224Y-161494140D01*
G37*
X332141224Y-161494140D02*
X332384100Y-161834428D01*
X332585094Y-162277275D01*
X332838860Y-162819276D01*
X333197185Y-163482338D01*
X333592568Y-164143205D01*
X333689751Y-164294334D01*
X334407988Y-165473261D01*
X334896578Y-166463974D01*
X335156388Y-167268416D01*
X335203001Y-167684824D01*
X335074144Y-168684751D01*
X334706223Y-169549560D01*
X334130538Y-170246537D01*
X333378388Y-170742966D01*
X332481073Y-171006134D01*
X331992941Y-171040026D01*
X331401802Y-170981366D01*
X330815744Y-170834332D01*
X330646954Y-170767938D01*
X329869306Y-170260837D01*
X329286709Y-169563135D01*
X328919763Y-168726852D01*
X328789068Y-167804002D01*
X328792146Y-167780641D01*
X329263284Y-167780641D01*
X329316837Y-168246260D01*
X329381518Y-168518781D01*
X329685883Y-169305498D01*
X330140560Y-169877459D01*
X330758837Y-170283077D01*
X331468347Y-170539681D01*
X332178415Y-170574297D01*
X332851551Y-170441226D01*
X333466049Y-170137566D01*
X334028863Y-169625255D01*
X334454489Y-168992547D01*
X334593937Y-168642842D01*
X334706790Y-167859345D01*
X334582673Y-167016716D01*
X334213592Y-166087009D01*
X333591555Y-165042281D01*
X333544219Y-164972707D01*
X333259441Y-164527978D01*
X332908778Y-163939816D01*
X332564524Y-163329743D01*
X332539924Y-163284547D01*
X331960518Y-162216739D01*
X331764444Y-162690102D01*
X331600335Y-163020670D01*
X331320173Y-163520707D01*
X330970406Y-164108909D01*
X330757384Y-164452968D01*
X330169970Y-165410405D01*
X329742957Y-166174303D01*
X329460240Y-166792250D01*
X329305717Y-167311834D01*
X329263284Y-167780641D01*
X328792146Y-167780641D01*
X328915225Y-166846604D01*
X328994077Y-166594360D01*
X329162230Y-166220880D01*
X329452356Y-165677772D01*
X329820629Y-165044021D01*
X330144406Y-164521164D01*
X330561580Y-163840910D01*
X330952340Y-163156934D01*
X331265574Y-162561181D01*
X331417356Y-162231294D01*
X331677616Y-161693352D01*
X331912318Y-161447374D01*
X332141224Y-161494140D01*
D12*
X253584000Y-197090000D02*
X253584000Y-198690000D01*
X250284000Y-197090000D02*
X253584000Y-197090000D01*
X250284000Y-198690000D02*
X250284000Y-197090000D01*
X253584000Y-198690000D02*
X250284000Y-198690000D01*
D13*
X348304000Y-140742000D02*
X351254000Y-140742000D01*
X350704000Y-137642000D02*
X348304000Y-137642000D01*
D12*
X242472000Y-183768000D02*
X242472000Y-183868000D01*
X242472000Y-180368000D02*
X242472000Y-183768000D01*
X236572000Y-180368000D02*
X242472000Y-180368000D01*
X236572000Y-183868000D02*
X236572000Y-180368000D01*
X242472000Y-183868000D02*
X236572000Y-183868000D01*
X242771132Y-186163497D02*
X247521132Y-186163497D01*
X242771132Y-189913497D02*
X242771132Y-186163497D01*
X247521132Y-189913497D02*
X242771132Y-189913497D01*
X247521132Y-186163497D02*
X247521132Y-189913497D01*
X250318000Y-192570000D02*
X250318000Y-190970000D01*
X253618000Y-192570000D02*
X250318000Y-192570000D01*
X253618000Y-190970000D02*
X253618000Y-192570000D01*
X250318000Y-190970000D02*
X253618000Y-190970000D01*
X250318000Y-192780000D02*
X253618000Y-192780000D01*
X253618000Y-192780000D02*
X253618000Y-194380000D01*
X253618000Y-194380000D02*
X250318000Y-194380000D01*
X250318000Y-194380000D02*
X250318000Y-192780000D01*
X238468000Y-189864000D02*
X238468000Y-186564000D01*
X238468000Y-186564000D02*
X240068000Y-186564000D01*
X240068000Y-186564000D02*
X240068000Y-189864000D01*
X240068000Y-189864000D02*
X238468000Y-189864000D01*
X251035000Y-184865000D02*
X251035000Y-182140000D01*
X245535000Y-182140000D02*
X245535000Y-184840000D01*
X245535000Y-182140000D02*
X251035000Y-182140000D01*
X251035000Y-184865000D02*
X245535000Y-184865000D01*
X342058000Y-147276000D02*
X342058000Y-141776000D01*
X344783000Y-141776000D02*
X344783000Y-147276000D01*
X344783000Y-141776000D02*
X342083000Y-141776000D01*
X342058000Y-147276000D02*
X344783000Y-147276000D01*
X248120000Y-189864000D02*
X248120000Y-186564000D01*
X248120000Y-186564000D02*
X249720000Y-186564000D01*
X249720000Y-186564000D02*
X249720000Y-189864000D01*
X249720000Y-189864000D02*
X248120000Y-189864000D01*
X242354000Y-189864000D02*
X240754000Y-189864000D01*
X242354000Y-186564000D02*
X242354000Y-189864000D01*
X240754000Y-186564000D02*
X242354000Y-186564000D01*
X240754000Y-189864000D02*
X240754000Y-186564000D01*
X234277000Y-183768000D02*
X234277000Y-180468000D01*
X234277000Y-180468000D02*
X235877000Y-180468000D01*
X235877000Y-180468000D02*
X235877000Y-183768000D01*
X235877000Y-183768000D02*
X234277000Y-183768000D01*
X352254000Y-147400000D02*
X346754000Y-147400000D01*
X346754000Y-144675000D02*
X352254000Y-144675000D01*
X346754000Y-144675000D02*
X346754000Y-147375000D01*
X352254000Y-147400000D02*
X352254000Y-144675000D01*
X232499000Y-183768000D02*
X232499000Y-180468000D01*
X232499000Y-180468000D02*
X234099000Y-180468000D01*
X234099000Y-180468000D02*
X234099000Y-183768000D01*
X234099000Y-183768000D02*
X232499000Y-183768000D01*
X237108000Y-196304000D02*
X237108000Y-197904000D01*
X233808000Y-196304000D02*
X237108000Y-196304000D01*
X233808000Y-197904000D02*
X233808000Y-196304000D01*
X237108000Y-197904000D02*
X233808000Y-197904000D01*
X256920000Y-194018000D02*
X256920000Y-195618000D01*
X253620000Y-194018000D02*
X256920000Y-194018000D01*
X253620000Y-195618000D02*
X253620000Y-194018000D01*
X256920000Y-195618000D02*
X253620000Y-195618000D01*
X256920000Y-197650000D02*
X253620000Y-197650000D01*
X253620000Y-197650000D02*
X253620000Y-196050000D01*
X253620000Y-196050000D02*
X256920000Y-196050000D01*
X256920000Y-196050000D02*
X256920000Y-197650000D01*
X351498000Y-141098000D02*
X353098000Y-141098000D01*
X351498000Y-144398000D02*
X351498000Y-141098000D01*
X353098000Y-144398000D02*
X351498000Y-144398000D01*
X353098000Y-141098000D02*
X353098000Y-144398000D01*
X347510000Y-141098000D02*
X347510000Y-144398000D01*
X347510000Y-144398000D02*
X345910000Y-144398000D01*
X345910000Y-144398000D02*
X345910000Y-141098000D01*
X345910000Y-141098000D02*
X347510000Y-141098000D01*
X246307652Y-194296000D02*
G75*
G03X246307652Y-194296000I-371652J0D01*
G01*
X246636000Y-199646000D02*
X240561000Y-199646000D01*
X240561000Y-199646000D02*
X240561000Y-193521000D01*
X240561000Y-193521000D02*
X246011000Y-193521000D01*
X246011000Y-193521000D02*
X246661000Y-194171000D01*
X246661000Y-194171000D02*
X246661000Y-199646000D01*
M02*
