M48
; DRILL file {KiCad (5.1.4-0-10_14)} date 2019 September 18, Wednesday 12:51:56
; FORMAT={-:-/ absolute / inch / decimal}
; #@! TF.CreationDate,2019-09-18T12:51:56+02:00
; #@! TF.GenerationSoftware,Kicad,Pcbnew,(5.1.4-0-10_14)
; #@! TF.FileFunction,Plated,1,2,PTH
FMAT,2
INCH
T1C0.0157
T2C0.0236
T3C0.0591
%
G90
G05
T1
X5.925Y-7.2285
X6.665Y-7.2635
X7.42Y-7.2813
X8.005Y-7.299
X8.74Y-7.1
X8.7406Y-6.965
X8.78Y-6.965
X8.78Y-7.1
X9.13Y-6.27
X9.13Y-6.435
X9.185Y-7.735
X9.3785Y-7.3685
X9.45Y-8.02
X9.62Y-7.9846
X9.62Y-7.75
X9.6312Y-7.8397
X9.64Y-7.23
X9.64Y-7.66
X9.6705Y-7.8409
X9.68Y-7.74
X9.73Y-7.5
X9.85Y-7.83
X9.86Y-7.87
X10.01Y-7.55
X10.03Y-7.09
X10.115Y-7.935
X10.2149Y-7.5164
X10.2472Y-7.5389
X10.2837Y-7.5537
X10.3Y-7.09
X10.33Y-7.57
X10.37Y-7.58
X10.57Y-8.015
X13.33Y-7.17
X13.4Y-6.33
X13.46Y-5.85
X13.52Y-5.56
X13.57Y-5.35
X13.58Y-5.5
X13.73Y-6.33
X13.8033Y-5.5868
X13.92Y-5.36
X13.92Y-5.85
X13.94Y-5.5
X14.32Y-6.85
T2
G00X13.573Y-5.1142
M15
G01X13.573Y-5.0906
M16
G05
G00X13.573Y-5.2886
M15
G01X13.573Y-5.2453
M16
G05
G00X13.9132Y-5.1142
M15
G01X13.9132Y-5.0906
M16
G05
G00X13.9132Y-5.2886
M15
G01X13.9132Y-5.2453
M16
G05
T3
G00X5.7681Y-5.633
M15
G01X5.7697Y-5.6103
M16
G05
G00X5.9862Y-5.5905
M15
G01X6.0181Y-5.5331
M16
G05
G00X11.75Y-5.2756
M15
G01X11.7181Y-5.3331
M16
G05
G00X11.9681Y-5.2331
M15
G01X11.9665Y-5.2559
M16
G05
G00X5.9375Y-6.7756
M15
G01X5.9056Y-6.8331
M16
G05
G00X6.1556Y-6.7331
M15
G01X6.154Y-6.7559
M16
G05
G00X10.4681Y-5.2331
M15
G01X10.4665Y-5.2559
M16
G05
G00X10.3619Y-7.883
M15
G01X10.3634Y-7.8603
M16
G05
G00X7.0625Y-6.0256
M15
G01X7.0306Y-6.0831
M16
G05
G00X7.2806Y-5.9831
M15
G01X7.279Y-6.0059
M16
G05
G00X11.6563Y-7.5256
M15
G01X11.6243Y-7.5831
M16
G05
G00X11.8743Y-7.4831
M15
G01X11.8728Y-7.5059
M16
G05
G00X7.3438Y-7.5256
M15
G01X7.3118Y-7.5831
M16
G05
G00X7.5618Y-7.4831
M15
G01X7.5603Y-7.5059
M16
G05
G00X10.25Y-5.2756
M15
G01X10.2181Y-5.3331
M16
G05
G00X5.75Y-7.5256
M15
G01X5.7181Y-7.5831
M16
G05
G00X5.9681Y-7.4831
M15
G01X5.9665Y-7.5059
M16
G05
G00X10.58Y-7.8405
M15
G01X10.6119Y-7.7831
M16
G05
G00X11.9375Y-6.7756
M15
G01X11.9056Y-6.8331
M16
G05
G00X12.1556Y-6.7331
M15
G01X12.154Y-6.7559
M16
G05
G00X8.9375Y-6.7756
M15
G01X8.9056Y-6.8331
M16
G05
G00X9.1556Y-6.7331
M15
G01X9.154Y-6.7559
M16
G05
G00X13.25Y-7.5256
M15
G01X13.2181Y-7.5831
M16
G05
G00X13.4681Y-7.4831
M15
G01X13.4665Y-7.5059
M16
G05
G00X11.7806Y-5.9831
M15
G01X11.779Y-6.0059
M16
G05
G00X8.0Y-5.2756
M15
G01X7.9681Y-5.3331
M16
G05
G00X6.3125Y-6.0256
M15
G01X6.2806Y-6.0831
M16
G05
G00X6.5306Y-5.9831
M15
G01X6.529Y-6.0059
M16
G05
G00X6.5Y-5.2756
M15
G01X6.4681Y-5.3331
M16
G05
G00X6.7181Y-5.2331
M15
G01X6.7165Y-5.2559
M16
G05
G00X12.5Y-5.2756
M15
G01X12.4681Y-5.3331
M16
G05
G00X12.7181Y-5.2331
M15
G01X12.7165Y-5.2559
M16
G05
G00X7.4375Y-6.7756
M15
G01X7.4056Y-6.8331
M16
G05
G00X7.6556Y-6.7331
M15
G01X7.654Y-6.7559
M16
G05
G00X12.6875Y-6.7756
M15
G01X12.6556Y-6.8331
M16
G05
G00X12.9056Y-6.7331
M15
G01X12.904Y-6.7559
M16
G05
G00X11.5625Y-6.0256
M15
G01X11.5306Y-6.0831
M16
G05
G00X8.2181Y-5.2331
M15
G01X8.2165Y-5.2559
M16
G05
G00X10.4375Y-6.7756
M15
G01X10.4056Y-6.8331
M16
G05
G00X10.6556Y-6.7331
M15
G01X10.654Y-6.7559
M16
G05
G00X6.5Y-7.5256
M15
G01X6.4681Y-7.5831
M16
G05
G00X6.7181Y-7.4831
M15
G01X6.7165Y-7.5059
M16
G05
G00X13.25Y-5.2756
M15
G01X13.2181Y-5.3331
M16
G05
G00X13.4681Y-5.2331
M15
G01X13.4665Y-5.2559
M16
G05
G00X10.0625Y-6.0256
M15
G01X10.0306Y-6.0831
M16
G05
G00X10.2806Y-5.9831
M15
G01X10.279Y-6.0059
M16
G05
G00X8.5625Y-6.0256
M15
G01X8.5306Y-6.0831
M16
G05
G00X8.7806Y-5.9831
M15
G01X8.779Y-6.0059
M16
G05
G00X5.2813Y-6.0256
M15
G01X5.2493Y-6.0831
M16
G05
G00X5.4993Y-5.9831
M15
G01X5.4978Y-6.0059
M16
G05
G00X5.0938Y-6.7756
M15
G01X5.0618Y-6.8331
M16
G05
G00X5.3118Y-6.7331
M15
G01X5.3103Y-6.7559
M16
G05
G00X13.9063Y-6.0256
M15
G01X13.8743Y-6.0831
M16
G05
G00X14.1243Y-5.9831
M15
G01X14.1228Y-6.0059
M16
G05
G00X13.0625Y-6.0256
M15
G01X13.0306Y-6.0831
M16
G05
G00X13.2806Y-5.9831
M15
G01X13.279Y-6.0059
M16
G05
G00X5.0Y-5.2756
M15
G01X4.9681Y-5.3331
M16
G05
G00X12.3125Y-6.0256
M15
G01X12.2806Y-6.0831
M16
G05
G00X5.2181Y-5.2331
M15
G01X5.2165Y-5.2559
M16
G05
G00X9.5Y-5.2756
M15
G01X9.4681Y-5.3331
M16
G05
G00X12.5306Y-5.9831
M15
G01X12.529Y-6.0059
M16
G05
G00X11.0Y-5.2756
M15
G01X10.9681Y-5.3331
M16
G05
G00X11.2181Y-5.2331
M15
G01X11.2165Y-5.2559
M16
G05
G00X11.1875Y-6.7756
M15
G01X11.1556Y-6.8331
M16
G05
G00X11.4056Y-6.7331
M15
G01X11.404Y-6.7559
M16
G05
G00X9.7181Y-5.2331
M15
G01X9.7165Y-5.2559
M16
G05
G00X8.1875Y-6.7756
M15
G01X8.1556Y-6.8331
M16
G05
G00X8.4056Y-6.7331
M15
G01X8.404Y-6.7559
M16
G05
G00X6.6875Y-6.7756
M15
G01X6.6556Y-6.8331
M16
G05
G00X6.9056Y-6.7331
M15
G01X6.904Y-6.7559
M16
G05
G00X9.6875Y-6.7756
M15
G01X9.6556Y-6.8331
M16
G05
G00X9.9056Y-6.7331
M15
G01X9.904Y-6.7559
M16
G05
G00X14.0181Y-5.633
M15
G01X14.0197Y-5.6103
M16
G05
G00X14.2362Y-5.5905
M15
G01X14.2681Y-5.5331
M16
G05
G00X7.8125Y-6.0256
M15
G01X7.7806Y-6.0831
M16
G05
G00X8.0306Y-5.9831
M15
G01X8.029Y-6.0059
M16
G05
G00X5.0Y-7.5256
M15
G01X4.9681Y-7.5831
M16
G05
G00X5.2181Y-7.4831
M15
G01X5.2165Y-7.5059
M16
G05
G00X10.8125Y-6.0256
M15
G01X10.7806Y-6.0831
M16
G05
G00X8.75Y-5.2756
M15
G01X8.7181Y-5.3331
M16
G05
G00X8.9681Y-5.2331
M15
G01X8.9665Y-5.2559
M16
G05
G00X9.3125Y-6.0256
M15
G01X9.2806Y-6.0831
M16
G05
G00X12.5Y-7.5256
M15
G01X12.4681Y-7.5831
M16
G05
G00X12.7181Y-7.4831
M15
G01X12.7165Y-7.5059
M16
G05
G00X7.25Y-5.2756
M15
G01X7.2181Y-5.3331
M16
G05
G00X7.4681Y-5.2331
M15
G01X7.4665Y-5.2559
M16
G05
G00X14.0Y-7.5256
M15
G01X13.9681Y-7.5831
M16
G05
G00X14.2181Y-7.4831
M15
G01X14.2165Y-7.5059
M16
G05
G00X11.0306Y-5.9831
M15
G01X11.029Y-6.0059
M16
G05
G00X8.8925Y-7.8405
M15
G01X8.9244Y-7.7831
M16
G05
G00X5.375Y-5.2756
M15
G01X5.3431Y-5.3331
M16
G05
G00X5.5931Y-5.2331
M15
G01X5.5915Y-5.2559
M16
G05
G00X8.6744Y-7.883
M15
G01X8.6759Y-7.8603
M16
G05
G00X13.7188Y-6.7756
M15
G01X13.6868Y-6.8331
M16
G05
G00X13.9368Y-6.7331
M15
G01X13.9353Y-6.7559
M16
G05
G00X9.5306Y-5.9831
M15
G01X9.529Y-6.0059
M16
G05
T0
M30
