G04 #@! TF.GenerationSoftware,KiCad,Pcbnew,(5.1.4-0-10_14)*
G04 #@! TF.CreationDate,2019-09-30T11:55:43+02:00*
G04 #@! TF.ProjectId,minivan-clone,6d696e69-7661-46e2-9d63-6c6f6e652e6b,rev?*
G04 #@! TF.SameCoordinates,Original*
G04 #@! TF.FileFunction,Soldermask,Bot*
G04 #@! TF.FilePolarity,Negative*
%FSLAX46Y46*%
G04 Gerber Fmt 4.6, Leading zero omitted, Abs format (unit mm)*
G04 Created by KiCad (PCBNEW (5.1.4-0-10_14)) date 2019-09-30 11:55:43*
%MOMM*%
%LPD*%
G04 APERTURE LIST*
%ADD10C,0.100000*%
G04 APERTURE END LIST*
D10*
G36*
X225536271Y-198354120D02*
G01*
X225785997Y-198411660D01*
X225786001Y-198411661D01*
X226019708Y-198516816D01*
X226072148Y-198554187D01*
X226228410Y-198665544D01*
X226346800Y-198791288D01*
X226404085Y-198852131D01*
X226539985Y-199069405D01*
X226630885Y-199309017D01*
X226662666Y-199498429D01*
X226694205Y-199961072D01*
X226710808Y-200204606D01*
X226705026Y-200396572D01*
X226692058Y-200452852D01*
X226647485Y-200646303D01*
X226542330Y-200880010D01*
X226504959Y-200932450D01*
X226393602Y-201088712D01*
X226260047Y-201214456D01*
X226207015Y-201264387D01*
X225989741Y-201400287D01*
X225750129Y-201491187D01*
X225497388Y-201533594D01*
X225497384Y-201533594D01*
X225241229Y-201525880D01*
X224991503Y-201468340D01*
X224991499Y-201468339D01*
X224757792Y-201363184D01*
X224705352Y-201325813D01*
X224549090Y-201214456D01*
X224373415Y-201027869D01*
X224237516Y-200810596D01*
X224237515Y-200810595D01*
X224146615Y-200570983D01*
X224114834Y-200381571D01*
X224098842Y-200146984D01*
X224066692Y-199675392D01*
X224072474Y-199483428D01*
X224130014Y-199233701D01*
X224130015Y-199233697D01*
X224235170Y-198999990D01*
X224272541Y-198947550D01*
X224383898Y-198791288D01*
X224570485Y-198615613D01*
X224787759Y-198479713D01*
X225027371Y-198388813D01*
X225280112Y-198346406D01*
X225280116Y-198346406D01*
X225536271Y-198354120D01*
X225536271Y-198354120D01*
G37*
G36*
X268398771Y-198354120D02*
G01*
X268648497Y-198411660D01*
X268648501Y-198411661D01*
X268882208Y-198516816D01*
X268934648Y-198554187D01*
X269090910Y-198665544D01*
X269209300Y-198791288D01*
X269266585Y-198852131D01*
X269402485Y-199069405D01*
X269493385Y-199309017D01*
X269525166Y-199498429D01*
X269556705Y-199961072D01*
X269573308Y-200204606D01*
X269567526Y-200396572D01*
X269554558Y-200452852D01*
X269509985Y-200646303D01*
X269404830Y-200880010D01*
X269367459Y-200932450D01*
X269256102Y-201088712D01*
X269122547Y-201214456D01*
X269069515Y-201264387D01*
X268852241Y-201400287D01*
X268612629Y-201491187D01*
X268359888Y-201533594D01*
X268359884Y-201533594D01*
X268103729Y-201525880D01*
X267854003Y-201468340D01*
X267853999Y-201468339D01*
X267620292Y-201363184D01*
X267567852Y-201325813D01*
X267411590Y-201214456D01*
X267235915Y-201027869D01*
X267100016Y-200810596D01*
X267100015Y-200810595D01*
X267009115Y-200570983D01*
X266977334Y-200381571D01*
X266961342Y-200146984D01*
X266929192Y-199675392D01*
X266934974Y-199483428D01*
X266992514Y-199233701D01*
X266992515Y-199233697D01*
X267097670Y-198999990D01*
X267135041Y-198947550D01*
X267246398Y-198791288D01*
X267432985Y-198615613D01*
X267650259Y-198479713D01*
X267889871Y-198388813D01*
X268142612Y-198346406D01*
X268142616Y-198346406D01*
X268398771Y-198354120D01*
X268398771Y-198354120D01*
G37*
G36*
X219238590Y-196400480D02*
G01*
X219417539Y-196433080D01*
X219633296Y-196518397D01*
X219655858Y-196527318D01*
X219655859Y-196527319D01*
X219655860Y-196527319D01*
X219871213Y-196666237D01*
X220055327Y-196844501D01*
X220055329Y-196844503D01*
X220164596Y-197002451D01*
X221037563Y-198574089D01*
X221113916Y-198750320D01*
X221167963Y-199000831D01*
X221172101Y-199257072D01*
X221162637Y-199309017D01*
X221126169Y-199509196D01*
X221031930Y-199747517D01*
X220893012Y-199962870D01*
X220714748Y-200146984D01*
X220714746Y-200146986D01*
X220631466Y-200204598D01*
X220503989Y-200292785D01*
X220402107Y-200336926D01*
X220268836Y-200394667D01*
X220018325Y-200448714D01*
X219762084Y-200452852D01*
X219688909Y-200439520D01*
X219509960Y-200406920D01*
X219271639Y-200312682D01*
X219056287Y-200173763D01*
X218872173Y-199995499D01*
X218872171Y-199995497D01*
X218762904Y-199837549D01*
X217889937Y-198265910D01*
X217813584Y-198089679D01*
X217759537Y-197839168D01*
X217755399Y-197582928D01*
X217768731Y-197509753D01*
X217801331Y-197330804D01*
X217895570Y-197092483D01*
X218034488Y-196877130D01*
X218212752Y-196693016D01*
X218212754Y-196693014D01*
X218312062Y-196624314D01*
X218423511Y-196547215D01*
X218525393Y-196503074D01*
X218658664Y-196445333D01*
X218909175Y-196391286D01*
X219165415Y-196387148D01*
X219238590Y-196400480D01*
X219238590Y-196400480D01*
G37*
G36*
X262101090Y-196400480D02*
G01*
X262280039Y-196433080D01*
X262495796Y-196518397D01*
X262518358Y-196527318D01*
X262518359Y-196527319D01*
X262518360Y-196527319D01*
X262733713Y-196666237D01*
X262917827Y-196844501D01*
X262917829Y-196844503D01*
X263027096Y-197002451D01*
X263900063Y-198574089D01*
X263976416Y-198750320D01*
X264030463Y-199000831D01*
X264034601Y-199257072D01*
X264025137Y-199309017D01*
X263988669Y-199509196D01*
X263894430Y-199747517D01*
X263755512Y-199962870D01*
X263577248Y-200146984D01*
X263577246Y-200146986D01*
X263493966Y-200204598D01*
X263366489Y-200292785D01*
X263264607Y-200336926D01*
X263131336Y-200394667D01*
X262880825Y-200448714D01*
X262624584Y-200452852D01*
X262551409Y-200439520D01*
X262372460Y-200406920D01*
X262134139Y-200312682D01*
X261918787Y-200173763D01*
X261734673Y-199995499D01*
X261734671Y-199995497D01*
X261625404Y-199837549D01*
X260752437Y-198265910D01*
X260676084Y-198089679D01*
X260622037Y-197839168D01*
X260617899Y-197582928D01*
X260631231Y-197509753D01*
X260663831Y-197330804D01*
X260758070Y-197092483D01*
X260896988Y-196877130D01*
X261075252Y-196693016D01*
X261075254Y-196693014D01*
X261174562Y-196624314D01*
X261286011Y-196547215D01*
X261387893Y-196503074D01*
X261521164Y-196445333D01*
X261771675Y-196391286D01*
X262027915Y-196387148D01*
X262101090Y-196400480D01*
X262101090Y-196400480D01*
G37*
G36*
X361779840Y-189860480D02*
G01*
X361958789Y-189893080D01*
X362174546Y-189978397D01*
X362197108Y-189987318D01*
X362197109Y-189987319D01*
X362197110Y-189987319D01*
X362412463Y-190126237D01*
X362596577Y-190304501D01*
X362596579Y-190304503D01*
X362705846Y-190462451D01*
X363578813Y-192034089D01*
X363655166Y-192210320D01*
X363709213Y-192460831D01*
X363713351Y-192717072D01*
X363700019Y-192790247D01*
X363667419Y-192969196D01*
X363573180Y-193207517D01*
X363434262Y-193422870D01*
X363255998Y-193606984D01*
X363255996Y-193606986D01*
X363156688Y-193675686D01*
X363045239Y-193752785D01*
X362943357Y-193796926D01*
X362810086Y-193854667D01*
X362559575Y-193908714D01*
X362303334Y-193912852D01*
X362230159Y-193899520D01*
X362051210Y-193866920D01*
X361812889Y-193772682D01*
X361597537Y-193633763D01*
X361413423Y-193455499D01*
X361413421Y-193455497D01*
X361304154Y-193297549D01*
X360431187Y-191725910D01*
X360354834Y-191549679D01*
X360300787Y-191299168D01*
X360296649Y-191042928D01*
X360309981Y-190969753D01*
X360342581Y-190790804D01*
X360436820Y-190552483D01*
X360575738Y-190337130D01*
X360754002Y-190153016D01*
X360754004Y-190153014D01*
X360853312Y-190084314D01*
X360964761Y-190007215D01*
X361066643Y-189963074D01*
X361199914Y-189905333D01*
X361450425Y-189851286D01*
X361706665Y-189847148D01*
X361779840Y-189860480D01*
X361779840Y-189860480D01*
G37*
G36*
X323679840Y-189860480D02*
G01*
X323858789Y-189893080D01*
X324074546Y-189978397D01*
X324097108Y-189987318D01*
X324097109Y-189987319D01*
X324097110Y-189987319D01*
X324312463Y-190126237D01*
X324496577Y-190304501D01*
X324496579Y-190304503D01*
X324605846Y-190462451D01*
X325478813Y-192034089D01*
X325555166Y-192210320D01*
X325609213Y-192460831D01*
X325613351Y-192717072D01*
X325600019Y-192790247D01*
X325567419Y-192969196D01*
X325473180Y-193207517D01*
X325334262Y-193422870D01*
X325155998Y-193606984D01*
X325155996Y-193606986D01*
X325056688Y-193675686D01*
X324945239Y-193752785D01*
X324843357Y-193796926D01*
X324710086Y-193854667D01*
X324459575Y-193908714D01*
X324203334Y-193912852D01*
X324130159Y-193899520D01*
X323951210Y-193866920D01*
X323712889Y-193772682D01*
X323497537Y-193633763D01*
X323313423Y-193455499D01*
X323313421Y-193455497D01*
X323204154Y-193297549D01*
X322331187Y-191725910D01*
X322254834Y-191549679D01*
X322200787Y-191299168D01*
X322196649Y-191042928D01*
X322209981Y-190969753D01*
X322242581Y-190790804D01*
X322336820Y-190552483D01*
X322475738Y-190337130D01*
X322654002Y-190153016D01*
X322654004Y-190153014D01*
X322753312Y-190084314D01*
X322864761Y-190007215D01*
X322966643Y-189963074D01*
X323099914Y-189905333D01*
X323350425Y-189851286D01*
X323606665Y-189847148D01*
X323679840Y-189860480D01*
X323679840Y-189860480D01*
G37*
G36*
X342729840Y-189860480D02*
G01*
X342908789Y-189893080D01*
X343124546Y-189978397D01*
X343147108Y-189987318D01*
X343147109Y-189987319D01*
X343147110Y-189987319D01*
X343362463Y-190126237D01*
X343546577Y-190304501D01*
X343546579Y-190304503D01*
X343655846Y-190462451D01*
X344528813Y-192034089D01*
X344605166Y-192210320D01*
X344659213Y-192460831D01*
X344663351Y-192717072D01*
X344650019Y-192790247D01*
X344617419Y-192969196D01*
X344523180Y-193207517D01*
X344384262Y-193422870D01*
X344205998Y-193606984D01*
X344205996Y-193606986D01*
X344106688Y-193675686D01*
X343995239Y-193752785D01*
X343893357Y-193796926D01*
X343760086Y-193854667D01*
X343509575Y-193908714D01*
X343253334Y-193912852D01*
X343180159Y-193899520D01*
X343001210Y-193866920D01*
X342762889Y-193772682D01*
X342547537Y-193633763D01*
X342363423Y-193455499D01*
X342363421Y-193455497D01*
X342254154Y-193297549D01*
X341381187Y-191725910D01*
X341304834Y-191549679D01*
X341250787Y-191299168D01*
X341246649Y-191042928D01*
X341259981Y-190969753D01*
X341292581Y-190790804D01*
X341386820Y-190552483D01*
X341525738Y-190337130D01*
X341704002Y-190153016D01*
X341704004Y-190153014D01*
X341803312Y-190084314D01*
X341914761Y-190007215D01*
X342016643Y-189963074D01*
X342149914Y-189905333D01*
X342400425Y-189851286D01*
X342656665Y-189847148D01*
X342729840Y-189860480D01*
X342729840Y-189860480D01*
G37*
G36*
X192711090Y-189860480D02*
G01*
X192890039Y-189893080D01*
X193105796Y-189978397D01*
X193128358Y-189987318D01*
X193128359Y-189987319D01*
X193128360Y-189987319D01*
X193343713Y-190126237D01*
X193527827Y-190304501D01*
X193527829Y-190304503D01*
X193637096Y-190462451D01*
X194510063Y-192034089D01*
X194586416Y-192210320D01*
X194640463Y-192460831D01*
X194644601Y-192717072D01*
X194631269Y-192790247D01*
X194598669Y-192969196D01*
X194504430Y-193207517D01*
X194365512Y-193422870D01*
X194187248Y-193606984D01*
X194187246Y-193606986D01*
X194087938Y-193675686D01*
X193976489Y-193752785D01*
X193874607Y-193796926D01*
X193741336Y-193854667D01*
X193490825Y-193908714D01*
X193234584Y-193912852D01*
X193161409Y-193899520D01*
X192982460Y-193866920D01*
X192744139Y-193772682D01*
X192528787Y-193633763D01*
X192344673Y-193455499D01*
X192344671Y-193455497D01*
X192235404Y-193297549D01*
X191362437Y-191725910D01*
X191286084Y-191549679D01*
X191232037Y-191299168D01*
X191227899Y-191042928D01*
X191241231Y-190969753D01*
X191273831Y-190790804D01*
X191368070Y-190552483D01*
X191506988Y-190337130D01*
X191685252Y-190153016D01*
X191685254Y-190153014D01*
X191784562Y-190084314D01*
X191896011Y-190007215D01*
X191997893Y-189963074D01*
X192131164Y-189905333D01*
X192381675Y-189851286D01*
X192637915Y-189847148D01*
X192711090Y-189860480D01*
X192711090Y-189860480D01*
G37*
G36*
X171279840Y-189860480D02*
G01*
X171458789Y-189893080D01*
X171674546Y-189978397D01*
X171697108Y-189987318D01*
X171697109Y-189987319D01*
X171697110Y-189987319D01*
X171912463Y-190126237D01*
X172096577Y-190304501D01*
X172096579Y-190304503D01*
X172205846Y-190462451D01*
X173078813Y-192034089D01*
X173155166Y-192210320D01*
X173209213Y-192460831D01*
X173213351Y-192717072D01*
X173200019Y-192790247D01*
X173167419Y-192969196D01*
X173073180Y-193207517D01*
X172934262Y-193422870D01*
X172755998Y-193606984D01*
X172755996Y-193606986D01*
X172656688Y-193675686D01*
X172545239Y-193752785D01*
X172443357Y-193796926D01*
X172310086Y-193854667D01*
X172059575Y-193908714D01*
X171803334Y-193912852D01*
X171730159Y-193899520D01*
X171551210Y-193866920D01*
X171312889Y-193772682D01*
X171097537Y-193633763D01*
X170913423Y-193455499D01*
X170913421Y-193455497D01*
X170804154Y-193297549D01*
X169931187Y-191725910D01*
X169854834Y-191549679D01*
X169800787Y-191299168D01*
X169796649Y-191042928D01*
X169809981Y-190969753D01*
X169842581Y-190790804D01*
X169936820Y-190552483D01*
X170075738Y-190337130D01*
X170254002Y-190153016D01*
X170254004Y-190153014D01*
X170353312Y-190084314D01*
X170464761Y-190007215D01*
X170566643Y-189963074D01*
X170699914Y-189905333D01*
X170950425Y-189851286D01*
X171206665Y-189847148D01*
X171279840Y-189860480D01*
X171279840Y-189860480D01*
G37*
G36*
X302248590Y-189860480D02*
G01*
X302427539Y-189893080D01*
X302643296Y-189978397D01*
X302665858Y-189987318D01*
X302665859Y-189987319D01*
X302665860Y-189987319D01*
X302881213Y-190126237D01*
X303065327Y-190304501D01*
X303065329Y-190304503D01*
X303174596Y-190462451D01*
X304047563Y-192034089D01*
X304123916Y-192210320D01*
X304177963Y-192460831D01*
X304182101Y-192717072D01*
X304168769Y-192790247D01*
X304136169Y-192969196D01*
X304041930Y-193207517D01*
X303903012Y-193422870D01*
X303724748Y-193606984D01*
X303724746Y-193606986D01*
X303625438Y-193675686D01*
X303513989Y-193752785D01*
X303412107Y-193796926D01*
X303278836Y-193854667D01*
X303028325Y-193908714D01*
X302772084Y-193912852D01*
X302698909Y-193899520D01*
X302519960Y-193866920D01*
X302281639Y-193772682D01*
X302066287Y-193633763D01*
X301882173Y-193455499D01*
X301882171Y-193455497D01*
X301772904Y-193297549D01*
X300899937Y-191725910D01*
X300823584Y-191549679D01*
X300769537Y-191299168D01*
X300765399Y-191042928D01*
X300778731Y-190969753D01*
X300811331Y-190790804D01*
X300905570Y-190552483D01*
X301044488Y-190337130D01*
X301222752Y-190153016D01*
X301222754Y-190153014D01*
X301322062Y-190084314D01*
X301433511Y-190007215D01*
X301535393Y-189963074D01*
X301668664Y-189905333D01*
X301919175Y-189851286D01*
X302175415Y-189847148D01*
X302248590Y-189860480D01*
X302248590Y-189860480D01*
G37*
G36*
X133179840Y-189860480D02*
G01*
X133358789Y-189893080D01*
X133574546Y-189978397D01*
X133597108Y-189987318D01*
X133597109Y-189987319D01*
X133597110Y-189987319D01*
X133812463Y-190126237D01*
X133996577Y-190304501D01*
X133996579Y-190304503D01*
X134105846Y-190462451D01*
X134978813Y-192034089D01*
X135055166Y-192210320D01*
X135109213Y-192460831D01*
X135113351Y-192717072D01*
X135100019Y-192790247D01*
X135067419Y-192969196D01*
X134973180Y-193207517D01*
X134834262Y-193422870D01*
X134655998Y-193606984D01*
X134655996Y-193606986D01*
X134556688Y-193675686D01*
X134445239Y-193752785D01*
X134343357Y-193796926D01*
X134210086Y-193854667D01*
X133959575Y-193908714D01*
X133703334Y-193912852D01*
X133630159Y-193899520D01*
X133451210Y-193866920D01*
X133212889Y-193772682D01*
X132997537Y-193633763D01*
X132813423Y-193455499D01*
X132813421Y-193455497D01*
X132704154Y-193297549D01*
X131831187Y-191725910D01*
X131754834Y-191549679D01*
X131700787Y-191299168D01*
X131696649Y-191042928D01*
X131709981Y-190969753D01*
X131742581Y-190790804D01*
X131836820Y-190552483D01*
X131975738Y-190337130D01*
X132154002Y-190153016D01*
X132154004Y-190153014D01*
X132253312Y-190084314D01*
X132364761Y-190007215D01*
X132466643Y-189963074D01*
X132599914Y-189905333D01*
X132850425Y-189851286D01*
X133106665Y-189847148D01*
X133179840Y-189860480D01*
X133179840Y-189860480D01*
G37*
G36*
X152229840Y-189860480D02*
G01*
X152408789Y-189893080D01*
X152624546Y-189978397D01*
X152647108Y-189987318D01*
X152647109Y-189987319D01*
X152647110Y-189987319D01*
X152862463Y-190126237D01*
X153046577Y-190304501D01*
X153046579Y-190304503D01*
X153155846Y-190462451D01*
X154028813Y-192034089D01*
X154105166Y-192210320D01*
X154159213Y-192460831D01*
X154163351Y-192717072D01*
X154150019Y-192790247D01*
X154117419Y-192969196D01*
X154023180Y-193207517D01*
X153884262Y-193422870D01*
X153705998Y-193606984D01*
X153705996Y-193606986D01*
X153606688Y-193675686D01*
X153495239Y-193752785D01*
X153393357Y-193796926D01*
X153260086Y-193854667D01*
X153009575Y-193908714D01*
X152753334Y-193912852D01*
X152680159Y-193899520D01*
X152501210Y-193866920D01*
X152262889Y-193772682D01*
X152047537Y-193633763D01*
X151863423Y-193455499D01*
X151863421Y-193455497D01*
X151754154Y-193297549D01*
X150881187Y-191725910D01*
X150804834Y-191549679D01*
X150750787Y-191299168D01*
X150746649Y-191042928D01*
X150759981Y-190969753D01*
X150792581Y-190790804D01*
X150886820Y-190552483D01*
X151025738Y-190337130D01*
X151204002Y-190153016D01*
X151204004Y-190153014D01*
X151303312Y-190084314D01*
X151414761Y-190007215D01*
X151516643Y-189963074D01*
X151649914Y-189905333D01*
X151900425Y-189851286D01*
X152156665Y-189847148D01*
X152229840Y-189860480D01*
X152229840Y-189860480D01*
G37*
G36*
X127627521Y-188774120D02*
G01*
X127877247Y-188831660D01*
X127877251Y-188831661D01*
X128110958Y-188936816D01*
X128163398Y-188974187D01*
X128319660Y-189085544D01*
X128438050Y-189211288D01*
X128495335Y-189272131D01*
X128631235Y-189489405D01*
X128722135Y-189729017D01*
X128753916Y-189918429D01*
X128769908Y-190153014D01*
X128802058Y-190624606D01*
X128797052Y-190790804D01*
X128796276Y-190816571D01*
X128738735Y-191066303D01*
X128633580Y-191300010D01*
X128596209Y-191352450D01*
X128484852Y-191508712D01*
X128351297Y-191634456D01*
X128298265Y-191684387D01*
X128080991Y-191820287D01*
X127841379Y-191911187D01*
X127588638Y-191953594D01*
X127588634Y-191953594D01*
X127332479Y-191945880D01*
X127082753Y-191888340D01*
X127082749Y-191888339D01*
X126849042Y-191783184D01*
X126768673Y-191725910D01*
X126640340Y-191634456D01*
X126464665Y-191447869D01*
X126328766Y-191230596D01*
X126328765Y-191230595D01*
X126237865Y-190990983D01*
X126206084Y-190801571D01*
X126189103Y-190552483D01*
X126157942Y-190095392D01*
X126163724Y-189903428D01*
X126221264Y-189653701D01*
X126221265Y-189653697D01*
X126326420Y-189419990D01*
X126363791Y-189367550D01*
X126475148Y-189211288D01*
X126661735Y-189035613D01*
X126879009Y-188899713D01*
X127118621Y-188808813D01*
X127371362Y-188766406D01*
X127371366Y-188766406D01*
X127627521Y-188774120D01*
X127627521Y-188774120D01*
G37*
G36*
X356227521Y-188774120D02*
G01*
X356477247Y-188831660D01*
X356477251Y-188831661D01*
X356710958Y-188936816D01*
X356763398Y-188974187D01*
X356919660Y-189085544D01*
X357038050Y-189211288D01*
X357095335Y-189272131D01*
X357231235Y-189489405D01*
X357322135Y-189729017D01*
X357353916Y-189918429D01*
X357369908Y-190153014D01*
X357402058Y-190624606D01*
X357397052Y-190790804D01*
X357396276Y-190816571D01*
X357338735Y-191066303D01*
X357233580Y-191300010D01*
X357196209Y-191352450D01*
X357084852Y-191508712D01*
X356951297Y-191634456D01*
X356898265Y-191684387D01*
X356680991Y-191820287D01*
X356441379Y-191911187D01*
X356188638Y-191953594D01*
X356188634Y-191953594D01*
X355932479Y-191945880D01*
X355682753Y-191888340D01*
X355682749Y-191888339D01*
X355449042Y-191783184D01*
X355368673Y-191725910D01*
X355240340Y-191634456D01*
X355064665Y-191447869D01*
X354928766Y-191230596D01*
X354928765Y-191230595D01*
X354837865Y-190990983D01*
X354806084Y-190801571D01*
X354789103Y-190552483D01*
X354757942Y-190095392D01*
X354763724Y-189903428D01*
X354821264Y-189653701D01*
X354821265Y-189653697D01*
X354926420Y-189419990D01*
X354963791Y-189367550D01*
X355075148Y-189211288D01*
X355261735Y-189035613D01*
X355479009Y-188899713D01*
X355718621Y-188808813D01*
X355971362Y-188766406D01*
X355971366Y-188766406D01*
X356227521Y-188774120D01*
X356227521Y-188774120D01*
G37*
G36*
X146677521Y-188774120D02*
G01*
X146927247Y-188831660D01*
X146927251Y-188831661D01*
X147160958Y-188936816D01*
X147213398Y-188974187D01*
X147369660Y-189085544D01*
X147488050Y-189211288D01*
X147545335Y-189272131D01*
X147681235Y-189489405D01*
X147772135Y-189729017D01*
X147803916Y-189918429D01*
X147819908Y-190153014D01*
X147852058Y-190624606D01*
X147847052Y-190790804D01*
X147846276Y-190816571D01*
X147788735Y-191066303D01*
X147683580Y-191300010D01*
X147646209Y-191352450D01*
X147534852Y-191508712D01*
X147401297Y-191634456D01*
X147348265Y-191684387D01*
X147130991Y-191820287D01*
X146891379Y-191911187D01*
X146638638Y-191953594D01*
X146638634Y-191953594D01*
X146382479Y-191945880D01*
X146132753Y-191888340D01*
X146132749Y-191888339D01*
X145899042Y-191783184D01*
X145818673Y-191725910D01*
X145690340Y-191634456D01*
X145514665Y-191447869D01*
X145378766Y-191230596D01*
X145378765Y-191230595D01*
X145287865Y-190990983D01*
X145256084Y-190801571D01*
X145239103Y-190552483D01*
X145207942Y-190095392D01*
X145213724Y-189903428D01*
X145271264Y-189653701D01*
X145271265Y-189653697D01*
X145376420Y-189419990D01*
X145413791Y-189367550D01*
X145525148Y-189211288D01*
X145711735Y-189035613D01*
X145929009Y-188899713D01*
X146168621Y-188808813D01*
X146421362Y-188766406D01*
X146421366Y-188766406D01*
X146677521Y-188774120D01*
X146677521Y-188774120D01*
G37*
G36*
X296696271Y-188774120D02*
G01*
X296945997Y-188831660D01*
X296946001Y-188831661D01*
X297179708Y-188936816D01*
X297232148Y-188974187D01*
X297388410Y-189085544D01*
X297506800Y-189211288D01*
X297564085Y-189272131D01*
X297699985Y-189489405D01*
X297790885Y-189729017D01*
X297822666Y-189918429D01*
X297838658Y-190153014D01*
X297870808Y-190624606D01*
X297865802Y-190790804D01*
X297865026Y-190816571D01*
X297807485Y-191066303D01*
X297702330Y-191300010D01*
X297664959Y-191352450D01*
X297553602Y-191508712D01*
X297420047Y-191634456D01*
X297367015Y-191684387D01*
X297149741Y-191820287D01*
X296910129Y-191911187D01*
X296657388Y-191953594D01*
X296657384Y-191953594D01*
X296401229Y-191945880D01*
X296151503Y-191888340D01*
X296151499Y-191888339D01*
X295917792Y-191783184D01*
X295837423Y-191725910D01*
X295709090Y-191634456D01*
X295533415Y-191447869D01*
X295397516Y-191230596D01*
X295397515Y-191230595D01*
X295306615Y-190990983D01*
X295274834Y-190801571D01*
X295257853Y-190552483D01*
X295226692Y-190095392D01*
X295232474Y-189903428D01*
X295290014Y-189653701D01*
X295290015Y-189653697D01*
X295395170Y-189419990D01*
X295432541Y-189367550D01*
X295543898Y-189211288D01*
X295730485Y-189035613D01*
X295947759Y-188899713D01*
X296187371Y-188808813D01*
X296440112Y-188766406D01*
X296440116Y-188766406D01*
X296696271Y-188774120D01*
X296696271Y-188774120D01*
G37*
G36*
X165727521Y-188774120D02*
G01*
X165977247Y-188831660D01*
X165977251Y-188831661D01*
X166210958Y-188936816D01*
X166263398Y-188974187D01*
X166419660Y-189085544D01*
X166538050Y-189211288D01*
X166595335Y-189272131D01*
X166731235Y-189489405D01*
X166822135Y-189729017D01*
X166853916Y-189918429D01*
X166869908Y-190153014D01*
X166902058Y-190624606D01*
X166897052Y-190790804D01*
X166896276Y-190816571D01*
X166838735Y-191066303D01*
X166733580Y-191300010D01*
X166696209Y-191352450D01*
X166584852Y-191508712D01*
X166451297Y-191634456D01*
X166398265Y-191684387D01*
X166180991Y-191820287D01*
X165941379Y-191911187D01*
X165688638Y-191953594D01*
X165688634Y-191953594D01*
X165432479Y-191945880D01*
X165182753Y-191888340D01*
X165182749Y-191888339D01*
X164949042Y-191783184D01*
X164868673Y-191725910D01*
X164740340Y-191634456D01*
X164564665Y-191447869D01*
X164428766Y-191230596D01*
X164428765Y-191230595D01*
X164337865Y-190990983D01*
X164306084Y-190801571D01*
X164289103Y-190552483D01*
X164257942Y-190095392D01*
X164263724Y-189903428D01*
X164321264Y-189653701D01*
X164321265Y-189653697D01*
X164426420Y-189419990D01*
X164463791Y-189367550D01*
X164575148Y-189211288D01*
X164761735Y-189035613D01*
X164979009Y-188899713D01*
X165218621Y-188808813D01*
X165471362Y-188766406D01*
X165471366Y-188766406D01*
X165727521Y-188774120D01*
X165727521Y-188774120D01*
G37*
G36*
X337177521Y-188774120D02*
G01*
X337427247Y-188831660D01*
X337427251Y-188831661D01*
X337660958Y-188936816D01*
X337713398Y-188974187D01*
X337869660Y-189085544D01*
X337988050Y-189211288D01*
X338045335Y-189272131D01*
X338181235Y-189489405D01*
X338272135Y-189729017D01*
X338303916Y-189918429D01*
X338319908Y-190153014D01*
X338352058Y-190624606D01*
X338347052Y-190790804D01*
X338346276Y-190816571D01*
X338288735Y-191066303D01*
X338183580Y-191300010D01*
X338146209Y-191352450D01*
X338034852Y-191508712D01*
X337901297Y-191634456D01*
X337848265Y-191684387D01*
X337630991Y-191820287D01*
X337391379Y-191911187D01*
X337138638Y-191953594D01*
X337138634Y-191953594D01*
X336882479Y-191945880D01*
X336632753Y-191888340D01*
X336632749Y-191888339D01*
X336399042Y-191783184D01*
X336318673Y-191725910D01*
X336190340Y-191634456D01*
X336014665Y-191447869D01*
X335878766Y-191230596D01*
X335878765Y-191230595D01*
X335787865Y-190990983D01*
X335756084Y-190801571D01*
X335739103Y-190552483D01*
X335707942Y-190095392D01*
X335713724Y-189903428D01*
X335771264Y-189653701D01*
X335771265Y-189653697D01*
X335876420Y-189419990D01*
X335913791Y-189367550D01*
X336025148Y-189211288D01*
X336211735Y-189035613D01*
X336429009Y-188899713D01*
X336668621Y-188808813D01*
X336921362Y-188766406D01*
X336921366Y-188766406D01*
X337177521Y-188774120D01*
X337177521Y-188774120D01*
G37*
G36*
X318127521Y-188774120D02*
G01*
X318377247Y-188831660D01*
X318377251Y-188831661D01*
X318610958Y-188936816D01*
X318663398Y-188974187D01*
X318819660Y-189085544D01*
X318938050Y-189211288D01*
X318995335Y-189272131D01*
X319131235Y-189489405D01*
X319222135Y-189729017D01*
X319253916Y-189918429D01*
X319269908Y-190153014D01*
X319302058Y-190624606D01*
X319297052Y-190790804D01*
X319296276Y-190816571D01*
X319238735Y-191066303D01*
X319133580Y-191300010D01*
X319096209Y-191352450D01*
X318984852Y-191508712D01*
X318851297Y-191634456D01*
X318798265Y-191684387D01*
X318580991Y-191820287D01*
X318341379Y-191911187D01*
X318088638Y-191953594D01*
X318088634Y-191953594D01*
X317832479Y-191945880D01*
X317582753Y-191888340D01*
X317582749Y-191888339D01*
X317349042Y-191783184D01*
X317268673Y-191725910D01*
X317140340Y-191634456D01*
X316964665Y-191447869D01*
X316828766Y-191230596D01*
X316828765Y-191230595D01*
X316737865Y-190990983D01*
X316706084Y-190801571D01*
X316689103Y-190552483D01*
X316657942Y-190095392D01*
X316663724Y-189903428D01*
X316721264Y-189653701D01*
X316721265Y-189653697D01*
X316826420Y-189419990D01*
X316863791Y-189367550D01*
X316975148Y-189211288D01*
X317161735Y-189035613D01*
X317379009Y-188899713D01*
X317618621Y-188808813D01*
X317871362Y-188766406D01*
X317871366Y-188766406D01*
X318127521Y-188774120D01*
X318127521Y-188774120D01*
G37*
G36*
X187158771Y-188774120D02*
G01*
X187408497Y-188831660D01*
X187408501Y-188831661D01*
X187642208Y-188936816D01*
X187694648Y-188974187D01*
X187850910Y-189085544D01*
X187969300Y-189211288D01*
X188026585Y-189272131D01*
X188162485Y-189489405D01*
X188253385Y-189729017D01*
X188285166Y-189918429D01*
X188301158Y-190153014D01*
X188333308Y-190624606D01*
X188328302Y-190790804D01*
X188327526Y-190816571D01*
X188269985Y-191066303D01*
X188164830Y-191300010D01*
X188127459Y-191352450D01*
X188016102Y-191508712D01*
X187882547Y-191634456D01*
X187829515Y-191684387D01*
X187612241Y-191820287D01*
X187372629Y-191911187D01*
X187119888Y-191953594D01*
X187119884Y-191953594D01*
X186863729Y-191945880D01*
X186614003Y-191888340D01*
X186613999Y-191888339D01*
X186380292Y-191783184D01*
X186299923Y-191725910D01*
X186171590Y-191634456D01*
X185995915Y-191447869D01*
X185860016Y-191230596D01*
X185860015Y-191230595D01*
X185769115Y-190990983D01*
X185737334Y-190801571D01*
X185720353Y-190552483D01*
X185689192Y-190095392D01*
X185694974Y-189903428D01*
X185752514Y-189653701D01*
X185752515Y-189653697D01*
X185857670Y-189419990D01*
X185895041Y-189367550D01*
X186006398Y-189211288D01*
X186192985Y-189035613D01*
X186410259Y-188899713D01*
X186649871Y-188808813D01*
X186902612Y-188766406D01*
X186902616Y-188766406D01*
X187158771Y-188774120D01*
X187158771Y-188774120D01*
G37*
G36*
X159043412Y-183270134D02*
G01*
X159275346Y-183316269D01*
X159712300Y-183497262D01*
X160105548Y-183760022D01*
X160439978Y-184094452D01*
X160702738Y-184487700D01*
X160883731Y-184924654D01*
X160976000Y-185388522D01*
X160976000Y-185861478D01*
X160883731Y-186325346D01*
X160702738Y-186762300D01*
X160439978Y-187155548D01*
X160105548Y-187489978D01*
X159712300Y-187752738D01*
X159275346Y-187933731D01*
X159043412Y-187979866D01*
X158811479Y-188026000D01*
X158338521Y-188026000D01*
X158106588Y-187979866D01*
X157874654Y-187933731D01*
X157437700Y-187752738D01*
X157044452Y-187489978D01*
X156710022Y-187155548D01*
X156447262Y-186762300D01*
X156266269Y-186325346D01*
X156174000Y-185861478D01*
X156174000Y-185388522D01*
X156266269Y-184924654D01*
X156447262Y-184487700D01*
X156710022Y-184094452D01*
X157044452Y-183760022D01*
X157437700Y-183497262D01*
X157874654Y-183316269D01*
X158106588Y-183270135D01*
X158338521Y-183224000D01*
X158811479Y-183224000D01*
X159043412Y-183270134D01*
X159043412Y-183270134D01*
G37*
G36*
X330493412Y-183270134D02*
G01*
X330725346Y-183316269D01*
X331162300Y-183497262D01*
X331555548Y-183760022D01*
X331889978Y-184094452D01*
X332152738Y-184487700D01*
X332333731Y-184924654D01*
X332426000Y-185388522D01*
X332426000Y-185861478D01*
X332333731Y-186325346D01*
X332152738Y-186762300D01*
X331889978Y-187155548D01*
X331555548Y-187489978D01*
X331162300Y-187752738D01*
X330725346Y-187933731D01*
X330493412Y-187979866D01*
X330261479Y-188026000D01*
X329788521Y-188026000D01*
X329556588Y-187979866D01*
X329324654Y-187933731D01*
X328887700Y-187752738D01*
X328494452Y-187489978D01*
X328160022Y-187155548D01*
X327897262Y-186762300D01*
X327716269Y-186325346D01*
X327624000Y-185861478D01*
X327624000Y-185388522D01*
X327716269Y-184924654D01*
X327897262Y-184487700D01*
X328160022Y-184094452D01*
X328494452Y-183760022D01*
X328887700Y-183497262D01*
X329324654Y-183316269D01*
X329556588Y-183270135D01*
X329788521Y-183224000D01*
X330261479Y-183224000D01*
X330493412Y-183270134D01*
X330493412Y-183270134D01*
G37*
G36*
X176042340Y-170810480D02*
G01*
X176221289Y-170843080D01*
X176437046Y-170928397D01*
X176459608Y-170937318D01*
X176459609Y-170937319D01*
X176459610Y-170937319D01*
X176674963Y-171076237D01*
X176859077Y-171254501D01*
X176859079Y-171254503D01*
X176968346Y-171412451D01*
X177841313Y-172984089D01*
X177917666Y-173160320D01*
X177971713Y-173410831D01*
X177975851Y-173667072D01*
X177962519Y-173740247D01*
X177929919Y-173919196D01*
X177835680Y-174157517D01*
X177696762Y-174372870D01*
X177518498Y-174556984D01*
X177518496Y-174556986D01*
X177419188Y-174625686D01*
X177307739Y-174702785D01*
X177205857Y-174746926D01*
X177072586Y-174804667D01*
X176822075Y-174858714D01*
X176565834Y-174862852D01*
X176492659Y-174849520D01*
X176313710Y-174816920D01*
X176075389Y-174722682D01*
X175860037Y-174583763D01*
X175675923Y-174405499D01*
X175675921Y-174405497D01*
X175566654Y-174247549D01*
X174693687Y-172675910D01*
X174617334Y-172499679D01*
X174563287Y-172249168D01*
X174559149Y-171992928D01*
X174572481Y-171919753D01*
X174605081Y-171740804D01*
X174699320Y-171502483D01*
X174838238Y-171287130D01*
X175016502Y-171103016D01*
X175016504Y-171103014D01*
X175115812Y-171034314D01*
X175227261Y-170957215D01*
X175329143Y-170913074D01*
X175462414Y-170855333D01*
X175712925Y-170801286D01*
X175969165Y-170797148D01*
X176042340Y-170810480D01*
X176042340Y-170810480D01*
G37*
G36*
X156992340Y-170810480D02*
G01*
X157171289Y-170843080D01*
X157387046Y-170928397D01*
X157409608Y-170937318D01*
X157409609Y-170937319D01*
X157409610Y-170937319D01*
X157624963Y-171076237D01*
X157809077Y-171254501D01*
X157809079Y-171254503D01*
X157918346Y-171412451D01*
X158791313Y-172984089D01*
X158867666Y-173160320D01*
X158921713Y-173410831D01*
X158925851Y-173667072D01*
X158912519Y-173740247D01*
X158879919Y-173919196D01*
X158785680Y-174157517D01*
X158646762Y-174372870D01*
X158468498Y-174556984D01*
X158468496Y-174556986D01*
X158369188Y-174625686D01*
X158257739Y-174702785D01*
X158155857Y-174746926D01*
X158022586Y-174804667D01*
X157772075Y-174858714D01*
X157515834Y-174862852D01*
X157442659Y-174849520D01*
X157263710Y-174816920D01*
X157025389Y-174722682D01*
X156810037Y-174583763D01*
X156625923Y-174405499D01*
X156625921Y-174405497D01*
X156516654Y-174247549D01*
X155643687Y-172675910D01*
X155567334Y-172499679D01*
X155513287Y-172249168D01*
X155509149Y-171992928D01*
X155522481Y-171919753D01*
X155555081Y-171740804D01*
X155649320Y-171502483D01*
X155788238Y-171287130D01*
X155966502Y-171103016D01*
X155966504Y-171103014D01*
X156065812Y-171034314D01*
X156177261Y-170957215D01*
X156279143Y-170913074D01*
X156412414Y-170855333D01*
X156662925Y-170801286D01*
X156919165Y-170797148D01*
X156992340Y-170810480D01*
X156992340Y-170810480D01*
G37*
G36*
X214142340Y-170810480D02*
G01*
X214321289Y-170843080D01*
X214537046Y-170928397D01*
X214559608Y-170937318D01*
X214559609Y-170937319D01*
X214559610Y-170937319D01*
X214774963Y-171076237D01*
X214959077Y-171254501D01*
X214959079Y-171254503D01*
X215068346Y-171412451D01*
X215941313Y-172984089D01*
X216017666Y-173160320D01*
X216071713Y-173410831D01*
X216075851Y-173667072D01*
X216062519Y-173740247D01*
X216029919Y-173919196D01*
X215935680Y-174157517D01*
X215796762Y-174372870D01*
X215618498Y-174556984D01*
X215618496Y-174556986D01*
X215519188Y-174625686D01*
X215407739Y-174702785D01*
X215305857Y-174746926D01*
X215172586Y-174804667D01*
X214922075Y-174858714D01*
X214665834Y-174862852D01*
X214592659Y-174849520D01*
X214413710Y-174816920D01*
X214175389Y-174722682D01*
X213960037Y-174583763D01*
X213775923Y-174405499D01*
X213775921Y-174405497D01*
X213666654Y-174247549D01*
X212793687Y-172675910D01*
X212717334Y-172499679D01*
X212663287Y-172249168D01*
X212659149Y-171992928D01*
X212672481Y-171919753D01*
X212705081Y-171740804D01*
X212799320Y-171502483D01*
X212938238Y-171287130D01*
X213116502Y-171103016D01*
X213116504Y-171103014D01*
X213215812Y-171034314D01*
X213327261Y-170957215D01*
X213429143Y-170913074D01*
X213562414Y-170855333D01*
X213812925Y-170801286D01*
X214069165Y-170797148D01*
X214142340Y-170810480D01*
X214142340Y-170810480D01*
G37*
G36*
X252242340Y-170810480D02*
G01*
X252421289Y-170843080D01*
X252637046Y-170928397D01*
X252659608Y-170937318D01*
X252659609Y-170937319D01*
X252659610Y-170937319D01*
X252874963Y-171076237D01*
X253059077Y-171254501D01*
X253059079Y-171254503D01*
X253168346Y-171412451D01*
X254041313Y-172984089D01*
X254117666Y-173160320D01*
X254171713Y-173410831D01*
X254175851Y-173667072D01*
X254162519Y-173740247D01*
X254129919Y-173919196D01*
X254035680Y-174157517D01*
X253896762Y-174372870D01*
X253718498Y-174556984D01*
X253718496Y-174556986D01*
X253619188Y-174625686D01*
X253507739Y-174702785D01*
X253405857Y-174746926D01*
X253272586Y-174804667D01*
X253022075Y-174858714D01*
X252765834Y-174862852D01*
X252692659Y-174849520D01*
X252513710Y-174816920D01*
X252275389Y-174722682D01*
X252060037Y-174583763D01*
X251875923Y-174405499D01*
X251875921Y-174405497D01*
X251766654Y-174247549D01*
X250893687Y-172675910D01*
X250817334Y-172499679D01*
X250763287Y-172249168D01*
X250759149Y-171992928D01*
X250772481Y-171919753D01*
X250805081Y-171740804D01*
X250899320Y-171502483D01*
X251038238Y-171287130D01*
X251216502Y-171103016D01*
X251216504Y-171103014D01*
X251315812Y-171034314D01*
X251427261Y-170957215D01*
X251529143Y-170913074D01*
X251662414Y-170855333D01*
X251912925Y-170801286D01*
X252169165Y-170797148D01*
X252242340Y-170810480D01*
X252242340Y-170810480D01*
G37*
G36*
X271292340Y-170810480D02*
G01*
X271471289Y-170843080D01*
X271687046Y-170928397D01*
X271709608Y-170937318D01*
X271709609Y-170937319D01*
X271709610Y-170937319D01*
X271924963Y-171076237D01*
X272109077Y-171254501D01*
X272109079Y-171254503D01*
X272218346Y-171412451D01*
X273091313Y-172984089D01*
X273167666Y-173160320D01*
X273221713Y-173410831D01*
X273225851Y-173667072D01*
X273212519Y-173740247D01*
X273179919Y-173919196D01*
X273085680Y-174157517D01*
X272946762Y-174372870D01*
X272768498Y-174556984D01*
X272768496Y-174556986D01*
X272669188Y-174625686D01*
X272557739Y-174702785D01*
X272455857Y-174746926D01*
X272322586Y-174804667D01*
X272072075Y-174858714D01*
X271815834Y-174862852D01*
X271742659Y-174849520D01*
X271563710Y-174816920D01*
X271325389Y-174722682D01*
X271110037Y-174583763D01*
X270925923Y-174405499D01*
X270925921Y-174405497D01*
X270816654Y-174247549D01*
X269943687Y-172675910D01*
X269867334Y-172499679D01*
X269813287Y-172249168D01*
X269809149Y-171992928D01*
X269822481Y-171919753D01*
X269855081Y-171740804D01*
X269949320Y-171502483D01*
X270088238Y-171287130D01*
X270266502Y-171103016D01*
X270266504Y-171103014D01*
X270365812Y-171034314D01*
X270477261Y-170957215D01*
X270579143Y-170913074D01*
X270712414Y-170855333D01*
X270962925Y-170801286D01*
X271219165Y-170797148D01*
X271292340Y-170810480D01*
X271292340Y-170810480D01*
G37*
G36*
X309392340Y-170810480D02*
G01*
X309571289Y-170843080D01*
X309787046Y-170928397D01*
X309809608Y-170937318D01*
X309809609Y-170937319D01*
X309809610Y-170937319D01*
X310024963Y-171076237D01*
X310209077Y-171254501D01*
X310209079Y-171254503D01*
X310318346Y-171412451D01*
X311191313Y-172984089D01*
X311267666Y-173160320D01*
X311321713Y-173410831D01*
X311325851Y-173667072D01*
X311312519Y-173740247D01*
X311279919Y-173919196D01*
X311185680Y-174157517D01*
X311046762Y-174372870D01*
X310868498Y-174556984D01*
X310868496Y-174556986D01*
X310769188Y-174625686D01*
X310657739Y-174702785D01*
X310555857Y-174746926D01*
X310422586Y-174804667D01*
X310172075Y-174858714D01*
X309915834Y-174862852D01*
X309842659Y-174849520D01*
X309663710Y-174816920D01*
X309425389Y-174722682D01*
X309210037Y-174583763D01*
X309025923Y-174405499D01*
X309025921Y-174405497D01*
X308916654Y-174247549D01*
X308043687Y-172675910D01*
X307967334Y-172499679D01*
X307913287Y-172249168D01*
X307909149Y-171992928D01*
X307922481Y-171919753D01*
X307955081Y-171740804D01*
X308049320Y-171502483D01*
X308188238Y-171287130D01*
X308366502Y-171103016D01*
X308366504Y-171103014D01*
X308465812Y-171034314D01*
X308577261Y-170957215D01*
X308679143Y-170913074D01*
X308812414Y-170855333D01*
X309062925Y-170801286D01*
X309319165Y-170797148D01*
X309392340Y-170810480D01*
X309392340Y-170810480D01*
G37*
G36*
X290342340Y-170810480D02*
G01*
X290521289Y-170843080D01*
X290737046Y-170928397D01*
X290759608Y-170937318D01*
X290759609Y-170937319D01*
X290759610Y-170937319D01*
X290974963Y-171076237D01*
X291159077Y-171254501D01*
X291159079Y-171254503D01*
X291268346Y-171412451D01*
X292141313Y-172984089D01*
X292217666Y-173160320D01*
X292271713Y-173410831D01*
X292275851Y-173667072D01*
X292262519Y-173740247D01*
X292229919Y-173919196D01*
X292135680Y-174157517D01*
X291996762Y-174372870D01*
X291818498Y-174556984D01*
X291818496Y-174556986D01*
X291719188Y-174625686D01*
X291607739Y-174702785D01*
X291505857Y-174746926D01*
X291372586Y-174804667D01*
X291122075Y-174858714D01*
X290865834Y-174862852D01*
X290792659Y-174849520D01*
X290613710Y-174816920D01*
X290375389Y-174722682D01*
X290160037Y-174583763D01*
X289975923Y-174405499D01*
X289975921Y-174405497D01*
X289866654Y-174247549D01*
X288993687Y-172675910D01*
X288917334Y-172499679D01*
X288863287Y-172249168D01*
X288859149Y-171992928D01*
X288872481Y-171919753D01*
X288905081Y-171740804D01*
X288999320Y-171502483D01*
X289138238Y-171287130D01*
X289316502Y-171103016D01*
X289316504Y-171103014D01*
X289415812Y-171034314D01*
X289527261Y-170957215D01*
X289629143Y-170913074D01*
X289762414Y-170855333D01*
X290012925Y-170801286D01*
X290269165Y-170797148D01*
X290342340Y-170810480D01*
X290342340Y-170810480D01*
G37*
G36*
X328442340Y-170810480D02*
G01*
X328621289Y-170843080D01*
X328837046Y-170928397D01*
X328859608Y-170937318D01*
X328859609Y-170937319D01*
X328859610Y-170937319D01*
X329074963Y-171076237D01*
X329259077Y-171254501D01*
X329259079Y-171254503D01*
X329368346Y-171412451D01*
X330241313Y-172984089D01*
X330317666Y-173160320D01*
X330371713Y-173410831D01*
X330375851Y-173667072D01*
X330362519Y-173740247D01*
X330329919Y-173919196D01*
X330235680Y-174157517D01*
X330096762Y-174372870D01*
X329918498Y-174556984D01*
X329918496Y-174556986D01*
X329819188Y-174625686D01*
X329707739Y-174702785D01*
X329605857Y-174746926D01*
X329472586Y-174804667D01*
X329222075Y-174858714D01*
X328965834Y-174862852D01*
X328892659Y-174849520D01*
X328713710Y-174816920D01*
X328475389Y-174722682D01*
X328260037Y-174583763D01*
X328075923Y-174405499D01*
X328075921Y-174405497D01*
X327966654Y-174247549D01*
X327093687Y-172675910D01*
X327017334Y-172499679D01*
X326963287Y-172249168D01*
X326959149Y-171992928D01*
X326972481Y-171919753D01*
X327005081Y-171740804D01*
X327099320Y-171502483D01*
X327238238Y-171287130D01*
X327416502Y-171103016D01*
X327416504Y-171103014D01*
X327515812Y-171034314D01*
X327627261Y-170957215D01*
X327729143Y-170913074D01*
X327862414Y-170855333D01*
X328112925Y-170801286D01*
X328369165Y-170797148D01*
X328442340Y-170810480D01*
X328442340Y-170810480D01*
G37*
G36*
X233192340Y-170810480D02*
G01*
X233371289Y-170843080D01*
X233587046Y-170928397D01*
X233609608Y-170937318D01*
X233609609Y-170937319D01*
X233609610Y-170937319D01*
X233824963Y-171076237D01*
X234009077Y-171254501D01*
X234009079Y-171254503D01*
X234118346Y-171412451D01*
X234991313Y-172984089D01*
X235067666Y-173160320D01*
X235121713Y-173410831D01*
X235125851Y-173667072D01*
X235112519Y-173740247D01*
X235079919Y-173919196D01*
X234985680Y-174157517D01*
X234846762Y-174372870D01*
X234668498Y-174556984D01*
X234668496Y-174556986D01*
X234569188Y-174625686D01*
X234457739Y-174702785D01*
X234355857Y-174746926D01*
X234222586Y-174804667D01*
X233972075Y-174858714D01*
X233715834Y-174862852D01*
X233642659Y-174849520D01*
X233463710Y-174816920D01*
X233225389Y-174722682D01*
X233010037Y-174583763D01*
X232825923Y-174405499D01*
X232825921Y-174405497D01*
X232716654Y-174247549D01*
X231843687Y-172675910D01*
X231767334Y-172499679D01*
X231713287Y-172249168D01*
X231709149Y-171992928D01*
X231722481Y-171919753D01*
X231755081Y-171740804D01*
X231849320Y-171502483D01*
X231988238Y-171287130D01*
X232166502Y-171103016D01*
X232166504Y-171103014D01*
X232265812Y-171034314D01*
X232377261Y-170957215D01*
X232479143Y-170913074D01*
X232612414Y-170855333D01*
X232862925Y-170801286D01*
X233119165Y-170797148D01*
X233192340Y-170810480D01*
X233192340Y-170810480D01*
G37*
G36*
X195092340Y-170810480D02*
G01*
X195271289Y-170843080D01*
X195487046Y-170928397D01*
X195509608Y-170937318D01*
X195509609Y-170937319D01*
X195509610Y-170937319D01*
X195724963Y-171076237D01*
X195909077Y-171254501D01*
X195909079Y-171254503D01*
X196018346Y-171412451D01*
X196891313Y-172984089D01*
X196967666Y-173160320D01*
X197021713Y-173410831D01*
X197025851Y-173667072D01*
X197012519Y-173740247D01*
X196979919Y-173919196D01*
X196885680Y-174157517D01*
X196746762Y-174372870D01*
X196568498Y-174556984D01*
X196568496Y-174556986D01*
X196469188Y-174625686D01*
X196357739Y-174702785D01*
X196255857Y-174746926D01*
X196122586Y-174804667D01*
X195872075Y-174858714D01*
X195615834Y-174862852D01*
X195542659Y-174849520D01*
X195363710Y-174816920D01*
X195125389Y-174722682D01*
X194910037Y-174583763D01*
X194725923Y-174405499D01*
X194725921Y-174405497D01*
X194616654Y-174247549D01*
X193743687Y-172675910D01*
X193667334Y-172499679D01*
X193613287Y-172249168D01*
X193609149Y-171992928D01*
X193622481Y-171919753D01*
X193655081Y-171740804D01*
X193749320Y-171502483D01*
X193888238Y-171287130D01*
X194066502Y-171103016D01*
X194066504Y-171103014D01*
X194165812Y-171034314D01*
X194277261Y-170957215D01*
X194379143Y-170913074D01*
X194512414Y-170855333D01*
X194762925Y-170801286D01*
X195019165Y-170797148D01*
X195092340Y-170810480D01*
X195092340Y-170810480D01*
G37*
G36*
X135561090Y-170810480D02*
G01*
X135740039Y-170843080D01*
X135955796Y-170928397D01*
X135978358Y-170937318D01*
X135978359Y-170937319D01*
X135978360Y-170937319D01*
X136193713Y-171076237D01*
X136377827Y-171254501D01*
X136377829Y-171254503D01*
X136487096Y-171412451D01*
X137360063Y-172984089D01*
X137436416Y-173160320D01*
X137490463Y-173410831D01*
X137494601Y-173667072D01*
X137481269Y-173740247D01*
X137448669Y-173919196D01*
X137354430Y-174157517D01*
X137215512Y-174372870D01*
X137037248Y-174556984D01*
X137037246Y-174556986D01*
X136937938Y-174625686D01*
X136826489Y-174702785D01*
X136724607Y-174746926D01*
X136591336Y-174804667D01*
X136340825Y-174858714D01*
X136084584Y-174862852D01*
X136011409Y-174849520D01*
X135832460Y-174816920D01*
X135594139Y-174722682D01*
X135378787Y-174583763D01*
X135194673Y-174405499D01*
X135194671Y-174405497D01*
X135085404Y-174247549D01*
X134212437Y-172675910D01*
X134136084Y-172499679D01*
X134082037Y-172249168D01*
X134077899Y-171992928D01*
X134091231Y-171919753D01*
X134123831Y-171740804D01*
X134218070Y-171502483D01*
X134356988Y-171287130D01*
X134535252Y-171103016D01*
X134535254Y-171103014D01*
X134634562Y-171034314D01*
X134746011Y-170957215D01*
X134847893Y-170913074D01*
X134981164Y-170855333D01*
X135231675Y-170801286D01*
X135487915Y-170797148D01*
X135561090Y-170810480D01*
X135561090Y-170810480D01*
G37*
G36*
X354636090Y-170810480D02*
G01*
X354815039Y-170843080D01*
X355030796Y-170928397D01*
X355053358Y-170937318D01*
X355053359Y-170937319D01*
X355053360Y-170937319D01*
X355268713Y-171076237D01*
X355452827Y-171254501D01*
X355452829Y-171254503D01*
X355562096Y-171412451D01*
X356435063Y-172984089D01*
X356511416Y-173160320D01*
X356565463Y-173410831D01*
X356569601Y-173667072D01*
X356556269Y-173740247D01*
X356523669Y-173919196D01*
X356429430Y-174157517D01*
X356290512Y-174372870D01*
X356112248Y-174556984D01*
X356112246Y-174556986D01*
X356012938Y-174625686D01*
X355901489Y-174702785D01*
X355799607Y-174746926D01*
X355666336Y-174804667D01*
X355415825Y-174858714D01*
X355159584Y-174862852D01*
X355086409Y-174849520D01*
X354907460Y-174816920D01*
X354669139Y-174722682D01*
X354453787Y-174583763D01*
X354269673Y-174405499D01*
X354269671Y-174405497D01*
X354160404Y-174247549D01*
X353287437Y-172675910D01*
X353211084Y-172499679D01*
X353157037Y-172249168D01*
X353152899Y-171992928D01*
X353166231Y-171919753D01*
X353198831Y-171740804D01*
X353293070Y-171502483D01*
X353431988Y-171287130D01*
X353610252Y-171103016D01*
X353610254Y-171103014D01*
X353709562Y-171034314D01*
X353821011Y-170957215D01*
X353922893Y-170913074D01*
X354056164Y-170855333D01*
X354306675Y-170801286D01*
X354562915Y-170797148D01*
X354636090Y-170810480D01*
X354636090Y-170810480D01*
G37*
G36*
X130008771Y-169724120D02*
G01*
X130258497Y-169781660D01*
X130258501Y-169781661D01*
X130492208Y-169886816D01*
X130544648Y-169924187D01*
X130700910Y-170035544D01*
X130819300Y-170161288D01*
X130876585Y-170222131D01*
X131012485Y-170439405D01*
X131103385Y-170679017D01*
X131135166Y-170868429D01*
X131151158Y-171103014D01*
X131183308Y-171574606D01*
X131178302Y-171740804D01*
X131177526Y-171766571D01*
X131119985Y-172016303D01*
X131014830Y-172250010D01*
X130977459Y-172302450D01*
X130866102Y-172458712D01*
X130732547Y-172584456D01*
X130679515Y-172634387D01*
X130462241Y-172770287D01*
X130222629Y-172861187D01*
X129969888Y-172903594D01*
X129969884Y-172903594D01*
X129713729Y-172895880D01*
X129464003Y-172838340D01*
X129463999Y-172838339D01*
X129230292Y-172733184D01*
X129149923Y-172675910D01*
X129021590Y-172584456D01*
X128845915Y-172397869D01*
X128710016Y-172180596D01*
X128710015Y-172180595D01*
X128619115Y-171940983D01*
X128587334Y-171751571D01*
X128570353Y-171502483D01*
X128539192Y-171045392D01*
X128544974Y-170853428D01*
X128602514Y-170603701D01*
X128602515Y-170603697D01*
X128707670Y-170369990D01*
X128745041Y-170317550D01*
X128856398Y-170161288D01*
X129042985Y-169985613D01*
X129260259Y-169849713D01*
X129499871Y-169758813D01*
X129752612Y-169716406D01*
X129752616Y-169716406D01*
X130008771Y-169724120D01*
X130008771Y-169724120D01*
G37*
G36*
X349083771Y-169724120D02*
G01*
X349333497Y-169781660D01*
X349333501Y-169781661D01*
X349567208Y-169886816D01*
X349619648Y-169924187D01*
X349775910Y-170035544D01*
X349894300Y-170161288D01*
X349951585Y-170222131D01*
X350087485Y-170439405D01*
X350178385Y-170679017D01*
X350210166Y-170868429D01*
X350226158Y-171103014D01*
X350258308Y-171574606D01*
X350253302Y-171740804D01*
X350252526Y-171766571D01*
X350194985Y-172016303D01*
X350089830Y-172250010D01*
X350052459Y-172302450D01*
X349941102Y-172458712D01*
X349807547Y-172584456D01*
X349754515Y-172634387D01*
X349537241Y-172770287D01*
X349297629Y-172861187D01*
X349044888Y-172903594D01*
X349044884Y-172903594D01*
X348788729Y-172895880D01*
X348539003Y-172838340D01*
X348538999Y-172838339D01*
X348305292Y-172733184D01*
X348224923Y-172675910D01*
X348096590Y-172584456D01*
X347920915Y-172397869D01*
X347785016Y-172180596D01*
X347785015Y-172180595D01*
X347694115Y-171940983D01*
X347662334Y-171751571D01*
X347645353Y-171502483D01*
X347614192Y-171045392D01*
X347619974Y-170853428D01*
X347677514Y-170603701D01*
X347677515Y-170603697D01*
X347782670Y-170369990D01*
X347820041Y-170317550D01*
X347931398Y-170161288D01*
X348117985Y-169985613D01*
X348335259Y-169849713D01*
X348574871Y-169758813D01*
X348827612Y-169716406D01*
X348827616Y-169716406D01*
X349083771Y-169724120D01*
X349083771Y-169724120D01*
G37*
G36*
X151440021Y-169724120D02*
G01*
X151689747Y-169781660D01*
X151689751Y-169781661D01*
X151923458Y-169886816D01*
X151975898Y-169924187D01*
X152132160Y-170035544D01*
X152250550Y-170161288D01*
X152307835Y-170222131D01*
X152443735Y-170439405D01*
X152534635Y-170679017D01*
X152566416Y-170868429D01*
X152582408Y-171103014D01*
X152614558Y-171574606D01*
X152609552Y-171740804D01*
X152608776Y-171766571D01*
X152551235Y-172016303D01*
X152446080Y-172250010D01*
X152408709Y-172302450D01*
X152297352Y-172458712D01*
X152163797Y-172584456D01*
X152110765Y-172634387D01*
X151893491Y-172770287D01*
X151653879Y-172861187D01*
X151401138Y-172903594D01*
X151401134Y-172903594D01*
X151144979Y-172895880D01*
X150895253Y-172838340D01*
X150895249Y-172838339D01*
X150661542Y-172733184D01*
X150581173Y-172675910D01*
X150452840Y-172584456D01*
X150277165Y-172397869D01*
X150141266Y-172180596D01*
X150141265Y-172180595D01*
X150050365Y-171940983D01*
X150018584Y-171751571D01*
X150001603Y-171502483D01*
X149970442Y-171045392D01*
X149976224Y-170853428D01*
X150033764Y-170603701D01*
X150033765Y-170603697D01*
X150138920Y-170369990D01*
X150176291Y-170317550D01*
X150287648Y-170161288D01*
X150474235Y-169985613D01*
X150691509Y-169849713D01*
X150931121Y-169758813D01*
X151183862Y-169716406D01*
X151183866Y-169716406D01*
X151440021Y-169724120D01*
X151440021Y-169724120D01*
G37*
G36*
X170490021Y-169724120D02*
G01*
X170739747Y-169781660D01*
X170739751Y-169781661D01*
X170973458Y-169886816D01*
X171025898Y-169924187D01*
X171182160Y-170035544D01*
X171300550Y-170161288D01*
X171357835Y-170222131D01*
X171493735Y-170439405D01*
X171584635Y-170679017D01*
X171616416Y-170868429D01*
X171632408Y-171103014D01*
X171664558Y-171574606D01*
X171659552Y-171740804D01*
X171658776Y-171766571D01*
X171601235Y-172016303D01*
X171496080Y-172250010D01*
X171458709Y-172302450D01*
X171347352Y-172458712D01*
X171213797Y-172584456D01*
X171160765Y-172634387D01*
X170943491Y-172770287D01*
X170703879Y-172861187D01*
X170451138Y-172903594D01*
X170451134Y-172903594D01*
X170194979Y-172895880D01*
X169945253Y-172838340D01*
X169945249Y-172838339D01*
X169711542Y-172733184D01*
X169631173Y-172675910D01*
X169502840Y-172584456D01*
X169327165Y-172397869D01*
X169191266Y-172180596D01*
X169191265Y-172180595D01*
X169100365Y-171940983D01*
X169068584Y-171751571D01*
X169051603Y-171502483D01*
X169020442Y-171045392D01*
X169026224Y-170853428D01*
X169083764Y-170603701D01*
X169083765Y-170603697D01*
X169188920Y-170369990D01*
X169226291Y-170317550D01*
X169337648Y-170161288D01*
X169524235Y-169985613D01*
X169741509Y-169849713D01*
X169981121Y-169758813D01*
X170233862Y-169716406D01*
X170233866Y-169716406D01*
X170490021Y-169724120D01*
X170490021Y-169724120D01*
G37*
G36*
X189540021Y-169724120D02*
G01*
X189789747Y-169781660D01*
X189789751Y-169781661D01*
X190023458Y-169886816D01*
X190075898Y-169924187D01*
X190232160Y-170035544D01*
X190350550Y-170161288D01*
X190407835Y-170222131D01*
X190543735Y-170439405D01*
X190634635Y-170679017D01*
X190666416Y-170868429D01*
X190682408Y-171103014D01*
X190714558Y-171574606D01*
X190709552Y-171740804D01*
X190708776Y-171766571D01*
X190651235Y-172016303D01*
X190546080Y-172250010D01*
X190508709Y-172302450D01*
X190397352Y-172458712D01*
X190263797Y-172584456D01*
X190210765Y-172634387D01*
X189993491Y-172770287D01*
X189753879Y-172861187D01*
X189501138Y-172903594D01*
X189501134Y-172903594D01*
X189244979Y-172895880D01*
X188995253Y-172838340D01*
X188995249Y-172838339D01*
X188761542Y-172733184D01*
X188681173Y-172675910D01*
X188552840Y-172584456D01*
X188377165Y-172397869D01*
X188241266Y-172180596D01*
X188241265Y-172180595D01*
X188150365Y-171940983D01*
X188118584Y-171751571D01*
X188101603Y-171502483D01*
X188070442Y-171045392D01*
X188076224Y-170853428D01*
X188133764Y-170603701D01*
X188133765Y-170603697D01*
X188238920Y-170369990D01*
X188276291Y-170317550D01*
X188387648Y-170161288D01*
X188574235Y-169985613D01*
X188791509Y-169849713D01*
X189031121Y-169758813D01*
X189283862Y-169716406D01*
X189283866Y-169716406D01*
X189540021Y-169724120D01*
X189540021Y-169724120D01*
G37*
G36*
X208590021Y-169724120D02*
G01*
X208839747Y-169781660D01*
X208839751Y-169781661D01*
X209073458Y-169886816D01*
X209125898Y-169924187D01*
X209282160Y-170035544D01*
X209400550Y-170161288D01*
X209457835Y-170222131D01*
X209593735Y-170439405D01*
X209684635Y-170679017D01*
X209716416Y-170868429D01*
X209732408Y-171103014D01*
X209764558Y-171574606D01*
X209759552Y-171740804D01*
X209758776Y-171766571D01*
X209701235Y-172016303D01*
X209596080Y-172250010D01*
X209558709Y-172302450D01*
X209447352Y-172458712D01*
X209313797Y-172584456D01*
X209260765Y-172634387D01*
X209043491Y-172770287D01*
X208803879Y-172861187D01*
X208551138Y-172903594D01*
X208551134Y-172903594D01*
X208294979Y-172895880D01*
X208045253Y-172838340D01*
X208045249Y-172838339D01*
X207811542Y-172733184D01*
X207731173Y-172675910D01*
X207602840Y-172584456D01*
X207427165Y-172397869D01*
X207291266Y-172180596D01*
X207291265Y-172180595D01*
X207200365Y-171940983D01*
X207168584Y-171751571D01*
X207151603Y-171502483D01*
X207120442Y-171045392D01*
X207126224Y-170853428D01*
X207183764Y-170603701D01*
X207183765Y-170603697D01*
X207288920Y-170369990D01*
X207326291Y-170317550D01*
X207437648Y-170161288D01*
X207624235Y-169985613D01*
X207841509Y-169849713D01*
X208081121Y-169758813D01*
X208333862Y-169716406D01*
X208333866Y-169716406D01*
X208590021Y-169724120D01*
X208590021Y-169724120D01*
G37*
G36*
X227640021Y-169724120D02*
G01*
X227889747Y-169781660D01*
X227889751Y-169781661D01*
X228123458Y-169886816D01*
X228175898Y-169924187D01*
X228332160Y-170035544D01*
X228450550Y-170161288D01*
X228507835Y-170222131D01*
X228643735Y-170439405D01*
X228734635Y-170679017D01*
X228766416Y-170868429D01*
X228782408Y-171103014D01*
X228814558Y-171574606D01*
X228809552Y-171740804D01*
X228808776Y-171766571D01*
X228751235Y-172016303D01*
X228646080Y-172250010D01*
X228608709Y-172302450D01*
X228497352Y-172458712D01*
X228363797Y-172584456D01*
X228310765Y-172634387D01*
X228093491Y-172770287D01*
X227853879Y-172861187D01*
X227601138Y-172903594D01*
X227601134Y-172903594D01*
X227344979Y-172895880D01*
X227095253Y-172838340D01*
X227095249Y-172838339D01*
X226861542Y-172733184D01*
X226781173Y-172675910D01*
X226652840Y-172584456D01*
X226477165Y-172397869D01*
X226341266Y-172180596D01*
X226341265Y-172180595D01*
X226250365Y-171940983D01*
X226218584Y-171751571D01*
X226201603Y-171502483D01*
X226170442Y-171045392D01*
X226176224Y-170853428D01*
X226233764Y-170603701D01*
X226233765Y-170603697D01*
X226338920Y-170369990D01*
X226376291Y-170317550D01*
X226487648Y-170161288D01*
X226674235Y-169985613D01*
X226891509Y-169849713D01*
X227131121Y-169758813D01*
X227383862Y-169716406D01*
X227383866Y-169716406D01*
X227640021Y-169724120D01*
X227640021Y-169724120D01*
G37*
G36*
X322890021Y-169724120D02*
G01*
X323139747Y-169781660D01*
X323139751Y-169781661D01*
X323373458Y-169886816D01*
X323425898Y-169924187D01*
X323582160Y-170035544D01*
X323700550Y-170161288D01*
X323757835Y-170222131D01*
X323893735Y-170439405D01*
X323984635Y-170679017D01*
X324016416Y-170868429D01*
X324032408Y-171103014D01*
X324064558Y-171574606D01*
X324059552Y-171740804D01*
X324058776Y-171766571D01*
X324001235Y-172016303D01*
X323896080Y-172250010D01*
X323858709Y-172302450D01*
X323747352Y-172458712D01*
X323613797Y-172584456D01*
X323560765Y-172634387D01*
X323343491Y-172770287D01*
X323103879Y-172861187D01*
X322851138Y-172903594D01*
X322851134Y-172903594D01*
X322594979Y-172895880D01*
X322345253Y-172838340D01*
X322345249Y-172838339D01*
X322111542Y-172733184D01*
X322031173Y-172675910D01*
X321902840Y-172584456D01*
X321727165Y-172397869D01*
X321591266Y-172180596D01*
X321591265Y-172180595D01*
X321500365Y-171940983D01*
X321468584Y-171751571D01*
X321451603Y-171502483D01*
X321420442Y-171045392D01*
X321426224Y-170853428D01*
X321483764Y-170603701D01*
X321483765Y-170603697D01*
X321588920Y-170369990D01*
X321626291Y-170317550D01*
X321737648Y-170161288D01*
X321924235Y-169985613D01*
X322141509Y-169849713D01*
X322381121Y-169758813D01*
X322633862Y-169716406D01*
X322633866Y-169716406D01*
X322890021Y-169724120D01*
X322890021Y-169724120D01*
G37*
G36*
X246690021Y-169724120D02*
G01*
X246939747Y-169781660D01*
X246939751Y-169781661D01*
X247173458Y-169886816D01*
X247225898Y-169924187D01*
X247382160Y-170035544D01*
X247500550Y-170161288D01*
X247557835Y-170222131D01*
X247693735Y-170439405D01*
X247784635Y-170679017D01*
X247816416Y-170868429D01*
X247832408Y-171103014D01*
X247864558Y-171574606D01*
X247859552Y-171740804D01*
X247858776Y-171766571D01*
X247801235Y-172016303D01*
X247696080Y-172250010D01*
X247658709Y-172302450D01*
X247547352Y-172458712D01*
X247413797Y-172584456D01*
X247360765Y-172634387D01*
X247143491Y-172770287D01*
X246903879Y-172861187D01*
X246651138Y-172903594D01*
X246651134Y-172903594D01*
X246394979Y-172895880D01*
X246145253Y-172838340D01*
X246145249Y-172838339D01*
X245911542Y-172733184D01*
X245831173Y-172675910D01*
X245702840Y-172584456D01*
X245527165Y-172397869D01*
X245391266Y-172180596D01*
X245391265Y-172180595D01*
X245300365Y-171940983D01*
X245268584Y-171751571D01*
X245251603Y-171502483D01*
X245220442Y-171045392D01*
X245226224Y-170853428D01*
X245283764Y-170603701D01*
X245283765Y-170603697D01*
X245388920Y-170369990D01*
X245426291Y-170317550D01*
X245537648Y-170161288D01*
X245724235Y-169985613D01*
X245941509Y-169849713D01*
X246181121Y-169758813D01*
X246433862Y-169716406D01*
X246433866Y-169716406D01*
X246690021Y-169724120D01*
X246690021Y-169724120D01*
G37*
G36*
X284790021Y-169724120D02*
G01*
X285039747Y-169781660D01*
X285039751Y-169781661D01*
X285273458Y-169886816D01*
X285325898Y-169924187D01*
X285482160Y-170035544D01*
X285600550Y-170161288D01*
X285657835Y-170222131D01*
X285793735Y-170439405D01*
X285884635Y-170679017D01*
X285916416Y-170868429D01*
X285932408Y-171103014D01*
X285964558Y-171574606D01*
X285959552Y-171740804D01*
X285958776Y-171766571D01*
X285901235Y-172016303D01*
X285796080Y-172250010D01*
X285758709Y-172302450D01*
X285647352Y-172458712D01*
X285513797Y-172584456D01*
X285460765Y-172634387D01*
X285243491Y-172770287D01*
X285003879Y-172861187D01*
X284751138Y-172903594D01*
X284751134Y-172903594D01*
X284494979Y-172895880D01*
X284245253Y-172838340D01*
X284245249Y-172838339D01*
X284011542Y-172733184D01*
X283931173Y-172675910D01*
X283802840Y-172584456D01*
X283627165Y-172397869D01*
X283491266Y-172180596D01*
X283491265Y-172180595D01*
X283400365Y-171940983D01*
X283368584Y-171751571D01*
X283351603Y-171502483D01*
X283320442Y-171045392D01*
X283326224Y-170853428D01*
X283383764Y-170603701D01*
X283383765Y-170603697D01*
X283488920Y-170369990D01*
X283526291Y-170317550D01*
X283637648Y-170161288D01*
X283824235Y-169985613D01*
X284041509Y-169849713D01*
X284281121Y-169758813D01*
X284533862Y-169716406D01*
X284533866Y-169716406D01*
X284790021Y-169724120D01*
X284790021Y-169724120D01*
G37*
G36*
X265740021Y-169724120D02*
G01*
X265989747Y-169781660D01*
X265989751Y-169781661D01*
X266223458Y-169886816D01*
X266275898Y-169924187D01*
X266432160Y-170035544D01*
X266550550Y-170161288D01*
X266607835Y-170222131D01*
X266743735Y-170439405D01*
X266834635Y-170679017D01*
X266866416Y-170868429D01*
X266882408Y-171103014D01*
X266914558Y-171574606D01*
X266909552Y-171740804D01*
X266908776Y-171766571D01*
X266851235Y-172016303D01*
X266746080Y-172250010D01*
X266708709Y-172302450D01*
X266597352Y-172458712D01*
X266463797Y-172584456D01*
X266410765Y-172634387D01*
X266193491Y-172770287D01*
X265953879Y-172861187D01*
X265701138Y-172903594D01*
X265701134Y-172903594D01*
X265444979Y-172895880D01*
X265195253Y-172838340D01*
X265195249Y-172838339D01*
X264961542Y-172733184D01*
X264881173Y-172675910D01*
X264752840Y-172584456D01*
X264577165Y-172397869D01*
X264441266Y-172180596D01*
X264441265Y-172180595D01*
X264350365Y-171940983D01*
X264318584Y-171751571D01*
X264301603Y-171502483D01*
X264270442Y-171045392D01*
X264276224Y-170853428D01*
X264333764Y-170603701D01*
X264333765Y-170603697D01*
X264438920Y-170369990D01*
X264476291Y-170317550D01*
X264587648Y-170161288D01*
X264774235Y-169985613D01*
X264991509Y-169849713D01*
X265231121Y-169758813D01*
X265483862Y-169716406D01*
X265483866Y-169716406D01*
X265740021Y-169724120D01*
X265740021Y-169724120D01*
G37*
G36*
X303840021Y-169724120D02*
G01*
X304089747Y-169781660D01*
X304089751Y-169781661D01*
X304323458Y-169886816D01*
X304375898Y-169924187D01*
X304532160Y-170035544D01*
X304650550Y-170161288D01*
X304707835Y-170222131D01*
X304843735Y-170439405D01*
X304934635Y-170679017D01*
X304966416Y-170868429D01*
X304982408Y-171103014D01*
X305014558Y-171574606D01*
X305009552Y-171740804D01*
X305008776Y-171766571D01*
X304951235Y-172016303D01*
X304846080Y-172250010D01*
X304808709Y-172302450D01*
X304697352Y-172458712D01*
X304563797Y-172584456D01*
X304510765Y-172634387D01*
X304293491Y-172770287D01*
X304053879Y-172861187D01*
X303801138Y-172903594D01*
X303801134Y-172903594D01*
X303544979Y-172895880D01*
X303295253Y-172838340D01*
X303295249Y-172838339D01*
X303061542Y-172733184D01*
X302981173Y-172675910D01*
X302852840Y-172584456D01*
X302677165Y-172397869D01*
X302541266Y-172180596D01*
X302541265Y-172180595D01*
X302450365Y-171940983D01*
X302418584Y-171751571D01*
X302401603Y-171502483D01*
X302370442Y-171045392D01*
X302376224Y-170853428D01*
X302433764Y-170603701D01*
X302433765Y-170603697D01*
X302538920Y-170369990D01*
X302576291Y-170317550D01*
X302687648Y-170161288D01*
X302874235Y-169985613D01*
X303091509Y-169849713D01*
X303331121Y-169758813D01*
X303583862Y-169716406D01*
X303583866Y-169716406D01*
X303840021Y-169724120D01*
X303840021Y-169724120D01*
G37*
G36*
X244768412Y-164220134D02*
G01*
X245000346Y-164266269D01*
X245437300Y-164447262D01*
X245830548Y-164710022D01*
X246164978Y-165044452D01*
X246427738Y-165437700D01*
X246608731Y-165874654D01*
X246701000Y-166338522D01*
X246701000Y-166811478D01*
X246608731Y-167275346D01*
X246427738Y-167712300D01*
X246164978Y-168105548D01*
X245830548Y-168439978D01*
X245437300Y-168702738D01*
X245000346Y-168883731D01*
X244768412Y-168929865D01*
X244536479Y-168976000D01*
X244063521Y-168976000D01*
X243831588Y-168929865D01*
X243599654Y-168883731D01*
X243162700Y-168702738D01*
X242769452Y-168439978D01*
X242435022Y-168105548D01*
X242172262Y-167712300D01*
X241991269Y-167275346D01*
X241899000Y-166811478D01*
X241899000Y-166338522D01*
X241991269Y-165874654D01*
X242172262Y-165437700D01*
X242435022Y-165044452D01*
X242769452Y-164710022D01*
X243162700Y-164447262D01*
X243599654Y-164266269D01*
X243831588Y-164220134D01*
X244063521Y-164174000D01*
X244536479Y-164174000D01*
X244768412Y-164220134D01*
X244768412Y-164220134D01*
G37*
G36*
X204617340Y-151760480D02*
G01*
X204796289Y-151793080D01*
X205012046Y-151878397D01*
X205034608Y-151887318D01*
X205034609Y-151887319D01*
X205034610Y-151887319D01*
X205249963Y-152026237D01*
X205434077Y-152204501D01*
X205434079Y-152204503D01*
X205543346Y-152362451D01*
X206416313Y-153934089D01*
X206492666Y-154110320D01*
X206546713Y-154360831D01*
X206550851Y-154617072D01*
X206537519Y-154690247D01*
X206504919Y-154869196D01*
X206410680Y-155107517D01*
X206271762Y-155322870D01*
X206093498Y-155506984D01*
X206093496Y-155506986D01*
X205994188Y-155575686D01*
X205882739Y-155652785D01*
X205780857Y-155696926D01*
X205647586Y-155754667D01*
X205397075Y-155808714D01*
X205140834Y-155812852D01*
X205067659Y-155799520D01*
X204888710Y-155766920D01*
X204650389Y-155672682D01*
X204435037Y-155533763D01*
X204250923Y-155355499D01*
X204250921Y-155355497D01*
X204141654Y-155197549D01*
X203268687Y-153625910D01*
X203192334Y-153449679D01*
X203138287Y-153199168D01*
X203134149Y-152942928D01*
X203147481Y-152869753D01*
X203180081Y-152690804D01*
X203274320Y-152452483D01*
X203413238Y-152237130D01*
X203591502Y-152053016D01*
X203591504Y-152053014D01*
X203690812Y-151984314D01*
X203802261Y-151907215D01*
X203904143Y-151863074D01*
X204037414Y-151805333D01*
X204287925Y-151751286D01*
X204544165Y-151747148D01*
X204617340Y-151760480D01*
X204617340Y-151760480D01*
G37*
G36*
X337967340Y-151760480D02*
G01*
X338146289Y-151793080D01*
X338362046Y-151878397D01*
X338384608Y-151887318D01*
X338384609Y-151887319D01*
X338384610Y-151887319D01*
X338599963Y-152026237D01*
X338784077Y-152204501D01*
X338784079Y-152204503D01*
X338893346Y-152362451D01*
X339766313Y-153934089D01*
X339842666Y-154110320D01*
X339896713Y-154360831D01*
X339900851Y-154617072D01*
X339887519Y-154690247D01*
X339854919Y-154869196D01*
X339760680Y-155107517D01*
X339621762Y-155322870D01*
X339443498Y-155506984D01*
X339443496Y-155506986D01*
X339344188Y-155575686D01*
X339232739Y-155652785D01*
X339130857Y-155696926D01*
X338997586Y-155754667D01*
X338747075Y-155808714D01*
X338490834Y-155812852D01*
X338417659Y-155799520D01*
X338238710Y-155766920D01*
X338000389Y-155672682D01*
X337785037Y-155533763D01*
X337600923Y-155355499D01*
X337600921Y-155355497D01*
X337491654Y-155197549D01*
X336618687Y-153625910D01*
X336542334Y-153449679D01*
X336488287Y-153199168D01*
X336484149Y-152942928D01*
X336497481Y-152869753D01*
X336530081Y-152690804D01*
X336624320Y-152452483D01*
X336763238Y-152237130D01*
X336941502Y-152053016D01*
X336941504Y-152053014D01*
X337040812Y-151984314D01*
X337152261Y-151907215D01*
X337254143Y-151863074D01*
X337387414Y-151805333D01*
X337637925Y-151751286D01*
X337894165Y-151747148D01*
X337967340Y-151760480D01*
X337967340Y-151760480D01*
G37*
G36*
X359398590Y-151760480D02*
G01*
X359577539Y-151793080D01*
X359793296Y-151878397D01*
X359815858Y-151887318D01*
X359815859Y-151887319D01*
X359815860Y-151887319D01*
X360031213Y-152026237D01*
X360215327Y-152204501D01*
X360215329Y-152204503D01*
X360324596Y-152362451D01*
X361197563Y-153934089D01*
X361273916Y-154110320D01*
X361327963Y-154360831D01*
X361332101Y-154617072D01*
X361318769Y-154690247D01*
X361286169Y-154869196D01*
X361191930Y-155107517D01*
X361053012Y-155322870D01*
X360874748Y-155506984D01*
X360874746Y-155506986D01*
X360775438Y-155575686D01*
X360663989Y-155652785D01*
X360562107Y-155696926D01*
X360428836Y-155754667D01*
X360178325Y-155808714D01*
X359922084Y-155812852D01*
X359848909Y-155799520D01*
X359669960Y-155766920D01*
X359431639Y-155672682D01*
X359216287Y-155533763D01*
X359032173Y-155355499D01*
X359032171Y-155355497D01*
X358922904Y-155197549D01*
X358049937Y-153625910D01*
X357973584Y-153449679D01*
X357919537Y-153199168D01*
X357915399Y-152942928D01*
X357928731Y-152869753D01*
X357961331Y-152690804D01*
X358055570Y-152452483D01*
X358194488Y-152237130D01*
X358372752Y-152053016D01*
X358372754Y-152053014D01*
X358472062Y-151984314D01*
X358583511Y-151907215D01*
X358685393Y-151863074D01*
X358818664Y-151805333D01*
X359069175Y-151751286D01*
X359325415Y-151747148D01*
X359398590Y-151760480D01*
X359398590Y-151760480D01*
G37*
G36*
X318917340Y-151760480D02*
G01*
X319096289Y-151793080D01*
X319312046Y-151878397D01*
X319334608Y-151887318D01*
X319334609Y-151887319D01*
X319334610Y-151887319D01*
X319549963Y-152026237D01*
X319734077Y-152204501D01*
X319734079Y-152204503D01*
X319843346Y-152362451D01*
X320716313Y-153934089D01*
X320792666Y-154110320D01*
X320846713Y-154360831D01*
X320850851Y-154617072D01*
X320837519Y-154690247D01*
X320804919Y-154869196D01*
X320710680Y-155107517D01*
X320571762Y-155322870D01*
X320393498Y-155506984D01*
X320393496Y-155506986D01*
X320294188Y-155575686D01*
X320182739Y-155652785D01*
X320080857Y-155696926D01*
X319947586Y-155754667D01*
X319697075Y-155808714D01*
X319440834Y-155812852D01*
X319367659Y-155799520D01*
X319188710Y-155766920D01*
X318950389Y-155672682D01*
X318735037Y-155533763D01*
X318550923Y-155355499D01*
X318550921Y-155355497D01*
X318441654Y-155197549D01*
X317568687Y-153625910D01*
X317492334Y-153449679D01*
X317438287Y-153199168D01*
X317434149Y-152942928D01*
X317447481Y-152869753D01*
X317480081Y-152690804D01*
X317574320Y-152452483D01*
X317713238Y-152237130D01*
X317891502Y-152053016D01*
X317891504Y-152053014D01*
X317990812Y-151984314D01*
X318102261Y-151907215D01*
X318204143Y-151863074D01*
X318337414Y-151805333D01*
X318587925Y-151751286D01*
X318844165Y-151747148D01*
X318917340Y-151760480D01*
X318917340Y-151760480D01*
G37*
G36*
X140323590Y-151760480D02*
G01*
X140502539Y-151793080D01*
X140718296Y-151878397D01*
X140740858Y-151887318D01*
X140740859Y-151887319D01*
X140740860Y-151887319D01*
X140956213Y-152026237D01*
X141140327Y-152204501D01*
X141140329Y-152204503D01*
X141249596Y-152362451D01*
X142122563Y-153934089D01*
X142198916Y-154110320D01*
X142252963Y-154360831D01*
X142257101Y-154617072D01*
X142243769Y-154690247D01*
X142211169Y-154869196D01*
X142116930Y-155107517D01*
X141978012Y-155322870D01*
X141799748Y-155506984D01*
X141799746Y-155506986D01*
X141700438Y-155575686D01*
X141588989Y-155652785D01*
X141487107Y-155696926D01*
X141353836Y-155754667D01*
X141103325Y-155808714D01*
X140847084Y-155812852D01*
X140773909Y-155799520D01*
X140594960Y-155766920D01*
X140356639Y-155672682D01*
X140141287Y-155533763D01*
X139957173Y-155355499D01*
X139957171Y-155355497D01*
X139847904Y-155197549D01*
X138974937Y-153625910D01*
X138898584Y-153449679D01*
X138844537Y-153199168D01*
X138840399Y-152942928D01*
X138853731Y-152869753D01*
X138886331Y-152690804D01*
X138980570Y-152452483D01*
X139119488Y-152237130D01*
X139297752Y-152053016D01*
X139297754Y-152053014D01*
X139397062Y-151984314D01*
X139508511Y-151907215D01*
X139610393Y-151863074D01*
X139743664Y-151805333D01*
X139994175Y-151751286D01*
X140250415Y-151747148D01*
X140323590Y-151760480D01*
X140323590Y-151760480D01*
G37*
G36*
X299867340Y-151760480D02*
G01*
X300046289Y-151793080D01*
X300262046Y-151878397D01*
X300284608Y-151887318D01*
X300284609Y-151887319D01*
X300284610Y-151887319D01*
X300499963Y-152026237D01*
X300684077Y-152204501D01*
X300684079Y-152204503D01*
X300793346Y-152362451D01*
X301666313Y-153934089D01*
X301742666Y-154110320D01*
X301796713Y-154360831D01*
X301800851Y-154617072D01*
X301787519Y-154690247D01*
X301754919Y-154869196D01*
X301660680Y-155107517D01*
X301521762Y-155322870D01*
X301343498Y-155506984D01*
X301343496Y-155506986D01*
X301244188Y-155575686D01*
X301132739Y-155652785D01*
X301030857Y-155696926D01*
X300897586Y-155754667D01*
X300647075Y-155808714D01*
X300390834Y-155812852D01*
X300317659Y-155799520D01*
X300138710Y-155766920D01*
X299900389Y-155672682D01*
X299685037Y-155533763D01*
X299500923Y-155355499D01*
X299500921Y-155355497D01*
X299391654Y-155197549D01*
X298518687Y-153625910D01*
X298442334Y-153449679D01*
X298388287Y-153199168D01*
X298384149Y-152942928D01*
X298397481Y-152869753D01*
X298430081Y-152690804D01*
X298524320Y-152452483D01*
X298663238Y-152237130D01*
X298841502Y-152053016D01*
X298841504Y-152053014D01*
X298940812Y-151984314D01*
X299052261Y-151907215D01*
X299154143Y-151863074D01*
X299287414Y-151805333D01*
X299537925Y-151751286D01*
X299794165Y-151747148D01*
X299867340Y-151760480D01*
X299867340Y-151760480D01*
G37*
G36*
X166517340Y-151760480D02*
G01*
X166696289Y-151793080D01*
X166912046Y-151878397D01*
X166934608Y-151887318D01*
X166934609Y-151887319D01*
X166934610Y-151887319D01*
X167149963Y-152026237D01*
X167334077Y-152204501D01*
X167334079Y-152204503D01*
X167443346Y-152362451D01*
X168316313Y-153934089D01*
X168392666Y-154110320D01*
X168446713Y-154360831D01*
X168450851Y-154617072D01*
X168437519Y-154690247D01*
X168404919Y-154869196D01*
X168310680Y-155107517D01*
X168171762Y-155322870D01*
X167993498Y-155506984D01*
X167993496Y-155506986D01*
X167894188Y-155575686D01*
X167782739Y-155652785D01*
X167680857Y-155696926D01*
X167547586Y-155754667D01*
X167297075Y-155808714D01*
X167040834Y-155812852D01*
X166967659Y-155799520D01*
X166788710Y-155766920D01*
X166550389Y-155672682D01*
X166335037Y-155533763D01*
X166150923Y-155355499D01*
X166150921Y-155355497D01*
X166041654Y-155197549D01*
X165168687Y-153625910D01*
X165092334Y-153449679D01*
X165038287Y-153199168D01*
X165034149Y-152942928D01*
X165047481Y-152869753D01*
X165080081Y-152690804D01*
X165174320Y-152452483D01*
X165313238Y-152237130D01*
X165491502Y-152053016D01*
X165491504Y-152053014D01*
X165590812Y-151984314D01*
X165702261Y-151907215D01*
X165804143Y-151863074D01*
X165937414Y-151805333D01*
X166187925Y-151751286D01*
X166444165Y-151747148D01*
X166517340Y-151760480D01*
X166517340Y-151760480D01*
G37*
G36*
X280817340Y-151760480D02*
G01*
X280996289Y-151793080D01*
X281212046Y-151878397D01*
X281234608Y-151887318D01*
X281234609Y-151887319D01*
X281234610Y-151887319D01*
X281449963Y-152026237D01*
X281634077Y-152204501D01*
X281634079Y-152204503D01*
X281743346Y-152362451D01*
X282616313Y-153934089D01*
X282692666Y-154110320D01*
X282746713Y-154360831D01*
X282750851Y-154617072D01*
X282737519Y-154690247D01*
X282704919Y-154869196D01*
X282610680Y-155107517D01*
X282471762Y-155322870D01*
X282293498Y-155506984D01*
X282293496Y-155506986D01*
X282194188Y-155575686D01*
X282082739Y-155652785D01*
X281980857Y-155696926D01*
X281847586Y-155754667D01*
X281597075Y-155808714D01*
X281340834Y-155812852D01*
X281267659Y-155799520D01*
X281088710Y-155766920D01*
X280850389Y-155672682D01*
X280635037Y-155533763D01*
X280450923Y-155355499D01*
X280450921Y-155355497D01*
X280341654Y-155197549D01*
X279468687Y-153625910D01*
X279392334Y-153449679D01*
X279338287Y-153199168D01*
X279334149Y-152942928D01*
X279347481Y-152869753D01*
X279380081Y-152690804D01*
X279474320Y-152452483D01*
X279613238Y-152237130D01*
X279791502Y-152053016D01*
X279791504Y-152053014D01*
X279890812Y-151984314D01*
X280002261Y-151907215D01*
X280104143Y-151863074D01*
X280237414Y-151805333D01*
X280487925Y-151751286D01*
X280744165Y-151747148D01*
X280817340Y-151760480D01*
X280817340Y-151760480D01*
G37*
G36*
X185567340Y-151760480D02*
G01*
X185746289Y-151793080D01*
X185962046Y-151878397D01*
X185984608Y-151887318D01*
X185984609Y-151887319D01*
X185984610Y-151887319D01*
X186199963Y-152026237D01*
X186384077Y-152204501D01*
X186384079Y-152204503D01*
X186493346Y-152362451D01*
X187366313Y-153934089D01*
X187442666Y-154110320D01*
X187496713Y-154360831D01*
X187500851Y-154617072D01*
X187487519Y-154690247D01*
X187454919Y-154869196D01*
X187360680Y-155107517D01*
X187221762Y-155322870D01*
X187043498Y-155506984D01*
X187043496Y-155506986D01*
X186944188Y-155575686D01*
X186832739Y-155652785D01*
X186730857Y-155696926D01*
X186597586Y-155754667D01*
X186347075Y-155808714D01*
X186090834Y-155812852D01*
X186017659Y-155799520D01*
X185838710Y-155766920D01*
X185600389Y-155672682D01*
X185385037Y-155533763D01*
X185200923Y-155355499D01*
X185200921Y-155355497D01*
X185091654Y-155197549D01*
X184218687Y-153625910D01*
X184142334Y-153449679D01*
X184088287Y-153199168D01*
X184084149Y-152942928D01*
X184097481Y-152869753D01*
X184130081Y-152690804D01*
X184224320Y-152452483D01*
X184363238Y-152237130D01*
X184541502Y-152053016D01*
X184541504Y-152053014D01*
X184640812Y-151984314D01*
X184752261Y-151907215D01*
X184854143Y-151863074D01*
X184987414Y-151805333D01*
X185237925Y-151751286D01*
X185494165Y-151747148D01*
X185567340Y-151760480D01*
X185567340Y-151760480D01*
G37*
G36*
X261767340Y-151760480D02*
G01*
X261946289Y-151793080D01*
X262162046Y-151878397D01*
X262184608Y-151887318D01*
X262184609Y-151887319D01*
X262184610Y-151887319D01*
X262399963Y-152026237D01*
X262584077Y-152204501D01*
X262584079Y-152204503D01*
X262693346Y-152362451D01*
X263566313Y-153934089D01*
X263642666Y-154110320D01*
X263696713Y-154360831D01*
X263700851Y-154617072D01*
X263687519Y-154690247D01*
X263654919Y-154869196D01*
X263560680Y-155107517D01*
X263421762Y-155322870D01*
X263243498Y-155506984D01*
X263243496Y-155506986D01*
X263144188Y-155575686D01*
X263032739Y-155652785D01*
X262930857Y-155696926D01*
X262797586Y-155754667D01*
X262547075Y-155808714D01*
X262290834Y-155812852D01*
X262217659Y-155799520D01*
X262038710Y-155766920D01*
X261800389Y-155672682D01*
X261585037Y-155533763D01*
X261400923Y-155355499D01*
X261400921Y-155355497D01*
X261291654Y-155197549D01*
X260418687Y-153625910D01*
X260342334Y-153449679D01*
X260288287Y-153199168D01*
X260284149Y-152942928D01*
X260297481Y-152869753D01*
X260330081Y-152690804D01*
X260424320Y-152452483D01*
X260563238Y-152237130D01*
X260741502Y-152053016D01*
X260741504Y-152053014D01*
X260840812Y-151984314D01*
X260952261Y-151907215D01*
X261054143Y-151863074D01*
X261187414Y-151805333D01*
X261437925Y-151751286D01*
X261694165Y-151747148D01*
X261767340Y-151760480D01*
X261767340Y-151760480D01*
G37*
G36*
X223667340Y-151760480D02*
G01*
X223846289Y-151793080D01*
X224062046Y-151878397D01*
X224084608Y-151887318D01*
X224084609Y-151887319D01*
X224084610Y-151887319D01*
X224299963Y-152026237D01*
X224484077Y-152204501D01*
X224484079Y-152204503D01*
X224593346Y-152362451D01*
X225466313Y-153934089D01*
X225542666Y-154110320D01*
X225596713Y-154360831D01*
X225600851Y-154617072D01*
X225587519Y-154690247D01*
X225554919Y-154869196D01*
X225460680Y-155107517D01*
X225321762Y-155322870D01*
X225143498Y-155506984D01*
X225143496Y-155506986D01*
X225044188Y-155575686D01*
X224932739Y-155652785D01*
X224830857Y-155696926D01*
X224697586Y-155754667D01*
X224447075Y-155808714D01*
X224190834Y-155812852D01*
X224117659Y-155799520D01*
X223938710Y-155766920D01*
X223700389Y-155672682D01*
X223485037Y-155533763D01*
X223300923Y-155355499D01*
X223300921Y-155355497D01*
X223191654Y-155197549D01*
X222318687Y-153625910D01*
X222242334Y-153449679D01*
X222188287Y-153199168D01*
X222184149Y-152942928D01*
X222197481Y-152869753D01*
X222230081Y-152690804D01*
X222324320Y-152452483D01*
X222463238Y-152237130D01*
X222641502Y-152053016D01*
X222641504Y-152053014D01*
X222740812Y-151984314D01*
X222852261Y-151907215D01*
X222954143Y-151863074D01*
X223087414Y-151805333D01*
X223337925Y-151751286D01*
X223594165Y-151747148D01*
X223667340Y-151760480D01*
X223667340Y-151760480D01*
G37*
G36*
X242717340Y-151760480D02*
G01*
X242896289Y-151793080D01*
X243112046Y-151878397D01*
X243134608Y-151887318D01*
X243134609Y-151887319D01*
X243134610Y-151887319D01*
X243349963Y-152026237D01*
X243534077Y-152204501D01*
X243534079Y-152204503D01*
X243643346Y-152362451D01*
X244516313Y-153934089D01*
X244592666Y-154110320D01*
X244646713Y-154360831D01*
X244650851Y-154617072D01*
X244637519Y-154690247D01*
X244604919Y-154869196D01*
X244510680Y-155107517D01*
X244371762Y-155322870D01*
X244193498Y-155506984D01*
X244193496Y-155506986D01*
X244094188Y-155575686D01*
X243982739Y-155652785D01*
X243880857Y-155696926D01*
X243747586Y-155754667D01*
X243497075Y-155808714D01*
X243240834Y-155812852D01*
X243167659Y-155799520D01*
X242988710Y-155766920D01*
X242750389Y-155672682D01*
X242535037Y-155533763D01*
X242350923Y-155355499D01*
X242350921Y-155355497D01*
X242241654Y-155197549D01*
X241368687Y-153625910D01*
X241292334Y-153449679D01*
X241238287Y-153199168D01*
X241234149Y-152942928D01*
X241247481Y-152869753D01*
X241280081Y-152690804D01*
X241374320Y-152452483D01*
X241513238Y-152237130D01*
X241691502Y-152053016D01*
X241691504Y-152053014D01*
X241790812Y-151984314D01*
X241902261Y-151907215D01*
X242004143Y-151863074D01*
X242137414Y-151805333D01*
X242387925Y-151751286D01*
X242644165Y-151747148D01*
X242717340Y-151760480D01*
X242717340Y-151760480D01*
G37*
G36*
X275265021Y-150674120D02*
G01*
X275514747Y-150731660D01*
X275514751Y-150731661D01*
X275748458Y-150836816D01*
X275800898Y-150874187D01*
X275957160Y-150985544D01*
X276075550Y-151111288D01*
X276132835Y-151172131D01*
X276268735Y-151389405D01*
X276359635Y-151629017D01*
X276391416Y-151818429D01*
X276407408Y-152053014D01*
X276439558Y-152524606D01*
X276434552Y-152690804D01*
X276433776Y-152716571D01*
X276376235Y-152966303D01*
X276271080Y-153200010D01*
X276233709Y-153252450D01*
X276122352Y-153408712D01*
X275988797Y-153534456D01*
X275935765Y-153584387D01*
X275718491Y-153720287D01*
X275478879Y-153811187D01*
X275226138Y-153853594D01*
X275226134Y-153853594D01*
X274969979Y-153845880D01*
X274720253Y-153788340D01*
X274720249Y-153788339D01*
X274486542Y-153683184D01*
X274406173Y-153625910D01*
X274277840Y-153534456D01*
X274102165Y-153347869D01*
X273966266Y-153130596D01*
X273966265Y-153130595D01*
X273875365Y-152890983D01*
X273843584Y-152701571D01*
X273826603Y-152452483D01*
X273795442Y-151995392D01*
X273801224Y-151803428D01*
X273858764Y-151553701D01*
X273858765Y-151553697D01*
X273963920Y-151319990D01*
X274001291Y-151267550D01*
X274112648Y-151111288D01*
X274299235Y-150935613D01*
X274516509Y-150799713D01*
X274756121Y-150708813D01*
X275008862Y-150666406D01*
X275008866Y-150666406D01*
X275265021Y-150674120D01*
X275265021Y-150674120D01*
G37*
G36*
X237165021Y-150674120D02*
G01*
X237414747Y-150731660D01*
X237414751Y-150731661D01*
X237648458Y-150836816D01*
X237700898Y-150874187D01*
X237857160Y-150985544D01*
X237975550Y-151111288D01*
X238032835Y-151172131D01*
X238168735Y-151389405D01*
X238259635Y-151629017D01*
X238291416Y-151818429D01*
X238307408Y-152053014D01*
X238339558Y-152524606D01*
X238334552Y-152690804D01*
X238333776Y-152716571D01*
X238276235Y-152966303D01*
X238171080Y-153200010D01*
X238133709Y-153252450D01*
X238022352Y-153408712D01*
X237888797Y-153534456D01*
X237835765Y-153584387D01*
X237618491Y-153720287D01*
X237378879Y-153811187D01*
X237126138Y-153853594D01*
X237126134Y-153853594D01*
X236869979Y-153845880D01*
X236620253Y-153788340D01*
X236620249Y-153788339D01*
X236386542Y-153683184D01*
X236306173Y-153625910D01*
X236177840Y-153534456D01*
X236002165Y-153347869D01*
X235866266Y-153130596D01*
X235866265Y-153130595D01*
X235775365Y-152890983D01*
X235743584Y-152701571D01*
X235726603Y-152452483D01*
X235695442Y-151995392D01*
X235701224Y-151803428D01*
X235758764Y-151553701D01*
X235758765Y-151553697D01*
X235863920Y-151319990D01*
X235901291Y-151267550D01*
X236012648Y-151111288D01*
X236199235Y-150935613D01*
X236416509Y-150799713D01*
X236656121Y-150708813D01*
X236908862Y-150666406D01*
X236908866Y-150666406D01*
X237165021Y-150674120D01*
X237165021Y-150674120D01*
G37*
G36*
X218115021Y-150674120D02*
G01*
X218364747Y-150731660D01*
X218364751Y-150731661D01*
X218598458Y-150836816D01*
X218650898Y-150874187D01*
X218807160Y-150985544D01*
X218925550Y-151111288D01*
X218982835Y-151172131D01*
X219118735Y-151389405D01*
X219209635Y-151629017D01*
X219241416Y-151818429D01*
X219257408Y-152053014D01*
X219289558Y-152524606D01*
X219284552Y-152690804D01*
X219283776Y-152716571D01*
X219226235Y-152966303D01*
X219121080Y-153200010D01*
X219083709Y-153252450D01*
X218972352Y-153408712D01*
X218838797Y-153534456D01*
X218785765Y-153584387D01*
X218568491Y-153720287D01*
X218328879Y-153811187D01*
X218076138Y-153853594D01*
X218076134Y-153853594D01*
X217819979Y-153845880D01*
X217570253Y-153788340D01*
X217570249Y-153788339D01*
X217336542Y-153683184D01*
X217256173Y-153625910D01*
X217127840Y-153534456D01*
X216952165Y-153347869D01*
X216816266Y-153130596D01*
X216816265Y-153130595D01*
X216725365Y-152890983D01*
X216693584Y-152701571D01*
X216676603Y-152452483D01*
X216645442Y-151995392D01*
X216651224Y-151803428D01*
X216708764Y-151553701D01*
X216708765Y-151553697D01*
X216813920Y-151319990D01*
X216851291Y-151267550D01*
X216962648Y-151111288D01*
X217149235Y-150935613D01*
X217366509Y-150799713D01*
X217606121Y-150708813D01*
X217858862Y-150666406D01*
X217858866Y-150666406D01*
X218115021Y-150674120D01*
X218115021Y-150674120D01*
G37*
G36*
X199065021Y-150674120D02*
G01*
X199314747Y-150731660D01*
X199314751Y-150731661D01*
X199548458Y-150836816D01*
X199600898Y-150874187D01*
X199757160Y-150985544D01*
X199875550Y-151111288D01*
X199932835Y-151172131D01*
X200068735Y-151389405D01*
X200159635Y-151629017D01*
X200191416Y-151818429D01*
X200207408Y-152053014D01*
X200239558Y-152524606D01*
X200234552Y-152690804D01*
X200233776Y-152716571D01*
X200176235Y-152966303D01*
X200071080Y-153200010D01*
X200033709Y-153252450D01*
X199922352Y-153408712D01*
X199788797Y-153534456D01*
X199735765Y-153584387D01*
X199518491Y-153720287D01*
X199278879Y-153811187D01*
X199026138Y-153853594D01*
X199026134Y-153853594D01*
X198769979Y-153845880D01*
X198520253Y-153788340D01*
X198520249Y-153788339D01*
X198286542Y-153683184D01*
X198206173Y-153625910D01*
X198077840Y-153534456D01*
X197902165Y-153347869D01*
X197766266Y-153130596D01*
X197766265Y-153130595D01*
X197675365Y-152890983D01*
X197643584Y-152701571D01*
X197626603Y-152452483D01*
X197595442Y-151995392D01*
X197601224Y-151803428D01*
X197658764Y-151553701D01*
X197658765Y-151553697D01*
X197763920Y-151319990D01*
X197801291Y-151267550D01*
X197912648Y-151111288D01*
X198099235Y-150935613D01*
X198316509Y-150799713D01*
X198556121Y-150708813D01*
X198808862Y-150666406D01*
X198808866Y-150666406D01*
X199065021Y-150674120D01*
X199065021Y-150674120D01*
G37*
G36*
X134771271Y-150674120D02*
G01*
X135020997Y-150731660D01*
X135021001Y-150731661D01*
X135254708Y-150836816D01*
X135307148Y-150874187D01*
X135463410Y-150985544D01*
X135581800Y-151111288D01*
X135639085Y-151172131D01*
X135774985Y-151389405D01*
X135865885Y-151629017D01*
X135897666Y-151818429D01*
X135913658Y-152053014D01*
X135945808Y-152524606D01*
X135940802Y-152690804D01*
X135940026Y-152716571D01*
X135882485Y-152966303D01*
X135777330Y-153200010D01*
X135739959Y-153252450D01*
X135628602Y-153408712D01*
X135495047Y-153534456D01*
X135442015Y-153584387D01*
X135224741Y-153720287D01*
X134985129Y-153811187D01*
X134732388Y-153853594D01*
X134732384Y-153853594D01*
X134476229Y-153845880D01*
X134226503Y-153788340D01*
X134226499Y-153788339D01*
X133992792Y-153683184D01*
X133912423Y-153625910D01*
X133784090Y-153534456D01*
X133608415Y-153347869D01*
X133472516Y-153130596D01*
X133472515Y-153130595D01*
X133381615Y-152890983D01*
X133349834Y-152701571D01*
X133332853Y-152452483D01*
X133301692Y-151995392D01*
X133307474Y-151803428D01*
X133365014Y-151553701D01*
X133365015Y-151553697D01*
X133470170Y-151319990D01*
X133507541Y-151267550D01*
X133618898Y-151111288D01*
X133805485Y-150935613D01*
X134022759Y-150799713D01*
X134262371Y-150708813D01*
X134515112Y-150666406D01*
X134515116Y-150666406D01*
X134771271Y-150674120D01*
X134771271Y-150674120D01*
G37*
G36*
X294315021Y-150674120D02*
G01*
X294564747Y-150731660D01*
X294564751Y-150731661D01*
X294798458Y-150836816D01*
X294850898Y-150874187D01*
X295007160Y-150985544D01*
X295125550Y-151111288D01*
X295182835Y-151172131D01*
X295318735Y-151389405D01*
X295409635Y-151629017D01*
X295441416Y-151818429D01*
X295457408Y-152053014D01*
X295489558Y-152524606D01*
X295484552Y-152690804D01*
X295483776Y-152716571D01*
X295426235Y-152966303D01*
X295321080Y-153200010D01*
X295283709Y-153252450D01*
X295172352Y-153408712D01*
X295038797Y-153534456D01*
X294985765Y-153584387D01*
X294768491Y-153720287D01*
X294528879Y-153811187D01*
X294276138Y-153853594D01*
X294276134Y-153853594D01*
X294019979Y-153845880D01*
X293770253Y-153788340D01*
X293770249Y-153788339D01*
X293536542Y-153683184D01*
X293456173Y-153625910D01*
X293327840Y-153534456D01*
X293152165Y-153347869D01*
X293016266Y-153130596D01*
X293016265Y-153130595D01*
X292925365Y-152890983D01*
X292893584Y-152701571D01*
X292876603Y-152452483D01*
X292845442Y-151995392D01*
X292851224Y-151803428D01*
X292908764Y-151553701D01*
X292908765Y-151553697D01*
X293013920Y-151319990D01*
X293051291Y-151267550D01*
X293162648Y-151111288D01*
X293349235Y-150935613D01*
X293566509Y-150799713D01*
X293806121Y-150708813D01*
X294058862Y-150666406D01*
X294058866Y-150666406D01*
X294315021Y-150674120D01*
X294315021Y-150674120D01*
G37*
G36*
X180015021Y-150674120D02*
G01*
X180264747Y-150731660D01*
X180264751Y-150731661D01*
X180498458Y-150836816D01*
X180550898Y-150874187D01*
X180707160Y-150985544D01*
X180825550Y-151111288D01*
X180882835Y-151172131D01*
X181018735Y-151389405D01*
X181109635Y-151629017D01*
X181141416Y-151818429D01*
X181157408Y-152053014D01*
X181189558Y-152524606D01*
X181184552Y-152690804D01*
X181183776Y-152716571D01*
X181126235Y-152966303D01*
X181021080Y-153200010D01*
X180983709Y-153252450D01*
X180872352Y-153408712D01*
X180738797Y-153534456D01*
X180685765Y-153584387D01*
X180468491Y-153720287D01*
X180228879Y-153811187D01*
X179976138Y-153853594D01*
X179976134Y-153853594D01*
X179719979Y-153845880D01*
X179470253Y-153788340D01*
X179470249Y-153788339D01*
X179236542Y-153683184D01*
X179156173Y-153625910D01*
X179027840Y-153534456D01*
X178852165Y-153347869D01*
X178716266Y-153130596D01*
X178716265Y-153130595D01*
X178625365Y-152890983D01*
X178593584Y-152701571D01*
X178576603Y-152452483D01*
X178545442Y-151995392D01*
X178551224Y-151803428D01*
X178608764Y-151553701D01*
X178608765Y-151553697D01*
X178713920Y-151319990D01*
X178751291Y-151267550D01*
X178862648Y-151111288D01*
X179049235Y-150935613D01*
X179266509Y-150799713D01*
X179506121Y-150708813D01*
X179758862Y-150666406D01*
X179758866Y-150666406D01*
X180015021Y-150674120D01*
X180015021Y-150674120D01*
G37*
G36*
X160965021Y-150674120D02*
G01*
X161214747Y-150731660D01*
X161214751Y-150731661D01*
X161448458Y-150836816D01*
X161500898Y-150874187D01*
X161657160Y-150985544D01*
X161775550Y-151111288D01*
X161832835Y-151172131D01*
X161968735Y-151389405D01*
X162059635Y-151629017D01*
X162091416Y-151818429D01*
X162107408Y-152053014D01*
X162139558Y-152524606D01*
X162134552Y-152690804D01*
X162133776Y-152716571D01*
X162076235Y-152966303D01*
X161971080Y-153200010D01*
X161933709Y-153252450D01*
X161822352Y-153408712D01*
X161688797Y-153534456D01*
X161635765Y-153584387D01*
X161418491Y-153720287D01*
X161178879Y-153811187D01*
X160926138Y-153853594D01*
X160926134Y-153853594D01*
X160669979Y-153845880D01*
X160420253Y-153788340D01*
X160420249Y-153788339D01*
X160186542Y-153683184D01*
X160106173Y-153625910D01*
X159977840Y-153534456D01*
X159802165Y-153347869D01*
X159666266Y-153130596D01*
X159666265Y-153130595D01*
X159575365Y-152890983D01*
X159543584Y-152701571D01*
X159526603Y-152452483D01*
X159495442Y-151995392D01*
X159501224Y-151803428D01*
X159558764Y-151553701D01*
X159558765Y-151553697D01*
X159663920Y-151319990D01*
X159701291Y-151267550D01*
X159812648Y-151111288D01*
X159999235Y-150935613D01*
X160216509Y-150799713D01*
X160456121Y-150708813D01*
X160708862Y-150666406D01*
X160708866Y-150666406D01*
X160965021Y-150674120D01*
X160965021Y-150674120D01*
G37*
G36*
X353846271Y-150674120D02*
G01*
X354095997Y-150731660D01*
X354096001Y-150731661D01*
X354329708Y-150836816D01*
X354382148Y-150874187D01*
X354538410Y-150985544D01*
X354656800Y-151111288D01*
X354714085Y-151172131D01*
X354849985Y-151389405D01*
X354940885Y-151629017D01*
X354972666Y-151818429D01*
X354988658Y-152053014D01*
X355020808Y-152524606D01*
X355015802Y-152690804D01*
X355015026Y-152716571D01*
X354957485Y-152966303D01*
X354852330Y-153200010D01*
X354814959Y-153252450D01*
X354703602Y-153408712D01*
X354570047Y-153534456D01*
X354517015Y-153584387D01*
X354299741Y-153720287D01*
X354060129Y-153811187D01*
X353807388Y-153853594D01*
X353807384Y-153853594D01*
X353551229Y-153845880D01*
X353301503Y-153788340D01*
X353301499Y-153788339D01*
X353067792Y-153683184D01*
X352987423Y-153625910D01*
X352859090Y-153534456D01*
X352683415Y-153347869D01*
X352547516Y-153130596D01*
X352547515Y-153130595D01*
X352456615Y-152890983D01*
X352424834Y-152701571D01*
X352407853Y-152452483D01*
X352376692Y-151995392D01*
X352382474Y-151803428D01*
X352440014Y-151553701D01*
X352440015Y-151553697D01*
X352545170Y-151319990D01*
X352582541Y-151267550D01*
X352693898Y-151111288D01*
X352880485Y-150935613D01*
X353097759Y-150799713D01*
X353337371Y-150708813D01*
X353590112Y-150666406D01*
X353590116Y-150666406D01*
X353846271Y-150674120D01*
X353846271Y-150674120D01*
G37*
G36*
X313365021Y-150674120D02*
G01*
X313614747Y-150731660D01*
X313614751Y-150731661D01*
X313848458Y-150836816D01*
X313900898Y-150874187D01*
X314057160Y-150985544D01*
X314175550Y-151111288D01*
X314232835Y-151172131D01*
X314368735Y-151389405D01*
X314459635Y-151629017D01*
X314491416Y-151818429D01*
X314507408Y-152053014D01*
X314539558Y-152524606D01*
X314534552Y-152690804D01*
X314533776Y-152716571D01*
X314476235Y-152966303D01*
X314371080Y-153200010D01*
X314333709Y-153252450D01*
X314222352Y-153408712D01*
X314088797Y-153534456D01*
X314035765Y-153584387D01*
X313818491Y-153720287D01*
X313578879Y-153811187D01*
X313326138Y-153853594D01*
X313326134Y-153853594D01*
X313069979Y-153845880D01*
X312820253Y-153788340D01*
X312820249Y-153788339D01*
X312586542Y-153683184D01*
X312506173Y-153625910D01*
X312377840Y-153534456D01*
X312202165Y-153347869D01*
X312066266Y-153130596D01*
X312066265Y-153130595D01*
X311975365Y-152890983D01*
X311943584Y-152701571D01*
X311926603Y-152452483D01*
X311895442Y-151995392D01*
X311901224Y-151803428D01*
X311958764Y-151553701D01*
X311958765Y-151553697D01*
X312063920Y-151319990D01*
X312101291Y-151267550D01*
X312212648Y-151111288D01*
X312399235Y-150935613D01*
X312616509Y-150799713D01*
X312856121Y-150708813D01*
X313108862Y-150666406D01*
X313108866Y-150666406D01*
X313365021Y-150674120D01*
X313365021Y-150674120D01*
G37*
G36*
X332415021Y-150674120D02*
G01*
X332664747Y-150731660D01*
X332664751Y-150731661D01*
X332898458Y-150836816D01*
X332950898Y-150874187D01*
X333107160Y-150985544D01*
X333225550Y-151111288D01*
X333282835Y-151172131D01*
X333418735Y-151389405D01*
X333509635Y-151629017D01*
X333541416Y-151818429D01*
X333557408Y-152053014D01*
X333589558Y-152524606D01*
X333584552Y-152690804D01*
X333583776Y-152716571D01*
X333526235Y-152966303D01*
X333421080Y-153200010D01*
X333383709Y-153252450D01*
X333272352Y-153408712D01*
X333138797Y-153534456D01*
X333085765Y-153584387D01*
X332868491Y-153720287D01*
X332628879Y-153811187D01*
X332376138Y-153853594D01*
X332376134Y-153853594D01*
X332119979Y-153845880D01*
X331870253Y-153788340D01*
X331870249Y-153788339D01*
X331636542Y-153683184D01*
X331556173Y-153625910D01*
X331427840Y-153534456D01*
X331252165Y-153347869D01*
X331116266Y-153130596D01*
X331116265Y-153130595D01*
X331025365Y-152890983D01*
X330993584Y-152701571D01*
X330976603Y-152452483D01*
X330945442Y-151995392D01*
X330951224Y-151803428D01*
X331008764Y-151553701D01*
X331008765Y-151553697D01*
X331113920Y-151319990D01*
X331151291Y-151267550D01*
X331262648Y-151111288D01*
X331449235Y-150935613D01*
X331666509Y-150799713D01*
X331906121Y-150708813D01*
X332158862Y-150666406D01*
X332158866Y-150666406D01*
X332415021Y-150674120D01*
X332415021Y-150674120D01*
G37*
G36*
X256215021Y-150674120D02*
G01*
X256464747Y-150731660D01*
X256464751Y-150731661D01*
X256698458Y-150836816D01*
X256750898Y-150874187D01*
X256907160Y-150985544D01*
X257025550Y-151111288D01*
X257082835Y-151172131D01*
X257218735Y-151389405D01*
X257309635Y-151629017D01*
X257341416Y-151818429D01*
X257357408Y-152053014D01*
X257389558Y-152524606D01*
X257384552Y-152690804D01*
X257383776Y-152716571D01*
X257326235Y-152966303D01*
X257221080Y-153200010D01*
X257183709Y-153252450D01*
X257072352Y-153408712D01*
X256938797Y-153534456D01*
X256885765Y-153584387D01*
X256668491Y-153720287D01*
X256428879Y-153811187D01*
X256176138Y-153853594D01*
X256176134Y-153853594D01*
X255919979Y-153845880D01*
X255670253Y-153788340D01*
X255670249Y-153788339D01*
X255436542Y-153683184D01*
X255356173Y-153625910D01*
X255227840Y-153534456D01*
X255052165Y-153347869D01*
X254916266Y-153130596D01*
X254916265Y-153130595D01*
X254825365Y-152890983D01*
X254793584Y-152701571D01*
X254776603Y-152452483D01*
X254745442Y-151995392D01*
X254751224Y-151803428D01*
X254808764Y-151553701D01*
X254808765Y-151553697D01*
X254913920Y-151319990D01*
X254951291Y-151267550D01*
X255062648Y-151111288D01*
X255249235Y-150935613D01*
X255466509Y-150799713D01*
X255706121Y-150708813D01*
X255958862Y-150666406D01*
X255958866Y-150666406D01*
X256215021Y-150674120D01*
X256215021Y-150674120D01*
G37*
G36*
X159043412Y-145170134D02*
G01*
X159275346Y-145216269D01*
X159712300Y-145397262D01*
X160105548Y-145660022D01*
X160439978Y-145994452D01*
X160702738Y-146387700D01*
X160883731Y-146824654D01*
X160976000Y-147288522D01*
X160976000Y-147761478D01*
X160883731Y-148225346D01*
X160702738Y-148662300D01*
X160439978Y-149055548D01*
X160105548Y-149389978D01*
X159712300Y-149652738D01*
X159275346Y-149833731D01*
X159043412Y-149879865D01*
X158811479Y-149926000D01*
X158338521Y-149926000D01*
X158106588Y-149879865D01*
X157874654Y-149833731D01*
X157437700Y-149652738D01*
X157044452Y-149389978D01*
X156710022Y-149055548D01*
X156447262Y-148662300D01*
X156266269Y-148225346D01*
X156174000Y-147761478D01*
X156174000Y-147288522D01*
X156266269Y-146824654D01*
X156447262Y-146387700D01*
X156710022Y-145994452D01*
X157044452Y-145660022D01*
X157437700Y-145397262D01*
X157874654Y-145216269D01*
X158106588Y-145170134D01*
X158338521Y-145124000D01*
X158811479Y-145124000D01*
X159043412Y-145170134D01*
X159043412Y-145170134D01*
G37*
G36*
X330493412Y-145170134D02*
G01*
X330725346Y-145216269D01*
X331162300Y-145397262D01*
X331555548Y-145660022D01*
X331889978Y-145994452D01*
X332152738Y-146387700D01*
X332333731Y-146824654D01*
X332426000Y-147288522D01*
X332426000Y-147761478D01*
X332333731Y-148225346D01*
X332152738Y-148662300D01*
X331889978Y-149055548D01*
X331555548Y-149389978D01*
X331162300Y-149652738D01*
X330725346Y-149833731D01*
X330493412Y-149879865D01*
X330261479Y-149926000D01*
X329788521Y-149926000D01*
X329556588Y-149879865D01*
X329324654Y-149833731D01*
X328887700Y-149652738D01*
X328494452Y-149389978D01*
X328160022Y-149055548D01*
X327897262Y-148662300D01*
X327716269Y-148225346D01*
X327624000Y-147761478D01*
X327624000Y-147288522D01*
X327716269Y-146824654D01*
X327897262Y-146387700D01*
X328160022Y-145994452D01*
X328494452Y-145660022D01*
X328887700Y-145397262D01*
X329324654Y-145216269D01*
X329556588Y-145170134D01*
X329788521Y-145124000D01*
X330261479Y-145124000D01*
X330493412Y-145170134D01*
X330493412Y-145170134D01*
G37*
G36*
X342217521Y-141204120D02*
G01*
X342467247Y-141261660D01*
X342467251Y-141261661D01*
X342700958Y-141366816D01*
X342753398Y-141404187D01*
X342909660Y-141515544D01*
X343028050Y-141641288D01*
X343085335Y-141702131D01*
X343221235Y-141919405D01*
X343312135Y-142159017D01*
X343343916Y-142348429D01*
X343375455Y-142811072D01*
X343392058Y-143054606D01*
X343386276Y-143246572D01*
X343373308Y-143302852D01*
X343328735Y-143496303D01*
X343223580Y-143730010D01*
X343186209Y-143782450D01*
X343074852Y-143938712D01*
X342941297Y-144064456D01*
X342888265Y-144114387D01*
X342670991Y-144250287D01*
X342431379Y-144341187D01*
X342178638Y-144383594D01*
X342178634Y-144383594D01*
X341922479Y-144375880D01*
X341672753Y-144318340D01*
X341672749Y-144318339D01*
X341439042Y-144213184D01*
X341386602Y-144175813D01*
X341230340Y-144064456D01*
X341054665Y-143877869D01*
X340918766Y-143660596D01*
X340918765Y-143660595D01*
X340827865Y-143420983D01*
X340796084Y-143231571D01*
X340780092Y-142996984D01*
X340747942Y-142525392D01*
X340753724Y-142333428D01*
X340811264Y-142083701D01*
X340811265Y-142083697D01*
X340916420Y-141849990D01*
X340953791Y-141797550D01*
X341065148Y-141641288D01*
X341251735Y-141465613D01*
X341469009Y-141329713D01*
X341708621Y-141238813D01*
X341961362Y-141196406D01*
X341961366Y-141196406D01*
X342217521Y-141204120D01*
X342217521Y-141204120D01*
G37*
G36*
X132667521Y-141204120D02*
G01*
X132917247Y-141261660D01*
X132917251Y-141261661D01*
X133150958Y-141366816D01*
X133203398Y-141404187D01*
X133359660Y-141515544D01*
X133478050Y-141641288D01*
X133535335Y-141702131D01*
X133671235Y-141919405D01*
X133762135Y-142159017D01*
X133793916Y-142348429D01*
X133825455Y-142811072D01*
X133842058Y-143054606D01*
X133836276Y-143246572D01*
X133823308Y-143302852D01*
X133778735Y-143496303D01*
X133673580Y-143730010D01*
X133636209Y-143782450D01*
X133524852Y-143938712D01*
X133391297Y-144064456D01*
X133338265Y-144114387D01*
X133120991Y-144250287D01*
X132881379Y-144341187D01*
X132628638Y-144383594D01*
X132628634Y-144383594D01*
X132372479Y-144375880D01*
X132122753Y-144318340D01*
X132122749Y-144318339D01*
X131889042Y-144213184D01*
X131836602Y-144175813D01*
X131680340Y-144064456D01*
X131504665Y-143877869D01*
X131368766Y-143660596D01*
X131368765Y-143660595D01*
X131277865Y-143420983D01*
X131246084Y-143231571D01*
X131230092Y-142996984D01*
X131197942Y-142525392D01*
X131203724Y-142333428D01*
X131261264Y-142083701D01*
X131261265Y-142083697D01*
X131366420Y-141849990D01*
X131403791Y-141797550D01*
X131515148Y-141641288D01*
X131701735Y-141465613D01*
X131919009Y-141329713D01*
X132158621Y-141238813D01*
X132411362Y-141196406D01*
X132411366Y-141196406D01*
X132667521Y-141204120D01*
X132667521Y-141204120D01*
G37*
G36*
X361267521Y-141204120D02*
G01*
X361517247Y-141261660D01*
X361517251Y-141261661D01*
X361750958Y-141366816D01*
X361803398Y-141404187D01*
X361959660Y-141515544D01*
X362078050Y-141641288D01*
X362135335Y-141702131D01*
X362271235Y-141919405D01*
X362362135Y-142159017D01*
X362393916Y-142348429D01*
X362425455Y-142811072D01*
X362442058Y-143054606D01*
X362436276Y-143246572D01*
X362423308Y-143302852D01*
X362378735Y-143496303D01*
X362273580Y-143730010D01*
X362236209Y-143782450D01*
X362124852Y-143938712D01*
X361991297Y-144064456D01*
X361938265Y-144114387D01*
X361720991Y-144250287D01*
X361481379Y-144341187D01*
X361228638Y-144383594D01*
X361228634Y-144383594D01*
X360972479Y-144375880D01*
X360722753Y-144318340D01*
X360722749Y-144318339D01*
X360489042Y-144213184D01*
X360436602Y-144175813D01*
X360280340Y-144064456D01*
X360104665Y-143877869D01*
X359968766Y-143660596D01*
X359968765Y-143660595D01*
X359877865Y-143420983D01*
X359846084Y-143231571D01*
X359830092Y-142996984D01*
X359797942Y-142525392D01*
X359803724Y-142333428D01*
X359861264Y-142083701D01*
X359861265Y-142083697D01*
X359966420Y-141849990D01*
X360003791Y-141797550D01*
X360115148Y-141641288D01*
X360301735Y-141465613D01*
X360519009Y-141329713D01*
X360758621Y-141238813D01*
X361011362Y-141196406D01*
X361011366Y-141196406D01*
X361267521Y-141204120D01*
X361267521Y-141204120D01*
G37*
G36*
X126369840Y-139250480D02*
G01*
X126548789Y-139283080D01*
X126764546Y-139368397D01*
X126787108Y-139377318D01*
X126787109Y-139377319D01*
X126787110Y-139377319D01*
X127002463Y-139516237D01*
X127186577Y-139694501D01*
X127186579Y-139694503D01*
X127295846Y-139852451D01*
X128168813Y-141424089D01*
X128245166Y-141600320D01*
X128299213Y-141850831D01*
X128303351Y-142107072D01*
X128293887Y-142159017D01*
X128257419Y-142359196D01*
X128163180Y-142597517D01*
X128024262Y-142812870D01*
X127845998Y-142996984D01*
X127845996Y-142996986D01*
X127762716Y-143054598D01*
X127635239Y-143142785D01*
X127533357Y-143186926D01*
X127400086Y-143244667D01*
X127149575Y-143298714D01*
X126893334Y-143302852D01*
X126820159Y-143289520D01*
X126641210Y-143256920D01*
X126402889Y-143162682D01*
X126187537Y-143023763D01*
X126003423Y-142845499D01*
X126003421Y-142845497D01*
X125894154Y-142687549D01*
X125021187Y-141115910D01*
X124944834Y-140939679D01*
X124890787Y-140689168D01*
X124886649Y-140432928D01*
X124899981Y-140359753D01*
X124932581Y-140180804D01*
X125026820Y-139942483D01*
X125165738Y-139727130D01*
X125344002Y-139543016D01*
X125344004Y-139543014D01*
X125443312Y-139474314D01*
X125554761Y-139397215D01*
X125656643Y-139353074D01*
X125789914Y-139295333D01*
X126040425Y-139241286D01*
X126296665Y-139237148D01*
X126369840Y-139250480D01*
X126369840Y-139250480D01*
G37*
G36*
X335919840Y-139250480D02*
G01*
X336098789Y-139283080D01*
X336314546Y-139368397D01*
X336337108Y-139377318D01*
X336337109Y-139377319D01*
X336337110Y-139377319D01*
X336552463Y-139516237D01*
X336736577Y-139694501D01*
X336736579Y-139694503D01*
X336845846Y-139852451D01*
X337718813Y-141424089D01*
X337795166Y-141600320D01*
X337849213Y-141850831D01*
X337853351Y-142107072D01*
X337843887Y-142159017D01*
X337807419Y-142359196D01*
X337713180Y-142597517D01*
X337574262Y-142812870D01*
X337395998Y-142996984D01*
X337395996Y-142996986D01*
X337312716Y-143054598D01*
X337185239Y-143142785D01*
X337083357Y-143186926D01*
X336950086Y-143244667D01*
X336699575Y-143298714D01*
X336443334Y-143302852D01*
X336370159Y-143289520D01*
X336191210Y-143256920D01*
X335952889Y-143162682D01*
X335737537Y-143023763D01*
X335553423Y-142845499D01*
X335553421Y-142845497D01*
X335444154Y-142687549D01*
X334571187Y-141115910D01*
X334494834Y-140939679D01*
X334440787Y-140689168D01*
X334436649Y-140432928D01*
X334449981Y-140359753D01*
X334482581Y-140180804D01*
X334576820Y-139942483D01*
X334715738Y-139727130D01*
X334894002Y-139543016D01*
X334894004Y-139543014D01*
X334993312Y-139474314D01*
X335104761Y-139397215D01*
X335206643Y-139353074D01*
X335339914Y-139295333D01*
X335590425Y-139241286D01*
X335846665Y-139237148D01*
X335919840Y-139250480D01*
X335919840Y-139250480D01*
G37*
G36*
X354969840Y-139250480D02*
G01*
X355148789Y-139283080D01*
X355364546Y-139368397D01*
X355387108Y-139377318D01*
X355387109Y-139377319D01*
X355387110Y-139377319D01*
X355602463Y-139516237D01*
X355786577Y-139694501D01*
X355786579Y-139694503D01*
X355895846Y-139852451D01*
X356768813Y-141424089D01*
X356845166Y-141600320D01*
X356899213Y-141850831D01*
X356903351Y-142107072D01*
X356893887Y-142159017D01*
X356857419Y-142359196D01*
X356763180Y-142597517D01*
X356624262Y-142812870D01*
X356445998Y-142996984D01*
X356445996Y-142996986D01*
X356362716Y-143054598D01*
X356235239Y-143142785D01*
X356133357Y-143186926D01*
X356000086Y-143244667D01*
X355749575Y-143298714D01*
X355493334Y-143302852D01*
X355420159Y-143289520D01*
X355241210Y-143256920D01*
X355002889Y-143162682D01*
X354787537Y-143023763D01*
X354603423Y-142845499D01*
X354603421Y-142845497D01*
X354494154Y-142687549D01*
X353621187Y-141115910D01*
X353544834Y-140939679D01*
X353490787Y-140689168D01*
X353486649Y-140432928D01*
X353499981Y-140359753D01*
X353532581Y-140180804D01*
X353626820Y-139942483D01*
X353765738Y-139727130D01*
X353944002Y-139543016D01*
X353944004Y-139543014D01*
X354043312Y-139474314D01*
X354154761Y-139397215D01*
X354256643Y-139353074D01*
X354389914Y-139295333D01*
X354640425Y-139241286D01*
X354896665Y-139237148D01*
X354969840Y-139250480D01*
X354969840Y-139250480D01*
G37*
G36*
X152229840Y-132710480D02*
G01*
X152408789Y-132743080D01*
X152624546Y-132828397D01*
X152647108Y-132837318D01*
X152647109Y-132837319D01*
X152647110Y-132837319D01*
X152862463Y-132976237D01*
X152905718Y-133018118D01*
X153046579Y-133154503D01*
X153155846Y-133312451D01*
X154028813Y-134884089D01*
X154105166Y-135060320D01*
X154159213Y-135310831D01*
X154163351Y-135567072D01*
X154150019Y-135640247D01*
X154117419Y-135819196D01*
X154023180Y-136057517D01*
X153884262Y-136272870D01*
X153705998Y-136456984D01*
X153705996Y-136456986D01*
X153606688Y-136525686D01*
X153495239Y-136602785D01*
X153393357Y-136646926D01*
X153260086Y-136704667D01*
X153009575Y-136758714D01*
X152753334Y-136762852D01*
X152680159Y-136749520D01*
X152501210Y-136716920D01*
X152262889Y-136622682D01*
X152047537Y-136483763D01*
X151863423Y-136305499D01*
X151863421Y-136305497D01*
X151754154Y-136147549D01*
X150881187Y-134575910D01*
X150804834Y-134399679D01*
X150750787Y-134149168D01*
X150746649Y-133892928D01*
X150759981Y-133819753D01*
X150792581Y-133640804D01*
X150886820Y-133402483D01*
X151025738Y-133187130D01*
X151204002Y-133003016D01*
X151204004Y-133003014D01*
X151303312Y-132934314D01*
X151414761Y-132857215D01*
X151516643Y-132813074D01*
X151649914Y-132755333D01*
X151900425Y-132701286D01*
X152156665Y-132697148D01*
X152229840Y-132710480D01*
X152229840Y-132710480D01*
G37*
G36*
X171279840Y-132710480D02*
G01*
X171458789Y-132743080D01*
X171674546Y-132828397D01*
X171697108Y-132837318D01*
X171697109Y-132837319D01*
X171697110Y-132837319D01*
X171912463Y-132976237D01*
X171955718Y-133018118D01*
X172096579Y-133154503D01*
X172205846Y-133312451D01*
X173078813Y-134884089D01*
X173155166Y-135060320D01*
X173209213Y-135310831D01*
X173213351Y-135567072D01*
X173200019Y-135640247D01*
X173167419Y-135819196D01*
X173073180Y-136057517D01*
X172934262Y-136272870D01*
X172755998Y-136456984D01*
X172755996Y-136456986D01*
X172656688Y-136525686D01*
X172545239Y-136602785D01*
X172443357Y-136646926D01*
X172310086Y-136704667D01*
X172059575Y-136758714D01*
X171803334Y-136762852D01*
X171730159Y-136749520D01*
X171551210Y-136716920D01*
X171312889Y-136622682D01*
X171097537Y-136483763D01*
X170913423Y-136305499D01*
X170913421Y-136305497D01*
X170804154Y-136147549D01*
X169931187Y-134575910D01*
X169854834Y-134399679D01*
X169800787Y-134149168D01*
X169796649Y-133892928D01*
X169809981Y-133819753D01*
X169842581Y-133640804D01*
X169936820Y-133402483D01*
X170075738Y-133187130D01*
X170254002Y-133003016D01*
X170254004Y-133003014D01*
X170353312Y-132934314D01*
X170464761Y-132857215D01*
X170566643Y-132813074D01*
X170699914Y-132755333D01*
X170950425Y-132701286D01*
X171206665Y-132697148D01*
X171279840Y-132710480D01*
X171279840Y-132710480D01*
G37*
G36*
X190329840Y-132710480D02*
G01*
X190508789Y-132743080D01*
X190724546Y-132828397D01*
X190747108Y-132837318D01*
X190747109Y-132837319D01*
X190747110Y-132837319D01*
X190962463Y-132976237D01*
X191005718Y-133018118D01*
X191146579Y-133154503D01*
X191255846Y-133312451D01*
X192128813Y-134884089D01*
X192205166Y-135060320D01*
X192259213Y-135310831D01*
X192263351Y-135567072D01*
X192250019Y-135640247D01*
X192217419Y-135819196D01*
X192123180Y-136057517D01*
X191984262Y-136272870D01*
X191805998Y-136456984D01*
X191805996Y-136456986D01*
X191706688Y-136525686D01*
X191595239Y-136602785D01*
X191493357Y-136646926D01*
X191360086Y-136704667D01*
X191109575Y-136758714D01*
X190853334Y-136762852D01*
X190780159Y-136749520D01*
X190601210Y-136716920D01*
X190362889Y-136622682D01*
X190147537Y-136483763D01*
X189963423Y-136305499D01*
X189963421Y-136305497D01*
X189854154Y-136147549D01*
X188981187Y-134575910D01*
X188904834Y-134399679D01*
X188850787Y-134149168D01*
X188846649Y-133892928D01*
X188859981Y-133819753D01*
X188892581Y-133640804D01*
X188986820Y-133402483D01*
X189125738Y-133187130D01*
X189304002Y-133003016D01*
X189304004Y-133003014D01*
X189403312Y-132934314D01*
X189514761Y-132857215D01*
X189616643Y-132813074D01*
X189749914Y-132755333D01*
X190000425Y-132701286D01*
X190256665Y-132697148D01*
X190329840Y-132710480D01*
X190329840Y-132710480D01*
G37*
G36*
X209379840Y-132710480D02*
G01*
X209558789Y-132743080D01*
X209774546Y-132828397D01*
X209797108Y-132837318D01*
X209797109Y-132837319D01*
X209797110Y-132837319D01*
X210012463Y-132976237D01*
X210055718Y-133018118D01*
X210196579Y-133154503D01*
X210305846Y-133312451D01*
X211178813Y-134884089D01*
X211255166Y-135060320D01*
X211309213Y-135310831D01*
X211313351Y-135567072D01*
X211300019Y-135640247D01*
X211267419Y-135819196D01*
X211173180Y-136057517D01*
X211034262Y-136272870D01*
X210855998Y-136456984D01*
X210855996Y-136456986D01*
X210756688Y-136525686D01*
X210645239Y-136602785D01*
X210543357Y-136646926D01*
X210410086Y-136704667D01*
X210159575Y-136758714D01*
X209903334Y-136762852D01*
X209830159Y-136749520D01*
X209651210Y-136716920D01*
X209412889Y-136622682D01*
X209197537Y-136483763D01*
X209013423Y-136305499D01*
X209013421Y-136305497D01*
X208904154Y-136147549D01*
X208031187Y-134575910D01*
X207954834Y-134399679D01*
X207900787Y-134149168D01*
X207896649Y-133892928D01*
X207909981Y-133819753D01*
X207942581Y-133640804D01*
X208036820Y-133402483D01*
X208175738Y-133187130D01*
X208354002Y-133003016D01*
X208354004Y-133003014D01*
X208453312Y-132934314D01*
X208564761Y-132857215D01*
X208666643Y-132813074D01*
X208799914Y-132755333D01*
X209050425Y-132701286D01*
X209306665Y-132697148D01*
X209379840Y-132710480D01*
X209379840Y-132710480D01*
G37*
G36*
X228429840Y-132710480D02*
G01*
X228608789Y-132743080D01*
X228824546Y-132828397D01*
X228847108Y-132837318D01*
X228847109Y-132837319D01*
X228847110Y-132837319D01*
X229062463Y-132976237D01*
X229105718Y-133018118D01*
X229246579Y-133154503D01*
X229355846Y-133312451D01*
X230228813Y-134884089D01*
X230305166Y-135060320D01*
X230359213Y-135310831D01*
X230363351Y-135567072D01*
X230350019Y-135640247D01*
X230317419Y-135819196D01*
X230223180Y-136057517D01*
X230084262Y-136272870D01*
X229905998Y-136456984D01*
X229905996Y-136456986D01*
X229806688Y-136525686D01*
X229695239Y-136602785D01*
X229593357Y-136646926D01*
X229460086Y-136704667D01*
X229209575Y-136758714D01*
X228953334Y-136762852D01*
X228880159Y-136749520D01*
X228701210Y-136716920D01*
X228462889Y-136622682D01*
X228247537Y-136483763D01*
X228063423Y-136305499D01*
X228063421Y-136305497D01*
X227954154Y-136147549D01*
X227081187Y-134575910D01*
X227004834Y-134399679D01*
X226950787Y-134149168D01*
X226946649Y-133892928D01*
X226959981Y-133819753D01*
X226992581Y-133640804D01*
X227086820Y-133402483D01*
X227225738Y-133187130D01*
X227404002Y-133003016D01*
X227404004Y-133003014D01*
X227503312Y-132934314D01*
X227614761Y-132857215D01*
X227716643Y-132813074D01*
X227849914Y-132755333D01*
X228100425Y-132701286D01*
X228356665Y-132697148D01*
X228429840Y-132710480D01*
X228429840Y-132710480D01*
G37*
G36*
X247479840Y-132710480D02*
G01*
X247658789Y-132743080D01*
X247874546Y-132828397D01*
X247897108Y-132837318D01*
X247897109Y-132837319D01*
X247897110Y-132837319D01*
X248112463Y-132976237D01*
X248155718Y-133018118D01*
X248296579Y-133154503D01*
X248405846Y-133312451D01*
X249278813Y-134884089D01*
X249355166Y-135060320D01*
X249409213Y-135310831D01*
X249413351Y-135567072D01*
X249400019Y-135640247D01*
X249367419Y-135819196D01*
X249273180Y-136057517D01*
X249134262Y-136272870D01*
X248955998Y-136456984D01*
X248955996Y-136456986D01*
X248856688Y-136525686D01*
X248745239Y-136602785D01*
X248643357Y-136646926D01*
X248510086Y-136704667D01*
X248259575Y-136758714D01*
X248003334Y-136762852D01*
X247930159Y-136749520D01*
X247751210Y-136716920D01*
X247512889Y-136622682D01*
X247297537Y-136483763D01*
X247113423Y-136305499D01*
X247113421Y-136305497D01*
X247004154Y-136147549D01*
X246131187Y-134575910D01*
X246054834Y-134399679D01*
X246000787Y-134149168D01*
X245996649Y-133892928D01*
X246009981Y-133819753D01*
X246042581Y-133640804D01*
X246136820Y-133402483D01*
X246275738Y-133187130D01*
X246454002Y-133003016D01*
X246454004Y-133003014D01*
X246553312Y-132934314D01*
X246664761Y-132857215D01*
X246766643Y-132813074D01*
X246899914Y-132755333D01*
X247150425Y-132701286D01*
X247406665Y-132697148D01*
X247479840Y-132710480D01*
X247479840Y-132710480D01*
G37*
G36*
X266529840Y-132710480D02*
G01*
X266708789Y-132743080D01*
X266924546Y-132828397D01*
X266947108Y-132837318D01*
X266947109Y-132837319D01*
X266947110Y-132837319D01*
X267162463Y-132976237D01*
X267205718Y-133018118D01*
X267346579Y-133154503D01*
X267455846Y-133312451D01*
X268328813Y-134884089D01*
X268405166Y-135060320D01*
X268459213Y-135310831D01*
X268463351Y-135567072D01*
X268450019Y-135640247D01*
X268417419Y-135819196D01*
X268323180Y-136057517D01*
X268184262Y-136272870D01*
X268005998Y-136456984D01*
X268005996Y-136456986D01*
X267906688Y-136525686D01*
X267795239Y-136602785D01*
X267693357Y-136646926D01*
X267560086Y-136704667D01*
X267309575Y-136758714D01*
X267053334Y-136762852D01*
X266980159Y-136749520D01*
X266801210Y-136716920D01*
X266562889Y-136622682D01*
X266347537Y-136483763D01*
X266163423Y-136305499D01*
X266163421Y-136305497D01*
X266054154Y-136147549D01*
X265181187Y-134575910D01*
X265104834Y-134399679D01*
X265050787Y-134149168D01*
X265046649Y-133892928D01*
X265059981Y-133819753D01*
X265092581Y-133640804D01*
X265186820Y-133402483D01*
X265325738Y-133187130D01*
X265504002Y-133003016D01*
X265504004Y-133003014D01*
X265603312Y-132934314D01*
X265714761Y-132857215D01*
X265816643Y-132813074D01*
X265949914Y-132755333D01*
X266200425Y-132701286D01*
X266456665Y-132697148D01*
X266529840Y-132710480D01*
X266529840Y-132710480D01*
G37*
G36*
X285579840Y-132710480D02*
G01*
X285758789Y-132743080D01*
X285974546Y-132828397D01*
X285997108Y-132837318D01*
X285997109Y-132837319D01*
X285997110Y-132837319D01*
X286212463Y-132976237D01*
X286255718Y-133018118D01*
X286396579Y-133154503D01*
X286505846Y-133312451D01*
X287378813Y-134884089D01*
X287455166Y-135060320D01*
X287509213Y-135310831D01*
X287513351Y-135567072D01*
X287500019Y-135640247D01*
X287467419Y-135819196D01*
X287373180Y-136057517D01*
X287234262Y-136272870D01*
X287055998Y-136456984D01*
X287055996Y-136456986D01*
X286956688Y-136525686D01*
X286845239Y-136602785D01*
X286743357Y-136646926D01*
X286610086Y-136704667D01*
X286359575Y-136758714D01*
X286103334Y-136762852D01*
X286030159Y-136749520D01*
X285851210Y-136716920D01*
X285612889Y-136622682D01*
X285397537Y-136483763D01*
X285213423Y-136305499D01*
X285213421Y-136305497D01*
X285104154Y-136147549D01*
X284231187Y-134575910D01*
X284154834Y-134399679D01*
X284100787Y-134149168D01*
X284096649Y-133892928D01*
X284109981Y-133819753D01*
X284142581Y-133640804D01*
X284236820Y-133402483D01*
X284375738Y-133187130D01*
X284554002Y-133003016D01*
X284554004Y-133003014D01*
X284653312Y-132934314D01*
X284764761Y-132857215D01*
X284866643Y-132813074D01*
X284999914Y-132755333D01*
X285250425Y-132701286D01*
X285506665Y-132697148D01*
X285579840Y-132710480D01*
X285579840Y-132710480D01*
G37*
G36*
X304629840Y-132710480D02*
G01*
X304808789Y-132743080D01*
X305024546Y-132828397D01*
X305047108Y-132837318D01*
X305047109Y-132837319D01*
X305047110Y-132837319D01*
X305262463Y-132976237D01*
X305305718Y-133018118D01*
X305446579Y-133154503D01*
X305555846Y-133312451D01*
X306428813Y-134884089D01*
X306505166Y-135060320D01*
X306559213Y-135310831D01*
X306563351Y-135567072D01*
X306550019Y-135640247D01*
X306517419Y-135819196D01*
X306423180Y-136057517D01*
X306284262Y-136272870D01*
X306105998Y-136456984D01*
X306105996Y-136456986D01*
X306006688Y-136525686D01*
X305895239Y-136602785D01*
X305793357Y-136646926D01*
X305660086Y-136704667D01*
X305409575Y-136758714D01*
X305153334Y-136762852D01*
X305080159Y-136749520D01*
X304901210Y-136716920D01*
X304662889Y-136622682D01*
X304447537Y-136483763D01*
X304263423Y-136305499D01*
X304263421Y-136305497D01*
X304154154Y-136147549D01*
X303281187Y-134575910D01*
X303204834Y-134399679D01*
X303150787Y-134149168D01*
X303146649Y-133892928D01*
X303159981Y-133819753D01*
X303192581Y-133640804D01*
X303286820Y-133402483D01*
X303425738Y-133187130D01*
X303604002Y-133003016D01*
X303604004Y-133003014D01*
X303703312Y-132934314D01*
X303814761Y-132857215D01*
X303916643Y-132813074D01*
X304049914Y-132755333D01*
X304300425Y-132701286D01*
X304556665Y-132697148D01*
X304629840Y-132710480D01*
X304629840Y-132710480D01*
G37*
G36*
X323679840Y-132710480D02*
G01*
X323858789Y-132743080D01*
X324074546Y-132828397D01*
X324097108Y-132837318D01*
X324097109Y-132837319D01*
X324097110Y-132837319D01*
X324312463Y-132976237D01*
X324355718Y-133018118D01*
X324496579Y-133154503D01*
X324605846Y-133312451D01*
X325478813Y-134884089D01*
X325555166Y-135060320D01*
X325609213Y-135310831D01*
X325613351Y-135567072D01*
X325600019Y-135640247D01*
X325567419Y-135819196D01*
X325473180Y-136057517D01*
X325334262Y-136272870D01*
X325155998Y-136456984D01*
X325155996Y-136456986D01*
X325056688Y-136525686D01*
X324945239Y-136602785D01*
X324843357Y-136646926D01*
X324710086Y-136704667D01*
X324459575Y-136758714D01*
X324203334Y-136762852D01*
X324130159Y-136749520D01*
X323951210Y-136716920D01*
X323712889Y-136622682D01*
X323497537Y-136483763D01*
X323313423Y-136305499D01*
X323313421Y-136305497D01*
X323204154Y-136147549D01*
X322331187Y-134575910D01*
X322254834Y-134399679D01*
X322200787Y-134149168D01*
X322196649Y-133892928D01*
X322209981Y-133819753D01*
X322242581Y-133640804D01*
X322336820Y-133402483D01*
X322475738Y-133187130D01*
X322654002Y-133003016D01*
X322654004Y-133003014D01*
X322753312Y-132934314D01*
X322864761Y-132857215D01*
X322966643Y-132813074D01*
X323099914Y-132755333D01*
X323350425Y-132701286D01*
X323606665Y-132697148D01*
X323679840Y-132710480D01*
X323679840Y-132710480D01*
G37*
G36*
X142704840Y-132710480D02*
G01*
X142883789Y-132743080D01*
X143099546Y-132828397D01*
X143122108Y-132837318D01*
X143122109Y-132837319D01*
X143122110Y-132837319D01*
X143337463Y-132976237D01*
X143380718Y-133018118D01*
X143521579Y-133154503D01*
X143630846Y-133312451D01*
X144503813Y-134884089D01*
X144580166Y-135060320D01*
X144634213Y-135310831D01*
X144638351Y-135567072D01*
X144625019Y-135640247D01*
X144592419Y-135819196D01*
X144498180Y-136057517D01*
X144359262Y-136272870D01*
X144180998Y-136456984D01*
X144180996Y-136456986D01*
X144081688Y-136525686D01*
X143970239Y-136602785D01*
X143868357Y-136646926D01*
X143735086Y-136704667D01*
X143484575Y-136758714D01*
X143228334Y-136762852D01*
X143155159Y-136749520D01*
X142976210Y-136716920D01*
X142737889Y-136622682D01*
X142522537Y-136483763D01*
X142338423Y-136305499D01*
X142338421Y-136305497D01*
X142229154Y-136147549D01*
X141356187Y-134575910D01*
X141279834Y-134399679D01*
X141225787Y-134149168D01*
X141221649Y-133892928D01*
X141234981Y-133819753D01*
X141267581Y-133640804D01*
X141361820Y-133402483D01*
X141500738Y-133187130D01*
X141679002Y-133003016D01*
X141679004Y-133003014D01*
X141778312Y-132934314D01*
X141889761Y-132857215D01*
X141991643Y-132813074D01*
X142124914Y-132755333D01*
X142375425Y-132701286D01*
X142631665Y-132697148D01*
X142704840Y-132710480D01*
X142704840Y-132710480D01*
G37*
G36*
X353503015Y-132686973D02*
G01*
X353606879Y-132718479D01*
X353634055Y-132733005D01*
X353702600Y-132769643D01*
X353786501Y-132838499D01*
X353855357Y-132922400D01*
X353867646Y-132945392D01*
X353906521Y-133018121D01*
X353938027Y-133121985D01*
X353946000Y-133202933D01*
X353946000Y-134357067D01*
X353938027Y-134438015D01*
X353906521Y-134541879D01*
X353906519Y-134541882D01*
X353857717Y-134633184D01*
X353855356Y-134637600D01*
X353786501Y-134721501D01*
X353765982Y-134738340D01*
X353702599Y-134790357D01*
X353677834Y-134803594D01*
X353606878Y-134841521D01*
X353503014Y-134873027D01*
X353395000Y-134883666D01*
X353286985Y-134873027D01*
X353183121Y-134841521D01*
X353097734Y-134795880D01*
X353087401Y-134790357D01*
X353024018Y-134738340D01*
X353003499Y-134721501D01*
X352934644Y-134637600D01*
X352932284Y-134633184D01*
X352901669Y-134575908D01*
X352883479Y-134541878D01*
X352851973Y-134438014D01*
X352844000Y-134357066D01*
X352844001Y-133202933D01*
X352851974Y-133121985D01*
X352883480Y-133018121D01*
X352922355Y-132945392D01*
X352934644Y-132922400D01*
X353003500Y-132838499D01*
X353087401Y-132769643D01*
X353155946Y-132733005D01*
X353183122Y-132718479D01*
X353286986Y-132686973D01*
X353395000Y-132676334D01*
X353503015Y-132686973D01*
X353503015Y-132686973D01*
G37*
G36*
X344863015Y-132686973D02*
G01*
X344966879Y-132718479D01*
X344994055Y-132733005D01*
X345062600Y-132769643D01*
X345146501Y-132838499D01*
X345215357Y-132922400D01*
X345227646Y-132945392D01*
X345266521Y-133018121D01*
X345298027Y-133121985D01*
X345306000Y-133202933D01*
X345306000Y-134357067D01*
X345298027Y-134438015D01*
X345266521Y-134541879D01*
X345266519Y-134541882D01*
X345217717Y-134633184D01*
X345215356Y-134637600D01*
X345146501Y-134721501D01*
X345125982Y-134738340D01*
X345062599Y-134790357D01*
X345037834Y-134803594D01*
X344966878Y-134841521D01*
X344863014Y-134873027D01*
X344755000Y-134883666D01*
X344646985Y-134873027D01*
X344543121Y-134841521D01*
X344457734Y-134795880D01*
X344447401Y-134790357D01*
X344384018Y-134738340D01*
X344363499Y-134721501D01*
X344294644Y-134637600D01*
X344292284Y-134633184D01*
X344261669Y-134575908D01*
X344243479Y-134541878D01*
X344211973Y-134438014D01*
X344204000Y-134357066D01*
X344204001Y-133202933D01*
X344211974Y-133121985D01*
X344243480Y-133018121D01*
X344282355Y-132945392D01*
X344294644Y-132922400D01*
X344363500Y-132838499D01*
X344447401Y-132769643D01*
X344515946Y-132733005D01*
X344543122Y-132718479D01*
X344646986Y-132686973D01*
X344755000Y-132676334D01*
X344863015Y-132686973D01*
X344863015Y-132686973D01*
G37*
G36*
X241927521Y-131624120D02*
G01*
X242177247Y-131681660D01*
X242177251Y-131681661D01*
X242410958Y-131786816D01*
X242463398Y-131824187D01*
X242619660Y-131935544D01*
X242738050Y-132061288D01*
X242795335Y-132122131D01*
X242931235Y-132339405D01*
X243022135Y-132579017D01*
X243053916Y-132768429D01*
X243078019Y-133121987D01*
X243102058Y-133474606D01*
X243097933Y-133611550D01*
X243096276Y-133666571D01*
X243038735Y-133916303D01*
X242933580Y-134150010D01*
X242896209Y-134202450D01*
X242784852Y-134358712D01*
X242651297Y-134484456D01*
X242598265Y-134534387D01*
X242380991Y-134670287D01*
X242141379Y-134761187D01*
X241888638Y-134803594D01*
X241888634Y-134803594D01*
X241632479Y-134795880D01*
X241382753Y-134738340D01*
X241382749Y-134738339D01*
X241149042Y-134633184D01*
X241068673Y-134575910D01*
X240940340Y-134484456D01*
X240764665Y-134297869D01*
X240628766Y-134080596D01*
X240628765Y-134080595D01*
X240537865Y-133840983D01*
X240506084Y-133651571D01*
X240486185Y-133359675D01*
X240457942Y-132945392D01*
X240463724Y-132753428D01*
X240521264Y-132503701D01*
X240521265Y-132503697D01*
X240626420Y-132269990D01*
X240663791Y-132217550D01*
X240775148Y-132061288D01*
X240961735Y-131885613D01*
X241179009Y-131749713D01*
X241418621Y-131658813D01*
X241671362Y-131616406D01*
X241671366Y-131616406D01*
X241927521Y-131624120D01*
X241927521Y-131624120D01*
G37*
G36*
X137152521Y-131624120D02*
G01*
X137402247Y-131681660D01*
X137402251Y-131681661D01*
X137635958Y-131786816D01*
X137688398Y-131824187D01*
X137844660Y-131935544D01*
X137963050Y-132061288D01*
X138020335Y-132122131D01*
X138156235Y-132339405D01*
X138247135Y-132579017D01*
X138278916Y-132768429D01*
X138303019Y-133121987D01*
X138327058Y-133474606D01*
X138322933Y-133611550D01*
X138321276Y-133666571D01*
X138263735Y-133916303D01*
X138158580Y-134150010D01*
X138121209Y-134202450D01*
X138009852Y-134358712D01*
X137876297Y-134484456D01*
X137823265Y-134534387D01*
X137605991Y-134670287D01*
X137366379Y-134761187D01*
X137113638Y-134803594D01*
X137113634Y-134803594D01*
X136857479Y-134795880D01*
X136607753Y-134738340D01*
X136607749Y-134738339D01*
X136374042Y-134633184D01*
X136293673Y-134575910D01*
X136165340Y-134484456D01*
X135989665Y-134297869D01*
X135853766Y-134080596D01*
X135853765Y-134080595D01*
X135762865Y-133840983D01*
X135731084Y-133651571D01*
X135711185Y-133359675D01*
X135682942Y-132945392D01*
X135688724Y-132753428D01*
X135746264Y-132503701D01*
X135746265Y-132503697D01*
X135851420Y-132269990D01*
X135888791Y-132217550D01*
X136000148Y-132061288D01*
X136186735Y-131885613D01*
X136404009Y-131749713D01*
X136643621Y-131658813D01*
X136896362Y-131616406D01*
X136896366Y-131616406D01*
X137152521Y-131624120D01*
X137152521Y-131624120D01*
G37*
G36*
X318127521Y-131624120D02*
G01*
X318377247Y-131681660D01*
X318377251Y-131681661D01*
X318610958Y-131786816D01*
X318663398Y-131824187D01*
X318819660Y-131935544D01*
X318938050Y-132061288D01*
X318995335Y-132122131D01*
X319131235Y-132339405D01*
X319222135Y-132579017D01*
X319253916Y-132768429D01*
X319278019Y-133121987D01*
X319302058Y-133474606D01*
X319297933Y-133611550D01*
X319296276Y-133666571D01*
X319238735Y-133916303D01*
X319133580Y-134150010D01*
X319096209Y-134202450D01*
X318984852Y-134358712D01*
X318851297Y-134484456D01*
X318798265Y-134534387D01*
X318580991Y-134670287D01*
X318341379Y-134761187D01*
X318088638Y-134803594D01*
X318088634Y-134803594D01*
X317832479Y-134795880D01*
X317582753Y-134738340D01*
X317582749Y-134738339D01*
X317349042Y-134633184D01*
X317268673Y-134575910D01*
X317140340Y-134484456D01*
X316964665Y-134297869D01*
X316828766Y-134080596D01*
X316828765Y-134080595D01*
X316737865Y-133840983D01*
X316706084Y-133651571D01*
X316686185Y-133359675D01*
X316657942Y-132945392D01*
X316663724Y-132753428D01*
X316721264Y-132503701D01*
X316721265Y-132503697D01*
X316826420Y-132269990D01*
X316863791Y-132217550D01*
X316975148Y-132061288D01*
X317161735Y-131885613D01*
X317379009Y-131749713D01*
X317618621Y-131658813D01*
X317871362Y-131616406D01*
X317871366Y-131616406D01*
X318127521Y-131624120D01*
X318127521Y-131624120D01*
G37*
G36*
X299077521Y-131624120D02*
G01*
X299327247Y-131681660D01*
X299327251Y-131681661D01*
X299560958Y-131786816D01*
X299613398Y-131824187D01*
X299769660Y-131935544D01*
X299888050Y-132061288D01*
X299945335Y-132122131D01*
X300081235Y-132339405D01*
X300172135Y-132579017D01*
X300203916Y-132768429D01*
X300228019Y-133121987D01*
X300252058Y-133474606D01*
X300247933Y-133611550D01*
X300246276Y-133666571D01*
X300188735Y-133916303D01*
X300083580Y-134150010D01*
X300046209Y-134202450D01*
X299934852Y-134358712D01*
X299801297Y-134484456D01*
X299748265Y-134534387D01*
X299530991Y-134670287D01*
X299291379Y-134761187D01*
X299038638Y-134803594D01*
X299038634Y-134803594D01*
X298782479Y-134795880D01*
X298532753Y-134738340D01*
X298532749Y-134738339D01*
X298299042Y-134633184D01*
X298218673Y-134575910D01*
X298090340Y-134484456D01*
X297914665Y-134297869D01*
X297778766Y-134080596D01*
X297778765Y-134080595D01*
X297687865Y-133840983D01*
X297656084Y-133651571D01*
X297636185Y-133359675D01*
X297607942Y-132945392D01*
X297613724Y-132753428D01*
X297671264Y-132503701D01*
X297671265Y-132503697D01*
X297776420Y-132269990D01*
X297813791Y-132217550D01*
X297925148Y-132061288D01*
X298111735Y-131885613D01*
X298329009Y-131749713D01*
X298568621Y-131658813D01*
X298821362Y-131616406D01*
X298821366Y-131616406D01*
X299077521Y-131624120D01*
X299077521Y-131624120D01*
G37*
G36*
X280027521Y-131624120D02*
G01*
X280277247Y-131681660D01*
X280277251Y-131681661D01*
X280510958Y-131786816D01*
X280563398Y-131824187D01*
X280719660Y-131935544D01*
X280838050Y-132061288D01*
X280895335Y-132122131D01*
X281031235Y-132339405D01*
X281122135Y-132579017D01*
X281153916Y-132768429D01*
X281178019Y-133121987D01*
X281202058Y-133474606D01*
X281197933Y-133611550D01*
X281196276Y-133666571D01*
X281138735Y-133916303D01*
X281033580Y-134150010D01*
X280996209Y-134202450D01*
X280884852Y-134358712D01*
X280751297Y-134484456D01*
X280698265Y-134534387D01*
X280480991Y-134670287D01*
X280241379Y-134761187D01*
X279988638Y-134803594D01*
X279988634Y-134803594D01*
X279732479Y-134795880D01*
X279482753Y-134738340D01*
X279482749Y-134738339D01*
X279249042Y-134633184D01*
X279168673Y-134575910D01*
X279040340Y-134484456D01*
X278864665Y-134297869D01*
X278728766Y-134080596D01*
X278728765Y-134080595D01*
X278637865Y-133840983D01*
X278606084Y-133651571D01*
X278586185Y-133359675D01*
X278557942Y-132945392D01*
X278563724Y-132753428D01*
X278621264Y-132503701D01*
X278621265Y-132503697D01*
X278726420Y-132269990D01*
X278763791Y-132217550D01*
X278875148Y-132061288D01*
X279061735Y-131885613D01*
X279279009Y-131749713D01*
X279518621Y-131658813D01*
X279771362Y-131616406D01*
X279771366Y-131616406D01*
X280027521Y-131624120D01*
X280027521Y-131624120D01*
G37*
G36*
X260977521Y-131624120D02*
G01*
X261227247Y-131681660D01*
X261227251Y-131681661D01*
X261460958Y-131786816D01*
X261513398Y-131824187D01*
X261669660Y-131935544D01*
X261788050Y-132061288D01*
X261845335Y-132122131D01*
X261981235Y-132339405D01*
X262072135Y-132579017D01*
X262103916Y-132768429D01*
X262128019Y-133121987D01*
X262152058Y-133474606D01*
X262147933Y-133611550D01*
X262146276Y-133666571D01*
X262088735Y-133916303D01*
X261983580Y-134150010D01*
X261946209Y-134202450D01*
X261834852Y-134358712D01*
X261701297Y-134484456D01*
X261648265Y-134534387D01*
X261430991Y-134670287D01*
X261191379Y-134761187D01*
X260938638Y-134803594D01*
X260938634Y-134803594D01*
X260682479Y-134795880D01*
X260432753Y-134738340D01*
X260432749Y-134738339D01*
X260199042Y-134633184D01*
X260118673Y-134575910D01*
X259990340Y-134484456D01*
X259814665Y-134297869D01*
X259678766Y-134080596D01*
X259678765Y-134080595D01*
X259587865Y-133840983D01*
X259556084Y-133651571D01*
X259536185Y-133359675D01*
X259507942Y-132945392D01*
X259513724Y-132753428D01*
X259571264Y-132503701D01*
X259571265Y-132503697D01*
X259676420Y-132269990D01*
X259713791Y-132217550D01*
X259825148Y-132061288D01*
X260011735Y-131885613D01*
X260229009Y-131749713D01*
X260468621Y-131658813D01*
X260721362Y-131616406D01*
X260721366Y-131616406D01*
X260977521Y-131624120D01*
X260977521Y-131624120D01*
G37*
G36*
X146677521Y-131624120D02*
G01*
X146927247Y-131681660D01*
X146927251Y-131681661D01*
X147160958Y-131786816D01*
X147213398Y-131824187D01*
X147369660Y-131935544D01*
X147488050Y-132061288D01*
X147545335Y-132122131D01*
X147681235Y-132339405D01*
X147772135Y-132579017D01*
X147803916Y-132768429D01*
X147828019Y-133121987D01*
X147852058Y-133474606D01*
X147847933Y-133611550D01*
X147846276Y-133666571D01*
X147788735Y-133916303D01*
X147683580Y-134150010D01*
X147646209Y-134202450D01*
X147534852Y-134358712D01*
X147401297Y-134484456D01*
X147348265Y-134534387D01*
X147130991Y-134670287D01*
X146891379Y-134761187D01*
X146638638Y-134803594D01*
X146638634Y-134803594D01*
X146382479Y-134795880D01*
X146132753Y-134738340D01*
X146132749Y-134738339D01*
X145899042Y-134633184D01*
X145818673Y-134575910D01*
X145690340Y-134484456D01*
X145514665Y-134297869D01*
X145378766Y-134080596D01*
X145378765Y-134080595D01*
X145287865Y-133840983D01*
X145256084Y-133651571D01*
X145236185Y-133359675D01*
X145207942Y-132945392D01*
X145213724Y-132753428D01*
X145271264Y-132503701D01*
X145271265Y-132503697D01*
X145376420Y-132269990D01*
X145413791Y-132217550D01*
X145525148Y-132061288D01*
X145711735Y-131885613D01*
X145929009Y-131749713D01*
X146168621Y-131658813D01*
X146421362Y-131616406D01*
X146421366Y-131616406D01*
X146677521Y-131624120D01*
X146677521Y-131624120D01*
G37*
G36*
X222877521Y-131624120D02*
G01*
X223127247Y-131681660D01*
X223127251Y-131681661D01*
X223360958Y-131786816D01*
X223413398Y-131824187D01*
X223569660Y-131935544D01*
X223688050Y-132061288D01*
X223745335Y-132122131D01*
X223881235Y-132339405D01*
X223972135Y-132579017D01*
X224003916Y-132768429D01*
X224028019Y-133121987D01*
X224052058Y-133474606D01*
X224047933Y-133611550D01*
X224046276Y-133666571D01*
X223988735Y-133916303D01*
X223883580Y-134150010D01*
X223846209Y-134202450D01*
X223734852Y-134358712D01*
X223601297Y-134484456D01*
X223548265Y-134534387D01*
X223330991Y-134670287D01*
X223091379Y-134761187D01*
X222838638Y-134803594D01*
X222838634Y-134803594D01*
X222582479Y-134795880D01*
X222332753Y-134738340D01*
X222332749Y-134738339D01*
X222099042Y-134633184D01*
X222018673Y-134575910D01*
X221890340Y-134484456D01*
X221714665Y-134297869D01*
X221578766Y-134080596D01*
X221578765Y-134080595D01*
X221487865Y-133840983D01*
X221456084Y-133651571D01*
X221436185Y-133359675D01*
X221407942Y-132945392D01*
X221413724Y-132753428D01*
X221471264Y-132503701D01*
X221471265Y-132503697D01*
X221576420Y-132269990D01*
X221613791Y-132217550D01*
X221725148Y-132061288D01*
X221911735Y-131885613D01*
X222129009Y-131749713D01*
X222368621Y-131658813D01*
X222621362Y-131616406D01*
X222621366Y-131616406D01*
X222877521Y-131624120D01*
X222877521Y-131624120D01*
G37*
G36*
X165727521Y-131624120D02*
G01*
X165977247Y-131681660D01*
X165977251Y-131681661D01*
X166210958Y-131786816D01*
X166263398Y-131824187D01*
X166419660Y-131935544D01*
X166538050Y-132061288D01*
X166595335Y-132122131D01*
X166731235Y-132339405D01*
X166822135Y-132579017D01*
X166853916Y-132768429D01*
X166878019Y-133121987D01*
X166902058Y-133474606D01*
X166897933Y-133611550D01*
X166896276Y-133666571D01*
X166838735Y-133916303D01*
X166733580Y-134150010D01*
X166696209Y-134202450D01*
X166584852Y-134358712D01*
X166451297Y-134484456D01*
X166398265Y-134534387D01*
X166180991Y-134670287D01*
X165941379Y-134761187D01*
X165688638Y-134803594D01*
X165688634Y-134803594D01*
X165432479Y-134795880D01*
X165182753Y-134738340D01*
X165182749Y-134738339D01*
X164949042Y-134633184D01*
X164868673Y-134575910D01*
X164740340Y-134484456D01*
X164564665Y-134297869D01*
X164428766Y-134080596D01*
X164428765Y-134080595D01*
X164337865Y-133840983D01*
X164306084Y-133651571D01*
X164286185Y-133359675D01*
X164257942Y-132945392D01*
X164263724Y-132753428D01*
X164321264Y-132503701D01*
X164321265Y-132503697D01*
X164426420Y-132269990D01*
X164463791Y-132217550D01*
X164575148Y-132061288D01*
X164761735Y-131885613D01*
X164979009Y-131749713D01*
X165218621Y-131658813D01*
X165471362Y-131616406D01*
X165471366Y-131616406D01*
X165727521Y-131624120D01*
X165727521Y-131624120D01*
G37*
G36*
X203827521Y-131624120D02*
G01*
X204077247Y-131681660D01*
X204077251Y-131681661D01*
X204310958Y-131786816D01*
X204363398Y-131824187D01*
X204519660Y-131935544D01*
X204638050Y-132061288D01*
X204695335Y-132122131D01*
X204831235Y-132339405D01*
X204922135Y-132579017D01*
X204953916Y-132768429D01*
X204978019Y-133121987D01*
X205002058Y-133474606D01*
X204997933Y-133611550D01*
X204996276Y-133666571D01*
X204938735Y-133916303D01*
X204833580Y-134150010D01*
X204796209Y-134202450D01*
X204684852Y-134358712D01*
X204551297Y-134484456D01*
X204498265Y-134534387D01*
X204280991Y-134670287D01*
X204041379Y-134761187D01*
X203788638Y-134803594D01*
X203788634Y-134803594D01*
X203532479Y-134795880D01*
X203282753Y-134738340D01*
X203282749Y-134738339D01*
X203049042Y-134633184D01*
X202968673Y-134575910D01*
X202840340Y-134484456D01*
X202664665Y-134297869D01*
X202528766Y-134080596D01*
X202528765Y-134080595D01*
X202437865Y-133840983D01*
X202406084Y-133651571D01*
X202386185Y-133359675D01*
X202357942Y-132945392D01*
X202363724Y-132753428D01*
X202421264Y-132503701D01*
X202421265Y-132503697D01*
X202526420Y-132269990D01*
X202563791Y-132217550D01*
X202675148Y-132061288D01*
X202861735Y-131885613D01*
X203079009Y-131749713D01*
X203318621Y-131658813D01*
X203571362Y-131616406D01*
X203571366Y-131616406D01*
X203827521Y-131624120D01*
X203827521Y-131624120D01*
G37*
G36*
X184777521Y-131624120D02*
G01*
X185027247Y-131681660D01*
X185027251Y-131681661D01*
X185260958Y-131786816D01*
X185313398Y-131824187D01*
X185469660Y-131935544D01*
X185588050Y-132061288D01*
X185645335Y-132122131D01*
X185781235Y-132339405D01*
X185872135Y-132579017D01*
X185903916Y-132768429D01*
X185928019Y-133121987D01*
X185952058Y-133474606D01*
X185947933Y-133611550D01*
X185946276Y-133666571D01*
X185888735Y-133916303D01*
X185783580Y-134150010D01*
X185746209Y-134202450D01*
X185634852Y-134358712D01*
X185501297Y-134484456D01*
X185448265Y-134534387D01*
X185230991Y-134670287D01*
X184991379Y-134761187D01*
X184738638Y-134803594D01*
X184738634Y-134803594D01*
X184482479Y-134795880D01*
X184232753Y-134738340D01*
X184232749Y-134738339D01*
X183999042Y-134633184D01*
X183918673Y-134575910D01*
X183790340Y-134484456D01*
X183614665Y-134297869D01*
X183478766Y-134080596D01*
X183478765Y-134080595D01*
X183387865Y-133840983D01*
X183356084Y-133651571D01*
X183336185Y-133359675D01*
X183307942Y-132945392D01*
X183313724Y-132753428D01*
X183371264Y-132503701D01*
X183371265Y-132503697D01*
X183476420Y-132269990D01*
X183513791Y-132217550D01*
X183625148Y-132061288D01*
X183811735Y-131885613D01*
X184029009Y-131749713D01*
X184268621Y-131658813D01*
X184521362Y-131616406D01*
X184521366Y-131616406D01*
X184777521Y-131624120D01*
X184777521Y-131624120D01*
G37*
G36*
X346294672Y-132888449D02*
G01*
X346294674Y-132888450D01*
X346294675Y-132888450D01*
X346363103Y-132916793D01*
X346424686Y-132957942D01*
X346477058Y-133010314D01*
X346518207Y-133071897D01*
X346538954Y-133121987D01*
X346546551Y-133140328D01*
X346559004Y-133202933D01*
X346561000Y-133212967D01*
X346561000Y-133287033D01*
X346546550Y-133359675D01*
X346518207Y-133428103D01*
X346477058Y-133489686D01*
X346424686Y-133542058D01*
X346363103Y-133583207D01*
X346294675Y-133611550D01*
X346294674Y-133611550D01*
X346294672Y-133611551D01*
X346222034Y-133626000D01*
X346147966Y-133626000D01*
X346075328Y-133611551D01*
X346075326Y-133611550D01*
X346075325Y-133611550D01*
X346006897Y-133583207D01*
X345945314Y-133542058D01*
X345892942Y-133489686D01*
X345851793Y-133428103D01*
X345823450Y-133359675D01*
X345809000Y-133287033D01*
X345809000Y-133212967D01*
X345810996Y-133202933D01*
X345823449Y-133140328D01*
X345831046Y-133121987D01*
X345851793Y-133071897D01*
X345892942Y-133010314D01*
X345945314Y-132957942D01*
X346006897Y-132916793D01*
X346075325Y-132888450D01*
X346075326Y-132888450D01*
X346075328Y-132888449D01*
X346147966Y-132874000D01*
X346222034Y-132874000D01*
X346294672Y-132888449D01*
X346294672Y-132888449D01*
G37*
G36*
X352074672Y-132888449D02*
G01*
X352074674Y-132888450D01*
X352074675Y-132888450D01*
X352143103Y-132916793D01*
X352204686Y-132957942D01*
X352257058Y-133010314D01*
X352298207Y-133071897D01*
X352318954Y-133121987D01*
X352326551Y-133140328D01*
X352339004Y-133202933D01*
X352341000Y-133212967D01*
X352341000Y-133287033D01*
X352326550Y-133359675D01*
X352298207Y-133428103D01*
X352257058Y-133489686D01*
X352204686Y-133542058D01*
X352143103Y-133583207D01*
X352074675Y-133611550D01*
X352074674Y-133611550D01*
X352074672Y-133611551D01*
X352002034Y-133626000D01*
X351927966Y-133626000D01*
X351855328Y-133611551D01*
X351855326Y-133611550D01*
X351855325Y-133611550D01*
X351786897Y-133583207D01*
X351725314Y-133542058D01*
X351672942Y-133489686D01*
X351631793Y-133428103D01*
X351603450Y-133359675D01*
X351589000Y-133287033D01*
X351589000Y-133212967D01*
X351590996Y-133202933D01*
X351603449Y-133140328D01*
X351611046Y-133121987D01*
X351631793Y-133071897D01*
X351672942Y-133010314D01*
X351725314Y-132957942D01*
X351786897Y-132916793D01*
X351855325Y-132888450D01*
X351855326Y-132888450D01*
X351855328Y-132888449D01*
X351927966Y-132874000D01*
X352002034Y-132874000D01*
X352074672Y-132888449D01*
X352074672Y-132888449D01*
G37*
G36*
X344863015Y-128756973D02*
G01*
X344966879Y-128788479D01*
X344994055Y-128803005D01*
X345062600Y-128839643D01*
X345146501Y-128908499D01*
X345215357Y-128992400D01*
X345251995Y-129060945D01*
X345266521Y-129088121D01*
X345298027Y-129191985D01*
X345306000Y-129272933D01*
X345306000Y-129927067D01*
X345298027Y-130008015D01*
X345266521Y-130111879D01*
X345215356Y-130207600D01*
X345146501Y-130291501D01*
X345077645Y-130348009D01*
X345062599Y-130360357D01*
X345010907Y-130387987D01*
X344966878Y-130411521D01*
X344863014Y-130443027D01*
X344755000Y-130453666D01*
X344646985Y-130443027D01*
X344543121Y-130411521D01*
X344499093Y-130387987D01*
X344447401Y-130360357D01*
X344434643Y-130349887D01*
X344363499Y-130291501D01*
X344294644Y-130207600D01*
X344243479Y-130111878D01*
X344211973Y-130008014D01*
X344204000Y-129927066D01*
X344204000Y-129272933D01*
X344211973Y-129191985D01*
X344243480Y-129088121D01*
X344243482Y-129088118D01*
X344294645Y-128992399D01*
X344363500Y-128908499D01*
X344447401Y-128839643D01*
X344515946Y-128803005D01*
X344543122Y-128788479D01*
X344646986Y-128756973D01*
X344755000Y-128746334D01*
X344863015Y-128756973D01*
X344863015Y-128756973D01*
G37*
G36*
X353503015Y-128756973D02*
G01*
X353606879Y-128788479D01*
X353634055Y-128803005D01*
X353702600Y-128839643D01*
X353786501Y-128908499D01*
X353855357Y-128992400D01*
X353891995Y-129060945D01*
X353906521Y-129088121D01*
X353938027Y-129191985D01*
X353946000Y-129272933D01*
X353946000Y-129927067D01*
X353938027Y-130008015D01*
X353906521Y-130111879D01*
X353855356Y-130207600D01*
X353786501Y-130291501D01*
X353717645Y-130348009D01*
X353702599Y-130360357D01*
X353650907Y-130387987D01*
X353606878Y-130411521D01*
X353503014Y-130443027D01*
X353395000Y-130453666D01*
X353286985Y-130443027D01*
X353183121Y-130411521D01*
X353139093Y-130387987D01*
X353087401Y-130360357D01*
X353074643Y-130349887D01*
X353003499Y-130291501D01*
X352934644Y-130207600D01*
X352883479Y-130111878D01*
X352851973Y-130008014D01*
X352844000Y-129927066D01*
X352844000Y-129272933D01*
X352851973Y-129191985D01*
X352883480Y-129088121D01*
X352883482Y-129088118D01*
X352934645Y-128992399D01*
X353003500Y-128908499D01*
X353087401Y-128839643D01*
X353155946Y-128803005D01*
X353183122Y-128788479D01*
X353286986Y-128756973D01*
X353395000Y-128746334D01*
X353503015Y-128756973D01*
X353503015Y-128756973D01*
G37*
M02*
