G04 #@! TF.GenerationSoftware,KiCad,Pcbnew,(5.1.5)-3*
G04 #@! TF.CreationDate,2020-04-01T20:02:44+02:00*
G04 #@! TF.ProjectId,plate,706c6174-652e-46b6-9963-61645f706362,rev?*
G04 #@! TF.SameCoordinates,Original*
G04 #@! TF.FileFunction,Copper,L2,Bot*
G04 #@! TF.FilePolarity,Positive*
%FSLAX46Y46*%
G04 Gerber Fmt 4.6, Leading zero omitted, Abs format (unit mm)*
G04 Created by KiCad (PCBNEW (5.1.5)-3) date 2020-04-01 20:02:44*
%MOMM*%
%LPD*%
G04 APERTURE LIST*
%ADD10C,4.000000*%
%ADD11C,0.254000*%
G04 APERTURE END LIST*
D10*
X245872000Y-208620500D03*
X245872000Y-124500500D03*
X372069500Y-124500500D03*
X372069500Y-208620500D03*
X116563000Y-208620500D03*
X116563000Y-124500500D03*
D11*
G36*
X373909378Y-121283990D02*
G01*
X374236310Y-121382696D01*
X374537843Y-121543025D01*
X374802495Y-121758870D01*
X375020178Y-122022003D01*
X375182608Y-122322411D01*
X375283596Y-122648650D01*
X375322500Y-123018800D01*
X375322501Y-210088211D01*
X375286010Y-210460377D01*
X375187303Y-210787312D01*
X375026976Y-211088843D01*
X374811132Y-211353493D01*
X374547996Y-211571179D01*
X374247589Y-211733608D01*
X373921350Y-211834596D01*
X373551200Y-211873500D01*
X115031779Y-211873500D01*
X114659623Y-211837010D01*
X114332688Y-211738303D01*
X114031157Y-211577976D01*
X113766507Y-211362132D01*
X113548821Y-211098996D01*
X113386392Y-210798589D01*
X113285404Y-210472350D01*
X113246500Y-210102200D01*
X113246500Y-208360975D01*
X113928000Y-208360975D01*
X113928000Y-208880025D01*
X114029261Y-209389101D01*
X114227893Y-209868641D01*
X114516262Y-210300215D01*
X114883285Y-210667238D01*
X115314859Y-210955607D01*
X115794399Y-211154239D01*
X116303475Y-211255500D01*
X116822525Y-211255500D01*
X117331601Y-211154239D01*
X117811141Y-210955607D01*
X118242715Y-210667238D01*
X118609738Y-210300215D01*
X118898107Y-209868641D01*
X119096739Y-209389101D01*
X119198000Y-208880025D01*
X119198000Y-208360975D01*
X243237000Y-208360975D01*
X243237000Y-208880025D01*
X243338261Y-209389101D01*
X243536893Y-209868641D01*
X243825262Y-210300215D01*
X244192285Y-210667238D01*
X244623859Y-210955607D01*
X245103399Y-211154239D01*
X245612475Y-211255500D01*
X246131525Y-211255500D01*
X246640601Y-211154239D01*
X247120141Y-210955607D01*
X247551715Y-210667238D01*
X247918738Y-210300215D01*
X248207107Y-209868641D01*
X248405739Y-209389101D01*
X248507000Y-208880025D01*
X248507000Y-208360975D01*
X369434500Y-208360975D01*
X369434500Y-208880025D01*
X369535761Y-209389101D01*
X369734393Y-209868641D01*
X370022762Y-210300215D01*
X370389785Y-210667238D01*
X370821359Y-210955607D01*
X371300899Y-211154239D01*
X371809975Y-211255500D01*
X372329025Y-211255500D01*
X372838101Y-211154239D01*
X373317641Y-210955607D01*
X373749215Y-210667238D01*
X374116238Y-210300215D01*
X374404607Y-209868641D01*
X374603239Y-209389101D01*
X374704500Y-208880025D01*
X374704500Y-208360975D01*
X374603239Y-207851899D01*
X374404607Y-207372359D01*
X374116238Y-206940785D01*
X373749215Y-206573762D01*
X373317641Y-206285393D01*
X372838101Y-206086761D01*
X372329025Y-205985500D01*
X371809975Y-205985500D01*
X371300899Y-206086761D01*
X370821359Y-206285393D01*
X370389785Y-206573762D01*
X370022762Y-206940785D01*
X369734393Y-207372359D01*
X369535761Y-207851899D01*
X369434500Y-208360975D01*
X248507000Y-208360975D01*
X248405739Y-207851899D01*
X248207107Y-207372359D01*
X247918738Y-206940785D01*
X247551715Y-206573762D01*
X247120141Y-206285393D01*
X246640601Y-206086761D01*
X246131525Y-205985500D01*
X245612475Y-205985500D01*
X245103399Y-206086761D01*
X244623859Y-206285393D01*
X244192285Y-206573762D01*
X243825262Y-206940785D01*
X243536893Y-207372359D01*
X243338261Y-207851899D01*
X243237000Y-208360975D01*
X119198000Y-208360975D01*
X119096739Y-207851899D01*
X118898107Y-207372359D01*
X118609738Y-206940785D01*
X118242715Y-206573762D01*
X117811141Y-206285393D01*
X117331601Y-206086761D01*
X116822525Y-205985500D01*
X116303475Y-205985500D01*
X115794399Y-206086761D01*
X115314859Y-206285393D01*
X114883285Y-206573762D01*
X114516262Y-206940785D01*
X114227893Y-207372359D01*
X114029261Y-207851899D01*
X113928000Y-208360975D01*
X113246500Y-208360975D01*
X113246500Y-124240975D01*
X113928000Y-124240975D01*
X113928000Y-124760025D01*
X114029261Y-125269101D01*
X114227893Y-125748641D01*
X114516262Y-126180215D01*
X114883285Y-126547238D01*
X115314859Y-126835607D01*
X115794399Y-127034239D01*
X116303475Y-127135500D01*
X116822525Y-127135500D01*
X117331601Y-127034239D01*
X117811141Y-126835607D01*
X118242715Y-126547238D01*
X118609738Y-126180215D01*
X118898107Y-125748641D01*
X119096739Y-125269101D01*
X119198000Y-124760025D01*
X119198000Y-124240975D01*
X243237000Y-124240975D01*
X243237000Y-124760025D01*
X243338261Y-125269101D01*
X243536893Y-125748641D01*
X243825262Y-126180215D01*
X244192285Y-126547238D01*
X244623859Y-126835607D01*
X245103399Y-127034239D01*
X245612475Y-127135500D01*
X246131525Y-127135500D01*
X246640601Y-127034239D01*
X247120141Y-126835607D01*
X247551715Y-126547238D01*
X247918738Y-126180215D01*
X248207107Y-125748641D01*
X248405739Y-125269101D01*
X248507000Y-124760025D01*
X248507000Y-124240975D01*
X369434500Y-124240975D01*
X369434500Y-124760025D01*
X369535761Y-125269101D01*
X369734393Y-125748641D01*
X370022762Y-126180215D01*
X370389785Y-126547238D01*
X370821359Y-126835607D01*
X371300899Y-127034239D01*
X371809975Y-127135500D01*
X372329025Y-127135500D01*
X372838101Y-127034239D01*
X373317641Y-126835607D01*
X373749215Y-126547238D01*
X374116238Y-126180215D01*
X374404607Y-125748641D01*
X374603239Y-125269101D01*
X374704500Y-124760025D01*
X374704500Y-124240975D01*
X374603239Y-123731899D01*
X374404607Y-123252359D01*
X374116238Y-122820785D01*
X373749215Y-122453762D01*
X373317641Y-122165393D01*
X372838101Y-121966761D01*
X372329025Y-121865500D01*
X371809975Y-121865500D01*
X371300899Y-121966761D01*
X370821359Y-122165393D01*
X370389785Y-122453762D01*
X370022762Y-122820785D01*
X369734393Y-123252359D01*
X369535761Y-123731899D01*
X369434500Y-124240975D01*
X248507000Y-124240975D01*
X248405739Y-123731899D01*
X248207107Y-123252359D01*
X247918738Y-122820785D01*
X247551715Y-122453762D01*
X247120141Y-122165393D01*
X246640601Y-121966761D01*
X246131525Y-121865500D01*
X245612475Y-121865500D01*
X245103399Y-121966761D01*
X244623859Y-122165393D01*
X244192285Y-122453762D01*
X243825262Y-122820785D01*
X243536893Y-123252359D01*
X243338261Y-123731899D01*
X243237000Y-124240975D01*
X119198000Y-124240975D01*
X119096739Y-123731899D01*
X118898107Y-123252359D01*
X118609738Y-122820785D01*
X118242715Y-122453762D01*
X117811141Y-122165393D01*
X117331601Y-121966761D01*
X116822525Y-121865500D01*
X116303475Y-121865500D01*
X115794399Y-121966761D01*
X115314859Y-122165393D01*
X114883285Y-122453762D01*
X114516262Y-122820785D01*
X114227893Y-123252359D01*
X114029261Y-123731899D01*
X113928000Y-124240975D01*
X113246500Y-124240975D01*
X113246500Y-123087977D01*
X113283401Y-122711631D01*
X113385736Y-122372681D01*
X113551955Y-122060068D01*
X113775735Y-121785687D01*
X114048540Y-121560004D01*
X114359988Y-121391604D01*
X114701185Y-121285986D01*
X115037174Y-121247500D01*
X373537222Y-121247500D01*
X373909378Y-121283990D01*
G37*
X373909378Y-121283990D02*
X374236310Y-121382696D01*
X374537843Y-121543025D01*
X374802495Y-121758870D01*
X375020178Y-122022003D01*
X375182608Y-122322411D01*
X375283596Y-122648650D01*
X375322500Y-123018800D01*
X375322501Y-210088211D01*
X375286010Y-210460377D01*
X375187303Y-210787312D01*
X375026976Y-211088843D01*
X374811132Y-211353493D01*
X374547996Y-211571179D01*
X374247589Y-211733608D01*
X373921350Y-211834596D01*
X373551200Y-211873500D01*
X115031779Y-211873500D01*
X114659623Y-211837010D01*
X114332688Y-211738303D01*
X114031157Y-211577976D01*
X113766507Y-211362132D01*
X113548821Y-211098996D01*
X113386392Y-210798589D01*
X113285404Y-210472350D01*
X113246500Y-210102200D01*
X113246500Y-208360975D01*
X113928000Y-208360975D01*
X113928000Y-208880025D01*
X114029261Y-209389101D01*
X114227893Y-209868641D01*
X114516262Y-210300215D01*
X114883285Y-210667238D01*
X115314859Y-210955607D01*
X115794399Y-211154239D01*
X116303475Y-211255500D01*
X116822525Y-211255500D01*
X117331601Y-211154239D01*
X117811141Y-210955607D01*
X118242715Y-210667238D01*
X118609738Y-210300215D01*
X118898107Y-209868641D01*
X119096739Y-209389101D01*
X119198000Y-208880025D01*
X119198000Y-208360975D01*
X243237000Y-208360975D01*
X243237000Y-208880025D01*
X243338261Y-209389101D01*
X243536893Y-209868641D01*
X243825262Y-210300215D01*
X244192285Y-210667238D01*
X244623859Y-210955607D01*
X245103399Y-211154239D01*
X245612475Y-211255500D01*
X246131525Y-211255500D01*
X246640601Y-211154239D01*
X247120141Y-210955607D01*
X247551715Y-210667238D01*
X247918738Y-210300215D01*
X248207107Y-209868641D01*
X248405739Y-209389101D01*
X248507000Y-208880025D01*
X248507000Y-208360975D01*
X369434500Y-208360975D01*
X369434500Y-208880025D01*
X369535761Y-209389101D01*
X369734393Y-209868641D01*
X370022762Y-210300215D01*
X370389785Y-210667238D01*
X370821359Y-210955607D01*
X371300899Y-211154239D01*
X371809975Y-211255500D01*
X372329025Y-211255500D01*
X372838101Y-211154239D01*
X373317641Y-210955607D01*
X373749215Y-210667238D01*
X374116238Y-210300215D01*
X374404607Y-209868641D01*
X374603239Y-209389101D01*
X374704500Y-208880025D01*
X374704500Y-208360975D01*
X374603239Y-207851899D01*
X374404607Y-207372359D01*
X374116238Y-206940785D01*
X373749215Y-206573762D01*
X373317641Y-206285393D01*
X372838101Y-206086761D01*
X372329025Y-205985500D01*
X371809975Y-205985500D01*
X371300899Y-206086761D01*
X370821359Y-206285393D01*
X370389785Y-206573762D01*
X370022762Y-206940785D01*
X369734393Y-207372359D01*
X369535761Y-207851899D01*
X369434500Y-208360975D01*
X248507000Y-208360975D01*
X248405739Y-207851899D01*
X248207107Y-207372359D01*
X247918738Y-206940785D01*
X247551715Y-206573762D01*
X247120141Y-206285393D01*
X246640601Y-206086761D01*
X246131525Y-205985500D01*
X245612475Y-205985500D01*
X245103399Y-206086761D01*
X244623859Y-206285393D01*
X244192285Y-206573762D01*
X243825262Y-206940785D01*
X243536893Y-207372359D01*
X243338261Y-207851899D01*
X243237000Y-208360975D01*
X119198000Y-208360975D01*
X119096739Y-207851899D01*
X118898107Y-207372359D01*
X118609738Y-206940785D01*
X118242715Y-206573762D01*
X117811141Y-206285393D01*
X117331601Y-206086761D01*
X116822525Y-205985500D01*
X116303475Y-205985500D01*
X115794399Y-206086761D01*
X115314859Y-206285393D01*
X114883285Y-206573762D01*
X114516262Y-206940785D01*
X114227893Y-207372359D01*
X114029261Y-207851899D01*
X113928000Y-208360975D01*
X113246500Y-208360975D01*
X113246500Y-124240975D01*
X113928000Y-124240975D01*
X113928000Y-124760025D01*
X114029261Y-125269101D01*
X114227893Y-125748641D01*
X114516262Y-126180215D01*
X114883285Y-126547238D01*
X115314859Y-126835607D01*
X115794399Y-127034239D01*
X116303475Y-127135500D01*
X116822525Y-127135500D01*
X117331601Y-127034239D01*
X117811141Y-126835607D01*
X118242715Y-126547238D01*
X118609738Y-126180215D01*
X118898107Y-125748641D01*
X119096739Y-125269101D01*
X119198000Y-124760025D01*
X119198000Y-124240975D01*
X243237000Y-124240975D01*
X243237000Y-124760025D01*
X243338261Y-125269101D01*
X243536893Y-125748641D01*
X243825262Y-126180215D01*
X244192285Y-126547238D01*
X244623859Y-126835607D01*
X245103399Y-127034239D01*
X245612475Y-127135500D01*
X246131525Y-127135500D01*
X246640601Y-127034239D01*
X247120141Y-126835607D01*
X247551715Y-126547238D01*
X247918738Y-126180215D01*
X248207107Y-125748641D01*
X248405739Y-125269101D01*
X248507000Y-124760025D01*
X248507000Y-124240975D01*
X369434500Y-124240975D01*
X369434500Y-124760025D01*
X369535761Y-125269101D01*
X369734393Y-125748641D01*
X370022762Y-126180215D01*
X370389785Y-126547238D01*
X370821359Y-126835607D01*
X371300899Y-127034239D01*
X371809975Y-127135500D01*
X372329025Y-127135500D01*
X372838101Y-127034239D01*
X373317641Y-126835607D01*
X373749215Y-126547238D01*
X374116238Y-126180215D01*
X374404607Y-125748641D01*
X374603239Y-125269101D01*
X374704500Y-124760025D01*
X374704500Y-124240975D01*
X374603239Y-123731899D01*
X374404607Y-123252359D01*
X374116238Y-122820785D01*
X373749215Y-122453762D01*
X373317641Y-122165393D01*
X372838101Y-121966761D01*
X372329025Y-121865500D01*
X371809975Y-121865500D01*
X371300899Y-121966761D01*
X370821359Y-122165393D01*
X370389785Y-122453762D01*
X370022762Y-122820785D01*
X369734393Y-123252359D01*
X369535761Y-123731899D01*
X369434500Y-124240975D01*
X248507000Y-124240975D01*
X248405739Y-123731899D01*
X248207107Y-123252359D01*
X247918738Y-122820785D01*
X247551715Y-122453762D01*
X247120141Y-122165393D01*
X246640601Y-121966761D01*
X246131525Y-121865500D01*
X245612475Y-121865500D01*
X245103399Y-121966761D01*
X244623859Y-122165393D01*
X244192285Y-122453762D01*
X243825262Y-122820785D01*
X243536893Y-123252359D01*
X243338261Y-123731899D01*
X243237000Y-124240975D01*
X119198000Y-124240975D01*
X119096739Y-123731899D01*
X118898107Y-123252359D01*
X118609738Y-122820785D01*
X118242715Y-122453762D01*
X117811141Y-122165393D01*
X117331601Y-121966761D01*
X116822525Y-121865500D01*
X116303475Y-121865500D01*
X115794399Y-121966761D01*
X115314859Y-122165393D01*
X114883285Y-122453762D01*
X114516262Y-122820785D01*
X114227893Y-123252359D01*
X114029261Y-123731899D01*
X113928000Y-124240975D01*
X113246500Y-124240975D01*
X113246500Y-123087977D01*
X113283401Y-122711631D01*
X113385736Y-122372681D01*
X113551955Y-122060068D01*
X113775735Y-121785687D01*
X114048540Y-121560004D01*
X114359988Y-121391604D01*
X114701185Y-121285986D01*
X115037174Y-121247500D01*
X373537222Y-121247500D01*
X373909378Y-121283990D01*
M02*
