G04 #@! TF.GenerationSoftware,KiCad,Pcbnew,(5.1.5-0-10_14)*
G04 #@! TF.CreationDate,2020-11-29T10:15:32+01:00*
G04 #@! TF.ProjectId,plate,706c6174-652e-46b6-9963-61645f706362,rev?*
G04 #@! TF.SameCoordinates,Original*
G04 #@! TF.FileFunction,Copper,L1,Top*
G04 #@! TF.FilePolarity,Positive*
%FSLAX46Y46*%
G04 Gerber Fmt 4.6, Leading zero omitted, Abs format (unit mm)*
G04 Created by KiCad (PCBNEW (5.1.5-0-10_14)) date 2020-11-29 10:15:32*
%MOMM*%
%LPD*%
G04 APERTURE LIST*
%ADD10C,4.000000*%
%ADD11C,0.254000*%
G04 APERTURE END LIST*
D10*
X244316250Y-208620500D03*
X244316250Y-124500500D03*
X372069500Y-124500500D03*
X372069500Y-208620500D03*
X116563000Y-208620500D03*
X116563000Y-124500500D03*
D11*
G36*
X373909378Y-121283990D02*
G01*
X374236310Y-121382696D01*
X374537843Y-121543025D01*
X374802495Y-121758870D01*
X375020178Y-122022003D01*
X375182608Y-122322411D01*
X375283596Y-122648650D01*
X375322500Y-123018800D01*
X375322501Y-210088211D01*
X375286010Y-210460377D01*
X375187303Y-210787312D01*
X375026976Y-211088843D01*
X374811132Y-211353493D01*
X374547996Y-211571179D01*
X374247589Y-211733608D01*
X373921350Y-211834596D01*
X373551200Y-211873500D01*
X115031779Y-211873500D01*
X114659623Y-211837010D01*
X114332688Y-211738303D01*
X114031157Y-211577976D01*
X113766507Y-211362132D01*
X113548821Y-211098996D01*
X113386392Y-210798589D01*
X113285404Y-210472350D01*
X113246500Y-210102200D01*
X113246500Y-208360975D01*
X113928000Y-208360975D01*
X113928000Y-208880025D01*
X114029261Y-209389101D01*
X114227893Y-209868641D01*
X114516262Y-210300215D01*
X114883285Y-210667238D01*
X115314859Y-210955607D01*
X115794399Y-211154239D01*
X116303475Y-211255500D01*
X116822525Y-211255500D01*
X117331601Y-211154239D01*
X117811141Y-210955607D01*
X118242715Y-210667238D01*
X118609738Y-210300215D01*
X118898107Y-209868641D01*
X119096739Y-209389101D01*
X119198000Y-208880025D01*
X119198000Y-208360975D01*
X241681250Y-208360975D01*
X241681250Y-208880025D01*
X241782511Y-209389101D01*
X241981143Y-209868641D01*
X242269512Y-210300215D01*
X242636535Y-210667238D01*
X243068109Y-210955607D01*
X243547649Y-211154239D01*
X244056725Y-211255500D01*
X244575775Y-211255500D01*
X245084851Y-211154239D01*
X245564391Y-210955607D01*
X245995965Y-210667238D01*
X246362988Y-210300215D01*
X246651357Y-209868641D01*
X246849989Y-209389101D01*
X246951250Y-208880025D01*
X246951250Y-208360975D01*
X369434500Y-208360975D01*
X369434500Y-208880025D01*
X369535761Y-209389101D01*
X369734393Y-209868641D01*
X370022762Y-210300215D01*
X370389785Y-210667238D01*
X370821359Y-210955607D01*
X371300899Y-211154239D01*
X371809975Y-211255500D01*
X372329025Y-211255500D01*
X372838101Y-211154239D01*
X373317641Y-210955607D01*
X373749215Y-210667238D01*
X374116238Y-210300215D01*
X374404607Y-209868641D01*
X374603239Y-209389101D01*
X374704500Y-208880025D01*
X374704500Y-208360975D01*
X374603239Y-207851899D01*
X374404607Y-207372359D01*
X374116238Y-206940785D01*
X373749215Y-206573762D01*
X373317641Y-206285393D01*
X372838101Y-206086761D01*
X372329025Y-205985500D01*
X371809975Y-205985500D01*
X371300899Y-206086761D01*
X370821359Y-206285393D01*
X370389785Y-206573762D01*
X370022762Y-206940785D01*
X369734393Y-207372359D01*
X369535761Y-207851899D01*
X369434500Y-208360975D01*
X246951250Y-208360975D01*
X246849989Y-207851899D01*
X246651357Y-207372359D01*
X246362988Y-206940785D01*
X245995965Y-206573762D01*
X245564391Y-206285393D01*
X245084851Y-206086761D01*
X244575775Y-205985500D01*
X244056725Y-205985500D01*
X243547649Y-206086761D01*
X243068109Y-206285393D01*
X242636535Y-206573762D01*
X242269512Y-206940785D01*
X241981143Y-207372359D01*
X241782511Y-207851899D01*
X241681250Y-208360975D01*
X119198000Y-208360975D01*
X119096739Y-207851899D01*
X118898107Y-207372359D01*
X118609738Y-206940785D01*
X118242715Y-206573762D01*
X117811141Y-206285393D01*
X117331601Y-206086761D01*
X116822525Y-205985500D01*
X116303475Y-205985500D01*
X115794399Y-206086761D01*
X115314859Y-206285393D01*
X114883285Y-206573762D01*
X114516262Y-206940785D01*
X114227893Y-207372359D01*
X114029261Y-207851899D01*
X113928000Y-208360975D01*
X113246500Y-208360975D01*
X113246500Y-188165000D01*
X122300359Y-188165000D01*
X122303800Y-188199936D01*
X122303801Y-202100054D01*
X122300359Y-202135000D01*
X122314091Y-202274420D01*
X122354758Y-202408481D01*
X122420798Y-202532033D01*
X122509673Y-202640327D01*
X122617967Y-202729202D01*
X122741519Y-202795242D01*
X122875580Y-202835909D01*
X122980064Y-202846200D01*
X123015000Y-202849641D01*
X123049936Y-202846200D01*
X136950064Y-202846200D01*
X136985000Y-202849641D01*
X137019936Y-202846200D01*
X137124420Y-202835909D01*
X137258481Y-202795242D01*
X137382033Y-202729202D01*
X137490327Y-202640327D01*
X137579202Y-202532033D01*
X137645242Y-202408481D01*
X137685909Y-202274420D01*
X137699641Y-202135000D01*
X137696200Y-202100064D01*
X137696200Y-188199936D01*
X137699641Y-188165000D01*
X141350359Y-188165000D01*
X141353800Y-188199936D01*
X141353801Y-202100054D01*
X141350359Y-202135000D01*
X141364091Y-202274420D01*
X141404758Y-202408481D01*
X141470798Y-202532033D01*
X141559673Y-202640327D01*
X141667967Y-202729202D01*
X141791519Y-202795242D01*
X141925580Y-202835909D01*
X142030064Y-202846200D01*
X142065000Y-202849641D01*
X142099936Y-202846200D01*
X156000064Y-202846200D01*
X156035000Y-202849641D01*
X156069936Y-202846200D01*
X156174420Y-202835909D01*
X156308481Y-202795242D01*
X156432033Y-202729202D01*
X156540327Y-202640327D01*
X156629202Y-202532033D01*
X156695242Y-202408481D01*
X156735909Y-202274420D01*
X156749641Y-202135000D01*
X156746200Y-202100064D01*
X156746200Y-188199936D01*
X156749641Y-188165000D01*
X160400359Y-188165000D01*
X160403800Y-188199936D01*
X160403801Y-202100054D01*
X160400359Y-202135000D01*
X160414091Y-202274420D01*
X160454758Y-202408481D01*
X160520798Y-202532033D01*
X160609673Y-202640327D01*
X160717967Y-202729202D01*
X160841519Y-202795242D01*
X160975580Y-202835909D01*
X161080064Y-202846200D01*
X161115000Y-202849641D01*
X161149936Y-202846200D01*
X175050064Y-202846200D01*
X175085000Y-202849641D01*
X175119936Y-202846200D01*
X175224420Y-202835909D01*
X175358481Y-202795242D01*
X175482033Y-202729202D01*
X175590327Y-202640327D01*
X175679202Y-202532033D01*
X175745242Y-202408481D01*
X175785909Y-202274420D01*
X175799641Y-202135000D01*
X175796200Y-202100064D01*
X175796200Y-188199936D01*
X175799641Y-188165000D01*
X181831609Y-188165000D01*
X181835050Y-188199936D01*
X181835051Y-202100054D01*
X181831609Y-202135000D01*
X181845341Y-202274420D01*
X181886008Y-202408481D01*
X181952048Y-202532033D01*
X182040923Y-202640327D01*
X182149217Y-202729202D01*
X182272769Y-202795242D01*
X182406830Y-202835909D01*
X182511314Y-202846200D01*
X182546250Y-202849641D01*
X182581186Y-202846200D01*
X196481314Y-202846200D01*
X196516250Y-202849641D01*
X196551186Y-202846200D01*
X196655670Y-202835909D01*
X196789731Y-202795242D01*
X196913283Y-202729202D01*
X197021577Y-202640327D01*
X197110452Y-202532033D01*
X197176492Y-202408481D01*
X197217159Y-202274420D01*
X197230891Y-202135000D01*
X197227450Y-202100064D01*
X197227450Y-194642000D01*
X206025109Y-194642000D01*
X206028550Y-194676935D01*
X206028551Y-197401054D01*
X206025109Y-197436000D01*
X206038841Y-197575420D01*
X206079508Y-197709481D01*
X206145548Y-197833033D01*
X206234423Y-197941327D01*
X206342717Y-198030202D01*
X206466269Y-198096242D01*
X206600330Y-198136909D01*
X206704814Y-198147200D01*
X206739750Y-198150641D01*
X206774686Y-198147200D01*
X206892150Y-198147200D01*
X206892151Y-200804654D01*
X206888709Y-200839600D01*
X206902441Y-200979020D01*
X206943108Y-201113081D01*
X207009148Y-201236633D01*
X207098023Y-201344927D01*
X207206317Y-201433802D01*
X207329869Y-201499842D01*
X207463930Y-201540509D01*
X207568414Y-201550800D01*
X207603350Y-201554241D01*
X207638286Y-201550800D01*
X214223214Y-201550800D01*
X214258150Y-201554241D01*
X214293086Y-201550800D01*
X214397570Y-201540509D01*
X214531631Y-201499842D01*
X214655183Y-201433802D01*
X214763477Y-201344927D01*
X214852352Y-201236633D01*
X214918392Y-201113081D01*
X214959059Y-200979020D01*
X214972791Y-200839600D01*
X214969350Y-200804664D01*
X214969350Y-200738000D01*
X215172550Y-200738000D01*
X215172551Y-202100054D01*
X215169109Y-202135000D01*
X215182841Y-202274420D01*
X215223508Y-202408481D01*
X215289548Y-202532033D01*
X215378423Y-202640327D01*
X215486717Y-202729202D01*
X215610269Y-202795242D01*
X215744330Y-202835909D01*
X215848814Y-202846200D01*
X215883750Y-202849641D01*
X215918686Y-202846200D01*
X229818814Y-202846200D01*
X229853750Y-202849641D01*
X229888686Y-202846200D01*
X229993170Y-202835909D01*
X230127231Y-202795242D01*
X230250783Y-202729202D01*
X230359077Y-202640327D01*
X230447952Y-202532033D01*
X230513992Y-202408481D01*
X230554659Y-202274420D01*
X230568391Y-202135000D01*
X230564950Y-202100064D01*
X230564950Y-200738000D01*
X230768150Y-200738000D01*
X230768150Y-200804664D01*
X230764709Y-200839600D01*
X230778441Y-200979020D01*
X230819108Y-201113081D01*
X230885148Y-201236633D01*
X230974023Y-201344927D01*
X231082317Y-201433802D01*
X231205869Y-201499842D01*
X231339930Y-201540509D01*
X231444414Y-201550800D01*
X231479350Y-201554241D01*
X231514286Y-201550800D01*
X238099214Y-201550800D01*
X238134150Y-201554241D01*
X238169086Y-201550800D01*
X238273570Y-201540509D01*
X238407631Y-201499842D01*
X238531183Y-201433802D01*
X238639477Y-201344927D01*
X238728352Y-201236633D01*
X238794392Y-201113081D01*
X238835059Y-200979020D01*
X238848791Y-200839600D01*
X238845350Y-200804664D01*
X238845350Y-198147200D01*
X238962814Y-198147200D01*
X238997750Y-198150641D01*
X239032686Y-198147200D01*
X239137170Y-198136909D01*
X239271231Y-198096242D01*
X239394783Y-198030202D01*
X239503077Y-197941327D01*
X239591952Y-197833033D01*
X239657992Y-197709481D01*
X239698659Y-197575420D01*
X239712391Y-197436000D01*
X239708950Y-197401064D01*
X239708950Y-194676935D01*
X239712391Y-194642000D01*
X248887609Y-194642000D01*
X248891050Y-194676935D01*
X248891051Y-197401054D01*
X248887609Y-197436000D01*
X248901341Y-197575420D01*
X248942008Y-197709481D01*
X249008048Y-197833033D01*
X249096923Y-197941327D01*
X249205217Y-198030202D01*
X249328769Y-198096242D01*
X249462830Y-198136909D01*
X249567314Y-198147200D01*
X249602250Y-198150641D01*
X249637186Y-198147200D01*
X249754650Y-198147200D01*
X249754651Y-200804654D01*
X249751209Y-200839600D01*
X249764941Y-200979020D01*
X249805608Y-201113081D01*
X249871648Y-201236633D01*
X249960523Y-201344927D01*
X250068817Y-201433802D01*
X250192369Y-201499842D01*
X250326430Y-201540509D01*
X250430914Y-201550800D01*
X250465850Y-201554241D01*
X250500786Y-201550800D01*
X257085714Y-201550800D01*
X257120650Y-201554241D01*
X257155586Y-201550800D01*
X257260070Y-201540509D01*
X257394131Y-201499842D01*
X257517683Y-201433802D01*
X257625977Y-201344927D01*
X257714852Y-201236633D01*
X257780892Y-201113081D01*
X257821559Y-200979020D01*
X257835291Y-200839600D01*
X257831850Y-200804664D01*
X257831850Y-200738000D01*
X258035050Y-200738000D01*
X258035051Y-202100054D01*
X258031609Y-202135000D01*
X258045341Y-202274420D01*
X258086008Y-202408481D01*
X258152048Y-202532033D01*
X258240923Y-202640327D01*
X258349217Y-202729202D01*
X258472769Y-202795242D01*
X258606830Y-202835909D01*
X258711314Y-202846200D01*
X258746250Y-202849641D01*
X258781186Y-202846200D01*
X272681314Y-202846200D01*
X272716250Y-202849641D01*
X272751186Y-202846200D01*
X272855670Y-202835909D01*
X272989731Y-202795242D01*
X273113283Y-202729202D01*
X273221577Y-202640327D01*
X273310452Y-202532033D01*
X273376492Y-202408481D01*
X273417159Y-202274420D01*
X273430891Y-202135000D01*
X273427450Y-202100064D01*
X273427450Y-200738000D01*
X273630650Y-200738000D01*
X273630650Y-200804664D01*
X273627209Y-200839600D01*
X273640941Y-200979020D01*
X273681608Y-201113081D01*
X273747648Y-201236633D01*
X273836523Y-201344927D01*
X273944817Y-201433802D01*
X274068369Y-201499842D01*
X274202430Y-201540509D01*
X274306914Y-201550800D01*
X274341850Y-201554241D01*
X274376786Y-201550800D01*
X280961714Y-201550800D01*
X280996650Y-201554241D01*
X281031586Y-201550800D01*
X281136070Y-201540509D01*
X281270131Y-201499842D01*
X281393683Y-201433802D01*
X281501977Y-201344927D01*
X281590852Y-201236633D01*
X281656892Y-201113081D01*
X281697559Y-200979020D01*
X281711291Y-200839600D01*
X281707850Y-200804664D01*
X281707850Y-198147200D01*
X281825314Y-198147200D01*
X281860250Y-198150641D01*
X281895186Y-198147200D01*
X281999670Y-198136909D01*
X282133731Y-198096242D01*
X282257283Y-198030202D01*
X282365577Y-197941327D01*
X282454452Y-197833033D01*
X282520492Y-197709481D01*
X282561159Y-197575420D01*
X282574891Y-197436000D01*
X282571450Y-197401064D01*
X282571450Y-194676935D01*
X282574891Y-194642000D01*
X282561159Y-194502580D01*
X282520492Y-194368519D01*
X282454452Y-194244967D01*
X282365577Y-194136673D01*
X282257283Y-194047798D01*
X282133731Y-193981758D01*
X281999670Y-193941091D01*
X281895186Y-193930800D01*
X281860250Y-193927359D01*
X281825314Y-193930800D01*
X281707850Y-193930800D01*
X281707850Y-188580935D01*
X281711291Y-188546000D01*
X281697559Y-188406580D01*
X281656892Y-188272519D01*
X281599422Y-188165000D01*
X291369109Y-188165000D01*
X291372550Y-188199936D01*
X291372551Y-202100054D01*
X291369109Y-202135000D01*
X291382841Y-202274420D01*
X291423508Y-202408481D01*
X291489548Y-202532033D01*
X291578423Y-202640327D01*
X291686717Y-202729202D01*
X291810269Y-202795242D01*
X291944330Y-202835909D01*
X292048814Y-202846200D01*
X292083750Y-202849641D01*
X292118686Y-202846200D01*
X306018814Y-202846200D01*
X306053750Y-202849641D01*
X306088686Y-202846200D01*
X306193170Y-202835909D01*
X306327231Y-202795242D01*
X306450783Y-202729202D01*
X306559077Y-202640327D01*
X306647952Y-202532033D01*
X306713992Y-202408481D01*
X306754659Y-202274420D01*
X306768391Y-202135000D01*
X306764950Y-202100064D01*
X306764950Y-188199936D01*
X306768391Y-188165000D01*
X312800359Y-188165000D01*
X312803800Y-188199936D01*
X312803801Y-202100054D01*
X312800359Y-202135000D01*
X312814091Y-202274420D01*
X312854758Y-202408481D01*
X312920798Y-202532033D01*
X313009673Y-202640327D01*
X313117967Y-202729202D01*
X313241519Y-202795242D01*
X313375580Y-202835909D01*
X313480064Y-202846200D01*
X313515000Y-202849641D01*
X313549936Y-202846200D01*
X327450064Y-202846200D01*
X327485000Y-202849641D01*
X327519936Y-202846200D01*
X327624420Y-202835909D01*
X327758481Y-202795242D01*
X327882033Y-202729202D01*
X327990327Y-202640327D01*
X328079202Y-202532033D01*
X328145242Y-202408481D01*
X328185909Y-202274420D01*
X328199641Y-202135000D01*
X328196200Y-202100064D01*
X328196200Y-188199936D01*
X328199641Y-188165000D01*
X331850359Y-188165000D01*
X331853800Y-188199936D01*
X331853801Y-202100054D01*
X331850359Y-202135000D01*
X331864091Y-202274420D01*
X331904758Y-202408481D01*
X331970798Y-202532033D01*
X332059673Y-202640327D01*
X332167967Y-202729202D01*
X332291519Y-202795242D01*
X332425580Y-202835909D01*
X332530064Y-202846200D01*
X332565000Y-202849641D01*
X332599936Y-202846200D01*
X346500064Y-202846200D01*
X346535000Y-202849641D01*
X346569936Y-202846200D01*
X346674420Y-202835909D01*
X346808481Y-202795242D01*
X346932033Y-202729202D01*
X347040327Y-202640327D01*
X347129202Y-202532033D01*
X347195242Y-202408481D01*
X347235909Y-202274420D01*
X347249641Y-202135000D01*
X347246200Y-202100064D01*
X347246200Y-188199936D01*
X347249641Y-188165000D01*
X350900359Y-188165000D01*
X350903800Y-188199936D01*
X350903801Y-202100054D01*
X350900359Y-202135000D01*
X350914091Y-202274420D01*
X350954758Y-202408481D01*
X351020798Y-202532033D01*
X351109673Y-202640327D01*
X351217967Y-202729202D01*
X351341519Y-202795242D01*
X351475580Y-202835909D01*
X351580064Y-202846200D01*
X351615000Y-202849641D01*
X351649936Y-202846200D01*
X365550064Y-202846200D01*
X365585000Y-202849641D01*
X365619936Y-202846200D01*
X365724420Y-202835909D01*
X365858481Y-202795242D01*
X365982033Y-202729202D01*
X366090327Y-202640327D01*
X366179202Y-202532033D01*
X366245242Y-202408481D01*
X366285909Y-202274420D01*
X366299641Y-202135000D01*
X366296200Y-202100064D01*
X366296200Y-188199936D01*
X366299641Y-188165000D01*
X366285909Y-188025580D01*
X366245242Y-187891519D01*
X366179202Y-187767967D01*
X366090327Y-187659673D01*
X365982033Y-187570798D01*
X365858481Y-187504758D01*
X365724420Y-187464091D01*
X365619936Y-187453800D01*
X365585000Y-187450359D01*
X365550064Y-187453800D01*
X351649936Y-187453800D01*
X351615000Y-187450359D01*
X351580064Y-187453800D01*
X351475580Y-187464091D01*
X351341519Y-187504758D01*
X351217967Y-187570798D01*
X351109673Y-187659673D01*
X351020798Y-187767967D01*
X350954758Y-187891519D01*
X350914091Y-188025580D01*
X350900359Y-188165000D01*
X347249641Y-188165000D01*
X347235909Y-188025580D01*
X347195242Y-187891519D01*
X347129202Y-187767967D01*
X347040327Y-187659673D01*
X346932033Y-187570798D01*
X346808481Y-187504758D01*
X346674420Y-187464091D01*
X346569936Y-187453800D01*
X346535000Y-187450359D01*
X346500064Y-187453800D01*
X332599936Y-187453800D01*
X332565000Y-187450359D01*
X332530064Y-187453800D01*
X332425580Y-187464091D01*
X332291519Y-187504758D01*
X332167967Y-187570798D01*
X332059673Y-187659673D01*
X331970798Y-187767967D01*
X331904758Y-187891519D01*
X331864091Y-188025580D01*
X331850359Y-188165000D01*
X328199641Y-188165000D01*
X328185909Y-188025580D01*
X328145242Y-187891519D01*
X328079202Y-187767967D01*
X327990327Y-187659673D01*
X327882033Y-187570798D01*
X327758481Y-187504758D01*
X327624420Y-187464091D01*
X327519936Y-187453800D01*
X327485000Y-187450359D01*
X327450064Y-187453800D01*
X313549936Y-187453800D01*
X313515000Y-187450359D01*
X313480064Y-187453800D01*
X313375580Y-187464091D01*
X313241519Y-187504758D01*
X313117967Y-187570798D01*
X313009673Y-187659673D01*
X312920798Y-187767967D01*
X312854758Y-187891519D01*
X312814091Y-188025580D01*
X312800359Y-188165000D01*
X306768391Y-188165000D01*
X306754659Y-188025580D01*
X306713992Y-187891519D01*
X306647952Y-187767967D01*
X306559077Y-187659673D01*
X306450783Y-187570798D01*
X306327231Y-187504758D01*
X306193170Y-187464091D01*
X306088686Y-187453800D01*
X306053750Y-187450359D01*
X306018814Y-187453800D01*
X292118686Y-187453800D01*
X292083750Y-187450359D01*
X292048814Y-187453800D01*
X291944330Y-187464091D01*
X291810269Y-187504758D01*
X291686717Y-187570798D01*
X291578423Y-187659673D01*
X291489548Y-187767967D01*
X291423508Y-187891519D01*
X291382841Y-188025580D01*
X291369109Y-188165000D01*
X281599422Y-188165000D01*
X281590852Y-188148967D01*
X281501977Y-188040673D01*
X281393683Y-187951798D01*
X281270131Y-187885758D01*
X281136070Y-187845091D01*
X281031586Y-187834800D01*
X280996650Y-187831359D01*
X280961714Y-187834800D01*
X280666450Y-187834800D01*
X280666450Y-187412536D01*
X280669891Y-187377600D01*
X280656159Y-187238180D01*
X280615492Y-187104119D01*
X280549452Y-186980567D01*
X280460577Y-186872273D01*
X280352283Y-186783398D01*
X280228731Y-186717358D01*
X280094670Y-186676691D01*
X279990186Y-186666400D01*
X279955250Y-186662959D01*
X279920314Y-186666400D01*
X275418186Y-186666400D01*
X275383250Y-186662959D01*
X275348314Y-186666400D01*
X275243830Y-186676691D01*
X275109769Y-186717358D01*
X274986217Y-186783398D01*
X274877923Y-186872273D01*
X274789048Y-186980567D01*
X274723008Y-187104119D01*
X274682341Y-187238180D01*
X274668609Y-187377600D01*
X274672050Y-187412537D01*
X274672050Y-187834800D01*
X274376786Y-187834800D01*
X274341850Y-187831359D01*
X274306914Y-187834800D01*
X274202430Y-187845091D01*
X274068369Y-187885758D01*
X273944817Y-187951798D01*
X273836523Y-188040673D01*
X273747648Y-188148967D01*
X273681608Y-188272519D01*
X273640941Y-188406580D01*
X273627209Y-188546000D01*
X273630650Y-188580935D01*
X273630650Y-188622200D01*
X273427450Y-188622200D01*
X273427450Y-188199936D01*
X273430891Y-188165000D01*
X273417159Y-188025580D01*
X273376492Y-187891519D01*
X273310452Y-187767967D01*
X273221577Y-187659673D01*
X273113283Y-187570798D01*
X272989731Y-187504758D01*
X272855670Y-187464091D01*
X272751186Y-187453800D01*
X272716250Y-187450359D01*
X272681314Y-187453800D01*
X258781186Y-187453800D01*
X258746250Y-187450359D01*
X258711314Y-187453800D01*
X258606830Y-187464091D01*
X258472769Y-187504758D01*
X258349217Y-187570798D01*
X258240923Y-187659673D01*
X258152048Y-187767967D01*
X258086008Y-187891519D01*
X258045341Y-188025580D01*
X258031609Y-188165000D01*
X258035050Y-188199937D01*
X258035050Y-188622200D01*
X257831850Y-188622200D01*
X257831850Y-188580935D01*
X257835291Y-188546000D01*
X257821559Y-188406580D01*
X257780892Y-188272519D01*
X257714852Y-188148967D01*
X257625977Y-188040673D01*
X257517683Y-187951798D01*
X257394131Y-187885758D01*
X257260070Y-187845091D01*
X257155586Y-187834800D01*
X257120650Y-187831359D01*
X257085714Y-187834800D01*
X256790450Y-187834800D01*
X256790450Y-187412536D01*
X256793891Y-187377600D01*
X256780159Y-187238180D01*
X256739492Y-187104119D01*
X256673452Y-186980567D01*
X256584577Y-186872273D01*
X256476283Y-186783398D01*
X256352731Y-186717358D01*
X256218670Y-186676691D01*
X256114186Y-186666400D01*
X256079250Y-186662959D01*
X256044314Y-186666400D01*
X251542186Y-186666400D01*
X251507250Y-186662959D01*
X251472314Y-186666400D01*
X251367830Y-186676691D01*
X251233769Y-186717358D01*
X251110217Y-186783398D01*
X251001923Y-186872273D01*
X250913048Y-186980567D01*
X250847008Y-187104119D01*
X250806341Y-187238180D01*
X250792609Y-187377600D01*
X250796050Y-187412537D01*
X250796050Y-187834800D01*
X250500786Y-187834800D01*
X250465850Y-187831359D01*
X250430914Y-187834800D01*
X250326430Y-187845091D01*
X250192369Y-187885758D01*
X250068817Y-187951798D01*
X249960523Y-188040673D01*
X249871648Y-188148967D01*
X249805608Y-188272519D01*
X249764941Y-188406580D01*
X249751209Y-188546000D01*
X249754650Y-188580935D01*
X249754651Y-193930800D01*
X249637186Y-193930800D01*
X249602250Y-193927359D01*
X249567314Y-193930800D01*
X249462830Y-193941091D01*
X249328769Y-193981758D01*
X249205217Y-194047798D01*
X249096923Y-194136673D01*
X249008048Y-194244967D01*
X248942008Y-194368519D01*
X248901341Y-194502580D01*
X248887609Y-194642000D01*
X239712391Y-194642000D01*
X239698659Y-194502580D01*
X239657992Y-194368519D01*
X239591952Y-194244967D01*
X239503077Y-194136673D01*
X239394783Y-194047798D01*
X239271231Y-193981758D01*
X239137170Y-193941091D01*
X239032686Y-193930800D01*
X238997750Y-193927359D01*
X238962814Y-193930800D01*
X238845350Y-193930800D01*
X238845350Y-188580935D01*
X238848791Y-188546000D01*
X238835059Y-188406580D01*
X238794392Y-188272519D01*
X238728352Y-188148967D01*
X238639477Y-188040673D01*
X238531183Y-187951798D01*
X238407631Y-187885758D01*
X238273570Y-187845091D01*
X238169086Y-187834800D01*
X238134150Y-187831359D01*
X238099214Y-187834800D01*
X237803950Y-187834800D01*
X237803950Y-187412536D01*
X237807391Y-187377600D01*
X237793659Y-187238180D01*
X237752992Y-187104119D01*
X237686952Y-186980567D01*
X237598077Y-186872273D01*
X237489783Y-186783398D01*
X237366231Y-186717358D01*
X237232170Y-186676691D01*
X237127686Y-186666400D01*
X237092750Y-186662959D01*
X237057814Y-186666400D01*
X232555686Y-186666400D01*
X232520750Y-186662959D01*
X232485814Y-186666400D01*
X232381330Y-186676691D01*
X232247269Y-186717358D01*
X232123717Y-186783398D01*
X232015423Y-186872273D01*
X231926548Y-186980567D01*
X231860508Y-187104119D01*
X231819841Y-187238180D01*
X231806109Y-187377600D01*
X231809550Y-187412537D01*
X231809550Y-187834800D01*
X231514286Y-187834800D01*
X231479350Y-187831359D01*
X231444414Y-187834800D01*
X231339930Y-187845091D01*
X231205869Y-187885758D01*
X231082317Y-187951798D01*
X230974023Y-188040673D01*
X230885148Y-188148967D01*
X230819108Y-188272519D01*
X230778441Y-188406580D01*
X230764709Y-188546000D01*
X230768150Y-188580935D01*
X230768150Y-188622200D01*
X230564950Y-188622200D01*
X230564950Y-188199936D01*
X230568391Y-188165000D01*
X230554659Y-188025580D01*
X230513992Y-187891519D01*
X230447952Y-187767967D01*
X230359077Y-187659673D01*
X230250783Y-187570798D01*
X230127231Y-187504758D01*
X229993170Y-187464091D01*
X229888686Y-187453800D01*
X229853750Y-187450359D01*
X229818814Y-187453800D01*
X215918686Y-187453800D01*
X215883750Y-187450359D01*
X215848814Y-187453800D01*
X215744330Y-187464091D01*
X215610269Y-187504758D01*
X215486717Y-187570798D01*
X215378423Y-187659673D01*
X215289548Y-187767967D01*
X215223508Y-187891519D01*
X215182841Y-188025580D01*
X215169109Y-188165000D01*
X215172550Y-188199937D01*
X215172550Y-188622200D01*
X214969350Y-188622200D01*
X214969350Y-188580935D01*
X214972791Y-188546000D01*
X214959059Y-188406580D01*
X214918392Y-188272519D01*
X214852352Y-188148967D01*
X214763477Y-188040673D01*
X214655183Y-187951798D01*
X214531631Y-187885758D01*
X214397570Y-187845091D01*
X214293086Y-187834800D01*
X214258150Y-187831359D01*
X214223214Y-187834800D01*
X213927950Y-187834800D01*
X213927950Y-187412536D01*
X213931391Y-187377600D01*
X213917659Y-187238180D01*
X213876992Y-187104119D01*
X213810952Y-186980567D01*
X213722077Y-186872273D01*
X213613783Y-186783398D01*
X213490231Y-186717358D01*
X213356170Y-186676691D01*
X213251686Y-186666400D01*
X213216750Y-186662959D01*
X213181814Y-186666400D01*
X208679686Y-186666400D01*
X208644750Y-186662959D01*
X208609814Y-186666400D01*
X208505330Y-186676691D01*
X208371269Y-186717358D01*
X208247717Y-186783398D01*
X208139423Y-186872273D01*
X208050548Y-186980567D01*
X207984508Y-187104119D01*
X207943841Y-187238180D01*
X207930109Y-187377600D01*
X207933550Y-187412537D01*
X207933550Y-187834800D01*
X207638286Y-187834800D01*
X207603350Y-187831359D01*
X207568414Y-187834800D01*
X207463930Y-187845091D01*
X207329869Y-187885758D01*
X207206317Y-187951798D01*
X207098023Y-188040673D01*
X207009148Y-188148967D01*
X206943108Y-188272519D01*
X206902441Y-188406580D01*
X206888709Y-188546000D01*
X206892150Y-188580935D01*
X206892151Y-193930800D01*
X206774686Y-193930800D01*
X206739750Y-193927359D01*
X206704814Y-193930800D01*
X206600330Y-193941091D01*
X206466269Y-193981758D01*
X206342717Y-194047798D01*
X206234423Y-194136673D01*
X206145548Y-194244967D01*
X206079508Y-194368519D01*
X206038841Y-194502580D01*
X206025109Y-194642000D01*
X197227450Y-194642000D01*
X197227450Y-188199936D01*
X197230891Y-188165000D01*
X197217159Y-188025580D01*
X197176492Y-187891519D01*
X197110452Y-187767967D01*
X197021577Y-187659673D01*
X196913283Y-187570798D01*
X196789731Y-187504758D01*
X196655670Y-187464091D01*
X196551186Y-187453800D01*
X196516250Y-187450359D01*
X196481314Y-187453800D01*
X182581186Y-187453800D01*
X182546250Y-187450359D01*
X182511314Y-187453800D01*
X182406830Y-187464091D01*
X182272769Y-187504758D01*
X182149217Y-187570798D01*
X182040923Y-187659673D01*
X181952048Y-187767967D01*
X181886008Y-187891519D01*
X181845341Y-188025580D01*
X181831609Y-188165000D01*
X175799641Y-188165000D01*
X175785909Y-188025580D01*
X175745242Y-187891519D01*
X175679202Y-187767967D01*
X175590327Y-187659673D01*
X175482033Y-187570798D01*
X175358481Y-187504758D01*
X175224420Y-187464091D01*
X175119936Y-187453800D01*
X175085000Y-187450359D01*
X175050064Y-187453800D01*
X161149936Y-187453800D01*
X161115000Y-187450359D01*
X161080064Y-187453800D01*
X160975580Y-187464091D01*
X160841519Y-187504758D01*
X160717967Y-187570798D01*
X160609673Y-187659673D01*
X160520798Y-187767967D01*
X160454758Y-187891519D01*
X160414091Y-188025580D01*
X160400359Y-188165000D01*
X156749641Y-188165000D01*
X156735909Y-188025580D01*
X156695242Y-187891519D01*
X156629202Y-187767967D01*
X156540327Y-187659673D01*
X156432033Y-187570798D01*
X156308481Y-187504758D01*
X156174420Y-187464091D01*
X156069936Y-187453800D01*
X156035000Y-187450359D01*
X156000064Y-187453800D01*
X142099936Y-187453800D01*
X142065000Y-187450359D01*
X142030064Y-187453800D01*
X141925580Y-187464091D01*
X141791519Y-187504758D01*
X141667967Y-187570798D01*
X141559673Y-187659673D01*
X141470798Y-187767967D01*
X141404758Y-187891519D01*
X141364091Y-188025580D01*
X141350359Y-188165000D01*
X137699641Y-188165000D01*
X137685909Y-188025580D01*
X137645242Y-187891519D01*
X137579202Y-187767967D01*
X137490327Y-187659673D01*
X137382033Y-187570798D01*
X137258481Y-187504758D01*
X137124420Y-187464091D01*
X137019936Y-187453800D01*
X136985000Y-187450359D01*
X136950064Y-187453800D01*
X123049936Y-187453800D01*
X123015000Y-187450359D01*
X122980064Y-187453800D01*
X122875580Y-187464091D01*
X122741519Y-187504758D01*
X122617967Y-187570798D01*
X122509673Y-187659673D01*
X122420798Y-187767967D01*
X122354758Y-187891519D01*
X122314091Y-188025580D01*
X122300359Y-188165000D01*
X113246500Y-188165000D01*
X113246500Y-169115000D01*
X124681609Y-169115000D01*
X124685050Y-169149936D01*
X124685051Y-183050054D01*
X124681609Y-183085000D01*
X124695341Y-183224420D01*
X124736008Y-183358481D01*
X124802048Y-183482033D01*
X124890923Y-183590327D01*
X124999217Y-183679202D01*
X125122769Y-183745242D01*
X125256830Y-183785909D01*
X125361314Y-183796200D01*
X125396250Y-183799641D01*
X125431186Y-183796200D01*
X139331314Y-183796200D01*
X139366250Y-183799641D01*
X139401186Y-183796200D01*
X139505670Y-183785909D01*
X139639731Y-183745242D01*
X139763283Y-183679202D01*
X139871577Y-183590327D01*
X139960452Y-183482033D01*
X140026492Y-183358481D01*
X140067159Y-183224420D01*
X140080891Y-183085000D01*
X140077450Y-183050064D01*
X140077450Y-169149936D01*
X140080891Y-169115000D01*
X146112859Y-169115000D01*
X146116300Y-169149936D01*
X146116301Y-183050054D01*
X146112859Y-183085000D01*
X146126591Y-183224420D01*
X146167258Y-183358481D01*
X146233298Y-183482033D01*
X146322173Y-183590327D01*
X146430467Y-183679202D01*
X146554019Y-183745242D01*
X146688080Y-183785909D01*
X146792564Y-183796200D01*
X146827500Y-183799641D01*
X146862436Y-183796200D01*
X160762564Y-183796200D01*
X160797500Y-183799641D01*
X160832436Y-183796200D01*
X160936920Y-183785909D01*
X161070981Y-183745242D01*
X161194533Y-183679202D01*
X161302827Y-183590327D01*
X161391702Y-183482033D01*
X161457742Y-183358481D01*
X161498409Y-183224420D01*
X161512141Y-183085000D01*
X161508700Y-183050064D01*
X161508700Y-169149936D01*
X161512141Y-169115000D01*
X165162859Y-169115000D01*
X165166300Y-169149936D01*
X165166301Y-183050054D01*
X165162859Y-183085000D01*
X165176591Y-183224420D01*
X165217258Y-183358481D01*
X165283298Y-183482033D01*
X165372173Y-183590327D01*
X165480467Y-183679202D01*
X165604019Y-183745242D01*
X165738080Y-183785909D01*
X165842564Y-183796200D01*
X165877500Y-183799641D01*
X165912436Y-183796200D01*
X179812564Y-183796200D01*
X179847500Y-183799641D01*
X179882436Y-183796200D01*
X179986920Y-183785909D01*
X180120981Y-183745242D01*
X180244533Y-183679202D01*
X180352827Y-183590327D01*
X180441702Y-183482033D01*
X180507742Y-183358481D01*
X180548409Y-183224420D01*
X180562141Y-183085000D01*
X180558700Y-183050064D01*
X180558700Y-169149936D01*
X180562141Y-169115000D01*
X184212859Y-169115000D01*
X184216300Y-169149936D01*
X184216301Y-183050054D01*
X184212859Y-183085000D01*
X184226591Y-183224420D01*
X184267258Y-183358481D01*
X184333298Y-183482033D01*
X184422173Y-183590327D01*
X184530467Y-183679202D01*
X184654019Y-183745242D01*
X184788080Y-183785909D01*
X184892564Y-183796200D01*
X184927500Y-183799641D01*
X184962436Y-183796200D01*
X198862564Y-183796200D01*
X198897500Y-183799641D01*
X198932436Y-183796200D01*
X199036920Y-183785909D01*
X199170981Y-183745242D01*
X199294533Y-183679202D01*
X199402827Y-183590327D01*
X199491702Y-183482033D01*
X199557742Y-183358481D01*
X199598409Y-183224420D01*
X199612141Y-183085000D01*
X199608700Y-183050064D01*
X199608700Y-169149936D01*
X199612141Y-169115000D01*
X203262859Y-169115000D01*
X203266300Y-169149936D01*
X203266301Y-183050054D01*
X203262859Y-183085000D01*
X203276591Y-183224420D01*
X203317258Y-183358481D01*
X203383298Y-183482033D01*
X203472173Y-183590327D01*
X203580467Y-183679202D01*
X203704019Y-183745242D01*
X203838080Y-183785909D01*
X203942564Y-183796200D01*
X203977500Y-183799641D01*
X204012436Y-183796200D01*
X217912564Y-183796200D01*
X217947500Y-183799641D01*
X217982436Y-183796200D01*
X218086920Y-183785909D01*
X218220981Y-183745242D01*
X218344533Y-183679202D01*
X218452827Y-183590327D01*
X218541702Y-183482033D01*
X218607742Y-183358481D01*
X218648409Y-183224420D01*
X218662141Y-183085000D01*
X218658700Y-183050064D01*
X218658700Y-169149936D01*
X218662141Y-169115000D01*
X222312859Y-169115000D01*
X222316300Y-169149936D01*
X222316301Y-183050054D01*
X222312859Y-183085000D01*
X222326591Y-183224420D01*
X222367258Y-183358481D01*
X222433298Y-183482033D01*
X222522173Y-183590327D01*
X222630467Y-183679202D01*
X222754019Y-183745242D01*
X222888080Y-183785909D01*
X222992564Y-183796200D01*
X223027500Y-183799641D01*
X223062436Y-183796200D01*
X236962564Y-183796200D01*
X236997500Y-183799641D01*
X237032436Y-183796200D01*
X237136920Y-183785909D01*
X237270981Y-183745242D01*
X237394533Y-183679202D01*
X237502827Y-183590327D01*
X237591702Y-183482033D01*
X237657742Y-183358481D01*
X237698409Y-183224420D01*
X237712141Y-183085000D01*
X237708700Y-183050064D01*
X237708700Y-169149936D01*
X237712141Y-169115000D01*
X241362859Y-169115000D01*
X241366300Y-169149936D01*
X241366301Y-183050054D01*
X241362859Y-183085000D01*
X241376591Y-183224420D01*
X241417258Y-183358481D01*
X241483298Y-183482033D01*
X241572173Y-183590327D01*
X241680467Y-183679202D01*
X241804019Y-183745242D01*
X241938080Y-183785909D01*
X242042564Y-183796200D01*
X242077500Y-183799641D01*
X242112436Y-183796200D01*
X256012564Y-183796200D01*
X256047500Y-183799641D01*
X256082436Y-183796200D01*
X256186920Y-183785909D01*
X256320981Y-183745242D01*
X256444533Y-183679202D01*
X256552827Y-183590327D01*
X256641702Y-183482033D01*
X256707742Y-183358481D01*
X256748409Y-183224420D01*
X256762141Y-183085000D01*
X256758700Y-183050064D01*
X256758700Y-169149936D01*
X256762141Y-169115000D01*
X260412859Y-169115000D01*
X260416300Y-169149936D01*
X260416301Y-183050054D01*
X260412859Y-183085000D01*
X260426591Y-183224420D01*
X260467258Y-183358481D01*
X260533298Y-183482033D01*
X260622173Y-183590327D01*
X260730467Y-183679202D01*
X260854019Y-183745242D01*
X260988080Y-183785909D01*
X261092564Y-183796200D01*
X261127500Y-183799641D01*
X261162436Y-183796200D01*
X275062564Y-183796200D01*
X275097500Y-183799641D01*
X275132436Y-183796200D01*
X275236920Y-183785909D01*
X275370981Y-183745242D01*
X275494533Y-183679202D01*
X275602827Y-183590327D01*
X275691702Y-183482033D01*
X275757742Y-183358481D01*
X275798409Y-183224420D01*
X275812141Y-183085000D01*
X275808700Y-183050064D01*
X275808700Y-169149936D01*
X275812141Y-169115000D01*
X279462859Y-169115000D01*
X279466300Y-169149936D01*
X279466301Y-183050054D01*
X279462859Y-183085000D01*
X279476591Y-183224420D01*
X279517258Y-183358481D01*
X279583298Y-183482033D01*
X279672173Y-183590327D01*
X279780467Y-183679202D01*
X279904019Y-183745242D01*
X280038080Y-183785909D01*
X280142564Y-183796200D01*
X280177500Y-183799641D01*
X280212436Y-183796200D01*
X294112564Y-183796200D01*
X294147500Y-183799641D01*
X294182436Y-183796200D01*
X294286920Y-183785909D01*
X294420981Y-183745242D01*
X294544533Y-183679202D01*
X294652827Y-183590327D01*
X294741702Y-183482033D01*
X294807742Y-183358481D01*
X294848409Y-183224420D01*
X294862141Y-183085000D01*
X294858700Y-183050064D01*
X294858700Y-169149936D01*
X294862141Y-169115000D01*
X298512859Y-169115000D01*
X298516300Y-169149936D01*
X298516301Y-183050054D01*
X298512859Y-183085000D01*
X298526591Y-183224420D01*
X298567258Y-183358481D01*
X298633298Y-183482033D01*
X298722173Y-183590327D01*
X298830467Y-183679202D01*
X298954019Y-183745242D01*
X299088080Y-183785909D01*
X299192564Y-183796200D01*
X299227500Y-183799641D01*
X299262436Y-183796200D01*
X313162564Y-183796200D01*
X313197500Y-183799641D01*
X313232436Y-183796200D01*
X313336920Y-183785909D01*
X313470981Y-183745242D01*
X313594533Y-183679202D01*
X313702827Y-183590327D01*
X313791702Y-183482033D01*
X313857742Y-183358481D01*
X313898409Y-183224420D01*
X313912141Y-183085000D01*
X313908700Y-183050064D01*
X313908700Y-169149936D01*
X313912141Y-169115000D01*
X317562859Y-169115000D01*
X317566300Y-169149936D01*
X317566301Y-183050054D01*
X317562859Y-183085000D01*
X317576591Y-183224420D01*
X317617258Y-183358481D01*
X317683298Y-183482033D01*
X317772173Y-183590327D01*
X317880467Y-183679202D01*
X318004019Y-183745242D01*
X318138080Y-183785909D01*
X318242564Y-183796200D01*
X318277500Y-183799641D01*
X318312436Y-183796200D01*
X332212564Y-183796200D01*
X332247500Y-183799641D01*
X332282436Y-183796200D01*
X332386920Y-183785909D01*
X332520981Y-183745242D01*
X332644533Y-183679202D01*
X332752827Y-183590327D01*
X332841702Y-183482033D01*
X332907742Y-183358481D01*
X332948409Y-183224420D01*
X332962141Y-183085000D01*
X332958700Y-183050064D01*
X332958700Y-169149936D01*
X332962141Y-169115000D01*
X343756609Y-169115000D01*
X343760050Y-169149936D01*
X343760051Y-183050054D01*
X343756609Y-183085000D01*
X343770341Y-183224420D01*
X343811008Y-183358481D01*
X343877048Y-183482033D01*
X343965923Y-183590327D01*
X344074217Y-183679202D01*
X344197769Y-183745242D01*
X344331830Y-183785909D01*
X344436314Y-183796200D01*
X344471250Y-183799641D01*
X344506186Y-183796200D01*
X358406314Y-183796200D01*
X358441250Y-183799641D01*
X358476186Y-183796200D01*
X358580670Y-183785909D01*
X358714731Y-183745242D01*
X358838283Y-183679202D01*
X358946577Y-183590327D01*
X359035452Y-183482033D01*
X359101492Y-183358481D01*
X359142159Y-183224420D01*
X359155891Y-183085000D01*
X359152450Y-183050064D01*
X359152450Y-169149936D01*
X359155891Y-169115000D01*
X359142159Y-168975580D01*
X359101492Y-168841519D01*
X359035452Y-168717967D01*
X358946577Y-168609673D01*
X358838283Y-168520798D01*
X358714731Y-168454758D01*
X358580670Y-168414091D01*
X358476186Y-168403800D01*
X358441250Y-168400359D01*
X358406314Y-168403800D01*
X344506186Y-168403800D01*
X344471250Y-168400359D01*
X344436314Y-168403800D01*
X344331830Y-168414091D01*
X344197769Y-168454758D01*
X344074217Y-168520798D01*
X343965923Y-168609673D01*
X343877048Y-168717967D01*
X343811008Y-168841519D01*
X343770341Y-168975580D01*
X343756609Y-169115000D01*
X332962141Y-169115000D01*
X332948409Y-168975580D01*
X332907742Y-168841519D01*
X332841702Y-168717967D01*
X332752827Y-168609673D01*
X332644533Y-168520798D01*
X332520981Y-168454758D01*
X332386920Y-168414091D01*
X332282436Y-168403800D01*
X332247500Y-168400359D01*
X332212564Y-168403800D01*
X318312436Y-168403800D01*
X318277500Y-168400359D01*
X318242564Y-168403800D01*
X318138080Y-168414091D01*
X318004019Y-168454758D01*
X317880467Y-168520798D01*
X317772173Y-168609673D01*
X317683298Y-168717967D01*
X317617258Y-168841519D01*
X317576591Y-168975580D01*
X317562859Y-169115000D01*
X313912141Y-169115000D01*
X313898409Y-168975580D01*
X313857742Y-168841519D01*
X313791702Y-168717967D01*
X313702827Y-168609673D01*
X313594533Y-168520798D01*
X313470981Y-168454758D01*
X313336920Y-168414091D01*
X313232436Y-168403800D01*
X313197500Y-168400359D01*
X313162564Y-168403800D01*
X299262436Y-168403800D01*
X299227500Y-168400359D01*
X299192564Y-168403800D01*
X299088080Y-168414091D01*
X298954019Y-168454758D01*
X298830467Y-168520798D01*
X298722173Y-168609673D01*
X298633298Y-168717967D01*
X298567258Y-168841519D01*
X298526591Y-168975580D01*
X298512859Y-169115000D01*
X294862141Y-169115000D01*
X294848409Y-168975580D01*
X294807742Y-168841519D01*
X294741702Y-168717967D01*
X294652827Y-168609673D01*
X294544533Y-168520798D01*
X294420981Y-168454758D01*
X294286920Y-168414091D01*
X294182436Y-168403800D01*
X294147500Y-168400359D01*
X294112564Y-168403800D01*
X280212436Y-168403800D01*
X280177500Y-168400359D01*
X280142564Y-168403800D01*
X280038080Y-168414091D01*
X279904019Y-168454758D01*
X279780467Y-168520798D01*
X279672173Y-168609673D01*
X279583298Y-168717967D01*
X279517258Y-168841519D01*
X279476591Y-168975580D01*
X279462859Y-169115000D01*
X275812141Y-169115000D01*
X275798409Y-168975580D01*
X275757742Y-168841519D01*
X275691702Y-168717967D01*
X275602827Y-168609673D01*
X275494533Y-168520798D01*
X275370981Y-168454758D01*
X275236920Y-168414091D01*
X275132436Y-168403800D01*
X275097500Y-168400359D01*
X275062564Y-168403800D01*
X261162436Y-168403800D01*
X261127500Y-168400359D01*
X261092564Y-168403800D01*
X260988080Y-168414091D01*
X260854019Y-168454758D01*
X260730467Y-168520798D01*
X260622173Y-168609673D01*
X260533298Y-168717967D01*
X260467258Y-168841519D01*
X260426591Y-168975580D01*
X260412859Y-169115000D01*
X256762141Y-169115000D01*
X256748409Y-168975580D01*
X256707742Y-168841519D01*
X256641702Y-168717967D01*
X256552827Y-168609673D01*
X256444533Y-168520798D01*
X256320981Y-168454758D01*
X256186920Y-168414091D01*
X256082436Y-168403800D01*
X256047500Y-168400359D01*
X256012564Y-168403800D01*
X242112436Y-168403800D01*
X242077500Y-168400359D01*
X242042564Y-168403800D01*
X241938080Y-168414091D01*
X241804019Y-168454758D01*
X241680467Y-168520798D01*
X241572173Y-168609673D01*
X241483298Y-168717967D01*
X241417258Y-168841519D01*
X241376591Y-168975580D01*
X241362859Y-169115000D01*
X237712141Y-169115000D01*
X237698409Y-168975580D01*
X237657742Y-168841519D01*
X237591702Y-168717967D01*
X237502827Y-168609673D01*
X237394533Y-168520798D01*
X237270981Y-168454758D01*
X237136920Y-168414091D01*
X237032436Y-168403800D01*
X236997500Y-168400359D01*
X236962564Y-168403800D01*
X223062436Y-168403800D01*
X223027500Y-168400359D01*
X222992564Y-168403800D01*
X222888080Y-168414091D01*
X222754019Y-168454758D01*
X222630467Y-168520798D01*
X222522173Y-168609673D01*
X222433298Y-168717967D01*
X222367258Y-168841519D01*
X222326591Y-168975580D01*
X222312859Y-169115000D01*
X218662141Y-169115000D01*
X218648409Y-168975580D01*
X218607742Y-168841519D01*
X218541702Y-168717967D01*
X218452827Y-168609673D01*
X218344533Y-168520798D01*
X218220981Y-168454758D01*
X218086920Y-168414091D01*
X217982436Y-168403800D01*
X217947500Y-168400359D01*
X217912564Y-168403800D01*
X204012436Y-168403800D01*
X203977500Y-168400359D01*
X203942564Y-168403800D01*
X203838080Y-168414091D01*
X203704019Y-168454758D01*
X203580467Y-168520798D01*
X203472173Y-168609673D01*
X203383298Y-168717967D01*
X203317258Y-168841519D01*
X203276591Y-168975580D01*
X203262859Y-169115000D01*
X199612141Y-169115000D01*
X199598409Y-168975580D01*
X199557742Y-168841519D01*
X199491702Y-168717967D01*
X199402827Y-168609673D01*
X199294533Y-168520798D01*
X199170981Y-168454758D01*
X199036920Y-168414091D01*
X198932436Y-168403800D01*
X198897500Y-168400359D01*
X198862564Y-168403800D01*
X184962436Y-168403800D01*
X184927500Y-168400359D01*
X184892564Y-168403800D01*
X184788080Y-168414091D01*
X184654019Y-168454758D01*
X184530467Y-168520798D01*
X184422173Y-168609673D01*
X184333298Y-168717967D01*
X184267258Y-168841519D01*
X184226591Y-168975580D01*
X184212859Y-169115000D01*
X180562141Y-169115000D01*
X180548409Y-168975580D01*
X180507742Y-168841519D01*
X180441702Y-168717967D01*
X180352827Y-168609673D01*
X180244533Y-168520798D01*
X180120981Y-168454758D01*
X179986920Y-168414091D01*
X179882436Y-168403800D01*
X179847500Y-168400359D01*
X179812564Y-168403800D01*
X165912436Y-168403800D01*
X165877500Y-168400359D01*
X165842564Y-168403800D01*
X165738080Y-168414091D01*
X165604019Y-168454758D01*
X165480467Y-168520798D01*
X165372173Y-168609673D01*
X165283298Y-168717967D01*
X165217258Y-168841519D01*
X165176591Y-168975580D01*
X165162859Y-169115000D01*
X161512141Y-169115000D01*
X161498409Y-168975580D01*
X161457742Y-168841519D01*
X161391702Y-168717967D01*
X161302827Y-168609673D01*
X161194533Y-168520798D01*
X161070981Y-168454758D01*
X160936920Y-168414091D01*
X160832436Y-168403800D01*
X160797500Y-168400359D01*
X160762564Y-168403800D01*
X146862436Y-168403800D01*
X146827500Y-168400359D01*
X146792564Y-168403800D01*
X146688080Y-168414091D01*
X146554019Y-168454758D01*
X146430467Y-168520798D01*
X146322173Y-168609673D01*
X146233298Y-168717967D01*
X146167258Y-168841519D01*
X146126591Y-168975580D01*
X146112859Y-169115000D01*
X140080891Y-169115000D01*
X140067159Y-168975580D01*
X140026492Y-168841519D01*
X139960452Y-168717967D01*
X139871577Y-168609673D01*
X139763283Y-168520798D01*
X139639731Y-168454758D01*
X139505670Y-168414091D01*
X139401186Y-168403800D01*
X139366250Y-168400359D01*
X139331314Y-168403800D01*
X125431186Y-168403800D01*
X125396250Y-168400359D01*
X125361314Y-168403800D01*
X125256830Y-168414091D01*
X125122769Y-168454758D01*
X124999217Y-168520798D01*
X124890923Y-168609673D01*
X124802048Y-168717967D01*
X124736008Y-168841519D01*
X124695341Y-168975580D01*
X124681609Y-169115000D01*
X113246500Y-169115000D01*
X113246500Y-150065000D01*
X129444109Y-150065000D01*
X129447550Y-150099936D01*
X129447551Y-164000054D01*
X129444109Y-164035000D01*
X129457841Y-164174420D01*
X129498508Y-164308481D01*
X129564548Y-164432033D01*
X129653423Y-164540327D01*
X129761717Y-164629202D01*
X129885269Y-164695242D01*
X130019330Y-164735909D01*
X130123814Y-164746200D01*
X130158750Y-164749641D01*
X130193686Y-164746200D01*
X144093814Y-164746200D01*
X144128750Y-164749641D01*
X144163686Y-164746200D01*
X144268170Y-164735909D01*
X144402231Y-164695242D01*
X144525783Y-164629202D01*
X144634077Y-164540327D01*
X144722952Y-164432033D01*
X144788992Y-164308481D01*
X144829659Y-164174420D01*
X144843391Y-164035000D01*
X144839950Y-164000064D01*
X144839950Y-150099936D01*
X144843391Y-150065000D01*
X155637859Y-150065000D01*
X155641300Y-150099936D01*
X155641301Y-164000054D01*
X155637859Y-164035000D01*
X155651591Y-164174420D01*
X155692258Y-164308481D01*
X155758298Y-164432033D01*
X155847173Y-164540327D01*
X155955467Y-164629202D01*
X156079019Y-164695242D01*
X156213080Y-164735909D01*
X156317564Y-164746200D01*
X156352500Y-164749641D01*
X156387436Y-164746200D01*
X170287564Y-164746200D01*
X170322500Y-164749641D01*
X170357436Y-164746200D01*
X170461920Y-164735909D01*
X170595981Y-164695242D01*
X170719533Y-164629202D01*
X170827827Y-164540327D01*
X170916702Y-164432033D01*
X170982742Y-164308481D01*
X171023409Y-164174420D01*
X171037141Y-164035000D01*
X171033700Y-164000064D01*
X171033700Y-150099936D01*
X171037141Y-150065000D01*
X174687859Y-150065000D01*
X174691300Y-150099936D01*
X174691301Y-164000054D01*
X174687859Y-164035000D01*
X174701591Y-164174420D01*
X174742258Y-164308481D01*
X174808298Y-164432033D01*
X174897173Y-164540327D01*
X175005467Y-164629202D01*
X175129019Y-164695242D01*
X175263080Y-164735909D01*
X175367564Y-164746200D01*
X175402500Y-164749641D01*
X175437436Y-164746200D01*
X189337564Y-164746200D01*
X189372500Y-164749641D01*
X189407436Y-164746200D01*
X189511920Y-164735909D01*
X189645981Y-164695242D01*
X189769533Y-164629202D01*
X189877827Y-164540327D01*
X189966702Y-164432033D01*
X190032742Y-164308481D01*
X190073409Y-164174420D01*
X190087141Y-164035000D01*
X190083700Y-164000064D01*
X190083700Y-150099936D01*
X190087141Y-150065000D01*
X193737859Y-150065000D01*
X193741300Y-150099936D01*
X193741301Y-164000054D01*
X193737859Y-164035000D01*
X193751591Y-164174420D01*
X193792258Y-164308481D01*
X193858298Y-164432033D01*
X193947173Y-164540327D01*
X194055467Y-164629202D01*
X194179019Y-164695242D01*
X194313080Y-164735909D01*
X194417564Y-164746200D01*
X194452500Y-164749641D01*
X194487436Y-164746200D01*
X208387564Y-164746200D01*
X208422500Y-164749641D01*
X208457436Y-164746200D01*
X208561920Y-164735909D01*
X208695981Y-164695242D01*
X208819533Y-164629202D01*
X208927827Y-164540327D01*
X209016702Y-164432033D01*
X209082742Y-164308481D01*
X209123409Y-164174420D01*
X209137141Y-164035000D01*
X209133700Y-164000064D01*
X209133700Y-150099936D01*
X209137141Y-150065000D01*
X212787859Y-150065000D01*
X212791300Y-150099936D01*
X212791301Y-164000054D01*
X212787859Y-164035000D01*
X212801591Y-164174420D01*
X212842258Y-164308481D01*
X212908298Y-164432033D01*
X212997173Y-164540327D01*
X213105467Y-164629202D01*
X213229019Y-164695242D01*
X213363080Y-164735909D01*
X213467564Y-164746200D01*
X213502500Y-164749641D01*
X213537436Y-164746200D01*
X227437564Y-164746200D01*
X227472500Y-164749641D01*
X227507436Y-164746200D01*
X227611920Y-164735909D01*
X227745981Y-164695242D01*
X227869533Y-164629202D01*
X227977827Y-164540327D01*
X228066702Y-164432033D01*
X228132742Y-164308481D01*
X228173409Y-164174420D01*
X228187141Y-164035000D01*
X228183700Y-164000064D01*
X228183700Y-150099936D01*
X228187141Y-150065000D01*
X231837859Y-150065000D01*
X231841300Y-150099936D01*
X231841301Y-164000054D01*
X231837859Y-164035000D01*
X231851591Y-164174420D01*
X231892258Y-164308481D01*
X231958298Y-164432033D01*
X232047173Y-164540327D01*
X232155467Y-164629202D01*
X232279019Y-164695242D01*
X232413080Y-164735909D01*
X232517564Y-164746200D01*
X232552500Y-164749641D01*
X232587436Y-164746200D01*
X246487564Y-164746200D01*
X246522500Y-164749641D01*
X246557436Y-164746200D01*
X246661920Y-164735909D01*
X246795981Y-164695242D01*
X246919533Y-164629202D01*
X247027827Y-164540327D01*
X247116702Y-164432033D01*
X247182742Y-164308481D01*
X247223409Y-164174420D01*
X247237141Y-164035000D01*
X247233700Y-164000064D01*
X247233700Y-150099936D01*
X247237141Y-150065000D01*
X250887859Y-150065000D01*
X250891300Y-150099936D01*
X250891301Y-164000054D01*
X250887859Y-164035000D01*
X250901591Y-164174420D01*
X250942258Y-164308481D01*
X251008298Y-164432033D01*
X251097173Y-164540327D01*
X251205467Y-164629202D01*
X251329019Y-164695242D01*
X251463080Y-164735909D01*
X251567564Y-164746200D01*
X251602500Y-164749641D01*
X251637436Y-164746200D01*
X265537564Y-164746200D01*
X265572500Y-164749641D01*
X265607436Y-164746200D01*
X265711920Y-164735909D01*
X265845981Y-164695242D01*
X265969533Y-164629202D01*
X266077827Y-164540327D01*
X266166702Y-164432033D01*
X266232742Y-164308481D01*
X266273409Y-164174420D01*
X266287141Y-164035000D01*
X266283700Y-164000064D01*
X266283700Y-150099936D01*
X266287141Y-150065000D01*
X269937859Y-150065000D01*
X269941300Y-150099936D01*
X269941301Y-164000054D01*
X269937859Y-164035000D01*
X269951591Y-164174420D01*
X269992258Y-164308481D01*
X270058298Y-164432033D01*
X270147173Y-164540327D01*
X270255467Y-164629202D01*
X270379019Y-164695242D01*
X270513080Y-164735909D01*
X270617564Y-164746200D01*
X270652500Y-164749641D01*
X270687436Y-164746200D01*
X284587564Y-164746200D01*
X284622500Y-164749641D01*
X284657436Y-164746200D01*
X284761920Y-164735909D01*
X284895981Y-164695242D01*
X285019533Y-164629202D01*
X285127827Y-164540327D01*
X285216702Y-164432033D01*
X285282742Y-164308481D01*
X285323409Y-164174420D01*
X285337141Y-164035000D01*
X285333700Y-164000064D01*
X285333700Y-150099936D01*
X285337141Y-150065000D01*
X288987859Y-150065000D01*
X288991300Y-150099936D01*
X288991301Y-164000054D01*
X288987859Y-164035000D01*
X289001591Y-164174420D01*
X289042258Y-164308481D01*
X289108298Y-164432033D01*
X289197173Y-164540327D01*
X289305467Y-164629202D01*
X289429019Y-164695242D01*
X289563080Y-164735909D01*
X289667564Y-164746200D01*
X289702500Y-164749641D01*
X289737436Y-164746200D01*
X303637564Y-164746200D01*
X303672500Y-164749641D01*
X303707436Y-164746200D01*
X303811920Y-164735909D01*
X303945981Y-164695242D01*
X304069533Y-164629202D01*
X304177827Y-164540327D01*
X304266702Y-164432033D01*
X304332742Y-164308481D01*
X304373409Y-164174420D01*
X304387141Y-164035000D01*
X304383700Y-164000064D01*
X304383700Y-150099936D01*
X304387141Y-150065000D01*
X308037859Y-150065000D01*
X308041300Y-150099936D01*
X308041301Y-164000054D01*
X308037859Y-164035000D01*
X308051591Y-164174420D01*
X308092258Y-164308481D01*
X308158298Y-164432033D01*
X308247173Y-164540327D01*
X308355467Y-164629202D01*
X308479019Y-164695242D01*
X308613080Y-164735909D01*
X308717564Y-164746200D01*
X308752500Y-164749641D01*
X308787436Y-164746200D01*
X322687564Y-164746200D01*
X322722500Y-164749641D01*
X322757436Y-164746200D01*
X322861920Y-164735909D01*
X322995981Y-164695242D01*
X323119533Y-164629202D01*
X323227827Y-164540327D01*
X323316702Y-164432033D01*
X323382742Y-164308481D01*
X323423409Y-164174420D01*
X323437141Y-164035000D01*
X323433700Y-164000064D01*
X323433700Y-150099936D01*
X323437141Y-150065000D01*
X327087859Y-150065000D01*
X327091300Y-150099936D01*
X327091301Y-164000054D01*
X327087859Y-164035000D01*
X327101591Y-164174420D01*
X327142258Y-164308481D01*
X327208298Y-164432033D01*
X327297173Y-164540327D01*
X327405467Y-164629202D01*
X327529019Y-164695242D01*
X327663080Y-164735909D01*
X327767564Y-164746200D01*
X327802500Y-164749641D01*
X327837436Y-164746200D01*
X341737564Y-164746200D01*
X341772500Y-164749641D01*
X341807436Y-164746200D01*
X341911920Y-164735909D01*
X342045981Y-164695242D01*
X342169533Y-164629202D01*
X342277827Y-164540327D01*
X342366702Y-164432033D01*
X342432742Y-164308481D01*
X342473409Y-164174420D01*
X342487141Y-164035000D01*
X342483700Y-164000064D01*
X342483700Y-150099936D01*
X342487141Y-150065000D01*
X348519109Y-150065000D01*
X348522550Y-150099936D01*
X348522551Y-164000054D01*
X348519109Y-164035000D01*
X348532841Y-164174420D01*
X348573508Y-164308481D01*
X348639548Y-164432033D01*
X348728423Y-164540327D01*
X348836717Y-164629202D01*
X348960269Y-164695242D01*
X349094330Y-164735909D01*
X349198814Y-164746200D01*
X349233750Y-164749641D01*
X349268686Y-164746200D01*
X363168814Y-164746200D01*
X363203750Y-164749641D01*
X363238686Y-164746200D01*
X363343170Y-164735909D01*
X363477231Y-164695242D01*
X363600783Y-164629202D01*
X363709077Y-164540327D01*
X363797952Y-164432033D01*
X363863992Y-164308481D01*
X363904659Y-164174420D01*
X363918391Y-164035000D01*
X363914950Y-164000064D01*
X363914950Y-150099936D01*
X363918391Y-150065000D01*
X363904659Y-149925580D01*
X363863992Y-149791519D01*
X363797952Y-149667967D01*
X363709077Y-149559673D01*
X363600783Y-149470798D01*
X363477231Y-149404758D01*
X363343170Y-149364091D01*
X363238686Y-149353800D01*
X363203750Y-149350359D01*
X363168814Y-149353800D01*
X349268686Y-149353800D01*
X349233750Y-149350359D01*
X349198814Y-149353800D01*
X349094330Y-149364091D01*
X348960269Y-149404758D01*
X348836717Y-149470798D01*
X348728423Y-149559673D01*
X348639548Y-149667967D01*
X348573508Y-149791519D01*
X348532841Y-149925580D01*
X348519109Y-150065000D01*
X342487141Y-150065000D01*
X342473409Y-149925580D01*
X342432742Y-149791519D01*
X342366702Y-149667967D01*
X342277827Y-149559673D01*
X342169533Y-149470798D01*
X342045981Y-149404758D01*
X341911920Y-149364091D01*
X341807436Y-149353800D01*
X341772500Y-149350359D01*
X341737564Y-149353800D01*
X327837436Y-149353800D01*
X327802500Y-149350359D01*
X327767564Y-149353800D01*
X327663080Y-149364091D01*
X327529019Y-149404758D01*
X327405467Y-149470798D01*
X327297173Y-149559673D01*
X327208298Y-149667967D01*
X327142258Y-149791519D01*
X327101591Y-149925580D01*
X327087859Y-150065000D01*
X323437141Y-150065000D01*
X323423409Y-149925580D01*
X323382742Y-149791519D01*
X323316702Y-149667967D01*
X323227827Y-149559673D01*
X323119533Y-149470798D01*
X322995981Y-149404758D01*
X322861920Y-149364091D01*
X322757436Y-149353800D01*
X322722500Y-149350359D01*
X322687564Y-149353800D01*
X308787436Y-149353800D01*
X308752500Y-149350359D01*
X308717564Y-149353800D01*
X308613080Y-149364091D01*
X308479019Y-149404758D01*
X308355467Y-149470798D01*
X308247173Y-149559673D01*
X308158298Y-149667967D01*
X308092258Y-149791519D01*
X308051591Y-149925580D01*
X308037859Y-150065000D01*
X304387141Y-150065000D01*
X304373409Y-149925580D01*
X304332742Y-149791519D01*
X304266702Y-149667967D01*
X304177827Y-149559673D01*
X304069533Y-149470798D01*
X303945981Y-149404758D01*
X303811920Y-149364091D01*
X303707436Y-149353800D01*
X303672500Y-149350359D01*
X303637564Y-149353800D01*
X289737436Y-149353800D01*
X289702500Y-149350359D01*
X289667564Y-149353800D01*
X289563080Y-149364091D01*
X289429019Y-149404758D01*
X289305467Y-149470798D01*
X289197173Y-149559673D01*
X289108298Y-149667967D01*
X289042258Y-149791519D01*
X289001591Y-149925580D01*
X288987859Y-150065000D01*
X285337141Y-150065000D01*
X285323409Y-149925580D01*
X285282742Y-149791519D01*
X285216702Y-149667967D01*
X285127827Y-149559673D01*
X285019533Y-149470798D01*
X284895981Y-149404758D01*
X284761920Y-149364091D01*
X284657436Y-149353800D01*
X284622500Y-149350359D01*
X284587564Y-149353800D01*
X270687436Y-149353800D01*
X270652500Y-149350359D01*
X270617564Y-149353800D01*
X270513080Y-149364091D01*
X270379019Y-149404758D01*
X270255467Y-149470798D01*
X270147173Y-149559673D01*
X270058298Y-149667967D01*
X269992258Y-149791519D01*
X269951591Y-149925580D01*
X269937859Y-150065000D01*
X266287141Y-150065000D01*
X266273409Y-149925580D01*
X266232742Y-149791519D01*
X266166702Y-149667967D01*
X266077827Y-149559673D01*
X265969533Y-149470798D01*
X265845981Y-149404758D01*
X265711920Y-149364091D01*
X265607436Y-149353800D01*
X265572500Y-149350359D01*
X265537564Y-149353800D01*
X251637436Y-149353800D01*
X251602500Y-149350359D01*
X251567564Y-149353800D01*
X251463080Y-149364091D01*
X251329019Y-149404758D01*
X251205467Y-149470798D01*
X251097173Y-149559673D01*
X251008298Y-149667967D01*
X250942258Y-149791519D01*
X250901591Y-149925580D01*
X250887859Y-150065000D01*
X247237141Y-150065000D01*
X247223409Y-149925580D01*
X247182742Y-149791519D01*
X247116702Y-149667967D01*
X247027827Y-149559673D01*
X246919533Y-149470798D01*
X246795981Y-149404758D01*
X246661920Y-149364091D01*
X246557436Y-149353800D01*
X246522500Y-149350359D01*
X246487564Y-149353800D01*
X232587436Y-149353800D01*
X232552500Y-149350359D01*
X232517564Y-149353800D01*
X232413080Y-149364091D01*
X232279019Y-149404758D01*
X232155467Y-149470798D01*
X232047173Y-149559673D01*
X231958298Y-149667967D01*
X231892258Y-149791519D01*
X231851591Y-149925580D01*
X231837859Y-150065000D01*
X228187141Y-150065000D01*
X228173409Y-149925580D01*
X228132742Y-149791519D01*
X228066702Y-149667967D01*
X227977827Y-149559673D01*
X227869533Y-149470798D01*
X227745981Y-149404758D01*
X227611920Y-149364091D01*
X227507436Y-149353800D01*
X227472500Y-149350359D01*
X227437564Y-149353800D01*
X213537436Y-149353800D01*
X213502500Y-149350359D01*
X213467564Y-149353800D01*
X213363080Y-149364091D01*
X213229019Y-149404758D01*
X213105467Y-149470798D01*
X212997173Y-149559673D01*
X212908298Y-149667967D01*
X212842258Y-149791519D01*
X212801591Y-149925580D01*
X212787859Y-150065000D01*
X209137141Y-150065000D01*
X209123409Y-149925580D01*
X209082742Y-149791519D01*
X209016702Y-149667967D01*
X208927827Y-149559673D01*
X208819533Y-149470798D01*
X208695981Y-149404758D01*
X208561920Y-149364091D01*
X208457436Y-149353800D01*
X208422500Y-149350359D01*
X208387564Y-149353800D01*
X194487436Y-149353800D01*
X194452500Y-149350359D01*
X194417564Y-149353800D01*
X194313080Y-149364091D01*
X194179019Y-149404758D01*
X194055467Y-149470798D01*
X193947173Y-149559673D01*
X193858298Y-149667967D01*
X193792258Y-149791519D01*
X193751591Y-149925580D01*
X193737859Y-150065000D01*
X190087141Y-150065000D01*
X190073409Y-149925580D01*
X190032742Y-149791519D01*
X189966702Y-149667967D01*
X189877827Y-149559673D01*
X189769533Y-149470798D01*
X189645981Y-149404758D01*
X189511920Y-149364091D01*
X189407436Y-149353800D01*
X189372500Y-149350359D01*
X189337564Y-149353800D01*
X175437436Y-149353800D01*
X175402500Y-149350359D01*
X175367564Y-149353800D01*
X175263080Y-149364091D01*
X175129019Y-149404758D01*
X175005467Y-149470798D01*
X174897173Y-149559673D01*
X174808298Y-149667967D01*
X174742258Y-149791519D01*
X174701591Y-149925580D01*
X174687859Y-150065000D01*
X171037141Y-150065000D01*
X171023409Y-149925580D01*
X170982742Y-149791519D01*
X170916702Y-149667967D01*
X170827827Y-149559673D01*
X170719533Y-149470798D01*
X170595981Y-149404758D01*
X170461920Y-149364091D01*
X170357436Y-149353800D01*
X170322500Y-149350359D01*
X170287564Y-149353800D01*
X156387436Y-149353800D01*
X156352500Y-149350359D01*
X156317564Y-149353800D01*
X156213080Y-149364091D01*
X156079019Y-149404758D01*
X155955467Y-149470798D01*
X155847173Y-149559673D01*
X155758298Y-149667967D01*
X155692258Y-149791519D01*
X155651591Y-149925580D01*
X155637859Y-150065000D01*
X144843391Y-150065000D01*
X144829659Y-149925580D01*
X144788992Y-149791519D01*
X144722952Y-149667967D01*
X144634077Y-149559673D01*
X144525783Y-149470798D01*
X144402231Y-149404758D01*
X144268170Y-149364091D01*
X144163686Y-149353800D01*
X144128750Y-149350359D01*
X144093814Y-149353800D01*
X130193686Y-149353800D01*
X130158750Y-149350359D01*
X130123814Y-149353800D01*
X130019330Y-149364091D01*
X129885269Y-149404758D01*
X129761717Y-149470798D01*
X129653423Y-149559673D01*
X129564548Y-149667967D01*
X129498508Y-149791519D01*
X129457841Y-149925580D01*
X129444109Y-150065000D01*
X113246500Y-150065000D01*
X113246500Y-131015000D01*
X122300359Y-131015000D01*
X122303800Y-131049936D01*
X122303801Y-144950054D01*
X122300359Y-144985000D01*
X122314091Y-145124420D01*
X122354758Y-145258481D01*
X122420798Y-145382033D01*
X122509673Y-145490327D01*
X122617967Y-145579202D01*
X122741519Y-145645242D01*
X122875580Y-145685909D01*
X122980064Y-145696200D01*
X123015000Y-145699641D01*
X123049936Y-145696200D01*
X136950064Y-145696200D01*
X136985000Y-145699641D01*
X137019936Y-145696200D01*
X137124420Y-145685909D01*
X137258481Y-145645242D01*
X137382033Y-145579202D01*
X137490327Y-145490327D01*
X137579202Y-145382033D01*
X137645242Y-145258481D01*
X137685909Y-145124420D01*
X137699641Y-144985000D01*
X137696200Y-144950064D01*
X137696200Y-131049936D01*
X137699641Y-131015000D01*
X141350359Y-131015000D01*
X141353800Y-131049936D01*
X141353801Y-144950054D01*
X141350359Y-144985000D01*
X141364091Y-145124420D01*
X141404758Y-145258481D01*
X141470798Y-145382033D01*
X141559673Y-145490327D01*
X141667967Y-145579202D01*
X141791519Y-145645242D01*
X141925580Y-145685909D01*
X142030064Y-145696200D01*
X142065000Y-145699641D01*
X142099936Y-145696200D01*
X156000064Y-145696200D01*
X156035000Y-145699641D01*
X156069936Y-145696200D01*
X156174420Y-145685909D01*
X156308481Y-145645242D01*
X156432033Y-145579202D01*
X156540327Y-145490327D01*
X156629202Y-145382033D01*
X156695242Y-145258481D01*
X156735909Y-145124420D01*
X156749641Y-144985000D01*
X156746200Y-144950064D01*
X156746200Y-131049936D01*
X156749641Y-131015000D01*
X160400359Y-131015000D01*
X160403800Y-131049936D01*
X160403801Y-144950054D01*
X160400359Y-144985000D01*
X160414091Y-145124420D01*
X160454758Y-145258481D01*
X160520798Y-145382033D01*
X160609673Y-145490327D01*
X160717967Y-145579202D01*
X160841519Y-145645242D01*
X160975580Y-145685909D01*
X161080064Y-145696200D01*
X161115000Y-145699641D01*
X161149936Y-145696200D01*
X175050064Y-145696200D01*
X175085000Y-145699641D01*
X175119936Y-145696200D01*
X175224420Y-145685909D01*
X175358481Y-145645242D01*
X175482033Y-145579202D01*
X175590327Y-145490327D01*
X175679202Y-145382033D01*
X175745242Y-145258481D01*
X175785909Y-145124420D01*
X175799641Y-144985000D01*
X175796200Y-144950064D01*
X175796200Y-131049936D01*
X175799641Y-131015000D01*
X179450359Y-131015000D01*
X179453800Y-131049936D01*
X179453801Y-144950054D01*
X179450359Y-144985000D01*
X179464091Y-145124420D01*
X179504758Y-145258481D01*
X179570798Y-145382033D01*
X179659673Y-145490327D01*
X179767967Y-145579202D01*
X179891519Y-145645242D01*
X180025580Y-145685909D01*
X180130064Y-145696200D01*
X180165000Y-145699641D01*
X180199936Y-145696200D01*
X194100064Y-145696200D01*
X194135000Y-145699641D01*
X194169936Y-145696200D01*
X194274420Y-145685909D01*
X194408481Y-145645242D01*
X194532033Y-145579202D01*
X194640327Y-145490327D01*
X194729202Y-145382033D01*
X194795242Y-145258481D01*
X194835909Y-145124420D01*
X194849641Y-144985000D01*
X194846200Y-144950064D01*
X194846200Y-131049936D01*
X194849641Y-131015000D01*
X198500359Y-131015000D01*
X198503800Y-131049936D01*
X198503801Y-144950054D01*
X198500359Y-144985000D01*
X198514091Y-145124420D01*
X198554758Y-145258481D01*
X198620798Y-145382033D01*
X198709673Y-145490327D01*
X198817967Y-145579202D01*
X198941519Y-145645242D01*
X199075580Y-145685909D01*
X199180064Y-145696200D01*
X199215000Y-145699641D01*
X199249936Y-145696200D01*
X213150064Y-145696200D01*
X213185000Y-145699641D01*
X213219936Y-145696200D01*
X213324420Y-145685909D01*
X213458481Y-145645242D01*
X213582033Y-145579202D01*
X213690327Y-145490327D01*
X213779202Y-145382033D01*
X213845242Y-145258481D01*
X213885909Y-145124420D01*
X213899641Y-144985000D01*
X213896200Y-144950064D01*
X213896200Y-131049936D01*
X213899641Y-131015000D01*
X217550359Y-131015000D01*
X217553800Y-131049936D01*
X217553801Y-144950054D01*
X217550359Y-144985000D01*
X217564091Y-145124420D01*
X217604758Y-145258481D01*
X217670798Y-145382033D01*
X217759673Y-145490327D01*
X217867967Y-145579202D01*
X217991519Y-145645242D01*
X218125580Y-145685909D01*
X218230064Y-145696200D01*
X218265000Y-145699641D01*
X218299936Y-145696200D01*
X232200064Y-145696200D01*
X232235000Y-145699641D01*
X232269936Y-145696200D01*
X232374420Y-145685909D01*
X232508481Y-145645242D01*
X232632033Y-145579202D01*
X232740327Y-145490327D01*
X232829202Y-145382033D01*
X232895242Y-145258481D01*
X232935909Y-145124420D01*
X232949641Y-144985000D01*
X232946200Y-144950064D01*
X232946200Y-131049936D01*
X232949641Y-131015000D01*
X236600359Y-131015000D01*
X236603800Y-131049936D01*
X236603801Y-144950054D01*
X236600359Y-144985000D01*
X236614091Y-145124420D01*
X236654758Y-145258481D01*
X236720798Y-145382033D01*
X236809673Y-145490327D01*
X236917967Y-145579202D01*
X237041519Y-145645242D01*
X237175580Y-145685909D01*
X237280064Y-145696200D01*
X237315000Y-145699641D01*
X237349936Y-145696200D01*
X251250064Y-145696200D01*
X251285000Y-145699641D01*
X251319936Y-145696200D01*
X251424420Y-145685909D01*
X251558481Y-145645242D01*
X251682033Y-145579202D01*
X251790327Y-145490327D01*
X251879202Y-145382033D01*
X251945242Y-145258481D01*
X251985909Y-145124420D01*
X251999641Y-144985000D01*
X251996200Y-144950064D01*
X251996200Y-131049936D01*
X251999641Y-131015000D01*
X255650359Y-131015000D01*
X255653800Y-131049936D01*
X255653801Y-144950054D01*
X255650359Y-144985000D01*
X255664091Y-145124420D01*
X255704758Y-145258481D01*
X255770798Y-145382033D01*
X255859673Y-145490327D01*
X255967967Y-145579202D01*
X256091519Y-145645242D01*
X256225580Y-145685909D01*
X256330064Y-145696200D01*
X256365000Y-145699641D01*
X256399936Y-145696200D01*
X270300064Y-145696200D01*
X270335000Y-145699641D01*
X270369936Y-145696200D01*
X270474420Y-145685909D01*
X270608481Y-145645242D01*
X270732033Y-145579202D01*
X270840327Y-145490327D01*
X270929202Y-145382033D01*
X270995242Y-145258481D01*
X271035909Y-145124420D01*
X271049641Y-144985000D01*
X271046200Y-144950064D01*
X271046200Y-131049936D01*
X271049641Y-131015000D01*
X274700359Y-131015000D01*
X274703800Y-131049936D01*
X274703801Y-144950054D01*
X274700359Y-144985000D01*
X274714091Y-145124420D01*
X274754758Y-145258481D01*
X274820798Y-145382033D01*
X274909673Y-145490327D01*
X275017967Y-145579202D01*
X275141519Y-145645242D01*
X275275580Y-145685909D01*
X275380064Y-145696200D01*
X275415000Y-145699641D01*
X275449936Y-145696200D01*
X289350064Y-145696200D01*
X289385000Y-145699641D01*
X289419936Y-145696200D01*
X289524420Y-145685909D01*
X289658481Y-145645242D01*
X289782033Y-145579202D01*
X289890327Y-145490327D01*
X289979202Y-145382033D01*
X290045242Y-145258481D01*
X290085909Y-145124420D01*
X290099641Y-144985000D01*
X290096200Y-144950064D01*
X290096200Y-131049936D01*
X290099641Y-131015000D01*
X293750359Y-131015000D01*
X293753800Y-131049936D01*
X293753801Y-144950054D01*
X293750359Y-144985000D01*
X293764091Y-145124420D01*
X293804758Y-145258481D01*
X293870798Y-145382033D01*
X293959673Y-145490327D01*
X294067967Y-145579202D01*
X294191519Y-145645242D01*
X294325580Y-145685909D01*
X294430064Y-145696200D01*
X294465000Y-145699641D01*
X294499936Y-145696200D01*
X308400064Y-145696200D01*
X308435000Y-145699641D01*
X308469936Y-145696200D01*
X308574420Y-145685909D01*
X308708481Y-145645242D01*
X308832033Y-145579202D01*
X308940327Y-145490327D01*
X309029202Y-145382033D01*
X309095242Y-145258481D01*
X309135909Y-145124420D01*
X309149641Y-144985000D01*
X309146200Y-144950064D01*
X309146200Y-131049936D01*
X309149641Y-131015000D01*
X312800359Y-131015000D01*
X312803800Y-131049936D01*
X312803801Y-144950054D01*
X312800359Y-144985000D01*
X312814091Y-145124420D01*
X312854758Y-145258481D01*
X312920798Y-145382033D01*
X313009673Y-145490327D01*
X313117967Y-145579202D01*
X313241519Y-145645242D01*
X313375580Y-145685909D01*
X313480064Y-145696200D01*
X313515000Y-145699641D01*
X313549936Y-145696200D01*
X327450064Y-145696200D01*
X327485000Y-145699641D01*
X327519936Y-145696200D01*
X327624420Y-145685909D01*
X327758481Y-145645242D01*
X327882033Y-145579202D01*
X327990327Y-145490327D01*
X328079202Y-145382033D01*
X328145242Y-145258481D01*
X328185909Y-145124420D01*
X328199641Y-144985000D01*
X328196200Y-144950064D01*
X328196200Y-131049936D01*
X328199641Y-131015000D01*
X331850359Y-131015000D01*
X331853800Y-131049936D01*
X331853801Y-144950054D01*
X331850359Y-144985000D01*
X331864091Y-145124420D01*
X331904758Y-145258481D01*
X331970798Y-145382033D01*
X332059673Y-145490327D01*
X332167967Y-145579202D01*
X332291519Y-145645242D01*
X332425580Y-145685909D01*
X332530064Y-145696200D01*
X332565000Y-145699641D01*
X332599936Y-145696200D01*
X346500064Y-145696200D01*
X346535000Y-145699641D01*
X346569936Y-145696200D01*
X346674420Y-145685909D01*
X346808481Y-145645242D01*
X346932033Y-145579202D01*
X347040327Y-145490327D01*
X347129202Y-145382033D01*
X347195242Y-145258481D01*
X347235909Y-145124420D01*
X347249641Y-144985000D01*
X347246200Y-144950064D01*
X347246200Y-131049936D01*
X347249641Y-131015000D01*
X350900359Y-131015000D01*
X350903800Y-131049936D01*
X350903801Y-144950054D01*
X350900359Y-144985000D01*
X350914091Y-145124420D01*
X350954758Y-145258481D01*
X351020798Y-145382033D01*
X351109673Y-145490327D01*
X351217967Y-145579202D01*
X351341519Y-145645242D01*
X351475580Y-145685909D01*
X351580064Y-145696200D01*
X351615000Y-145699641D01*
X351649936Y-145696200D01*
X365550064Y-145696200D01*
X365585000Y-145699641D01*
X365619936Y-145696200D01*
X365724420Y-145685909D01*
X365858481Y-145645242D01*
X365982033Y-145579202D01*
X366090327Y-145490327D01*
X366179202Y-145382033D01*
X366245242Y-145258481D01*
X366285909Y-145124420D01*
X366299641Y-144985000D01*
X366296200Y-144950064D01*
X366296200Y-131049936D01*
X366299641Y-131015000D01*
X366285909Y-130875580D01*
X366245242Y-130741519D01*
X366179202Y-130617967D01*
X366090327Y-130509673D01*
X365982033Y-130420798D01*
X365858481Y-130354758D01*
X365724420Y-130314091D01*
X365619936Y-130303800D01*
X365585000Y-130300359D01*
X365550064Y-130303800D01*
X351649936Y-130303800D01*
X351615000Y-130300359D01*
X351580064Y-130303800D01*
X351475580Y-130314091D01*
X351341519Y-130354758D01*
X351217967Y-130420798D01*
X351109673Y-130509673D01*
X351020798Y-130617967D01*
X350954758Y-130741519D01*
X350914091Y-130875580D01*
X350900359Y-131015000D01*
X347249641Y-131015000D01*
X347235909Y-130875580D01*
X347195242Y-130741519D01*
X347129202Y-130617967D01*
X347040327Y-130509673D01*
X346932033Y-130420798D01*
X346808481Y-130354758D01*
X346674420Y-130314091D01*
X346569936Y-130303800D01*
X346535000Y-130300359D01*
X346500064Y-130303800D01*
X332599936Y-130303800D01*
X332565000Y-130300359D01*
X332530064Y-130303800D01*
X332425580Y-130314091D01*
X332291519Y-130354758D01*
X332167967Y-130420798D01*
X332059673Y-130509673D01*
X331970798Y-130617967D01*
X331904758Y-130741519D01*
X331864091Y-130875580D01*
X331850359Y-131015000D01*
X328199641Y-131015000D01*
X328185909Y-130875580D01*
X328145242Y-130741519D01*
X328079202Y-130617967D01*
X327990327Y-130509673D01*
X327882033Y-130420798D01*
X327758481Y-130354758D01*
X327624420Y-130314091D01*
X327519936Y-130303800D01*
X327485000Y-130300359D01*
X327450064Y-130303800D01*
X313549936Y-130303800D01*
X313515000Y-130300359D01*
X313480064Y-130303800D01*
X313375580Y-130314091D01*
X313241519Y-130354758D01*
X313117967Y-130420798D01*
X313009673Y-130509673D01*
X312920798Y-130617967D01*
X312854758Y-130741519D01*
X312814091Y-130875580D01*
X312800359Y-131015000D01*
X309149641Y-131015000D01*
X309135909Y-130875580D01*
X309095242Y-130741519D01*
X309029202Y-130617967D01*
X308940327Y-130509673D01*
X308832033Y-130420798D01*
X308708481Y-130354758D01*
X308574420Y-130314091D01*
X308469936Y-130303800D01*
X308435000Y-130300359D01*
X308400064Y-130303800D01*
X294499936Y-130303800D01*
X294465000Y-130300359D01*
X294430064Y-130303800D01*
X294325580Y-130314091D01*
X294191519Y-130354758D01*
X294067967Y-130420798D01*
X293959673Y-130509673D01*
X293870798Y-130617967D01*
X293804758Y-130741519D01*
X293764091Y-130875580D01*
X293750359Y-131015000D01*
X290099641Y-131015000D01*
X290085909Y-130875580D01*
X290045242Y-130741519D01*
X289979202Y-130617967D01*
X289890327Y-130509673D01*
X289782033Y-130420798D01*
X289658481Y-130354758D01*
X289524420Y-130314091D01*
X289419936Y-130303800D01*
X289385000Y-130300359D01*
X289350064Y-130303800D01*
X275449936Y-130303800D01*
X275415000Y-130300359D01*
X275380064Y-130303800D01*
X275275580Y-130314091D01*
X275141519Y-130354758D01*
X275017967Y-130420798D01*
X274909673Y-130509673D01*
X274820798Y-130617967D01*
X274754758Y-130741519D01*
X274714091Y-130875580D01*
X274700359Y-131015000D01*
X271049641Y-131015000D01*
X271035909Y-130875580D01*
X270995242Y-130741519D01*
X270929202Y-130617967D01*
X270840327Y-130509673D01*
X270732033Y-130420798D01*
X270608481Y-130354758D01*
X270474420Y-130314091D01*
X270369936Y-130303800D01*
X270335000Y-130300359D01*
X270300064Y-130303800D01*
X256399936Y-130303800D01*
X256365000Y-130300359D01*
X256330064Y-130303800D01*
X256225580Y-130314091D01*
X256091519Y-130354758D01*
X255967967Y-130420798D01*
X255859673Y-130509673D01*
X255770798Y-130617967D01*
X255704758Y-130741519D01*
X255664091Y-130875580D01*
X255650359Y-131015000D01*
X251999641Y-131015000D01*
X251985909Y-130875580D01*
X251945242Y-130741519D01*
X251879202Y-130617967D01*
X251790327Y-130509673D01*
X251682033Y-130420798D01*
X251558481Y-130354758D01*
X251424420Y-130314091D01*
X251319936Y-130303800D01*
X251285000Y-130300359D01*
X251250064Y-130303800D01*
X237349936Y-130303800D01*
X237315000Y-130300359D01*
X237280064Y-130303800D01*
X237175580Y-130314091D01*
X237041519Y-130354758D01*
X236917967Y-130420798D01*
X236809673Y-130509673D01*
X236720798Y-130617967D01*
X236654758Y-130741519D01*
X236614091Y-130875580D01*
X236600359Y-131015000D01*
X232949641Y-131015000D01*
X232935909Y-130875580D01*
X232895242Y-130741519D01*
X232829202Y-130617967D01*
X232740327Y-130509673D01*
X232632033Y-130420798D01*
X232508481Y-130354758D01*
X232374420Y-130314091D01*
X232269936Y-130303800D01*
X232235000Y-130300359D01*
X232200064Y-130303800D01*
X218299936Y-130303800D01*
X218265000Y-130300359D01*
X218230064Y-130303800D01*
X218125580Y-130314091D01*
X217991519Y-130354758D01*
X217867967Y-130420798D01*
X217759673Y-130509673D01*
X217670798Y-130617967D01*
X217604758Y-130741519D01*
X217564091Y-130875580D01*
X217550359Y-131015000D01*
X213899641Y-131015000D01*
X213885909Y-130875580D01*
X213845242Y-130741519D01*
X213779202Y-130617967D01*
X213690327Y-130509673D01*
X213582033Y-130420798D01*
X213458481Y-130354758D01*
X213324420Y-130314091D01*
X213219936Y-130303800D01*
X213185000Y-130300359D01*
X213150064Y-130303800D01*
X199249936Y-130303800D01*
X199215000Y-130300359D01*
X199180064Y-130303800D01*
X199075580Y-130314091D01*
X198941519Y-130354758D01*
X198817967Y-130420798D01*
X198709673Y-130509673D01*
X198620798Y-130617967D01*
X198554758Y-130741519D01*
X198514091Y-130875580D01*
X198500359Y-131015000D01*
X194849641Y-131015000D01*
X194835909Y-130875580D01*
X194795242Y-130741519D01*
X194729202Y-130617967D01*
X194640327Y-130509673D01*
X194532033Y-130420798D01*
X194408481Y-130354758D01*
X194274420Y-130314091D01*
X194169936Y-130303800D01*
X194135000Y-130300359D01*
X194100064Y-130303800D01*
X180199936Y-130303800D01*
X180165000Y-130300359D01*
X180130064Y-130303800D01*
X180025580Y-130314091D01*
X179891519Y-130354758D01*
X179767967Y-130420798D01*
X179659673Y-130509673D01*
X179570798Y-130617967D01*
X179504758Y-130741519D01*
X179464091Y-130875580D01*
X179450359Y-131015000D01*
X175799641Y-131015000D01*
X175785909Y-130875580D01*
X175745242Y-130741519D01*
X175679202Y-130617967D01*
X175590327Y-130509673D01*
X175482033Y-130420798D01*
X175358481Y-130354758D01*
X175224420Y-130314091D01*
X175119936Y-130303800D01*
X175085000Y-130300359D01*
X175050064Y-130303800D01*
X161149936Y-130303800D01*
X161115000Y-130300359D01*
X161080064Y-130303800D01*
X160975580Y-130314091D01*
X160841519Y-130354758D01*
X160717967Y-130420798D01*
X160609673Y-130509673D01*
X160520798Y-130617967D01*
X160454758Y-130741519D01*
X160414091Y-130875580D01*
X160400359Y-131015000D01*
X156749641Y-131015000D01*
X156735909Y-130875580D01*
X156695242Y-130741519D01*
X156629202Y-130617967D01*
X156540327Y-130509673D01*
X156432033Y-130420798D01*
X156308481Y-130354758D01*
X156174420Y-130314091D01*
X156069936Y-130303800D01*
X156035000Y-130300359D01*
X156000064Y-130303800D01*
X142099936Y-130303800D01*
X142065000Y-130300359D01*
X142030064Y-130303800D01*
X141925580Y-130314091D01*
X141791519Y-130354758D01*
X141667967Y-130420798D01*
X141559673Y-130509673D01*
X141470798Y-130617967D01*
X141404758Y-130741519D01*
X141364091Y-130875580D01*
X141350359Y-131015000D01*
X137699641Y-131015000D01*
X137685909Y-130875580D01*
X137645242Y-130741519D01*
X137579202Y-130617967D01*
X137490327Y-130509673D01*
X137382033Y-130420798D01*
X137258481Y-130354758D01*
X137124420Y-130314091D01*
X137019936Y-130303800D01*
X136985000Y-130300359D01*
X136950064Y-130303800D01*
X123049936Y-130303800D01*
X123015000Y-130300359D01*
X122980064Y-130303800D01*
X122875580Y-130314091D01*
X122741519Y-130354758D01*
X122617967Y-130420798D01*
X122509673Y-130509673D01*
X122420798Y-130617967D01*
X122354758Y-130741519D01*
X122314091Y-130875580D01*
X122300359Y-131015000D01*
X113246500Y-131015000D01*
X113246500Y-124240975D01*
X113928000Y-124240975D01*
X113928000Y-124760025D01*
X114029261Y-125269101D01*
X114227893Y-125748641D01*
X114516262Y-126180215D01*
X114883285Y-126547238D01*
X115314859Y-126835607D01*
X115794399Y-127034239D01*
X116303475Y-127135500D01*
X116822525Y-127135500D01*
X117331601Y-127034239D01*
X117811141Y-126835607D01*
X118242715Y-126547238D01*
X118609738Y-126180215D01*
X118898107Y-125748641D01*
X119096739Y-125269101D01*
X119198000Y-124760025D01*
X119198000Y-124240975D01*
X241681250Y-124240975D01*
X241681250Y-124760025D01*
X241782511Y-125269101D01*
X241981143Y-125748641D01*
X242269512Y-126180215D01*
X242636535Y-126547238D01*
X243068109Y-126835607D01*
X243547649Y-127034239D01*
X244056725Y-127135500D01*
X244575775Y-127135500D01*
X245084851Y-127034239D01*
X245564391Y-126835607D01*
X245995965Y-126547238D01*
X246362988Y-126180215D01*
X246651357Y-125748641D01*
X246849989Y-125269101D01*
X246951250Y-124760025D01*
X246951250Y-124240975D01*
X369434500Y-124240975D01*
X369434500Y-124760025D01*
X369535761Y-125269101D01*
X369734393Y-125748641D01*
X370022762Y-126180215D01*
X370389785Y-126547238D01*
X370821359Y-126835607D01*
X371300899Y-127034239D01*
X371809975Y-127135500D01*
X372329025Y-127135500D01*
X372838101Y-127034239D01*
X373317641Y-126835607D01*
X373749215Y-126547238D01*
X374116238Y-126180215D01*
X374404607Y-125748641D01*
X374603239Y-125269101D01*
X374704500Y-124760025D01*
X374704500Y-124240975D01*
X374603239Y-123731899D01*
X374404607Y-123252359D01*
X374116238Y-122820785D01*
X373749215Y-122453762D01*
X373317641Y-122165393D01*
X372838101Y-121966761D01*
X372329025Y-121865500D01*
X371809975Y-121865500D01*
X371300899Y-121966761D01*
X370821359Y-122165393D01*
X370389785Y-122453762D01*
X370022762Y-122820785D01*
X369734393Y-123252359D01*
X369535761Y-123731899D01*
X369434500Y-124240975D01*
X246951250Y-124240975D01*
X246849989Y-123731899D01*
X246651357Y-123252359D01*
X246362988Y-122820785D01*
X245995965Y-122453762D01*
X245564391Y-122165393D01*
X245084851Y-121966761D01*
X244575775Y-121865500D01*
X244056725Y-121865500D01*
X243547649Y-121966761D01*
X243068109Y-122165393D01*
X242636535Y-122453762D01*
X242269512Y-122820785D01*
X241981143Y-123252359D01*
X241782511Y-123731899D01*
X241681250Y-124240975D01*
X119198000Y-124240975D01*
X119096739Y-123731899D01*
X118898107Y-123252359D01*
X118609738Y-122820785D01*
X118242715Y-122453762D01*
X117811141Y-122165393D01*
X117331601Y-121966761D01*
X116822525Y-121865500D01*
X116303475Y-121865500D01*
X115794399Y-121966761D01*
X115314859Y-122165393D01*
X114883285Y-122453762D01*
X114516262Y-122820785D01*
X114227893Y-123252359D01*
X114029261Y-123731899D01*
X113928000Y-124240975D01*
X113246500Y-124240975D01*
X113246500Y-123087977D01*
X113283401Y-122711631D01*
X113385736Y-122372681D01*
X113551955Y-122060068D01*
X113775735Y-121785687D01*
X114048540Y-121560004D01*
X114359988Y-121391604D01*
X114701185Y-121285986D01*
X115037174Y-121247500D01*
X373537222Y-121247500D01*
X373909378Y-121283990D01*
G37*
X373909378Y-121283990D02*
X374236310Y-121382696D01*
X374537843Y-121543025D01*
X374802495Y-121758870D01*
X375020178Y-122022003D01*
X375182608Y-122322411D01*
X375283596Y-122648650D01*
X375322500Y-123018800D01*
X375322501Y-210088211D01*
X375286010Y-210460377D01*
X375187303Y-210787312D01*
X375026976Y-211088843D01*
X374811132Y-211353493D01*
X374547996Y-211571179D01*
X374247589Y-211733608D01*
X373921350Y-211834596D01*
X373551200Y-211873500D01*
X115031779Y-211873500D01*
X114659623Y-211837010D01*
X114332688Y-211738303D01*
X114031157Y-211577976D01*
X113766507Y-211362132D01*
X113548821Y-211098996D01*
X113386392Y-210798589D01*
X113285404Y-210472350D01*
X113246500Y-210102200D01*
X113246500Y-208360975D01*
X113928000Y-208360975D01*
X113928000Y-208880025D01*
X114029261Y-209389101D01*
X114227893Y-209868641D01*
X114516262Y-210300215D01*
X114883285Y-210667238D01*
X115314859Y-210955607D01*
X115794399Y-211154239D01*
X116303475Y-211255500D01*
X116822525Y-211255500D01*
X117331601Y-211154239D01*
X117811141Y-210955607D01*
X118242715Y-210667238D01*
X118609738Y-210300215D01*
X118898107Y-209868641D01*
X119096739Y-209389101D01*
X119198000Y-208880025D01*
X119198000Y-208360975D01*
X241681250Y-208360975D01*
X241681250Y-208880025D01*
X241782511Y-209389101D01*
X241981143Y-209868641D01*
X242269512Y-210300215D01*
X242636535Y-210667238D01*
X243068109Y-210955607D01*
X243547649Y-211154239D01*
X244056725Y-211255500D01*
X244575775Y-211255500D01*
X245084851Y-211154239D01*
X245564391Y-210955607D01*
X245995965Y-210667238D01*
X246362988Y-210300215D01*
X246651357Y-209868641D01*
X246849989Y-209389101D01*
X246951250Y-208880025D01*
X246951250Y-208360975D01*
X369434500Y-208360975D01*
X369434500Y-208880025D01*
X369535761Y-209389101D01*
X369734393Y-209868641D01*
X370022762Y-210300215D01*
X370389785Y-210667238D01*
X370821359Y-210955607D01*
X371300899Y-211154239D01*
X371809975Y-211255500D01*
X372329025Y-211255500D01*
X372838101Y-211154239D01*
X373317641Y-210955607D01*
X373749215Y-210667238D01*
X374116238Y-210300215D01*
X374404607Y-209868641D01*
X374603239Y-209389101D01*
X374704500Y-208880025D01*
X374704500Y-208360975D01*
X374603239Y-207851899D01*
X374404607Y-207372359D01*
X374116238Y-206940785D01*
X373749215Y-206573762D01*
X373317641Y-206285393D01*
X372838101Y-206086761D01*
X372329025Y-205985500D01*
X371809975Y-205985500D01*
X371300899Y-206086761D01*
X370821359Y-206285393D01*
X370389785Y-206573762D01*
X370022762Y-206940785D01*
X369734393Y-207372359D01*
X369535761Y-207851899D01*
X369434500Y-208360975D01*
X246951250Y-208360975D01*
X246849989Y-207851899D01*
X246651357Y-207372359D01*
X246362988Y-206940785D01*
X245995965Y-206573762D01*
X245564391Y-206285393D01*
X245084851Y-206086761D01*
X244575775Y-205985500D01*
X244056725Y-205985500D01*
X243547649Y-206086761D01*
X243068109Y-206285393D01*
X242636535Y-206573762D01*
X242269512Y-206940785D01*
X241981143Y-207372359D01*
X241782511Y-207851899D01*
X241681250Y-208360975D01*
X119198000Y-208360975D01*
X119096739Y-207851899D01*
X118898107Y-207372359D01*
X118609738Y-206940785D01*
X118242715Y-206573762D01*
X117811141Y-206285393D01*
X117331601Y-206086761D01*
X116822525Y-205985500D01*
X116303475Y-205985500D01*
X115794399Y-206086761D01*
X115314859Y-206285393D01*
X114883285Y-206573762D01*
X114516262Y-206940785D01*
X114227893Y-207372359D01*
X114029261Y-207851899D01*
X113928000Y-208360975D01*
X113246500Y-208360975D01*
X113246500Y-188165000D01*
X122300359Y-188165000D01*
X122303800Y-188199936D01*
X122303801Y-202100054D01*
X122300359Y-202135000D01*
X122314091Y-202274420D01*
X122354758Y-202408481D01*
X122420798Y-202532033D01*
X122509673Y-202640327D01*
X122617967Y-202729202D01*
X122741519Y-202795242D01*
X122875580Y-202835909D01*
X122980064Y-202846200D01*
X123015000Y-202849641D01*
X123049936Y-202846200D01*
X136950064Y-202846200D01*
X136985000Y-202849641D01*
X137019936Y-202846200D01*
X137124420Y-202835909D01*
X137258481Y-202795242D01*
X137382033Y-202729202D01*
X137490327Y-202640327D01*
X137579202Y-202532033D01*
X137645242Y-202408481D01*
X137685909Y-202274420D01*
X137699641Y-202135000D01*
X137696200Y-202100064D01*
X137696200Y-188199936D01*
X137699641Y-188165000D01*
X141350359Y-188165000D01*
X141353800Y-188199936D01*
X141353801Y-202100054D01*
X141350359Y-202135000D01*
X141364091Y-202274420D01*
X141404758Y-202408481D01*
X141470798Y-202532033D01*
X141559673Y-202640327D01*
X141667967Y-202729202D01*
X141791519Y-202795242D01*
X141925580Y-202835909D01*
X142030064Y-202846200D01*
X142065000Y-202849641D01*
X142099936Y-202846200D01*
X156000064Y-202846200D01*
X156035000Y-202849641D01*
X156069936Y-202846200D01*
X156174420Y-202835909D01*
X156308481Y-202795242D01*
X156432033Y-202729202D01*
X156540327Y-202640327D01*
X156629202Y-202532033D01*
X156695242Y-202408481D01*
X156735909Y-202274420D01*
X156749641Y-202135000D01*
X156746200Y-202100064D01*
X156746200Y-188199936D01*
X156749641Y-188165000D01*
X160400359Y-188165000D01*
X160403800Y-188199936D01*
X160403801Y-202100054D01*
X160400359Y-202135000D01*
X160414091Y-202274420D01*
X160454758Y-202408481D01*
X160520798Y-202532033D01*
X160609673Y-202640327D01*
X160717967Y-202729202D01*
X160841519Y-202795242D01*
X160975580Y-202835909D01*
X161080064Y-202846200D01*
X161115000Y-202849641D01*
X161149936Y-202846200D01*
X175050064Y-202846200D01*
X175085000Y-202849641D01*
X175119936Y-202846200D01*
X175224420Y-202835909D01*
X175358481Y-202795242D01*
X175482033Y-202729202D01*
X175590327Y-202640327D01*
X175679202Y-202532033D01*
X175745242Y-202408481D01*
X175785909Y-202274420D01*
X175799641Y-202135000D01*
X175796200Y-202100064D01*
X175796200Y-188199936D01*
X175799641Y-188165000D01*
X181831609Y-188165000D01*
X181835050Y-188199936D01*
X181835051Y-202100054D01*
X181831609Y-202135000D01*
X181845341Y-202274420D01*
X181886008Y-202408481D01*
X181952048Y-202532033D01*
X182040923Y-202640327D01*
X182149217Y-202729202D01*
X182272769Y-202795242D01*
X182406830Y-202835909D01*
X182511314Y-202846200D01*
X182546250Y-202849641D01*
X182581186Y-202846200D01*
X196481314Y-202846200D01*
X196516250Y-202849641D01*
X196551186Y-202846200D01*
X196655670Y-202835909D01*
X196789731Y-202795242D01*
X196913283Y-202729202D01*
X197021577Y-202640327D01*
X197110452Y-202532033D01*
X197176492Y-202408481D01*
X197217159Y-202274420D01*
X197230891Y-202135000D01*
X197227450Y-202100064D01*
X197227450Y-194642000D01*
X206025109Y-194642000D01*
X206028550Y-194676935D01*
X206028551Y-197401054D01*
X206025109Y-197436000D01*
X206038841Y-197575420D01*
X206079508Y-197709481D01*
X206145548Y-197833033D01*
X206234423Y-197941327D01*
X206342717Y-198030202D01*
X206466269Y-198096242D01*
X206600330Y-198136909D01*
X206704814Y-198147200D01*
X206739750Y-198150641D01*
X206774686Y-198147200D01*
X206892150Y-198147200D01*
X206892151Y-200804654D01*
X206888709Y-200839600D01*
X206902441Y-200979020D01*
X206943108Y-201113081D01*
X207009148Y-201236633D01*
X207098023Y-201344927D01*
X207206317Y-201433802D01*
X207329869Y-201499842D01*
X207463930Y-201540509D01*
X207568414Y-201550800D01*
X207603350Y-201554241D01*
X207638286Y-201550800D01*
X214223214Y-201550800D01*
X214258150Y-201554241D01*
X214293086Y-201550800D01*
X214397570Y-201540509D01*
X214531631Y-201499842D01*
X214655183Y-201433802D01*
X214763477Y-201344927D01*
X214852352Y-201236633D01*
X214918392Y-201113081D01*
X214959059Y-200979020D01*
X214972791Y-200839600D01*
X214969350Y-200804664D01*
X214969350Y-200738000D01*
X215172550Y-200738000D01*
X215172551Y-202100054D01*
X215169109Y-202135000D01*
X215182841Y-202274420D01*
X215223508Y-202408481D01*
X215289548Y-202532033D01*
X215378423Y-202640327D01*
X215486717Y-202729202D01*
X215610269Y-202795242D01*
X215744330Y-202835909D01*
X215848814Y-202846200D01*
X215883750Y-202849641D01*
X215918686Y-202846200D01*
X229818814Y-202846200D01*
X229853750Y-202849641D01*
X229888686Y-202846200D01*
X229993170Y-202835909D01*
X230127231Y-202795242D01*
X230250783Y-202729202D01*
X230359077Y-202640327D01*
X230447952Y-202532033D01*
X230513992Y-202408481D01*
X230554659Y-202274420D01*
X230568391Y-202135000D01*
X230564950Y-202100064D01*
X230564950Y-200738000D01*
X230768150Y-200738000D01*
X230768150Y-200804664D01*
X230764709Y-200839600D01*
X230778441Y-200979020D01*
X230819108Y-201113081D01*
X230885148Y-201236633D01*
X230974023Y-201344927D01*
X231082317Y-201433802D01*
X231205869Y-201499842D01*
X231339930Y-201540509D01*
X231444414Y-201550800D01*
X231479350Y-201554241D01*
X231514286Y-201550800D01*
X238099214Y-201550800D01*
X238134150Y-201554241D01*
X238169086Y-201550800D01*
X238273570Y-201540509D01*
X238407631Y-201499842D01*
X238531183Y-201433802D01*
X238639477Y-201344927D01*
X238728352Y-201236633D01*
X238794392Y-201113081D01*
X238835059Y-200979020D01*
X238848791Y-200839600D01*
X238845350Y-200804664D01*
X238845350Y-198147200D01*
X238962814Y-198147200D01*
X238997750Y-198150641D01*
X239032686Y-198147200D01*
X239137170Y-198136909D01*
X239271231Y-198096242D01*
X239394783Y-198030202D01*
X239503077Y-197941327D01*
X239591952Y-197833033D01*
X239657992Y-197709481D01*
X239698659Y-197575420D01*
X239712391Y-197436000D01*
X239708950Y-197401064D01*
X239708950Y-194676935D01*
X239712391Y-194642000D01*
X248887609Y-194642000D01*
X248891050Y-194676935D01*
X248891051Y-197401054D01*
X248887609Y-197436000D01*
X248901341Y-197575420D01*
X248942008Y-197709481D01*
X249008048Y-197833033D01*
X249096923Y-197941327D01*
X249205217Y-198030202D01*
X249328769Y-198096242D01*
X249462830Y-198136909D01*
X249567314Y-198147200D01*
X249602250Y-198150641D01*
X249637186Y-198147200D01*
X249754650Y-198147200D01*
X249754651Y-200804654D01*
X249751209Y-200839600D01*
X249764941Y-200979020D01*
X249805608Y-201113081D01*
X249871648Y-201236633D01*
X249960523Y-201344927D01*
X250068817Y-201433802D01*
X250192369Y-201499842D01*
X250326430Y-201540509D01*
X250430914Y-201550800D01*
X250465850Y-201554241D01*
X250500786Y-201550800D01*
X257085714Y-201550800D01*
X257120650Y-201554241D01*
X257155586Y-201550800D01*
X257260070Y-201540509D01*
X257394131Y-201499842D01*
X257517683Y-201433802D01*
X257625977Y-201344927D01*
X257714852Y-201236633D01*
X257780892Y-201113081D01*
X257821559Y-200979020D01*
X257835291Y-200839600D01*
X257831850Y-200804664D01*
X257831850Y-200738000D01*
X258035050Y-200738000D01*
X258035051Y-202100054D01*
X258031609Y-202135000D01*
X258045341Y-202274420D01*
X258086008Y-202408481D01*
X258152048Y-202532033D01*
X258240923Y-202640327D01*
X258349217Y-202729202D01*
X258472769Y-202795242D01*
X258606830Y-202835909D01*
X258711314Y-202846200D01*
X258746250Y-202849641D01*
X258781186Y-202846200D01*
X272681314Y-202846200D01*
X272716250Y-202849641D01*
X272751186Y-202846200D01*
X272855670Y-202835909D01*
X272989731Y-202795242D01*
X273113283Y-202729202D01*
X273221577Y-202640327D01*
X273310452Y-202532033D01*
X273376492Y-202408481D01*
X273417159Y-202274420D01*
X273430891Y-202135000D01*
X273427450Y-202100064D01*
X273427450Y-200738000D01*
X273630650Y-200738000D01*
X273630650Y-200804664D01*
X273627209Y-200839600D01*
X273640941Y-200979020D01*
X273681608Y-201113081D01*
X273747648Y-201236633D01*
X273836523Y-201344927D01*
X273944817Y-201433802D01*
X274068369Y-201499842D01*
X274202430Y-201540509D01*
X274306914Y-201550800D01*
X274341850Y-201554241D01*
X274376786Y-201550800D01*
X280961714Y-201550800D01*
X280996650Y-201554241D01*
X281031586Y-201550800D01*
X281136070Y-201540509D01*
X281270131Y-201499842D01*
X281393683Y-201433802D01*
X281501977Y-201344927D01*
X281590852Y-201236633D01*
X281656892Y-201113081D01*
X281697559Y-200979020D01*
X281711291Y-200839600D01*
X281707850Y-200804664D01*
X281707850Y-198147200D01*
X281825314Y-198147200D01*
X281860250Y-198150641D01*
X281895186Y-198147200D01*
X281999670Y-198136909D01*
X282133731Y-198096242D01*
X282257283Y-198030202D01*
X282365577Y-197941327D01*
X282454452Y-197833033D01*
X282520492Y-197709481D01*
X282561159Y-197575420D01*
X282574891Y-197436000D01*
X282571450Y-197401064D01*
X282571450Y-194676935D01*
X282574891Y-194642000D01*
X282561159Y-194502580D01*
X282520492Y-194368519D01*
X282454452Y-194244967D01*
X282365577Y-194136673D01*
X282257283Y-194047798D01*
X282133731Y-193981758D01*
X281999670Y-193941091D01*
X281895186Y-193930800D01*
X281860250Y-193927359D01*
X281825314Y-193930800D01*
X281707850Y-193930800D01*
X281707850Y-188580935D01*
X281711291Y-188546000D01*
X281697559Y-188406580D01*
X281656892Y-188272519D01*
X281599422Y-188165000D01*
X291369109Y-188165000D01*
X291372550Y-188199936D01*
X291372551Y-202100054D01*
X291369109Y-202135000D01*
X291382841Y-202274420D01*
X291423508Y-202408481D01*
X291489548Y-202532033D01*
X291578423Y-202640327D01*
X291686717Y-202729202D01*
X291810269Y-202795242D01*
X291944330Y-202835909D01*
X292048814Y-202846200D01*
X292083750Y-202849641D01*
X292118686Y-202846200D01*
X306018814Y-202846200D01*
X306053750Y-202849641D01*
X306088686Y-202846200D01*
X306193170Y-202835909D01*
X306327231Y-202795242D01*
X306450783Y-202729202D01*
X306559077Y-202640327D01*
X306647952Y-202532033D01*
X306713992Y-202408481D01*
X306754659Y-202274420D01*
X306768391Y-202135000D01*
X306764950Y-202100064D01*
X306764950Y-188199936D01*
X306768391Y-188165000D01*
X312800359Y-188165000D01*
X312803800Y-188199936D01*
X312803801Y-202100054D01*
X312800359Y-202135000D01*
X312814091Y-202274420D01*
X312854758Y-202408481D01*
X312920798Y-202532033D01*
X313009673Y-202640327D01*
X313117967Y-202729202D01*
X313241519Y-202795242D01*
X313375580Y-202835909D01*
X313480064Y-202846200D01*
X313515000Y-202849641D01*
X313549936Y-202846200D01*
X327450064Y-202846200D01*
X327485000Y-202849641D01*
X327519936Y-202846200D01*
X327624420Y-202835909D01*
X327758481Y-202795242D01*
X327882033Y-202729202D01*
X327990327Y-202640327D01*
X328079202Y-202532033D01*
X328145242Y-202408481D01*
X328185909Y-202274420D01*
X328199641Y-202135000D01*
X328196200Y-202100064D01*
X328196200Y-188199936D01*
X328199641Y-188165000D01*
X331850359Y-188165000D01*
X331853800Y-188199936D01*
X331853801Y-202100054D01*
X331850359Y-202135000D01*
X331864091Y-202274420D01*
X331904758Y-202408481D01*
X331970798Y-202532033D01*
X332059673Y-202640327D01*
X332167967Y-202729202D01*
X332291519Y-202795242D01*
X332425580Y-202835909D01*
X332530064Y-202846200D01*
X332565000Y-202849641D01*
X332599936Y-202846200D01*
X346500064Y-202846200D01*
X346535000Y-202849641D01*
X346569936Y-202846200D01*
X346674420Y-202835909D01*
X346808481Y-202795242D01*
X346932033Y-202729202D01*
X347040327Y-202640327D01*
X347129202Y-202532033D01*
X347195242Y-202408481D01*
X347235909Y-202274420D01*
X347249641Y-202135000D01*
X347246200Y-202100064D01*
X347246200Y-188199936D01*
X347249641Y-188165000D01*
X350900359Y-188165000D01*
X350903800Y-188199936D01*
X350903801Y-202100054D01*
X350900359Y-202135000D01*
X350914091Y-202274420D01*
X350954758Y-202408481D01*
X351020798Y-202532033D01*
X351109673Y-202640327D01*
X351217967Y-202729202D01*
X351341519Y-202795242D01*
X351475580Y-202835909D01*
X351580064Y-202846200D01*
X351615000Y-202849641D01*
X351649936Y-202846200D01*
X365550064Y-202846200D01*
X365585000Y-202849641D01*
X365619936Y-202846200D01*
X365724420Y-202835909D01*
X365858481Y-202795242D01*
X365982033Y-202729202D01*
X366090327Y-202640327D01*
X366179202Y-202532033D01*
X366245242Y-202408481D01*
X366285909Y-202274420D01*
X366299641Y-202135000D01*
X366296200Y-202100064D01*
X366296200Y-188199936D01*
X366299641Y-188165000D01*
X366285909Y-188025580D01*
X366245242Y-187891519D01*
X366179202Y-187767967D01*
X366090327Y-187659673D01*
X365982033Y-187570798D01*
X365858481Y-187504758D01*
X365724420Y-187464091D01*
X365619936Y-187453800D01*
X365585000Y-187450359D01*
X365550064Y-187453800D01*
X351649936Y-187453800D01*
X351615000Y-187450359D01*
X351580064Y-187453800D01*
X351475580Y-187464091D01*
X351341519Y-187504758D01*
X351217967Y-187570798D01*
X351109673Y-187659673D01*
X351020798Y-187767967D01*
X350954758Y-187891519D01*
X350914091Y-188025580D01*
X350900359Y-188165000D01*
X347249641Y-188165000D01*
X347235909Y-188025580D01*
X347195242Y-187891519D01*
X347129202Y-187767967D01*
X347040327Y-187659673D01*
X346932033Y-187570798D01*
X346808481Y-187504758D01*
X346674420Y-187464091D01*
X346569936Y-187453800D01*
X346535000Y-187450359D01*
X346500064Y-187453800D01*
X332599936Y-187453800D01*
X332565000Y-187450359D01*
X332530064Y-187453800D01*
X332425580Y-187464091D01*
X332291519Y-187504758D01*
X332167967Y-187570798D01*
X332059673Y-187659673D01*
X331970798Y-187767967D01*
X331904758Y-187891519D01*
X331864091Y-188025580D01*
X331850359Y-188165000D01*
X328199641Y-188165000D01*
X328185909Y-188025580D01*
X328145242Y-187891519D01*
X328079202Y-187767967D01*
X327990327Y-187659673D01*
X327882033Y-187570798D01*
X327758481Y-187504758D01*
X327624420Y-187464091D01*
X327519936Y-187453800D01*
X327485000Y-187450359D01*
X327450064Y-187453800D01*
X313549936Y-187453800D01*
X313515000Y-187450359D01*
X313480064Y-187453800D01*
X313375580Y-187464091D01*
X313241519Y-187504758D01*
X313117967Y-187570798D01*
X313009673Y-187659673D01*
X312920798Y-187767967D01*
X312854758Y-187891519D01*
X312814091Y-188025580D01*
X312800359Y-188165000D01*
X306768391Y-188165000D01*
X306754659Y-188025580D01*
X306713992Y-187891519D01*
X306647952Y-187767967D01*
X306559077Y-187659673D01*
X306450783Y-187570798D01*
X306327231Y-187504758D01*
X306193170Y-187464091D01*
X306088686Y-187453800D01*
X306053750Y-187450359D01*
X306018814Y-187453800D01*
X292118686Y-187453800D01*
X292083750Y-187450359D01*
X292048814Y-187453800D01*
X291944330Y-187464091D01*
X291810269Y-187504758D01*
X291686717Y-187570798D01*
X291578423Y-187659673D01*
X291489548Y-187767967D01*
X291423508Y-187891519D01*
X291382841Y-188025580D01*
X291369109Y-188165000D01*
X281599422Y-188165000D01*
X281590852Y-188148967D01*
X281501977Y-188040673D01*
X281393683Y-187951798D01*
X281270131Y-187885758D01*
X281136070Y-187845091D01*
X281031586Y-187834800D01*
X280996650Y-187831359D01*
X280961714Y-187834800D01*
X280666450Y-187834800D01*
X280666450Y-187412536D01*
X280669891Y-187377600D01*
X280656159Y-187238180D01*
X280615492Y-187104119D01*
X280549452Y-186980567D01*
X280460577Y-186872273D01*
X280352283Y-186783398D01*
X280228731Y-186717358D01*
X280094670Y-186676691D01*
X279990186Y-186666400D01*
X279955250Y-186662959D01*
X279920314Y-186666400D01*
X275418186Y-186666400D01*
X275383250Y-186662959D01*
X275348314Y-186666400D01*
X275243830Y-186676691D01*
X275109769Y-186717358D01*
X274986217Y-186783398D01*
X274877923Y-186872273D01*
X274789048Y-186980567D01*
X274723008Y-187104119D01*
X274682341Y-187238180D01*
X274668609Y-187377600D01*
X274672050Y-187412537D01*
X274672050Y-187834800D01*
X274376786Y-187834800D01*
X274341850Y-187831359D01*
X274306914Y-187834800D01*
X274202430Y-187845091D01*
X274068369Y-187885758D01*
X273944817Y-187951798D01*
X273836523Y-188040673D01*
X273747648Y-188148967D01*
X273681608Y-188272519D01*
X273640941Y-188406580D01*
X273627209Y-188546000D01*
X273630650Y-188580935D01*
X273630650Y-188622200D01*
X273427450Y-188622200D01*
X273427450Y-188199936D01*
X273430891Y-188165000D01*
X273417159Y-188025580D01*
X273376492Y-187891519D01*
X273310452Y-187767967D01*
X273221577Y-187659673D01*
X273113283Y-187570798D01*
X272989731Y-187504758D01*
X272855670Y-187464091D01*
X272751186Y-187453800D01*
X272716250Y-187450359D01*
X272681314Y-187453800D01*
X258781186Y-187453800D01*
X258746250Y-187450359D01*
X258711314Y-187453800D01*
X258606830Y-187464091D01*
X258472769Y-187504758D01*
X258349217Y-187570798D01*
X258240923Y-187659673D01*
X258152048Y-187767967D01*
X258086008Y-187891519D01*
X258045341Y-188025580D01*
X258031609Y-188165000D01*
X258035050Y-188199937D01*
X258035050Y-188622200D01*
X257831850Y-188622200D01*
X257831850Y-188580935D01*
X257835291Y-188546000D01*
X257821559Y-188406580D01*
X257780892Y-188272519D01*
X257714852Y-188148967D01*
X257625977Y-188040673D01*
X257517683Y-187951798D01*
X257394131Y-187885758D01*
X257260070Y-187845091D01*
X257155586Y-187834800D01*
X257120650Y-187831359D01*
X257085714Y-187834800D01*
X256790450Y-187834800D01*
X256790450Y-187412536D01*
X256793891Y-187377600D01*
X256780159Y-187238180D01*
X256739492Y-187104119D01*
X256673452Y-186980567D01*
X256584577Y-186872273D01*
X256476283Y-186783398D01*
X256352731Y-186717358D01*
X256218670Y-186676691D01*
X256114186Y-186666400D01*
X256079250Y-186662959D01*
X256044314Y-186666400D01*
X251542186Y-186666400D01*
X251507250Y-186662959D01*
X251472314Y-186666400D01*
X251367830Y-186676691D01*
X251233769Y-186717358D01*
X251110217Y-186783398D01*
X251001923Y-186872273D01*
X250913048Y-186980567D01*
X250847008Y-187104119D01*
X250806341Y-187238180D01*
X250792609Y-187377600D01*
X250796050Y-187412537D01*
X250796050Y-187834800D01*
X250500786Y-187834800D01*
X250465850Y-187831359D01*
X250430914Y-187834800D01*
X250326430Y-187845091D01*
X250192369Y-187885758D01*
X250068817Y-187951798D01*
X249960523Y-188040673D01*
X249871648Y-188148967D01*
X249805608Y-188272519D01*
X249764941Y-188406580D01*
X249751209Y-188546000D01*
X249754650Y-188580935D01*
X249754651Y-193930800D01*
X249637186Y-193930800D01*
X249602250Y-193927359D01*
X249567314Y-193930800D01*
X249462830Y-193941091D01*
X249328769Y-193981758D01*
X249205217Y-194047798D01*
X249096923Y-194136673D01*
X249008048Y-194244967D01*
X248942008Y-194368519D01*
X248901341Y-194502580D01*
X248887609Y-194642000D01*
X239712391Y-194642000D01*
X239698659Y-194502580D01*
X239657992Y-194368519D01*
X239591952Y-194244967D01*
X239503077Y-194136673D01*
X239394783Y-194047798D01*
X239271231Y-193981758D01*
X239137170Y-193941091D01*
X239032686Y-193930800D01*
X238997750Y-193927359D01*
X238962814Y-193930800D01*
X238845350Y-193930800D01*
X238845350Y-188580935D01*
X238848791Y-188546000D01*
X238835059Y-188406580D01*
X238794392Y-188272519D01*
X238728352Y-188148967D01*
X238639477Y-188040673D01*
X238531183Y-187951798D01*
X238407631Y-187885758D01*
X238273570Y-187845091D01*
X238169086Y-187834800D01*
X238134150Y-187831359D01*
X238099214Y-187834800D01*
X237803950Y-187834800D01*
X237803950Y-187412536D01*
X237807391Y-187377600D01*
X237793659Y-187238180D01*
X237752992Y-187104119D01*
X237686952Y-186980567D01*
X237598077Y-186872273D01*
X237489783Y-186783398D01*
X237366231Y-186717358D01*
X237232170Y-186676691D01*
X237127686Y-186666400D01*
X237092750Y-186662959D01*
X237057814Y-186666400D01*
X232555686Y-186666400D01*
X232520750Y-186662959D01*
X232485814Y-186666400D01*
X232381330Y-186676691D01*
X232247269Y-186717358D01*
X232123717Y-186783398D01*
X232015423Y-186872273D01*
X231926548Y-186980567D01*
X231860508Y-187104119D01*
X231819841Y-187238180D01*
X231806109Y-187377600D01*
X231809550Y-187412537D01*
X231809550Y-187834800D01*
X231514286Y-187834800D01*
X231479350Y-187831359D01*
X231444414Y-187834800D01*
X231339930Y-187845091D01*
X231205869Y-187885758D01*
X231082317Y-187951798D01*
X230974023Y-188040673D01*
X230885148Y-188148967D01*
X230819108Y-188272519D01*
X230778441Y-188406580D01*
X230764709Y-188546000D01*
X230768150Y-188580935D01*
X230768150Y-188622200D01*
X230564950Y-188622200D01*
X230564950Y-188199936D01*
X230568391Y-188165000D01*
X230554659Y-188025580D01*
X230513992Y-187891519D01*
X230447952Y-187767967D01*
X230359077Y-187659673D01*
X230250783Y-187570798D01*
X230127231Y-187504758D01*
X229993170Y-187464091D01*
X229888686Y-187453800D01*
X229853750Y-187450359D01*
X229818814Y-187453800D01*
X215918686Y-187453800D01*
X215883750Y-187450359D01*
X215848814Y-187453800D01*
X215744330Y-187464091D01*
X215610269Y-187504758D01*
X215486717Y-187570798D01*
X215378423Y-187659673D01*
X215289548Y-187767967D01*
X215223508Y-187891519D01*
X215182841Y-188025580D01*
X215169109Y-188165000D01*
X215172550Y-188199937D01*
X215172550Y-188622200D01*
X214969350Y-188622200D01*
X214969350Y-188580935D01*
X214972791Y-188546000D01*
X214959059Y-188406580D01*
X214918392Y-188272519D01*
X214852352Y-188148967D01*
X214763477Y-188040673D01*
X214655183Y-187951798D01*
X214531631Y-187885758D01*
X214397570Y-187845091D01*
X214293086Y-187834800D01*
X214258150Y-187831359D01*
X214223214Y-187834800D01*
X213927950Y-187834800D01*
X213927950Y-187412536D01*
X213931391Y-187377600D01*
X213917659Y-187238180D01*
X213876992Y-187104119D01*
X213810952Y-186980567D01*
X213722077Y-186872273D01*
X213613783Y-186783398D01*
X213490231Y-186717358D01*
X213356170Y-186676691D01*
X213251686Y-186666400D01*
X213216750Y-186662959D01*
X213181814Y-186666400D01*
X208679686Y-186666400D01*
X208644750Y-186662959D01*
X208609814Y-186666400D01*
X208505330Y-186676691D01*
X208371269Y-186717358D01*
X208247717Y-186783398D01*
X208139423Y-186872273D01*
X208050548Y-186980567D01*
X207984508Y-187104119D01*
X207943841Y-187238180D01*
X207930109Y-187377600D01*
X207933550Y-187412537D01*
X207933550Y-187834800D01*
X207638286Y-187834800D01*
X207603350Y-187831359D01*
X207568414Y-187834800D01*
X207463930Y-187845091D01*
X207329869Y-187885758D01*
X207206317Y-187951798D01*
X207098023Y-188040673D01*
X207009148Y-188148967D01*
X206943108Y-188272519D01*
X206902441Y-188406580D01*
X206888709Y-188546000D01*
X206892150Y-188580935D01*
X206892151Y-193930800D01*
X206774686Y-193930800D01*
X206739750Y-193927359D01*
X206704814Y-193930800D01*
X206600330Y-193941091D01*
X206466269Y-193981758D01*
X206342717Y-194047798D01*
X206234423Y-194136673D01*
X206145548Y-194244967D01*
X206079508Y-194368519D01*
X206038841Y-194502580D01*
X206025109Y-194642000D01*
X197227450Y-194642000D01*
X197227450Y-188199936D01*
X197230891Y-188165000D01*
X197217159Y-188025580D01*
X197176492Y-187891519D01*
X197110452Y-187767967D01*
X197021577Y-187659673D01*
X196913283Y-187570798D01*
X196789731Y-187504758D01*
X196655670Y-187464091D01*
X196551186Y-187453800D01*
X196516250Y-187450359D01*
X196481314Y-187453800D01*
X182581186Y-187453800D01*
X182546250Y-187450359D01*
X182511314Y-187453800D01*
X182406830Y-187464091D01*
X182272769Y-187504758D01*
X182149217Y-187570798D01*
X182040923Y-187659673D01*
X181952048Y-187767967D01*
X181886008Y-187891519D01*
X181845341Y-188025580D01*
X181831609Y-188165000D01*
X175799641Y-188165000D01*
X175785909Y-188025580D01*
X175745242Y-187891519D01*
X175679202Y-187767967D01*
X175590327Y-187659673D01*
X175482033Y-187570798D01*
X175358481Y-187504758D01*
X175224420Y-187464091D01*
X175119936Y-187453800D01*
X175085000Y-187450359D01*
X175050064Y-187453800D01*
X161149936Y-187453800D01*
X161115000Y-187450359D01*
X161080064Y-187453800D01*
X160975580Y-187464091D01*
X160841519Y-187504758D01*
X160717967Y-187570798D01*
X160609673Y-187659673D01*
X160520798Y-187767967D01*
X160454758Y-187891519D01*
X160414091Y-188025580D01*
X160400359Y-188165000D01*
X156749641Y-188165000D01*
X156735909Y-188025580D01*
X156695242Y-187891519D01*
X156629202Y-187767967D01*
X156540327Y-187659673D01*
X156432033Y-187570798D01*
X156308481Y-187504758D01*
X156174420Y-187464091D01*
X156069936Y-187453800D01*
X156035000Y-187450359D01*
X156000064Y-187453800D01*
X142099936Y-187453800D01*
X142065000Y-187450359D01*
X142030064Y-187453800D01*
X141925580Y-187464091D01*
X141791519Y-187504758D01*
X141667967Y-187570798D01*
X141559673Y-187659673D01*
X141470798Y-187767967D01*
X141404758Y-187891519D01*
X141364091Y-188025580D01*
X141350359Y-188165000D01*
X137699641Y-188165000D01*
X137685909Y-188025580D01*
X137645242Y-187891519D01*
X137579202Y-187767967D01*
X137490327Y-187659673D01*
X137382033Y-187570798D01*
X137258481Y-187504758D01*
X137124420Y-187464091D01*
X137019936Y-187453800D01*
X136985000Y-187450359D01*
X136950064Y-187453800D01*
X123049936Y-187453800D01*
X123015000Y-187450359D01*
X122980064Y-187453800D01*
X122875580Y-187464091D01*
X122741519Y-187504758D01*
X122617967Y-187570798D01*
X122509673Y-187659673D01*
X122420798Y-187767967D01*
X122354758Y-187891519D01*
X122314091Y-188025580D01*
X122300359Y-188165000D01*
X113246500Y-188165000D01*
X113246500Y-169115000D01*
X124681609Y-169115000D01*
X124685050Y-169149936D01*
X124685051Y-183050054D01*
X124681609Y-183085000D01*
X124695341Y-183224420D01*
X124736008Y-183358481D01*
X124802048Y-183482033D01*
X124890923Y-183590327D01*
X124999217Y-183679202D01*
X125122769Y-183745242D01*
X125256830Y-183785909D01*
X125361314Y-183796200D01*
X125396250Y-183799641D01*
X125431186Y-183796200D01*
X139331314Y-183796200D01*
X139366250Y-183799641D01*
X139401186Y-183796200D01*
X139505670Y-183785909D01*
X139639731Y-183745242D01*
X139763283Y-183679202D01*
X139871577Y-183590327D01*
X139960452Y-183482033D01*
X140026492Y-183358481D01*
X140067159Y-183224420D01*
X140080891Y-183085000D01*
X140077450Y-183050064D01*
X140077450Y-169149936D01*
X140080891Y-169115000D01*
X146112859Y-169115000D01*
X146116300Y-169149936D01*
X146116301Y-183050054D01*
X146112859Y-183085000D01*
X146126591Y-183224420D01*
X146167258Y-183358481D01*
X146233298Y-183482033D01*
X146322173Y-183590327D01*
X146430467Y-183679202D01*
X146554019Y-183745242D01*
X146688080Y-183785909D01*
X146792564Y-183796200D01*
X146827500Y-183799641D01*
X146862436Y-183796200D01*
X160762564Y-183796200D01*
X160797500Y-183799641D01*
X160832436Y-183796200D01*
X160936920Y-183785909D01*
X161070981Y-183745242D01*
X161194533Y-183679202D01*
X161302827Y-183590327D01*
X161391702Y-183482033D01*
X161457742Y-183358481D01*
X161498409Y-183224420D01*
X161512141Y-183085000D01*
X161508700Y-183050064D01*
X161508700Y-169149936D01*
X161512141Y-169115000D01*
X165162859Y-169115000D01*
X165166300Y-169149936D01*
X165166301Y-183050054D01*
X165162859Y-183085000D01*
X165176591Y-183224420D01*
X165217258Y-183358481D01*
X165283298Y-183482033D01*
X165372173Y-183590327D01*
X165480467Y-183679202D01*
X165604019Y-183745242D01*
X165738080Y-183785909D01*
X165842564Y-183796200D01*
X165877500Y-183799641D01*
X165912436Y-183796200D01*
X179812564Y-183796200D01*
X179847500Y-183799641D01*
X179882436Y-183796200D01*
X179986920Y-183785909D01*
X180120981Y-183745242D01*
X180244533Y-183679202D01*
X180352827Y-183590327D01*
X180441702Y-183482033D01*
X180507742Y-183358481D01*
X180548409Y-183224420D01*
X180562141Y-183085000D01*
X180558700Y-183050064D01*
X180558700Y-169149936D01*
X180562141Y-169115000D01*
X184212859Y-169115000D01*
X184216300Y-169149936D01*
X184216301Y-183050054D01*
X184212859Y-183085000D01*
X184226591Y-183224420D01*
X184267258Y-183358481D01*
X184333298Y-183482033D01*
X184422173Y-183590327D01*
X184530467Y-183679202D01*
X184654019Y-183745242D01*
X184788080Y-183785909D01*
X184892564Y-183796200D01*
X184927500Y-183799641D01*
X184962436Y-183796200D01*
X198862564Y-183796200D01*
X198897500Y-183799641D01*
X198932436Y-183796200D01*
X199036920Y-183785909D01*
X199170981Y-183745242D01*
X199294533Y-183679202D01*
X199402827Y-183590327D01*
X199491702Y-183482033D01*
X199557742Y-183358481D01*
X199598409Y-183224420D01*
X199612141Y-183085000D01*
X199608700Y-183050064D01*
X199608700Y-169149936D01*
X199612141Y-169115000D01*
X203262859Y-169115000D01*
X203266300Y-169149936D01*
X203266301Y-183050054D01*
X203262859Y-183085000D01*
X203276591Y-183224420D01*
X203317258Y-183358481D01*
X203383298Y-183482033D01*
X203472173Y-183590327D01*
X203580467Y-183679202D01*
X203704019Y-183745242D01*
X203838080Y-183785909D01*
X203942564Y-183796200D01*
X203977500Y-183799641D01*
X204012436Y-183796200D01*
X217912564Y-183796200D01*
X217947500Y-183799641D01*
X217982436Y-183796200D01*
X218086920Y-183785909D01*
X218220981Y-183745242D01*
X218344533Y-183679202D01*
X218452827Y-183590327D01*
X218541702Y-183482033D01*
X218607742Y-183358481D01*
X218648409Y-183224420D01*
X218662141Y-183085000D01*
X218658700Y-183050064D01*
X218658700Y-169149936D01*
X218662141Y-169115000D01*
X222312859Y-169115000D01*
X222316300Y-169149936D01*
X222316301Y-183050054D01*
X222312859Y-183085000D01*
X222326591Y-183224420D01*
X222367258Y-183358481D01*
X222433298Y-183482033D01*
X222522173Y-183590327D01*
X222630467Y-183679202D01*
X222754019Y-183745242D01*
X222888080Y-183785909D01*
X222992564Y-183796200D01*
X223027500Y-183799641D01*
X223062436Y-183796200D01*
X236962564Y-183796200D01*
X236997500Y-183799641D01*
X237032436Y-183796200D01*
X237136920Y-183785909D01*
X237270981Y-183745242D01*
X237394533Y-183679202D01*
X237502827Y-183590327D01*
X237591702Y-183482033D01*
X237657742Y-183358481D01*
X237698409Y-183224420D01*
X237712141Y-183085000D01*
X237708700Y-183050064D01*
X237708700Y-169149936D01*
X237712141Y-169115000D01*
X241362859Y-169115000D01*
X241366300Y-169149936D01*
X241366301Y-183050054D01*
X241362859Y-183085000D01*
X241376591Y-183224420D01*
X241417258Y-183358481D01*
X241483298Y-183482033D01*
X241572173Y-183590327D01*
X241680467Y-183679202D01*
X241804019Y-183745242D01*
X241938080Y-183785909D01*
X242042564Y-183796200D01*
X242077500Y-183799641D01*
X242112436Y-183796200D01*
X256012564Y-183796200D01*
X256047500Y-183799641D01*
X256082436Y-183796200D01*
X256186920Y-183785909D01*
X256320981Y-183745242D01*
X256444533Y-183679202D01*
X256552827Y-183590327D01*
X256641702Y-183482033D01*
X256707742Y-183358481D01*
X256748409Y-183224420D01*
X256762141Y-183085000D01*
X256758700Y-183050064D01*
X256758700Y-169149936D01*
X256762141Y-169115000D01*
X260412859Y-169115000D01*
X260416300Y-169149936D01*
X260416301Y-183050054D01*
X260412859Y-183085000D01*
X260426591Y-183224420D01*
X260467258Y-183358481D01*
X260533298Y-183482033D01*
X260622173Y-183590327D01*
X260730467Y-183679202D01*
X260854019Y-183745242D01*
X260988080Y-183785909D01*
X261092564Y-183796200D01*
X261127500Y-183799641D01*
X261162436Y-183796200D01*
X275062564Y-183796200D01*
X275097500Y-183799641D01*
X275132436Y-183796200D01*
X275236920Y-183785909D01*
X275370981Y-183745242D01*
X275494533Y-183679202D01*
X275602827Y-183590327D01*
X275691702Y-183482033D01*
X275757742Y-183358481D01*
X275798409Y-183224420D01*
X275812141Y-183085000D01*
X275808700Y-183050064D01*
X275808700Y-169149936D01*
X275812141Y-169115000D01*
X279462859Y-169115000D01*
X279466300Y-169149936D01*
X279466301Y-183050054D01*
X279462859Y-183085000D01*
X279476591Y-183224420D01*
X279517258Y-183358481D01*
X279583298Y-183482033D01*
X279672173Y-183590327D01*
X279780467Y-183679202D01*
X279904019Y-183745242D01*
X280038080Y-183785909D01*
X280142564Y-183796200D01*
X280177500Y-183799641D01*
X280212436Y-183796200D01*
X294112564Y-183796200D01*
X294147500Y-183799641D01*
X294182436Y-183796200D01*
X294286920Y-183785909D01*
X294420981Y-183745242D01*
X294544533Y-183679202D01*
X294652827Y-183590327D01*
X294741702Y-183482033D01*
X294807742Y-183358481D01*
X294848409Y-183224420D01*
X294862141Y-183085000D01*
X294858700Y-183050064D01*
X294858700Y-169149936D01*
X294862141Y-169115000D01*
X298512859Y-169115000D01*
X298516300Y-169149936D01*
X298516301Y-183050054D01*
X298512859Y-183085000D01*
X298526591Y-183224420D01*
X298567258Y-183358481D01*
X298633298Y-183482033D01*
X298722173Y-183590327D01*
X298830467Y-183679202D01*
X298954019Y-183745242D01*
X299088080Y-183785909D01*
X299192564Y-183796200D01*
X299227500Y-183799641D01*
X299262436Y-183796200D01*
X313162564Y-183796200D01*
X313197500Y-183799641D01*
X313232436Y-183796200D01*
X313336920Y-183785909D01*
X313470981Y-183745242D01*
X313594533Y-183679202D01*
X313702827Y-183590327D01*
X313791702Y-183482033D01*
X313857742Y-183358481D01*
X313898409Y-183224420D01*
X313912141Y-183085000D01*
X313908700Y-183050064D01*
X313908700Y-169149936D01*
X313912141Y-169115000D01*
X317562859Y-169115000D01*
X317566300Y-169149936D01*
X317566301Y-183050054D01*
X317562859Y-183085000D01*
X317576591Y-183224420D01*
X317617258Y-183358481D01*
X317683298Y-183482033D01*
X317772173Y-183590327D01*
X317880467Y-183679202D01*
X318004019Y-183745242D01*
X318138080Y-183785909D01*
X318242564Y-183796200D01*
X318277500Y-183799641D01*
X318312436Y-183796200D01*
X332212564Y-183796200D01*
X332247500Y-183799641D01*
X332282436Y-183796200D01*
X332386920Y-183785909D01*
X332520981Y-183745242D01*
X332644533Y-183679202D01*
X332752827Y-183590327D01*
X332841702Y-183482033D01*
X332907742Y-183358481D01*
X332948409Y-183224420D01*
X332962141Y-183085000D01*
X332958700Y-183050064D01*
X332958700Y-169149936D01*
X332962141Y-169115000D01*
X343756609Y-169115000D01*
X343760050Y-169149936D01*
X343760051Y-183050054D01*
X343756609Y-183085000D01*
X343770341Y-183224420D01*
X343811008Y-183358481D01*
X343877048Y-183482033D01*
X343965923Y-183590327D01*
X344074217Y-183679202D01*
X344197769Y-183745242D01*
X344331830Y-183785909D01*
X344436314Y-183796200D01*
X344471250Y-183799641D01*
X344506186Y-183796200D01*
X358406314Y-183796200D01*
X358441250Y-183799641D01*
X358476186Y-183796200D01*
X358580670Y-183785909D01*
X358714731Y-183745242D01*
X358838283Y-183679202D01*
X358946577Y-183590327D01*
X359035452Y-183482033D01*
X359101492Y-183358481D01*
X359142159Y-183224420D01*
X359155891Y-183085000D01*
X359152450Y-183050064D01*
X359152450Y-169149936D01*
X359155891Y-169115000D01*
X359142159Y-168975580D01*
X359101492Y-168841519D01*
X359035452Y-168717967D01*
X358946577Y-168609673D01*
X358838283Y-168520798D01*
X358714731Y-168454758D01*
X358580670Y-168414091D01*
X358476186Y-168403800D01*
X358441250Y-168400359D01*
X358406314Y-168403800D01*
X344506186Y-168403800D01*
X344471250Y-168400359D01*
X344436314Y-168403800D01*
X344331830Y-168414091D01*
X344197769Y-168454758D01*
X344074217Y-168520798D01*
X343965923Y-168609673D01*
X343877048Y-168717967D01*
X343811008Y-168841519D01*
X343770341Y-168975580D01*
X343756609Y-169115000D01*
X332962141Y-169115000D01*
X332948409Y-168975580D01*
X332907742Y-168841519D01*
X332841702Y-168717967D01*
X332752827Y-168609673D01*
X332644533Y-168520798D01*
X332520981Y-168454758D01*
X332386920Y-168414091D01*
X332282436Y-168403800D01*
X332247500Y-168400359D01*
X332212564Y-168403800D01*
X318312436Y-168403800D01*
X318277500Y-168400359D01*
X318242564Y-168403800D01*
X318138080Y-168414091D01*
X318004019Y-168454758D01*
X317880467Y-168520798D01*
X317772173Y-168609673D01*
X317683298Y-168717967D01*
X317617258Y-168841519D01*
X317576591Y-168975580D01*
X317562859Y-169115000D01*
X313912141Y-169115000D01*
X313898409Y-168975580D01*
X313857742Y-168841519D01*
X313791702Y-168717967D01*
X313702827Y-168609673D01*
X313594533Y-168520798D01*
X313470981Y-168454758D01*
X313336920Y-168414091D01*
X313232436Y-168403800D01*
X313197500Y-168400359D01*
X313162564Y-168403800D01*
X299262436Y-168403800D01*
X299227500Y-168400359D01*
X299192564Y-168403800D01*
X299088080Y-168414091D01*
X298954019Y-168454758D01*
X298830467Y-168520798D01*
X298722173Y-168609673D01*
X298633298Y-168717967D01*
X298567258Y-168841519D01*
X298526591Y-168975580D01*
X298512859Y-169115000D01*
X294862141Y-169115000D01*
X294848409Y-168975580D01*
X294807742Y-168841519D01*
X294741702Y-168717967D01*
X294652827Y-168609673D01*
X294544533Y-168520798D01*
X294420981Y-168454758D01*
X294286920Y-168414091D01*
X294182436Y-168403800D01*
X294147500Y-168400359D01*
X294112564Y-168403800D01*
X280212436Y-168403800D01*
X280177500Y-168400359D01*
X280142564Y-168403800D01*
X280038080Y-168414091D01*
X279904019Y-168454758D01*
X279780467Y-168520798D01*
X279672173Y-168609673D01*
X279583298Y-168717967D01*
X279517258Y-168841519D01*
X279476591Y-168975580D01*
X279462859Y-169115000D01*
X275812141Y-169115000D01*
X275798409Y-168975580D01*
X275757742Y-168841519D01*
X275691702Y-168717967D01*
X275602827Y-168609673D01*
X275494533Y-168520798D01*
X275370981Y-168454758D01*
X275236920Y-168414091D01*
X275132436Y-168403800D01*
X275097500Y-168400359D01*
X275062564Y-168403800D01*
X261162436Y-168403800D01*
X261127500Y-168400359D01*
X261092564Y-168403800D01*
X260988080Y-168414091D01*
X260854019Y-168454758D01*
X260730467Y-168520798D01*
X260622173Y-168609673D01*
X260533298Y-168717967D01*
X260467258Y-168841519D01*
X260426591Y-168975580D01*
X260412859Y-169115000D01*
X256762141Y-169115000D01*
X256748409Y-168975580D01*
X256707742Y-168841519D01*
X256641702Y-168717967D01*
X256552827Y-168609673D01*
X256444533Y-168520798D01*
X256320981Y-168454758D01*
X256186920Y-168414091D01*
X256082436Y-168403800D01*
X256047500Y-168400359D01*
X256012564Y-168403800D01*
X242112436Y-168403800D01*
X242077500Y-168400359D01*
X242042564Y-168403800D01*
X241938080Y-168414091D01*
X241804019Y-168454758D01*
X241680467Y-168520798D01*
X241572173Y-168609673D01*
X241483298Y-168717967D01*
X241417258Y-168841519D01*
X241376591Y-168975580D01*
X241362859Y-169115000D01*
X237712141Y-169115000D01*
X237698409Y-168975580D01*
X237657742Y-168841519D01*
X237591702Y-168717967D01*
X237502827Y-168609673D01*
X237394533Y-168520798D01*
X237270981Y-168454758D01*
X237136920Y-168414091D01*
X237032436Y-168403800D01*
X236997500Y-168400359D01*
X236962564Y-168403800D01*
X223062436Y-168403800D01*
X223027500Y-168400359D01*
X222992564Y-168403800D01*
X222888080Y-168414091D01*
X222754019Y-168454758D01*
X222630467Y-168520798D01*
X222522173Y-168609673D01*
X222433298Y-168717967D01*
X222367258Y-168841519D01*
X222326591Y-168975580D01*
X222312859Y-169115000D01*
X218662141Y-169115000D01*
X218648409Y-168975580D01*
X218607742Y-168841519D01*
X218541702Y-168717967D01*
X218452827Y-168609673D01*
X218344533Y-168520798D01*
X218220981Y-168454758D01*
X218086920Y-168414091D01*
X217982436Y-168403800D01*
X217947500Y-168400359D01*
X217912564Y-168403800D01*
X204012436Y-168403800D01*
X203977500Y-168400359D01*
X203942564Y-168403800D01*
X203838080Y-168414091D01*
X203704019Y-168454758D01*
X203580467Y-168520798D01*
X203472173Y-168609673D01*
X203383298Y-168717967D01*
X203317258Y-168841519D01*
X203276591Y-168975580D01*
X203262859Y-169115000D01*
X199612141Y-169115000D01*
X199598409Y-168975580D01*
X199557742Y-168841519D01*
X199491702Y-168717967D01*
X199402827Y-168609673D01*
X199294533Y-168520798D01*
X199170981Y-168454758D01*
X199036920Y-168414091D01*
X198932436Y-168403800D01*
X198897500Y-168400359D01*
X198862564Y-168403800D01*
X184962436Y-168403800D01*
X184927500Y-168400359D01*
X184892564Y-168403800D01*
X184788080Y-168414091D01*
X184654019Y-168454758D01*
X184530467Y-168520798D01*
X184422173Y-168609673D01*
X184333298Y-168717967D01*
X184267258Y-168841519D01*
X184226591Y-168975580D01*
X184212859Y-169115000D01*
X180562141Y-169115000D01*
X180548409Y-168975580D01*
X180507742Y-168841519D01*
X180441702Y-168717967D01*
X180352827Y-168609673D01*
X180244533Y-168520798D01*
X180120981Y-168454758D01*
X179986920Y-168414091D01*
X179882436Y-168403800D01*
X179847500Y-168400359D01*
X179812564Y-168403800D01*
X165912436Y-168403800D01*
X165877500Y-168400359D01*
X165842564Y-168403800D01*
X165738080Y-168414091D01*
X165604019Y-168454758D01*
X165480467Y-168520798D01*
X165372173Y-168609673D01*
X165283298Y-168717967D01*
X165217258Y-168841519D01*
X165176591Y-168975580D01*
X165162859Y-169115000D01*
X161512141Y-169115000D01*
X161498409Y-168975580D01*
X161457742Y-168841519D01*
X161391702Y-168717967D01*
X161302827Y-168609673D01*
X161194533Y-168520798D01*
X161070981Y-168454758D01*
X160936920Y-168414091D01*
X160832436Y-168403800D01*
X160797500Y-168400359D01*
X160762564Y-168403800D01*
X146862436Y-168403800D01*
X146827500Y-168400359D01*
X146792564Y-168403800D01*
X146688080Y-168414091D01*
X146554019Y-168454758D01*
X146430467Y-168520798D01*
X146322173Y-168609673D01*
X146233298Y-168717967D01*
X146167258Y-168841519D01*
X146126591Y-168975580D01*
X146112859Y-169115000D01*
X140080891Y-169115000D01*
X140067159Y-168975580D01*
X140026492Y-168841519D01*
X139960452Y-168717967D01*
X139871577Y-168609673D01*
X139763283Y-168520798D01*
X139639731Y-168454758D01*
X139505670Y-168414091D01*
X139401186Y-168403800D01*
X139366250Y-168400359D01*
X139331314Y-168403800D01*
X125431186Y-168403800D01*
X125396250Y-168400359D01*
X125361314Y-168403800D01*
X125256830Y-168414091D01*
X125122769Y-168454758D01*
X124999217Y-168520798D01*
X124890923Y-168609673D01*
X124802048Y-168717967D01*
X124736008Y-168841519D01*
X124695341Y-168975580D01*
X124681609Y-169115000D01*
X113246500Y-169115000D01*
X113246500Y-150065000D01*
X129444109Y-150065000D01*
X129447550Y-150099936D01*
X129447551Y-164000054D01*
X129444109Y-164035000D01*
X129457841Y-164174420D01*
X129498508Y-164308481D01*
X129564548Y-164432033D01*
X129653423Y-164540327D01*
X129761717Y-164629202D01*
X129885269Y-164695242D01*
X130019330Y-164735909D01*
X130123814Y-164746200D01*
X130158750Y-164749641D01*
X130193686Y-164746200D01*
X144093814Y-164746200D01*
X144128750Y-164749641D01*
X144163686Y-164746200D01*
X144268170Y-164735909D01*
X144402231Y-164695242D01*
X144525783Y-164629202D01*
X144634077Y-164540327D01*
X144722952Y-164432033D01*
X144788992Y-164308481D01*
X144829659Y-164174420D01*
X144843391Y-164035000D01*
X144839950Y-164000064D01*
X144839950Y-150099936D01*
X144843391Y-150065000D01*
X155637859Y-150065000D01*
X155641300Y-150099936D01*
X155641301Y-164000054D01*
X155637859Y-164035000D01*
X155651591Y-164174420D01*
X155692258Y-164308481D01*
X155758298Y-164432033D01*
X155847173Y-164540327D01*
X155955467Y-164629202D01*
X156079019Y-164695242D01*
X156213080Y-164735909D01*
X156317564Y-164746200D01*
X156352500Y-164749641D01*
X156387436Y-164746200D01*
X170287564Y-164746200D01*
X170322500Y-164749641D01*
X170357436Y-164746200D01*
X170461920Y-164735909D01*
X170595981Y-164695242D01*
X170719533Y-164629202D01*
X170827827Y-164540327D01*
X170916702Y-164432033D01*
X170982742Y-164308481D01*
X171023409Y-164174420D01*
X171037141Y-164035000D01*
X171033700Y-164000064D01*
X171033700Y-150099936D01*
X171037141Y-150065000D01*
X174687859Y-150065000D01*
X174691300Y-150099936D01*
X174691301Y-164000054D01*
X174687859Y-164035000D01*
X174701591Y-164174420D01*
X174742258Y-164308481D01*
X174808298Y-164432033D01*
X174897173Y-164540327D01*
X175005467Y-164629202D01*
X175129019Y-164695242D01*
X175263080Y-164735909D01*
X175367564Y-164746200D01*
X175402500Y-164749641D01*
X175437436Y-164746200D01*
X189337564Y-164746200D01*
X189372500Y-164749641D01*
X189407436Y-164746200D01*
X189511920Y-164735909D01*
X189645981Y-164695242D01*
X189769533Y-164629202D01*
X189877827Y-164540327D01*
X189966702Y-164432033D01*
X190032742Y-164308481D01*
X190073409Y-164174420D01*
X190087141Y-164035000D01*
X190083700Y-164000064D01*
X190083700Y-150099936D01*
X190087141Y-150065000D01*
X193737859Y-150065000D01*
X193741300Y-150099936D01*
X193741301Y-164000054D01*
X193737859Y-164035000D01*
X193751591Y-164174420D01*
X193792258Y-164308481D01*
X193858298Y-164432033D01*
X193947173Y-164540327D01*
X194055467Y-164629202D01*
X194179019Y-164695242D01*
X194313080Y-164735909D01*
X194417564Y-164746200D01*
X194452500Y-164749641D01*
X194487436Y-164746200D01*
X208387564Y-164746200D01*
X208422500Y-164749641D01*
X208457436Y-164746200D01*
X208561920Y-164735909D01*
X208695981Y-164695242D01*
X208819533Y-164629202D01*
X208927827Y-164540327D01*
X209016702Y-164432033D01*
X209082742Y-164308481D01*
X209123409Y-164174420D01*
X209137141Y-164035000D01*
X209133700Y-164000064D01*
X209133700Y-150099936D01*
X209137141Y-150065000D01*
X212787859Y-150065000D01*
X212791300Y-150099936D01*
X212791301Y-164000054D01*
X212787859Y-164035000D01*
X212801591Y-164174420D01*
X212842258Y-164308481D01*
X212908298Y-164432033D01*
X212997173Y-164540327D01*
X213105467Y-164629202D01*
X213229019Y-164695242D01*
X213363080Y-164735909D01*
X213467564Y-164746200D01*
X213502500Y-164749641D01*
X213537436Y-164746200D01*
X227437564Y-164746200D01*
X227472500Y-164749641D01*
X227507436Y-164746200D01*
X227611920Y-164735909D01*
X227745981Y-164695242D01*
X227869533Y-164629202D01*
X227977827Y-164540327D01*
X228066702Y-164432033D01*
X228132742Y-164308481D01*
X228173409Y-164174420D01*
X228187141Y-164035000D01*
X228183700Y-164000064D01*
X228183700Y-150099936D01*
X228187141Y-150065000D01*
X231837859Y-150065000D01*
X231841300Y-150099936D01*
X231841301Y-164000054D01*
X231837859Y-164035000D01*
X231851591Y-164174420D01*
X231892258Y-164308481D01*
X231958298Y-164432033D01*
X232047173Y-164540327D01*
X232155467Y-164629202D01*
X232279019Y-164695242D01*
X232413080Y-164735909D01*
X232517564Y-164746200D01*
X232552500Y-164749641D01*
X232587436Y-164746200D01*
X246487564Y-164746200D01*
X246522500Y-164749641D01*
X246557436Y-164746200D01*
X246661920Y-164735909D01*
X246795981Y-164695242D01*
X246919533Y-164629202D01*
X247027827Y-164540327D01*
X247116702Y-164432033D01*
X247182742Y-164308481D01*
X247223409Y-164174420D01*
X247237141Y-164035000D01*
X247233700Y-164000064D01*
X247233700Y-150099936D01*
X247237141Y-150065000D01*
X250887859Y-150065000D01*
X250891300Y-150099936D01*
X250891301Y-164000054D01*
X250887859Y-164035000D01*
X250901591Y-164174420D01*
X250942258Y-164308481D01*
X251008298Y-164432033D01*
X251097173Y-164540327D01*
X251205467Y-164629202D01*
X251329019Y-164695242D01*
X251463080Y-164735909D01*
X251567564Y-164746200D01*
X251602500Y-164749641D01*
X251637436Y-164746200D01*
X265537564Y-164746200D01*
X265572500Y-164749641D01*
X265607436Y-164746200D01*
X265711920Y-164735909D01*
X265845981Y-164695242D01*
X265969533Y-164629202D01*
X266077827Y-164540327D01*
X266166702Y-164432033D01*
X266232742Y-164308481D01*
X266273409Y-164174420D01*
X266287141Y-164035000D01*
X266283700Y-164000064D01*
X266283700Y-150099936D01*
X266287141Y-150065000D01*
X269937859Y-150065000D01*
X269941300Y-150099936D01*
X269941301Y-164000054D01*
X269937859Y-164035000D01*
X269951591Y-164174420D01*
X269992258Y-164308481D01*
X270058298Y-164432033D01*
X270147173Y-164540327D01*
X270255467Y-164629202D01*
X270379019Y-164695242D01*
X270513080Y-164735909D01*
X270617564Y-164746200D01*
X270652500Y-164749641D01*
X270687436Y-164746200D01*
X284587564Y-164746200D01*
X284622500Y-164749641D01*
X284657436Y-164746200D01*
X284761920Y-164735909D01*
X284895981Y-164695242D01*
X285019533Y-164629202D01*
X285127827Y-164540327D01*
X285216702Y-164432033D01*
X285282742Y-164308481D01*
X285323409Y-164174420D01*
X285337141Y-164035000D01*
X285333700Y-164000064D01*
X285333700Y-150099936D01*
X285337141Y-150065000D01*
X288987859Y-150065000D01*
X288991300Y-150099936D01*
X288991301Y-164000054D01*
X288987859Y-164035000D01*
X289001591Y-164174420D01*
X289042258Y-164308481D01*
X289108298Y-164432033D01*
X289197173Y-164540327D01*
X289305467Y-164629202D01*
X289429019Y-164695242D01*
X289563080Y-164735909D01*
X289667564Y-164746200D01*
X289702500Y-164749641D01*
X289737436Y-164746200D01*
X303637564Y-164746200D01*
X303672500Y-164749641D01*
X303707436Y-164746200D01*
X303811920Y-164735909D01*
X303945981Y-164695242D01*
X304069533Y-164629202D01*
X304177827Y-164540327D01*
X304266702Y-164432033D01*
X304332742Y-164308481D01*
X304373409Y-164174420D01*
X304387141Y-164035000D01*
X304383700Y-164000064D01*
X304383700Y-150099936D01*
X304387141Y-150065000D01*
X308037859Y-150065000D01*
X308041300Y-150099936D01*
X308041301Y-164000054D01*
X308037859Y-164035000D01*
X308051591Y-164174420D01*
X308092258Y-164308481D01*
X308158298Y-164432033D01*
X308247173Y-164540327D01*
X308355467Y-164629202D01*
X308479019Y-164695242D01*
X308613080Y-164735909D01*
X308717564Y-164746200D01*
X308752500Y-164749641D01*
X308787436Y-164746200D01*
X322687564Y-164746200D01*
X322722500Y-164749641D01*
X322757436Y-164746200D01*
X322861920Y-164735909D01*
X322995981Y-164695242D01*
X323119533Y-164629202D01*
X323227827Y-164540327D01*
X323316702Y-164432033D01*
X323382742Y-164308481D01*
X323423409Y-164174420D01*
X323437141Y-164035000D01*
X323433700Y-164000064D01*
X323433700Y-150099936D01*
X323437141Y-150065000D01*
X327087859Y-150065000D01*
X327091300Y-150099936D01*
X327091301Y-164000054D01*
X327087859Y-164035000D01*
X327101591Y-164174420D01*
X327142258Y-164308481D01*
X327208298Y-164432033D01*
X327297173Y-164540327D01*
X327405467Y-164629202D01*
X327529019Y-164695242D01*
X327663080Y-164735909D01*
X327767564Y-164746200D01*
X327802500Y-164749641D01*
X327837436Y-164746200D01*
X341737564Y-164746200D01*
X341772500Y-164749641D01*
X341807436Y-164746200D01*
X341911920Y-164735909D01*
X342045981Y-164695242D01*
X342169533Y-164629202D01*
X342277827Y-164540327D01*
X342366702Y-164432033D01*
X342432742Y-164308481D01*
X342473409Y-164174420D01*
X342487141Y-164035000D01*
X342483700Y-164000064D01*
X342483700Y-150099936D01*
X342487141Y-150065000D01*
X348519109Y-150065000D01*
X348522550Y-150099936D01*
X348522551Y-164000054D01*
X348519109Y-164035000D01*
X348532841Y-164174420D01*
X348573508Y-164308481D01*
X348639548Y-164432033D01*
X348728423Y-164540327D01*
X348836717Y-164629202D01*
X348960269Y-164695242D01*
X349094330Y-164735909D01*
X349198814Y-164746200D01*
X349233750Y-164749641D01*
X349268686Y-164746200D01*
X363168814Y-164746200D01*
X363203750Y-164749641D01*
X363238686Y-164746200D01*
X363343170Y-164735909D01*
X363477231Y-164695242D01*
X363600783Y-164629202D01*
X363709077Y-164540327D01*
X363797952Y-164432033D01*
X363863992Y-164308481D01*
X363904659Y-164174420D01*
X363918391Y-164035000D01*
X363914950Y-164000064D01*
X363914950Y-150099936D01*
X363918391Y-150065000D01*
X363904659Y-149925580D01*
X363863992Y-149791519D01*
X363797952Y-149667967D01*
X363709077Y-149559673D01*
X363600783Y-149470798D01*
X363477231Y-149404758D01*
X363343170Y-149364091D01*
X363238686Y-149353800D01*
X363203750Y-149350359D01*
X363168814Y-149353800D01*
X349268686Y-149353800D01*
X349233750Y-149350359D01*
X349198814Y-149353800D01*
X349094330Y-149364091D01*
X348960269Y-149404758D01*
X348836717Y-149470798D01*
X348728423Y-149559673D01*
X348639548Y-149667967D01*
X348573508Y-149791519D01*
X348532841Y-149925580D01*
X348519109Y-150065000D01*
X342487141Y-150065000D01*
X342473409Y-149925580D01*
X342432742Y-149791519D01*
X342366702Y-149667967D01*
X342277827Y-149559673D01*
X342169533Y-149470798D01*
X342045981Y-149404758D01*
X341911920Y-149364091D01*
X341807436Y-149353800D01*
X341772500Y-149350359D01*
X341737564Y-149353800D01*
X327837436Y-149353800D01*
X327802500Y-149350359D01*
X327767564Y-149353800D01*
X327663080Y-149364091D01*
X327529019Y-149404758D01*
X327405467Y-149470798D01*
X327297173Y-149559673D01*
X327208298Y-149667967D01*
X327142258Y-149791519D01*
X327101591Y-149925580D01*
X327087859Y-150065000D01*
X323437141Y-150065000D01*
X323423409Y-149925580D01*
X323382742Y-149791519D01*
X323316702Y-149667967D01*
X323227827Y-149559673D01*
X323119533Y-149470798D01*
X322995981Y-149404758D01*
X322861920Y-149364091D01*
X322757436Y-149353800D01*
X322722500Y-149350359D01*
X322687564Y-149353800D01*
X308787436Y-149353800D01*
X308752500Y-149350359D01*
X308717564Y-149353800D01*
X308613080Y-149364091D01*
X308479019Y-149404758D01*
X308355467Y-149470798D01*
X308247173Y-149559673D01*
X308158298Y-149667967D01*
X308092258Y-149791519D01*
X308051591Y-149925580D01*
X308037859Y-150065000D01*
X304387141Y-150065000D01*
X304373409Y-149925580D01*
X304332742Y-149791519D01*
X304266702Y-149667967D01*
X304177827Y-149559673D01*
X304069533Y-149470798D01*
X303945981Y-149404758D01*
X303811920Y-149364091D01*
X303707436Y-149353800D01*
X303672500Y-149350359D01*
X303637564Y-149353800D01*
X289737436Y-149353800D01*
X289702500Y-149350359D01*
X289667564Y-149353800D01*
X289563080Y-149364091D01*
X289429019Y-149404758D01*
X289305467Y-149470798D01*
X289197173Y-149559673D01*
X289108298Y-149667967D01*
X289042258Y-149791519D01*
X289001591Y-149925580D01*
X288987859Y-150065000D01*
X285337141Y-150065000D01*
X285323409Y-149925580D01*
X285282742Y-149791519D01*
X285216702Y-149667967D01*
X285127827Y-149559673D01*
X285019533Y-149470798D01*
X284895981Y-149404758D01*
X284761920Y-149364091D01*
X284657436Y-149353800D01*
X284622500Y-149350359D01*
X284587564Y-149353800D01*
X270687436Y-149353800D01*
X270652500Y-149350359D01*
X270617564Y-149353800D01*
X270513080Y-149364091D01*
X270379019Y-149404758D01*
X270255467Y-149470798D01*
X270147173Y-149559673D01*
X270058298Y-149667967D01*
X269992258Y-149791519D01*
X269951591Y-149925580D01*
X269937859Y-150065000D01*
X266287141Y-150065000D01*
X266273409Y-149925580D01*
X266232742Y-149791519D01*
X266166702Y-149667967D01*
X266077827Y-149559673D01*
X265969533Y-149470798D01*
X265845981Y-149404758D01*
X265711920Y-149364091D01*
X265607436Y-149353800D01*
X265572500Y-149350359D01*
X265537564Y-149353800D01*
X251637436Y-149353800D01*
X251602500Y-149350359D01*
X251567564Y-149353800D01*
X251463080Y-149364091D01*
X251329019Y-149404758D01*
X251205467Y-149470798D01*
X251097173Y-149559673D01*
X251008298Y-149667967D01*
X250942258Y-149791519D01*
X250901591Y-149925580D01*
X250887859Y-150065000D01*
X247237141Y-150065000D01*
X247223409Y-149925580D01*
X247182742Y-149791519D01*
X247116702Y-149667967D01*
X247027827Y-149559673D01*
X246919533Y-149470798D01*
X246795981Y-149404758D01*
X246661920Y-149364091D01*
X246557436Y-149353800D01*
X246522500Y-149350359D01*
X246487564Y-149353800D01*
X232587436Y-149353800D01*
X232552500Y-149350359D01*
X232517564Y-149353800D01*
X232413080Y-149364091D01*
X232279019Y-149404758D01*
X232155467Y-149470798D01*
X232047173Y-149559673D01*
X231958298Y-149667967D01*
X231892258Y-149791519D01*
X231851591Y-149925580D01*
X231837859Y-150065000D01*
X228187141Y-150065000D01*
X228173409Y-149925580D01*
X228132742Y-149791519D01*
X228066702Y-149667967D01*
X227977827Y-149559673D01*
X227869533Y-149470798D01*
X227745981Y-149404758D01*
X227611920Y-149364091D01*
X227507436Y-149353800D01*
X227472500Y-149350359D01*
X227437564Y-149353800D01*
X213537436Y-149353800D01*
X213502500Y-149350359D01*
X213467564Y-149353800D01*
X213363080Y-149364091D01*
X213229019Y-149404758D01*
X213105467Y-149470798D01*
X212997173Y-149559673D01*
X212908298Y-149667967D01*
X212842258Y-149791519D01*
X212801591Y-149925580D01*
X212787859Y-150065000D01*
X209137141Y-150065000D01*
X209123409Y-149925580D01*
X209082742Y-149791519D01*
X209016702Y-149667967D01*
X208927827Y-149559673D01*
X208819533Y-149470798D01*
X208695981Y-149404758D01*
X208561920Y-149364091D01*
X208457436Y-149353800D01*
X208422500Y-149350359D01*
X208387564Y-149353800D01*
X194487436Y-149353800D01*
X194452500Y-149350359D01*
X194417564Y-149353800D01*
X194313080Y-149364091D01*
X194179019Y-149404758D01*
X194055467Y-149470798D01*
X193947173Y-149559673D01*
X193858298Y-149667967D01*
X193792258Y-149791519D01*
X193751591Y-149925580D01*
X193737859Y-150065000D01*
X190087141Y-150065000D01*
X190073409Y-149925580D01*
X190032742Y-149791519D01*
X189966702Y-149667967D01*
X189877827Y-149559673D01*
X189769533Y-149470798D01*
X189645981Y-149404758D01*
X189511920Y-149364091D01*
X189407436Y-149353800D01*
X189372500Y-149350359D01*
X189337564Y-149353800D01*
X175437436Y-149353800D01*
X175402500Y-149350359D01*
X175367564Y-149353800D01*
X175263080Y-149364091D01*
X175129019Y-149404758D01*
X175005467Y-149470798D01*
X174897173Y-149559673D01*
X174808298Y-149667967D01*
X174742258Y-149791519D01*
X174701591Y-149925580D01*
X174687859Y-150065000D01*
X171037141Y-150065000D01*
X171023409Y-149925580D01*
X170982742Y-149791519D01*
X170916702Y-149667967D01*
X170827827Y-149559673D01*
X170719533Y-149470798D01*
X170595981Y-149404758D01*
X170461920Y-149364091D01*
X170357436Y-149353800D01*
X170322500Y-149350359D01*
X170287564Y-149353800D01*
X156387436Y-149353800D01*
X156352500Y-149350359D01*
X156317564Y-149353800D01*
X156213080Y-149364091D01*
X156079019Y-149404758D01*
X155955467Y-149470798D01*
X155847173Y-149559673D01*
X155758298Y-149667967D01*
X155692258Y-149791519D01*
X155651591Y-149925580D01*
X155637859Y-150065000D01*
X144843391Y-150065000D01*
X144829659Y-149925580D01*
X144788992Y-149791519D01*
X144722952Y-149667967D01*
X144634077Y-149559673D01*
X144525783Y-149470798D01*
X144402231Y-149404758D01*
X144268170Y-149364091D01*
X144163686Y-149353800D01*
X144128750Y-149350359D01*
X144093814Y-149353800D01*
X130193686Y-149353800D01*
X130158750Y-149350359D01*
X130123814Y-149353800D01*
X130019330Y-149364091D01*
X129885269Y-149404758D01*
X129761717Y-149470798D01*
X129653423Y-149559673D01*
X129564548Y-149667967D01*
X129498508Y-149791519D01*
X129457841Y-149925580D01*
X129444109Y-150065000D01*
X113246500Y-150065000D01*
X113246500Y-131015000D01*
X122300359Y-131015000D01*
X122303800Y-131049936D01*
X122303801Y-144950054D01*
X122300359Y-144985000D01*
X122314091Y-145124420D01*
X122354758Y-145258481D01*
X122420798Y-145382033D01*
X122509673Y-145490327D01*
X122617967Y-145579202D01*
X122741519Y-145645242D01*
X122875580Y-145685909D01*
X122980064Y-145696200D01*
X123015000Y-145699641D01*
X123049936Y-145696200D01*
X136950064Y-145696200D01*
X136985000Y-145699641D01*
X137019936Y-145696200D01*
X137124420Y-145685909D01*
X137258481Y-145645242D01*
X137382033Y-145579202D01*
X137490327Y-145490327D01*
X137579202Y-145382033D01*
X137645242Y-145258481D01*
X137685909Y-145124420D01*
X137699641Y-144985000D01*
X137696200Y-144950064D01*
X137696200Y-131049936D01*
X137699641Y-131015000D01*
X141350359Y-131015000D01*
X141353800Y-131049936D01*
X141353801Y-144950054D01*
X141350359Y-144985000D01*
X141364091Y-145124420D01*
X141404758Y-145258481D01*
X141470798Y-145382033D01*
X141559673Y-145490327D01*
X141667967Y-145579202D01*
X141791519Y-145645242D01*
X141925580Y-145685909D01*
X142030064Y-145696200D01*
X142065000Y-145699641D01*
X142099936Y-145696200D01*
X156000064Y-145696200D01*
X156035000Y-145699641D01*
X156069936Y-145696200D01*
X156174420Y-145685909D01*
X156308481Y-145645242D01*
X156432033Y-145579202D01*
X156540327Y-145490327D01*
X156629202Y-145382033D01*
X156695242Y-145258481D01*
X156735909Y-145124420D01*
X156749641Y-144985000D01*
X156746200Y-144950064D01*
X156746200Y-131049936D01*
X156749641Y-131015000D01*
X160400359Y-131015000D01*
X160403800Y-131049936D01*
X160403801Y-144950054D01*
X160400359Y-144985000D01*
X160414091Y-145124420D01*
X160454758Y-145258481D01*
X160520798Y-145382033D01*
X160609673Y-145490327D01*
X160717967Y-145579202D01*
X160841519Y-145645242D01*
X160975580Y-145685909D01*
X161080064Y-145696200D01*
X161115000Y-145699641D01*
X161149936Y-145696200D01*
X175050064Y-145696200D01*
X175085000Y-145699641D01*
X175119936Y-145696200D01*
X175224420Y-145685909D01*
X175358481Y-145645242D01*
X175482033Y-145579202D01*
X175590327Y-145490327D01*
X175679202Y-145382033D01*
X175745242Y-145258481D01*
X175785909Y-145124420D01*
X175799641Y-144985000D01*
X175796200Y-144950064D01*
X175796200Y-131049936D01*
X175799641Y-131015000D01*
X179450359Y-131015000D01*
X179453800Y-131049936D01*
X179453801Y-144950054D01*
X179450359Y-144985000D01*
X179464091Y-145124420D01*
X179504758Y-145258481D01*
X179570798Y-145382033D01*
X179659673Y-145490327D01*
X179767967Y-145579202D01*
X179891519Y-145645242D01*
X180025580Y-145685909D01*
X180130064Y-145696200D01*
X180165000Y-145699641D01*
X180199936Y-145696200D01*
X194100064Y-145696200D01*
X194135000Y-145699641D01*
X194169936Y-145696200D01*
X194274420Y-145685909D01*
X194408481Y-145645242D01*
X194532033Y-145579202D01*
X194640327Y-145490327D01*
X194729202Y-145382033D01*
X194795242Y-145258481D01*
X194835909Y-145124420D01*
X194849641Y-144985000D01*
X194846200Y-144950064D01*
X194846200Y-131049936D01*
X194849641Y-131015000D01*
X198500359Y-131015000D01*
X198503800Y-131049936D01*
X198503801Y-144950054D01*
X198500359Y-144985000D01*
X198514091Y-145124420D01*
X198554758Y-145258481D01*
X198620798Y-145382033D01*
X198709673Y-145490327D01*
X198817967Y-145579202D01*
X198941519Y-145645242D01*
X199075580Y-145685909D01*
X199180064Y-145696200D01*
X199215000Y-145699641D01*
X199249936Y-145696200D01*
X213150064Y-145696200D01*
X213185000Y-145699641D01*
X213219936Y-145696200D01*
X213324420Y-145685909D01*
X213458481Y-145645242D01*
X213582033Y-145579202D01*
X213690327Y-145490327D01*
X213779202Y-145382033D01*
X213845242Y-145258481D01*
X213885909Y-145124420D01*
X213899641Y-144985000D01*
X213896200Y-144950064D01*
X213896200Y-131049936D01*
X213899641Y-131015000D01*
X217550359Y-131015000D01*
X217553800Y-131049936D01*
X217553801Y-144950054D01*
X217550359Y-144985000D01*
X217564091Y-145124420D01*
X217604758Y-145258481D01*
X217670798Y-145382033D01*
X217759673Y-145490327D01*
X217867967Y-145579202D01*
X217991519Y-145645242D01*
X218125580Y-145685909D01*
X218230064Y-145696200D01*
X218265000Y-145699641D01*
X218299936Y-145696200D01*
X232200064Y-145696200D01*
X232235000Y-145699641D01*
X232269936Y-145696200D01*
X232374420Y-145685909D01*
X232508481Y-145645242D01*
X232632033Y-145579202D01*
X232740327Y-145490327D01*
X232829202Y-145382033D01*
X232895242Y-145258481D01*
X232935909Y-145124420D01*
X232949641Y-144985000D01*
X232946200Y-144950064D01*
X232946200Y-131049936D01*
X232949641Y-131015000D01*
X236600359Y-131015000D01*
X236603800Y-131049936D01*
X236603801Y-144950054D01*
X236600359Y-144985000D01*
X236614091Y-145124420D01*
X236654758Y-145258481D01*
X236720798Y-145382033D01*
X236809673Y-145490327D01*
X236917967Y-145579202D01*
X237041519Y-145645242D01*
X237175580Y-145685909D01*
X237280064Y-145696200D01*
X237315000Y-145699641D01*
X237349936Y-145696200D01*
X251250064Y-145696200D01*
X251285000Y-145699641D01*
X251319936Y-145696200D01*
X251424420Y-145685909D01*
X251558481Y-145645242D01*
X251682033Y-145579202D01*
X251790327Y-145490327D01*
X251879202Y-145382033D01*
X251945242Y-145258481D01*
X251985909Y-145124420D01*
X251999641Y-144985000D01*
X251996200Y-144950064D01*
X251996200Y-131049936D01*
X251999641Y-131015000D01*
X255650359Y-131015000D01*
X255653800Y-131049936D01*
X255653801Y-144950054D01*
X255650359Y-144985000D01*
X255664091Y-145124420D01*
X255704758Y-145258481D01*
X255770798Y-145382033D01*
X255859673Y-145490327D01*
X255967967Y-145579202D01*
X256091519Y-145645242D01*
X256225580Y-145685909D01*
X256330064Y-145696200D01*
X256365000Y-145699641D01*
X256399936Y-145696200D01*
X270300064Y-145696200D01*
X270335000Y-145699641D01*
X270369936Y-145696200D01*
X270474420Y-145685909D01*
X270608481Y-145645242D01*
X270732033Y-145579202D01*
X270840327Y-145490327D01*
X270929202Y-145382033D01*
X270995242Y-145258481D01*
X271035909Y-145124420D01*
X271049641Y-144985000D01*
X271046200Y-144950064D01*
X271046200Y-131049936D01*
X271049641Y-131015000D01*
X274700359Y-131015000D01*
X274703800Y-131049936D01*
X274703801Y-144950054D01*
X274700359Y-144985000D01*
X274714091Y-145124420D01*
X274754758Y-145258481D01*
X274820798Y-145382033D01*
X274909673Y-145490327D01*
X275017967Y-145579202D01*
X275141519Y-145645242D01*
X275275580Y-145685909D01*
X275380064Y-145696200D01*
X275415000Y-145699641D01*
X275449936Y-145696200D01*
X289350064Y-145696200D01*
X289385000Y-145699641D01*
X289419936Y-145696200D01*
X289524420Y-145685909D01*
X289658481Y-145645242D01*
X289782033Y-145579202D01*
X289890327Y-145490327D01*
X289979202Y-145382033D01*
X290045242Y-145258481D01*
X290085909Y-145124420D01*
X290099641Y-144985000D01*
X290096200Y-144950064D01*
X290096200Y-131049936D01*
X290099641Y-131015000D01*
X293750359Y-131015000D01*
X293753800Y-131049936D01*
X293753801Y-144950054D01*
X293750359Y-144985000D01*
X293764091Y-145124420D01*
X293804758Y-145258481D01*
X293870798Y-145382033D01*
X293959673Y-145490327D01*
X294067967Y-145579202D01*
X294191519Y-145645242D01*
X294325580Y-145685909D01*
X294430064Y-145696200D01*
X294465000Y-145699641D01*
X294499936Y-145696200D01*
X308400064Y-145696200D01*
X308435000Y-145699641D01*
X308469936Y-145696200D01*
X308574420Y-145685909D01*
X308708481Y-145645242D01*
X308832033Y-145579202D01*
X308940327Y-145490327D01*
X309029202Y-145382033D01*
X309095242Y-145258481D01*
X309135909Y-145124420D01*
X309149641Y-144985000D01*
X309146200Y-144950064D01*
X309146200Y-131049936D01*
X309149641Y-131015000D01*
X312800359Y-131015000D01*
X312803800Y-131049936D01*
X312803801Y-144950054D01*
X312800359Y-144985000D01*
X312814091Y-145124420D01*
X312854758Y-145258481D01*
X312920798Y-145382033D01*
X313009673Y-145490327D01*
X313117967Y-145579202D01*
X313241519Y-145645242D01*
X313375580Y-145685909D01*
X313480064Y-145696200D01*
X313515000Y-145699641D01*
X313549936Y-145696200D01*
X327450064Y-145696200D01*
X327485000Y-145699641D01*
X327519936Y-145696200D01*
X327624420Y-145685909D01*
X327758481Y-145645242D01*
X327882033Y-145579202D01*
X327990327Y-145490327D01*
X328079202Y-145382033D01*
X328145242Y-145258481D01*
X328185909Y-145124420D01*
X328199641Y-144985000D01*
X328196200Y-144950064D01*
X328196200Y-131049936D01*
X328199641Y-131015000D01*
X331850359Y-131015000D01*
X331853800Y-131049936D01*
X331853801Y-144950054D01*
X331850359Y-144985000D01*
X331864091Y-145124420D01*
X331904758Y-145258481D01*
X331970798Y-145382033D01*
X332059673Y-145490327D01*
X332167967Y-145579202D01*
X332291519Y-145645242D01*
X332425580Y-145685909D01*
X332530064Y-145696200D01*
X332565000Y-145699641D01*
X332599936Y-145696200D01*
X346500064Y-145696200D01*
X346535000Y-145699641D01*
X346569936Y-145696200D01*
X346674420Y-145685909D01*
X346808481Y-145645242D01*
X346932033Y-145579202D01*
X347040327Y-145490327D01*
X347129202Y-145382033D01*
X347195242Y-145258481D01*
X347235909Y-145124420D01*
X347249641Y-144985000D01*
X347246200Y-144950064D01*
X347246200Y-131049936D01*
X347249641Y-131015000D01*
X350900359Y-131015000D01*
X350903800Y-131049936D01*
X350903801Y-144950054D01*
X350900359Y-144985000D01*
X350914091Y-145124420D01*
X350954758Y-145258481D01*
X351020798Y-145382033D01*
X351109673Y-145490327D01*
X351217967Y-145579202D01*
X351341519Y-145645242D01*
X351475580Y-145685909D01*
X351580064Y-145696200D01*
X351615000Y-145699641D01*
X351649936Y-145696200D01*
X365550064Y-145696200D01*
X365585000Y-145699641D01*
X365619936Y-145696200D01*
X365724420Y-145685909D01*
X365858481Y-145645242D01*
X365982033Y-145579202D01*
X366090327Y-145490327D01*
X366179202Y-145382033D01*
X366245242Y-145258481D01*
X366285909Y-145124420D01*
X366299641Y-144985000D01*
X366296200Y-144950064D01*
X366296200Y-131049936D01*
X366299641Y-131015000D01*
X366285909Y-130875580D01*
X366245242Y-130741519D01*
X366179202Y-130617967D01*
X366090327Y-130509673D01*
X365982033Y-130420798D01*
X365858481Y-130354758D01*
X365724420Y-130314091D01*
X365619936Y-130303800D01*
X365585000Y-130300359D01*
X365550064Y-130303800D01*
X351649936Y-130303800D01*
X351615000Y-130300359D01*
X351580064Y-130303800D01*
X351475580Y-130314091D01*
X351341519Y-130354758D01*
X351217967Y-130420798D01*
X351109673Y-130509673D01*
X351020798Y-130617967D01*
X350954758Y-130741519D01*
X350914091Y-130875580D01*
X350900359Y-131015000D01*
X347249641Y-131015000D01*
X347235909Y-130875580D01*
X347195242Y-130741519D01*
X347129202Y-130617967D01*
X347040327Y-130509673D01*
X346932033Y-130420798D01*
X346808481Y-130354758D01*
X346674420Y-130314091D01*
X346569936Y-130303800D01*
X346535000Y-130300359D01*
X346500064Y-130303800D01*
X332599936Y-130303800D01*
X332565000Y-130300359D01*
X332530064Y-130303800D01*
X332425580Y-130314091D01*
X332291519Y-130354758D01*
X332167967Y-130420798D01*
X332059673Y-130509673D01*
X331970798Y-130617967D01*
X331904758Y-130741519D01*
X331864091Y-130875580D01*
X331850359Y-131015000D01*
X328199641Y-131015000D01*
X328185909Y-130875580D01*
X328145242Y-130741519D01*
X328079202Y-130617967D01*
X327990327Y-130509673D01*
X327882033Y-130420798D01*
X327758481Y-130354758D01*
X327624420Y-130314091D01*
X327519936Y-130303800D01*
X327485000Y-130300359D01*
X327450064Y-130303800D01*
X313549936Y-130303800D01*
X313515000Y-130300359D01*
X313480064Y-130303800D01*
X313375580Y-130314091D01*
X313241519Y-130354758D01*
X313117967Y-130420798D01*
X313009673Y-130509673D01*
X312920798Y-130617967D01*
X312854758Y-130741519D01*
X312814091Y-130875580D01*
X312800359Y-131015000D01*
X309149641Y-131015000D01*
X309135909Y-130875580D01*
X309095242Y-130741519D01*
X309029202Y-130617967D01*
X308940327Y-130509673D01*
X308832033Y-130420798D01*
X308708481Y-130354758D01*
X308574420Y-130314091D01*
X308469936Y-130303800D01*
X308435000Y-130300359D01*
X308400064Y-130303800D01*
X294499936Y-130303800D01*
X294465000Y-130300359D01*
X294430064Y-130303800D01*
X294325580Y-130314091D01*
X294191519Y-130354758D01*
X294067967Y-130420798D01*
X293959673Y-130509673D01*
X293870798Y-130617967D01*
X293804758Y-130741519D01*
X293764091Y-130875580D01*
X293750359Y-131015000D01*
X290099641Y-131015000D01*
X290085909Y-130875580D01*
X290045242Y-130741519D01*
X289979202Y-130617967D01*
X289890327Y-130509673D01*
X289782033Y-130420798D01*
X289658481Y-130354758D01*
X289524420Y-130314091D01*
X289419936Y-130303800D01*
X289385000Y-130300359D01*
X289350064Y-130303800D01*
X275449936Y-130303800D01*
X275415000Y-130300359D01*
X275380064Y-130303800D01*
X275275580Y-130314091D01*
X275141519Y-130354758D01*
X275017967Y-130420798D01*
X274909673Y-130509673D01*
X274820798Y-130617967D01*
X274754758Y-130741519D01*
X274714091Y-130875580D01*
X274700359Y-131015000D01*
X271049641Y-131015000D01*
X271035909Y-130875580D01*
X270995242Y-130741519D01*
X270929202Y-130617967D01*
X270840327Y-130509673D01*
X270732033Y-130420798D01*
X270608481Y-130354758D01*
X270474420Y-130314091D01*
X270369936Y-130303800D01*
X270335000Y-130300359D01*
X270300064Y-130303800D01*
X256399936Y-130303800D01*
X256365000Y-130300359D01*
X256330064Y-130303800D01*
X256225580Y-130314091D01*
X256091519Y-130354758D01*
X255967967Y-130420798D01*
X255859673Y-130509673D01*
X255770798Y-130617967D01*
X255704758Y-130741519D01*
X255664091Y-130875580D01*
X255650359Y-131015000D01*
X251999641Y-131015000D01*
X251985909Y-130875580D01*
X251945242Y-130741519D01*
X251879202Y-130617967D01*
X251790327Y-130509673D01*
X251682033Y-130420798D01*
X251558481Y-130354758D01*
X251424420Y-130314091D01*
X251319936Y-130303800D01*
X251285000Y-130300359D01*
X251250064Y-130303800D01*
X237349936Y-130303800D01*
X237315000Y-130300359D01*
X237280064Y-130303800D01*
X237175580Y-130314091D01*
X237041519Y-130354758D01*
X236917967Y-130420798D01*
X236809673Y-130509673D01*
X236720798Y-130617967D01*
X236654758Y-130741519D01*
X236614091Y-130875580D01*
X236600359Y-131015000D01*
X232949641Y-131015000D01*
X232935909Y-130875580D01*
X232895242Y-130741519D01*
X232829202Y-130617967D01*
X232740327Y-130509673D01*
X232632033Y-130420798D01*
X232508481Y-130354758D01*
X232374420Y-130314091D01*
X232269936Y-130303800D01*
X232235000Y-130300359D01*
X232200064Y-130303800D01*
X218299936Y-130303800D01*
X218265000Y-130300359D01*
X218230064Y-130303800D01*
X218125580Y-130314091D01*
X217991519Y-130354758D01*
X217867967Y-130420798D01*
X217759673Y-130509673D01*
X217670798Y-130617967D01*
X217604758Y-130741519D01*
X217564091Y-130875580D01*
X217550359Y-131015000D01*
X213899641Y-131015000D01*
X213885909Y-130875580D01*
X213845242Y-130741519D01*
X213779202Y-130617967D01*
X213690327Y-130509673D01*
X213582033Y-130420798D01*
X213458481Y-130354758D01*
X213324420Y-130314091D01*
X213219936Y-130303800D01*
X213185000Y-130300359D01*
X213150064Y-130303800D01*
X199249936Y-130303800D01*
X199215000Y-130300359D01*
X199180064Y-130303800D01*
X199075580Y-130314091D01*
X198941519Y-130354758D01*
X198817967Y-130420798D01*
X198709673Y-130509673D01*
X198620798Y-130617967D01*
X198554758Y-130741519D01*
X198514091Y-130875580D01*
X198500359Y-131015000D01*
X194849641Y-131015000D01*
X194835909Y-130875580D01*
X194795242Y-130741519D01*
X194729202Y-130617967D01*
X194640327Y-130509673D01*
X194532033Y-130420798D01*
X194408481Y-130354758D01*
X194274420Y-130314091D01*
X194169936Y-130303800D01*
X194135000Y-130300359D01*
X194100064Y-130303800D01*
X180199936Y-130303800D01*
X180165000Y-130300359D01*
X180130064Y-130303800D01*
X180025580Y-130314091D01*
X179891519Y-130354758D01*
X179767967Y-130420798D01*
X179659673Y-130509673D01*
X179570798Y-130617967D01*
X179504758Y-130741519D01*
X179464091Y-130875580D01*
X179450359Y-131015000D01*
X175799641Y-131015000D01*
X175785909Y-130875580D01*
X175745242Y-130741519D01*
X175679202Y-130617967D01*
X175590327Y-130509673D01*
X175482033Y-130420798D01*
X175358481Y-130354758D01*
X175224420Y-130314091D01*
X175119936Y-130303800D01*
X175085000Y-130300359D01*
X175050064Y-130303800D01*
X161149936Y-130303800D01*
X161115000Y-130300359D01*
X161080064Y-130303800D01*
X160975580Y-130314091D01*
X160841519Y-130354758D01*
X160717967Y-130420798D01*
X160609673Y-130509673D01*
X160520798Y-130617967D01*
X160454758Y-130741519D01*
X160414091Y-130875580D01*
X160400359Y-131015000D01*
X156749641Y-131015000D01*
X156735909Y-130875580D01*
X156695242Y-130741519D01*
X156629202Y-130617967D01*
X156540327Y-130509673D01*
X156432033Y-130420798D01*
X156308481Y-130354758D01*
X156174420Y-130314091D01*
X156069936Y-130303800D01*
X156035000Y-130300359D01*
X156000064Y-130303800D01*
X142099936Y-130303800D01*
X142065000Y-130300359D01*
X142030064Y-130303800D01*
X141925580Y-130314091D01*
X141791519Y-130354758D01*
X141667967Y-130420798D01*
X141559673Y-130509673D01*
X141470798Y-130617967D01*
X141404758Y-130741519D01*
X141364091Y-130875580D01*
X141350359Y-131015000D01*
X137699641Y-131015000D01*
X137685909Y-130875580D01*
X137645242Y-130741519D01*
X137579202Y-130617967D01*
X137490327Y-130509673D01*
X137382033Y-130420798D01*
X137258481Y-130354758D01*
X137124420Y-130314091D01*
X137019936Y-130303800D01*
X136985000Y-130300359D01*
X136950064Y-130303800D01*
X123049936Y-130303800D01*
X123015000Y-130300359D01*
X122980064Y-130303800D01*
X122875580Y-130314091D01*
X122741519Y-130354758D01*
X122617967Y-130420798D01*
X122509673Y-130509673D01*
X122420798Y-130617967D01*
X122354758Y-130741519D01*
X122314091Y-130875580D01*
X122300359Y-131015000D01*
X113246500Y-131015000D01*
X113246500Y-124240975D01*
X113928000Y-124240975D01*
X113928000Y-124760025D01*
X114029261Y-125269101D01*
X114227893Y-125748641D01*
X114516262Y-126180215D01*
X114883285Y-126547238D01*
X115314859Y-126835607D01*
X115794399Y-127034239D01*
X116303475Y-127135500D01*
X116822525Y-127135500D01*
X117331601Y-127034239D01*
X117811141Y-126835607D01*
X118242715Y-126547238D01*
X118609738Y-126180215D01*
X118898107Y-125748641D01*
X119096739Y-125269101D01*
X119198000Y-124760025D01*
X119198000Y-124240975D01*
X241681250Y-124240975D01*
X241681250Y-124760025D01*
X241782511Y-125269101D01*
X241981143Y-125748641D01*
X242269512Y-126180215D01*
X242636535Y-126547238D01*
X243068109Y-126835607D01*
X243547649Y-127034239D01*
X244056725Y-127135500D01*
X244575775Y-127135500D01*
X245084851Y-127034239D01*
X245564391Y-126835607D01*
X245995965Y-126547238D01*
X246362988Y-126180215D01*
X246651357Y-125748641D01*
X246849989Y-125269101D01*
X246951250Y-124760025D01*
X246951250Y-124240975D01*
X369434500Y-124240975D01*
X369434500Y-124760025D01*
X369535761Y-125269101D01*
X369734393Y-125748641D01*
X370022762Y-126180215D01*
X370389785Y-126547238D01*
X370821359Y-126835607D01*
X371300899Y-127034239D01*
X371809975Y-127135500D01*
X372329025Y-127135500D01*
X372838101Y-127034239D01*
X373317641Y-126835607D01*
X373749215Y-126547238D01*
X374116238Y-126180215D01*
X374404607Y-125748641D01*
X374603239Y-125269101D01*
X374704500Y-124760025D01*
X374704500Y-124240975D01*
X374603239Y-123731899D01*
X374404607Y-123252359D01*
X374116238Y-122820785D01*
X373749215Y-122453762D01*
X373317641Y-122165393D01*
X372838101Y-121966761D01*
X372329025Y-121865500D01*
X371809975Y-121865500D01*
X371300899Y-121966761D01*
X370821359Y-122165393D01*
X370389785Y-122453762D01*
X370022762Y-122820785D01*
X369734393Y-123252359D01*
X369535761Y-123731899D01*
X369434500Y-124240975D01*
X246951250Y-124240975D01*
X246849989Y-123731899D01*
X246651357Y-123252359D01*
X246362988Y-122820785D01*
X245995965Y-122453762D01*
X245564391Y-122165393D01*
X245084851Y-121966761D01*
X244575775Y-121865500D01*
X244056725Y-121865500D01*
X243547649Y-121966761D01*
X243068109Y-122165393D01*
X242636535Y-122453762D01*
X242269512Y-122820785D01*
X241981143Y-123252359D01*
X241782511Y-123731899D01*
X241681250Y-124240975D01*
X119198000Y-124240975D01*
X119096739Y-123731899D01*
X118898107Y-123252359D01*
X118609738Y-122820785D01*
X118242715Y-122453762D01*
X117811141Y-122165393D01*
X117331601Y-121966761D01*
X116822525Y-121865500D01*
X116303475Y-121865500D01*
X115794399Y-121966761D01*
X115314859Y-122165393D01*
X114883285Y-122453762D01*
X114516262Y-122820785D01*
X114227893Y-123252359D01*
X114029261Y-123731899D01*
X113928000Y-124240975D01*
X113246500Y-124240975D01*
X113246500Y-123087977D01*
X113283401Y-122711631D01*
X113385736Y-122372681D01*
X113551955Y-122060068D01*
X113775735Y-121785687D01*
X114048540Y-121560004D01*
X114359988Y-121391604D01*
X114701185Y-121285986D01*
X115037174Y-121247500D01*
X373537222Y-121247500D01*
X373909378Y-121283990D01*
M02*
